<svg width="8.83mm" height="7.61mm" fill-rule="evenodd" stroke-linejoin="round" stroke-width="28.2" preserveAspectRatio="xMidYMid" version="1.2" viewBox="4488 6806 883 761" xmlns="http://www.w3.org/2000/svg">
 <g class="com.sun.star.drawing.CustomShape" transform="translate(-2.86 -22.9)">
  <rect class="BoundingBox" x="4488" y="7284" width="885" height="283" fill="none"/>
  <path d="m4930 7302c78 0 144 5 212 16s116 26 155 45c39 20 57 39 57 62s-18 42-57 62c-39 19-87 34-155 45s-134 17-212 17-144-6-212-17-116-26-155-45c-39-20-57-39-57-62s18-42 57-62c39-19 87-34 155-45s134-16 212-16z" fill="#fc0"/>
 </g>
 <path transform="matrix(26.5 0 0 26.5 4488 6806)" d="m16.6 3.23c-5.52 0-9.79 3.51-9.79 8.05 0 4.54 9.18 14.3 9.75 14.1s9.83-9.53 9.83-14.1c0-4.54-4.27-8.05-9.79-8.05zm-0.0547 4.87a3.48 3 0 0 1 3.48 2.99 3.48 3 0 0 1-3.48 3 3.48 3 0 0 1-3.48-3 3.48 3 0 0 1 3.48-2.99z" fill="#f21a00"/>
</svg>
