<svg width="481" height="483" version="1.1" viewBox="0 0 481 483" xmlns="http://www.w3.org/2000/svg">
 <path d="m84.5 251 322 158" fill="none" stroke="#000" stroke-width="25"/>
 <path d="m102 258 306-186" fill="none" stroke="#000" stroke-width="25"/>
 <circle cx="102" cy="252" r="102" fill="#7fb2f9" stroke-width=".78"/>
 <path d="m102 150c-8.81 0-17.3 1.12-25.5 3.21 44 11.3 76.4 51.2 76.4 99.1s-32.5 87.4-76.4 99.1c8.11 2.1 16.7 3.21 25.5 3.21 56.3 0 102-45.6 102-102s-45.6-102-102-102z" fill="#60a0f7" stroke-width=".78"/>
 <g transform="matrix(.58 0 0 .58 61.6 128)">
  <circle cx="591" cy="-90" r="131" fill="#7fb2f9"/>
  <path d="m591-221c-11.3 0-22.2 1.43-32.7 4.12 56.4 14.5 98 65.7 98 127s-41.7 112-98 127c10.4 2.69 21.4 4.12 32.7 4.12 72.2 0 131-58.5 131-131s-58.5-131-131-131z" fill="#60a0f7"/>
 </g>
 <g transform="matrix(.58 0 0 .58 62.4 459)">
  <circle cx="591" cy="-90" r="131" fill="#7fb2f9"/>
  <path d="m591-221c-11.3 0-22.2 1.43-32.7 4.12 56.4 14.5 98 65.7 98 127s-41.7 112-98 127c10.4 2.69 21.4 4.12 32.7 4.12 72.2 0 131-58.5 131-131s-58.5-131-131-131z" fill="#60a0f7"/>
 </g>
</svg>
