<svg version="1.1" viewBox="0 -62 512 512" xmlns="http://www.w3.org/2000/svg">
 <path d="m335 171-113-61.9c-6.5-3.56-14.2-3.43-20.6 0.352-6.38 3.78-10.2 10.5-10.2 17.9v123c0 7.38 3.78 14 10.1 17.8 3.31 1.98 6.98 2.97 10.7 2.97 3.37 0 6.74-0.832 9.85-2.5l113-60.8c6.71-3.61 10.9-10.6 10.9-18.2 0.0273-7.63-4.11-14.6-10.8-18.3zm-114 63.6v-91.7l84.5 46.3z" fill="#d40000"/>
 <path d="m508 91.5-0.0234-0.234c-0.434-4.12-4.75-40.8-22.6-59.4-20.6-21.9-43.9-24.6-55.2-25.9-0.93-0.105-1.78-0.203-2.54-0.305l-0.895-0.0938c-67.7-4.92-170-5.59-171-5.6l-0.0898-0.00391-0.0898 0.00391c-1.02 0.00391-103 0.676-172 5.6l-0.902 0.0938c-0.727 0.0977-1.53 0.188-2.4 0.289-11.1 1.28-34.2 3.95-54.9 26.7-17 18.4-21.9 54.3-22.4 58.3l-0.0586 0.523c-0.152 1.71-3.77 42.5-3.77 83.5v38.3c0 41 3.61 81.8 3.77 83.5l0.0273 0.258c0.434 4.05 4.75 40 22.5 58.7 19.4 21.2 43.9 24 57 25.5 2.08 0.238 3.88 0.441 5.1 0.656l1.18 0.164c39.1 3.72 162 5.55 167 5.62l0.156 0.00391 0.156-0.00391c1.02-0.00391 103-0.676 171-5.6l0.895-0.0938c0.855-0.113 1.82-0.215 2.87-0.324 11-1.17 34-3.61 54.4-26 17-18.4 21.9-54.3 22.4-58.3l0.0586-0.523c0.152-1.72 3.77-42.5 3.77-83.5v-38.3c-0.00391-41-3.62-81.8-3.77-83.5zm-26.2 122c0 37.9-3.31 77-3.62 80.6-1.27 9.88-6.45 32.6-14.7 41.6-12.8 14-25.8 15.4-35.4 16.4-1.16 0.121-2.23 0.238-3.2 0.359-65.5 4.73-164 5.46-168 5.49-5.08-0.0742-126-1.92-164-5.44-1.94-0.316-4.04-0.559-6.25-0.809-11.2-1.29-26.6-3.04-38.4-16l-0.277-0.297c-8.12-8.46-13.2-29.7-14.4-41.1-0.238-2.71-3.64-42.2-3.64-80.7v-38.3c0-37.9 3.3-76.9 3.62-80.6 1.52-11.6 6.79-33 14.7-41.6 13.1-14.5 27-16.1 36.2-17.1 0.875-0.102 1.69-0.195 2.45-0.293 66.4-4.76 165-5.46 169-5.49 3.55 0.0234 103 0.734 168 5.49 0.809 0.102 1.69 0.203 2.64 0.312 9.43 1.07 23.7 2.7 36.7 16.6l0.121 0.129c8.12 8.46 13.2 30.1 14.4 41.8 0.227 2.56 3.64 42.2 3.64 80.7z" fill="#d40000"/>
</svg>
