<svg width="88.9" height="77.3" enable-background="new 0 0 100 100" version="1.1" viewBox="0 0 88.9 77.3" xmlns="http://www.w3.org/2000/svg">
 <path d="m64.1 67.1c0 3-2.44 5.45-5.45 5.45h-48.4c-3 0-5.45-2.44-5.45-5.45v-56.9c0-3 2.44-5.45 5.45-5.45h48.4c3 0 5.45 2.44 5.45 5.45v14.6l4.78-6.82v-7.79c0-5.64-4.59-10.2-10.2-10.2h-48.4c-5.64 1e-3 -10.2 4.59-10.2 10.2v56.9c0 5.64 4.59 10.2 10.2 10.2h48.4c5.64 0 10.2-4.59 10.2-10.2v-10.4l-4.78 2.52v7.9z" fill="#083863"/>
 <g fill="#174366">
  <path d="m52.8 19.8h-36.8c-1.32 0-2.39 1.07-2.39 2.39s1.07 2.39 2.39 2.39h36.8c1.32 0 2.39-1.07 2.39-2.39-1e-3 -1.32-1.07-2.39-2.39-2.39z"/>
  <path d="m50.4 39c0-1.32-0.947-2.39-2.12-2.39h-32.5c-1.17 0-2.12 1.07-2.12 2.39s0.947 2.39 2.12 2.39h32.5c1.17 0 2.11-1.07 2.11-2.39z" stroke-width=".941"/>
  <path d="m16 58.3h26.4c1.32 0 2.39-1.07 2.39-2.39s-1.07-2.39-2.39-2.39h-26.4c-1.32 0-2.39 1.07-2.39 2.39s1.07 2.39 2.39 2.39z"/>
 </g>
 <g transform="matrix(.743 .0436 -.0436 .743 19.5 -4.46)" fill="#008000">
  <polygon points="54.7 59.3 67.6 68.3 81.7 48.2 89.4 37.1 76.6 28.1 69.2 38.7"/>
  <path d="m50.4 76.4c-0.192 1.44 0.726 2.11 2.04 1.48l6.79-3.25 5.29-2.77c0.231-0.121 0.502-0.324 0.748-0.549l-12.7-8.87c-0.131 0.308-0.236 0.628-0.281 0.884l-0.863 5.06z"/>
  <path d="m92 21.1-1.27-0.888c-3.18-2.23-7.6-1.45-9.83 1.73l-2.09 2.99 12.8 8.98 2.09-2.98c2.23-3.18 1.45-7.6-1.73-9.83z"/>
 </g>
</svg>
