<svg width="86" height="66" version="1.1" viewBox="0 0 86 66" xmlns="http://www.w3.org/2000/svg">
 <g transform="translate(-7 -969)">
  <path transform="translate(0 952)" d="m16.5 17c-5.21 0-9.53 4.13-9.53 9.28v35.4c0 5.15 4.31 9.31 9.53 9.31h46.8c1.39 6.84 7.45 12 14.7 12 8.26 0 15-6.74 15-15 0-6.5-4.2-12-10-14.1v-27.6c0-5.16-4.35-9.28-9.56-9.28zm0 4h56.9c3.14 0 5.56 2.36 5.56 5.28v20.5l-7.72-6.31a2 2 0 0 0-2.56 0l-10.7 8.94-21.7-17.9a2 2 0 0 0-1.5-0.438 2 2 0 0 0-0.906 0.344l-22.9 15.8v-20.9c0-2.94 2.39-5.28 5.53-5.28zm41.5 2c-4.39 0-8 3.61-8 8 0 4.39 3.61 8 8 8 4.39 0 8-3.61 8-8 0-4.39-3.61-8-8-8zm0 4c2.23 0 4 1.77 4 4 0 2.23-1.77 4-4 4-2.23 0-4-1.77-4-4 0-2.23 1.77-4 4-4zm-23.1 8.5 21.8 18a2 2 0 0 0 2.56 0l10.7-8.94 9 7.34v1.09c-0.332-0.0221-0.663-0.0312-1-0.0312-7.92 0-14.4 6.2-15 14h-46.5c-3.13 0-5.53-2.38-5.53-5.31v-9.66zm43.1 21.5c6.1 0 11 4.9 11 11 0 6.1-4.9 11-11 11s-11-4.9-11-11c0-6.1 4.9-11 11-11zm-0.219 3.97a2 2 0 0 0-1.78 2.03v3h-3a2 2 0 0 0-0.188 0 2 2 0 1 0 0.188 4h3v3a2 2 0 1 0 4 0v-3h3a2 2 0 1 0 0-4h-3v-3a2 2 0 0 0-2.22-2.03z" color="#000000" style="text-decoration-line:none;text-indent:0;text-transform:none"/>
 </g>
</svg>
