<?xml version="1.0"?>
<svg xmlns="http://www.w3.org/2000/svg" id="Layer_1" data-name="Layer 1" viewBox="0 0 512 512" width="512" height="512"><title>Add Photo</title><path d="M399.27,260.19a85.5,85.5,0,1,1-73.01,84.59A85.563,85.563,0,0,1,399.27,260.19Z" style="fill:#00acea"/><path d="M463.74,121.72V276.9a85.6,85.6,0,0,0-64.47-16.71l-69.53-49.25-94.35,92.74-.04-.04L125.34,250.03,14.75,314.17V121.72a40,40,0,0,1,40-40H423.74A40,40,0,0,1,463.74,121.72Zm-213.3,65.2a35.185,35.185,0,1,0-35.18,35.19A35.179,35.179,0,0,0,250.44,186.92Z" style="fill:#fedb41"/><path d="M329.74,210.94l69.53,49.25a85.5,85.5,0,0,0-50.28,142.64H134.5l100.89-99.15Z" style="fill:#00efd1"/><path d="M215.26,151.74a35.185,35.185,0,1,1-35.19,35.18A35.179,35.179,0,0,1,215.26,151.74Z" style="fill:#00efd1"/><path d="M235.39,303.68,134.5,402.83H54.75a40,40,0,0,1-40-40V314.17l110.59-64.14,110.01,53.61Z" style="fill:#00acea"/><path d="M215.26,230.11a43.185,43.185,0,1,0-43.19-43.19A43.234,43.234,0,0,0,215.26,230.11Zm0-70.37a27.185,27.185,0,1,1-27.19,27.18A27.211,27.211,0,0,1,215.26,159.74Z" style="fill:#083863"/><path d="M454,338H419V303a8,8,0,0,0-16,0v35H369a8,8,0,0,0,0,16h34v34a8,8,0,0,0,16,0V354h35a8,8,0,0,0,0-16Z" style="fill:#083863"/><path d="M472,273.072V121.72C472,95.253,450.207,74,423.74,74H54.75A47.6,47.6,0,0,0,7,121.72V362.83C7,389.3,28.283,411,54.75,411H345.6c17.465,17,41.37,27.365,66.154,27.365A93.626,93.626,0,0,0,472,273.072ZM54.75,90H423.74C441.385,90,456,104.075,456,121.72V262.237a94.447,94.447,0,0,0-54.588-10.379L334.4,204.412a8.021,8.021,0,0,0-10.249.823L233.835,294,128.849,242.838a7.757,7.757,0,0,0-7.4.271L23,300.282V121.72A31.585,31.585,0,0,1,54.75,90ZM241,309.47l89.578-88.092L380.471,256.7A93.642,93.642,0,0,0,332.784,395H154.057ZM23,362.83V318.78l102.792-59.692,95.991,46.894L131.227,395H54.75A31.969,31.969,0,0,1,23,362.83Zm388.75,59.45a77.5,77.5,0,1,1,0-155,76.748,76.748,0,0,1,47.12,15.967h0A77.5,77.5,0,0,1,411.75,422.28Z" style="fill:#083863"/></svg>
