<?xml version="1.0" encoding="UTF-8" standalone="no"?>
<svg
   xmlns:dc="http://purl.org/dc/elements/1.1/"
   xmlns:cc="http://creativecommons.org/ns#"
   xmlns:rdf="http://www.w3.org/1999/02/22-rdf-syntax-ns#"
   xmlns:svg="http://www.w3.org/2000/svg"
   xmlns="http://www.w3.org/2000/svg"
   xmlns:sodipodi="http://sodipodi.sourceforge.net/DTD/sodipodi-0.dtd"
   xmlns:inkscape="http://www.inkscape.org/namespaces/inkscape"
   width="8.83mm"
   height="7.61mm"
   fill-rule="evenodd"
   stroke-linejoin="round"
   stroke-width="28.2"
   preserveAspectRatio="xMidYMid"
   version="1.2"
   viewBox="4488 6806 883 761"
   id="svg22"
   sodipodi:docname="location.svg"
   inkscape:version="0.92.4 (5da689c313, 2019-01-14)">
  <metadata
     id="metadata28">
    <rdf:RDF>
      <cc:Work
         rdf:about="">
        <dc:format>image/svg+xml</dc:format>
        <dc:type
           rdf:resource="http://purl.org/dc/dcmitype/StillImage" />
      </cc:Work>
    </rdf:RDF>
  </metadata>
  <defs
     id="defs26" />
  <sodipodi:namedview
     pagecolor="#ffffff"
     bordercolor="#666666"
     borderopacity="1"
     objecttolerance="10"
     gridtolerance="10"
     guidetolerance="10"
     inkscape:pageopacity="0"
     inkscape:pageshadow="2"
     inkscape:window-width="1366"
     inkscape:window-height="705"
     id="namedview24"
     showgrid="false"
     inkscape:zoom="17.436076"
     inkscape:cx="16.686614"
     inkscape:cy="14.381103"
     inkscape:window-x="-8"
     inkscape:window-y="-8"
     inkscape:window-maximized="1"
     inkscape:current-layer="svg22" />
  <g
     class="com.sun.star.drawing.CustomShape"
     id="g6">
    <rect
       class="BoundingBox"
       x="4488"
       y="7284"
       width="885"
       height="283"
       fill="none"
       id="rect2" />
    <path
       d="m4930 7302c78 0 144 5 212 16s116 26 155 45c39 20 57 39 57 62s-18 42-57 62c-39 19-87 34-155 45s-134 17-212 17-144-6-212-17-116-26-155-45c-39-20-57-39-57-62s18-42 57-62c39-19 87-34 155-45s134-16 212-16z"
       fill="#fc0"
       id="path4" />
  </g>
  <rect
     class="BoundingBox"
     x="4653"
     y="6805"
     width="557"
     height="622"
     fill="none"
     id="rect8" />
  <path
     d="m4930 6823c146 0 259 93 259 213s-245 366-260 372-258-252-258-372 113-213 259-213z"
     fill="#fff"
     id="path10" />
  <path
     d="m4930 6823c146 0 259 93 259 213s-245 366-260 372-258-252-258-372 113-213 259-213z"
     fill="#f21a00"
     stroke="#000"
     stroke-linejoin="round"
     stroke-width="35"
     id="path12"
     style="stroke:none" />
  <g
     class="com.sun.star.drawing.CustomShape"
     id="g20">
    <rect
       class="BoundingBox"
       x="4822"
       y="6934"
       width="219"
       height="193"
       fill="none"
       id="rect14" />
    <path
       d="m4931 6952c17 0 31 3 46 10 14 7 25 16 33 29 9 12 13 25 13 39s-4 27-13 39c-8 13-19 22-33 29-15 7-29 11-46 11s-31-4-46-11c-14-7-25-16-33-29-9-12-12-25-12-39s3-27 12-39c8-13 19-22 33-29 15-7 29-10 46-10z"
       fill="#fff"
       id="path16" />
    <path
       d="m4931 6952c17 0 31 3 46 10 14 7 25 16 33 29 9 12 13 25 13 39s-4 27-13 39c-8 13-19 22-33 29-15 7-29 11-46 11s-31-4-46-11c-14-7-25-16-33-29-9-12-12-25-12-39s3-27 12-39c8-13 19-22 33-29 15-7 29-10 46-10z"
       fill="none"
       id="path18" />
  </g>
</svg>
