<svg width="512" height="512" enable-background="new 0 0 464.072 464.072" version="1.1" viewBox="0 0 464 464" xmlns="http://www.w3.org/2000/svg">
 <path d="m0.272 444 15.9-90.2c1.87-10.6 6.94-20.3 14.5-27.9l315-315c13.6-13.6 35.7-13.6 49.3 0l58.6 58.6c13.6 13.6 13.6 35.7-0.01 49.3l-315 315c-7.59 7.59-17.3 12.7-27.9 14.5l-90.2 15.9c-11.9 2.11-22.3-8.28-20.2-20.2z" fill="#ffbd7b"/>
 <path d="m131 381c-4.23 4.23-1.92 11.8 4.42 12.4 12.3 1.21 20.4 9.24 21.6 21.6l297-297c13.6-13.6 13.6-35.7 0.01-49.3l-58.6-58.6c-8.13-8.13-19.3-11.4-29.8-9.83l48.4 48.4c13.6 13.6 13.6 35.7-0.01 49.3z" fill="#ffd3a6"/>
 <path d="m0.272 444c-2.1 11.9 8.28 22.3 20.2 20.2l63.2-11.2c-12.7-33.3-39-59.6-72.3-72.3z" fill="#585966"/>
 <path d="m20.5 464 63.2-11.2c-3.53-9.21-8.1-17.8-12.8-24.8-9.42 1.93-43.1 7.62-66.6 11.8-2.04 0.36-3.64 1.96-4 4-2.1 11.9 8.28 22.3 20.2 20.2z" fill="#6e6f80"/>
 <path d="m16.2 353-4.76 27c33.3 12.7 59.6 39 72.3 72.3l27-4.77c10.6-1.86 20.3-6.93 27.9-14.5 18.2-18.2 18-17.8 18-18-1.21-12.3-9.25-20.4-21.6-21.6-12.3-1.21-20.4-9.24-21.6-21.6-1.21-12.3-9.25-20.4-21.6-21.6-12.3-1.21-20.4-9.24-21.6-21.6-1.21-12.3-9.25-20.4-21.6-21.6l-18 17.9c-7.59 7.59-12.7 17.3-14.5 27.9z" fill="#ffebd2"/>
 <path d="m75.9 436c2.76 4.94 5.53 10.7 7.82 16.7l27-4.77c10.6-1.86 20.3-6.93 27.9-14.5 18.2-18.2 18-17.8 18-18-1.21-12.3-9.25-20.4-21.6-21.6-2.95-0.292-5.65-0.968-8.07-2-2.83-1.21-6.09-0.685-8.26 1.49l-20 20c-5.38 5.38-11.8 9.5-18.9 12.1-4.24 1.56-6 6.57-3.8 10.5z" fill="#fff3e4"/>
 <path d="m142 327c2.05 0 4.1-0.781 5.66-2.34l19.3-19.3c3.12-3.12 3.12-8.19 0-11.3-3.12-3.12-8.19-3.12-11.3 0l-19.3 19.3c-5.06 5.06-1.41 13.7 5.66 13.7z" fill="#fa9a4b"/>
 <path d="m196 272c2.05 0 4.09-0.78 5.66-2.34l113-113c3.12-3.12 3.12-8.19 1e-3 -11.3-3.12-3.12-8.19-3.13-11.3-1e-3l-113 113c-5.06 5.05-1.41 13.7 5.66 13.7z" fill="#fa9a4b"/>
 <path d="m346 10.3-41.6 41.6c1.24 0.73 2.41 1.63 3.47 2.69 111 111 103 102 104 105l41.6-41.6c13.6-13.6 13.6-35.7 0.01-49.3l-58.6-58.6c-13.6-13.6-35.7-13.6-49.3 0z" fill="#ff6d7a"/>
 <path d="m419 69.9c13.7 13.6 13.6 35.7-0.01 49.3l-14.2 14.2c-5 4.99-4.96 13.1 0.063 18.1 5.18 5.11 6.21 6.03 7.55 8.31l41.6-41.6c13.6-13.6 13.6-35.7 0.01-49.3 0 0-59.3-59.3-59.7-59.6-12.1-11.1-29 6.87-17.4 18.5 8.99 9.08 22.2 22.3 42.1 42.1z" fill="#ff8c95"/>
 <path d="m261 76.8c-6.86 6.86-6.77 17.9-0.01 24.7 111 111 102 103 105 104 6.69 3.95 15.4 3.06 21.2-2.69l22.2-22.2c6.7-6.7 6.94-17.7 0-24.7-110-111-102-103-105-104-6.69-3.94-15.4-3.05-21.2 2.7z" fill="#cbe3fa"/>
 <path d="m380 181-7.26 7.26c-9.68 9.67 4.58 25.4 15.1 14.9l22.2-22.2c6.71-6.71 6.93-17.7 0-24.7-108-108-102-102-105-105-10.6-6-21.1 8.07-12.5 16.7 92.6 92.7 88.6 88 90.6 91.4 3.95 6.69 3.06 15.4-2.69 21.2z" fill="#eef7ff"/>
</svg>
