<svg width="35.3" height="42.4" enable-background="new 0 0 100 100" version="1.1" viewBox="0 0 35.3 42.4" xmlns="http://www.w3.org/2000/svg">
 <g transform="matrix(.743 .0436 -.0436 .743 -34.1 -17.8)" fill="#222b32">
  <polygon points="89.4 37.1 76.6 28.1 69.2 38.7 54.7 59.3 67.6 68.3 81.7 48.2"/>
  <path d="m50.4 76.4c-0.192 1.44 0.726 2.11 2.04 1.48l6.79-3.25 5.29-2.77c0.231-0.121 0.502-0.324 0.748-0.549l-12.7-8.87c-0.131 0.308-0.236 0.628-0.281 0.884l-0.863 5.06z"/>
  <path d="m92 21.1-1.27-0.888c-3.18-2.23-7.6-1.45-9.83 1.73l-2.09 2.99 12.8 8.98 2.09-2.98c2.23-3.18 1.45-7.6-1.73-9.83z"/>
 </g>
</svg>
