<svg width="35.7mm" height="36.2mm" version="1.1" viewBox="0 0 35.7 36.3" xmlns="http://www.w3.org/2000/svg">
 <g transform="translate(-80.8,-129)">
  <g opacity=".99" style="font-feature-settings:normal;font-variant-caps:normal;font-variant-ligatures:normal;font-variant-numeric:normal" aria-label="@">
   <path d="m95 147q0 2.41 1.02 3.81 1.04 1.39 2.81 1.39 1.75 0 2.79-1.39 1.04-1.41 1.04-3.81 0-2.38-1.06-3.75-1.04-1.39-2.81-1.39-1.73 0-2.77 1.39-1.02 1.37-1.02 3.75zm8.05 5.91q-0.589 1.39-1.9 2.18-1.3 0.766-3.04 0.766-3.38 0-5.5-2.43-2.1-2.45-2.1-6.38t2.12-6.38 5.48-2.45q1.75 0 3.04 0.785 1.32 0.785 1.9 2.18v-2.57h4.1v13.6q2.43-0.373 3.83-2.34 1.39-1.98 1.39-5.06 0-1.96-0.569-3.67-0.569-1.73-1.73-3.16-1.86-2.39-4.67-3.69-2.79-1.3-6.05-1.3-2.28 0-4.36 0.608-2.08 0.589-3.85 1.75-2.91 1.92-4.53 4.99-1.61 3.04-1.61 6.6 0 2.92 1.04 5.5 1.06 2.55 3.04 4.51 1.96 1.92 4.49 2.92 2.55 1.02 5.44 1.02 2.47 0 4.95-0.923 2.47-0.923 4.22-2.49l2.1 3.18q-2.45 1.9-5.36 2.91-2.89 1.02-5.87 1.02-3.63 0-6.85-1.3-3.22-1.28-5.73-3.73t-3.83-5.67q-1.32-3.24-1.32-6.95 0-3.57 1.33-6.81t3.81-5.69q2.47-2.43 5.75-3.77 3.3-1.33 6.83-1.33 4.4 0 7.99 1.69 3.59 1.67 6.01 4.83 1.47 1.92 2.22 4.18 0.766 2.24 0.766 4.71 0 5.32-3.2 8.26t-9.03 2.94h-0.766z" fill="#217821" stroke-width=".419" style="font-feature-settings:normal;font-variant-caps:normal;font-variant-ligatures:normal;font-variant-numeric:normal"/>
  </g>
 </g>
</svg>
