<svg width="90" height="90" version="1.1" viewBox="0 0 90 90" xmlns="http://www.w3.org/2000/svg">
 <g fill="#6062f7">
  <path d="m0 18.7v35h12.8c0.231 0 0.293-0.276 0.174-0.418-0.185-0.221-0.265-0.32-0.585-0.763-0.641-0.886-1.29-2.26-1.18-4.03 0.109-1.84 1.08-3.31 2.29-4.23 1.22-0.92 2.66-1.37 4.02-1.37 1.37 0 2.81 0.446 4.02 1.37 1.22 0.92 2.18 2.4 2.29 4.23 0.105 1.77-0.542 3.14-1.18 4.03-0.321 0.443-0.4 0.541-0.585 0.763-0.119 0.142-0.0566 0.418 0.174 0.418h12.8v-12.7c0-1.31 0.772-2.23 1.73-1.98 0.797 0.211 1.9 2.31 4.75 2.14 2.85-0.17 4.32-2.86 4.32-4.96 0-2.1-1.47-4.79-4.32-4.96-2.85-0.17-3.96 1.93-4.75 2.14-0.957 0.253-1.73-0.643-1.73-1.95v-12.7z" overflow="visible"/>
  <path d="m17.5 44.2c-2.1 0-4.79 1.47-4.96 4.32-0.17 2.85 1.93 3.96 2.14 4.75 0.253 0.957-0.643 1.73-1.95 1.73h-12.7v35h35v-12.8c0-0.231-0.276-0.293-0.418-0.174-0.221 0.185-0.32 0.265-0.763 0.585-0.886 0.641-2.26 1.29-4.03 1.18-1.84-0.109-3.31-1.08-4.23-2.29-0.92-1.22-1.37-2.66-1.37-4.02 0-1.37 0.446-2.81 1.37-4.02 0.92-1.22 2.4-2.18 4.23-2.29 1.77-0.105 3.14 0.542 4.03 1.18 0.443 0.321 0.541 0.4 0.763 0.585 0.142 0.119 0.418 0.0566 0.418-0.174v-12.8h-12.7c-1.31 0-2.23-0.772-1.98-1.73 0.211-0.797 2.31-1.9 2.14-4.75-0.17-2.85-2.86-4.32-4.96-4.32z"/>
  <path d="m36.3 55v12.7c0 1.31-0.772 2.23-1.73 1.97-0.797-0.211-1.9-2.31-4.75-2.14-2.85 0.17-4.32 2.86-4.32 4.96 0 2.1 1.47 4.79 4.32 4.96 2.85 0.17 3.96-1.93 4.75-2.14 0.957-0.253 1.73 0.643 1.73 1.95v12.7h35v-35h-13c-1.22 0-2.05 0.717-1.81 1.61 0.195 0.739 2.14 1.76 1.99 4.41-0.158 2.65-2.65 4.01-4.6 4.01s-4.45-1.36-4.6-4.01c-0.158-2.65 1.79-3.67 1.99-4.41 0.235-0.888-0.617-1.61-1.83-1.61z" overflow="visible"/>
 </g>
 <path d="m59.5 47.6 11.1-6.18c1.15-0.64 2.32-0.412 2.57 0.547 0.204 0.798-1.09 2.79 0.447 5.2s4.61 2.38 6.44 1.35c1.83-1.02 3.47-3.62 2.22-6.19-1.24-2.58-3.61-2.51-4.19-3.11-0.687-0.712-0.282-1.82 0.864-2.46l11.1-6.19-17-30.5-30.5 17 6.36 11.4c0.593 1.06 1.63 1.44 2.29 0.801 0.55-0.531 0.495-2.73 2.88-3.88 2.39-1.15 4.8 0.363 5.75 2.06s0.979 4.55-1.26 5.98c-2.24 1.43-4.08 0.226-4.82 0.416-0.89 0.228-1.1 1.32-0.507 2.38z" fill="#4dd570" overflow="visible"/>
</svg>
