<svg version="1.1" viewBox="0 0 120 120" xmlns="http://www.w3.org/2000/svg">
 <path d="m114 70.7c2.21 0 4.27-1.79 4.57-3.98 0 0 0.422-3.08 0.422-6.74s-0.422-6.74-0.422-6.74c-0.304-2.19-2.36-3.98-4.57-3.98h-11.4c-2.21 0-4.51-1.41-5.11-3.13s-1.41-7.26 0.16-8.82l8.08-8.08c1.57-1.56 1.69-4.24 0.27-5.94l-9.51-9.51c-1.7-1.42-4.37-1.3-5.94 0.267l-8.08 8.08c-1.56 1.57-4.17 2.2-5.79 1.4s-6.16-4.14-6.16-6.36v-11.4c0-2.21-1.79-4.27-3.98-4.57 0 0-3.08-0.424-6.75-0.424s-6.74 0.424-6.74 0.424c-2.2 0.3-3.99 2.36-3.99 4.57v11.4c0 2.21-1.41 4.51-3.14 5.11s-7.26 1.41-8.82-0.16l-8.08-8.08c-1.57-1.56-4.24-1.68-5.94-0.269l-9.51 9.51c-1.42 1.7-1.3 4.37 0.27 5.94l8.08 8.08c1.56 1.57 2.2 4.17 1.4 5.79s-4.14 6.16-6.35 6.16h-11.4c-2.21 0-4.27 1.79-4.57 3.98 0 0-0.424 3.08-0.424 6.74s0.424 6.74 0.424 6.74c0.3 2.2 2.36 3.99 4.57 3.99h11.4c2.22 0 4.51 1.41 5.11 3.13 0.592 1.72 1.41 7.25-0.155 8.82l-8.08 8.08c-1.56 1.57-1.68 4.24-0.266 5.94l9.51 9.51c1.7 1.42 4.37 1.3 5.94-0.27l8.08-8.08c1.56-1.56 4.17-2.19 5.79-1.4s6.16 4.15 6.16 6.36v11.4c0 2.21 1.8 4.27 3.99 4.57 0 0 3.08 0.428 6.74 0.428s6.74-0.423 6.74-0.423c2.19-0.3 3.99-2.36 3.99-4.57v-11.4c0-2.21 1.41-4.51 3.14-5.11 1.73-0.592 7.26-1.41 8.82 0.154l8.08 8.08c1.56 1.57 4.24 1.69 5.94 0.27l9.51-9.5c1.42-1.7 1.3-4.37-0.27-5.94l-8.08-8.08c-1.56-1.57-2.2-4.18-1.4-5.8 0.793-1.62 4.14-6.16 6.35-6.16h11.4zm-54.2 11c-12 0-21.7-9.71-21.7-21.7 0-12 9.71-21.7 21.7-21.7s21.7 9.71 21.7 21.7-9.71 21.7-21.7 21.7z"/>
</svg>
