<?xml version="1.0" encoding="UTF-8" standalone="no"?>
<svg
   xmlns:dc="http://purl.org/dc/elements/1.1/"
   xmlns:cc="http://creativecommons.org/ns#"
   xmlns:rdf="http://www.w3.org/1999/02/22-rdf-syntax-ns#"
   xmlns:svg="http://www.w3.org/2000/svg"
   xmlns="http://www.w3.org/2000/svg"
   xmlns:sodipodi="http://sodipodi.sourceforge.net/DTD/sodipodi-0.dtd"
   xmlns:inkscape="http://www.inkscape.org/namespaces/inkscape"
   id="Capa_1"
   enable-background="new 0 0 512 512"
   height="276.37701"
   viewBox="0 0 395.70499 276.37701"
   width="395.70499"
   version="1.1"
   sodipodi:docname="websites.svg"
   inkscape:version="0.92.4 (5da689c313, 2019-01-14)">
  <metadata
     id="metadata61">
    <rdf:RDF>
      <cc:Work
         rdf:about="">
        <dc:format>image/svg+xml</dc:format>
        <dc:type
           rdf:resource="http://purl.org/dc/dcmitype/StillImage" />
        <dc:title></dc:title>
      </cc:Work>
    </rdf:RDF>
  </metadata>
  <defs
     id="defs59" />
  <sodipodi:namedview
     pagecolor="#ffffff"
     bordercolor="#666666"
     borderopacity="1"
     objecttolerance="10"
     gridtolerance="10"
     guidetolerance="10"
     inkscape:pageopacity="0"
     inkscape:pageshadow="2"
     inkscape:window-width="1366"
     inkscape:window-height="705"
     id="namedview57"
     showgrid="false"
     inkscape:zoom="0.65186406"
     inkscape:cx="186.15141"
     inkscape:cy="84.033249"
     inkscape:window-x="-8"
     inkscape:window-y="-8"
     inkscape:window-maximized="1"
     inkscape:current-layer="g52" />
  <g
     id="g26"
     transform="translate(-58.987,-161.5)">
    <g
       id="g20">
      <g
         id="g18">
        <circle
           cx="256"
           cy="299.68799"
           r="130.688"
           id="circle14"
           style="fill:#7fb2f9" />
        <path
           d="m 256,169 c -11.28,0 -22.226,1.429 -32.667,4.116 56.37,14.506 98.022,65.675 98.022,126.572 0,60.897 -41.652,112.066 -98.022,126.572 10.441,2.687 21.387,4.116 32.667,4.116 72.177,0 130.688,-58.511 130.688,-130.688 C 386.688,227.511 328.177,169 256,169 Z"
           id="path16"
           inkscape:connector-curvature="0"
           style="fill:#60a0f7" />
      </g>
    </g>
    <path
       d="M 426.515,366.907 H 87.164 c -11.419,0 -20.676,-9.257 -20.676,-20.676 v -93.084 c 0,-11.419 9.257,-20.676 20.676,-20.676 h 339.351 c 11.419,0 20.676,9.257 20.676,20.676 v 93.084 c 0,11.419 -9.257,20.676 -20.676,20.676 z"
       id="path22"
       inkscape:connector-curvature="0"
       style="fill:#c9e0fd" />
    <path
       d="m 426.515,232.47 h -65.333 c 11.419,0 20.676,9.257 20.676,20.676 v 93.084 c 0,11.419 -9.257,20.676 -20.676,20.676 h 65.333 c 11.419,0 20.676,-9.257 20.676,-20.676 v -93.084 c 0,-11.419 -9.257,-20.676 -20.676,-20.676 z"
       id="path24"
       inkscape:connector-curvature="0"
       style="fill:#9bc4f9" />
  </g>
  <g
     id="g52"
     transform="translate(-58.987,-161.5)">
    <path
       inkscape:connector-curvature="0"
       id="path40"
       d="m 196.434,322.891 c 0,4.09 3.315,7.406 7.406,7.406 4.09,0 7.406,-3.316 7.406,-7.406 0,-4.09 -3.316,-7.406 -7.406,-7.406 -4.091,0 -7.406,3.316 -7.406,7.406 z" />
    <path
       inkscape:connector-curvature="0"
       id="path42"
       d="m 301.1,322.891 c 0,4.09 3.316,7.406 7.406,7.406 4.09,0 7.406,-3.316 7.406,-7.406 0,-4.09 -3.316,-7.406 -7.406,-7.406 -4.09,0 -7.406,3.316 -7.406,7.406 z" />
    <path
       inkscape:connector-curvature="0"
       id="path44"
       d="m 176.711,274.354 -8.969,25.589 -8.828,-25.879 c -0.008,-0.022 -0.018,-0.042 -0.026,-0.064 -2.355,-6.7 -11.728,-6.614 -14.115,-0.085 -0.007,0.018 -0.016,0.035 -0.022,0.054 l -9.344,26.219 -8.845,-25.735 c -1.346,-3.917 -5.607,-6.002 -9.53,-4.655 -3.917,1.346 -6.002,5.613 -4.655,9.53 l 15.809,46.001 c 1.036,3.014 3.863,5.044 7.051,5.062 h 0.042 c 3.17,0 6,-1.994 7.064,-4.982 l 9.318,-26.146 8.886,26.05 c 1.032,3.025 3.87,5.064 7.067,5.078 h 0.031 c 3.185,0 6.023,-2.012 7.078,-5.02 l 16.144,-46.056 c 1.37,-3.908 -0.688,-8.188 -4.598,-9.559 -3.906,-1.367 -8.187,0.688 -9.558,4.598 z" />
    <path
       inkscape:connector-curvature="0"
       id="path46"
       d="m 281.081,274.354 -8.969,25.589 -8.828,-25.879 c -0.008,-0.022 -0.018,-0.042 -0.026,-0.064 -2.317,-6.6 -11.688,-6.722 -14.115,-0.085 -0.007,0.018 -0.016,0.035 -0.022,0.054 l -9.344,26.219 -8.844,-25.735 c -1.346,-3.918 -5.612,-6.003 -9.53,-4.655 -3.917,1.346 -6.002,5.613 -4.655,9.53 l 15.808,46.001 c 1.035,3.014 3.863,5.044 7.05,5.062 h 0.043 c 3.17,0 6,-1.994 7.064,-4.982 l 9.318,-26.146 8.887,26.051 c 1.033,3.025 3.87,5.064 7.067,5.078 h 0.031 c 3.185,0 6.023,-2.012 7.078,-5.02 l 16.143,-46.056 c 1.37,-3.908 -0.688,-8.188 -4.598,-9.559 -3.905,-1.368 -8.187,0.688 -9.558,4.597 z" />
    <path
       inkscape:connector-curvature="0"
       id="path48"
       d="m 385.452,274.354 -8.969,25.589 -8.828,-25.879 c -2.326,-6.754 -11.745,-6.701 -14.141,-0.15 -0.007,0.018 -0.016,0.035 -0.022,0.054 l -9.345,26.219 -8.844,-25.735 c -1.346,-3.918 -5.612,-6.003 -9.53,-4.655 -3.917,1.346 -6.002,5.613 -4.655,9.53 l 15.808,46.001 c 1.035,3.014 3.863,5.044 7.05,5.062 h 0.043 c 3.17,0 6,-1.993 7.064,-4.982 l 9.318,-26.146 8.887,26.051 c 1.032,3.025 3.87,5.064 7.067,5.078 h 0.031 c 3.185,0 6.023,-2.012 7.078,-5.02 l 16.144,-46.056 c 1.37,-3.908 -0.688,-8.188 -4.598,-9.559 -3.906,-1.367 -8.188,0.688 -9.558,4.598 z" />
    <path
       inkscape:connector-curvature="0"
       id="path50"
       d="m 58.987,253.146 v 93.084 c 0,15.536 12.64,28.176 28.177,28.176 h 52.581 c 25.496,39.581 69.129,63.471 116.255,63.471 47.081,0 90.735,-23.853 116.255,-63.471 h 54.259 c 15.537,0 28.177,-12.64 28.177,-28.176 v -29.907 c 0,-61.86209 -3.357,-66.75315 -7.5,-66.75315 -4.143,0 -7.5,5.08282 -7.5,66.75315 v 29.907 c 0,7.266 -5.911,13.176 -13.177,13.176 H 87.164 c -7.266,0 -13.177,-5.91 -13.177,-13.176 v -93.084 c 0,-7.266 5.911,-13.177 13.177,-13.177 h 339.351 c 7.266,0 13.177,5.911 13.177,13.177 V 281 c 0,4.143 3.357,66.17788 7.5,66.17788 4.143,0 7.5,-62.03488 7.5,-66.17788 v -27.854 c 0,-15.537 -12.64,-28.177 -28.177,-28.177 h -54.26 C 346.759,185.39 303.126,161.5 256,161.5 c -47.083,0 -90.736,23.855 -116.255,63.47 H 87.164 c -15.537,0 -28.177,12.639 -28.177,28.176 z m 264.755,121.26 h 30.177 c -13.303,17.398 -31.226,31.394 -52.601,39.838 9.845,-11.514 17.181,-25.626 22.424,-39.838 z m -60.242,0 h 44.146 c -8.232,20.006 -23.065,42.911 -44.146,47.63 z m -15,0 v 47.63 c -21.094,-4.722 -35.923,-27.648 -44.146,-47.63 z m -60.242,0 c 5.243,14.21 12.578,28.322 22.424,39.838 -21.384,-8.447 -39.304,-22.447 -52.601,-39.838 z M 353.912,224.97 h -30.17 c -5.256,-14.246 -12.598,-28.345 -22.423,-39.837 21.436,8.468 39.331,22.489 52.593,39.837 z M 263.5,177.341 c 21.094,4.722 35.923,27.648 44.146,47.629 H 263.5 Z m -15,0 v 47.629 h -44.146 c 8.233,-20.006 23.065,-42.91 44.146,-47.629 z m -37.819,7.792 c -9.828,11.496 -17.169,25.597 -22.423,39.837 h -30.17 c 13.26,-17.346 31.153,-31.367 52.593,-39.837 z"
       sodipodi:nodetypes="ssscscsssssssssssssssssscscsscccccccccccccccccccccccccccccccc" />
  </g>
</svg>
