<svg width="754" height="276" enable-background="new 0 0 512 512" version="1.1" viewBox="0 0 754 276" xmlns="http://www.w3.org/2000/svg">
 <circle cx="197" cy="138" r="131" fill="#7fb2f9"/>
 <path d="m197 7c-11.3 0-22.2 1.43-32.7 4.12 56.4 14.5 98 65.7 98 127s-41.7 112-98 127c10.4 2.69 21.4 4.12 32.7 4.12 72.2 0 131-58.5 131-131s-58.5-131-131-131z" fill="#60a0f7"/>
 <path d="m368 205h-339c-11.4 0-20.7-9.26-20.7-20.7v-93.1c0-11.4 9.26-20.7 20.7-20.7h339c11.4 0 20.7 9.26 20.7 20.7v93.1c0 11.4-9.26 20.7-20.7 20.7z" fill="#c9e0fd"/>
 <path d="m368 70h-65.3c11.4 0 20.7 9.26 20.7 20.7v93.1c0 11.4-9.26 20.7-20.7 20.7h65.3c11.4 0 20.7-9.26 20.7-20.7v-93.1c0-11.4-9.26-20.7-20.7-20.7z" fill="#9bc4f9"/>
 <path d="m137 161c0 4.09 3.32 7.41 7.41 7.41s7.41-3.32 7.41-7.41-3.32-7.41-7.41-7.41-7.41 3.32-7.41 7.41z"/>
 <path d="m242 161c0 4.09 3.32 7.41 7.41 7.41s7.41-3.32 7.41-7.41-3.32-7.41-7.41-7.41-7.41 3.32-7.41 7.41z"/>
 <path d="m118 112-8.97 25.6-8.83-25.9c-8e-3 -0.022-0.018-0.042-0.026-0.064-2.36-6.7-11.7-6.61-14.1-0.085-7e-3 0.018-0.016 0.035-0.022 0.054l-9.34 26.2-8.84-25.7c-1.35-3.92-5.61-6-9.53-4.66-3.92 1.35-6 5.61-4.66 9.53l15.8 46c1.04 3.01 3.86 5.04 7.05 5.06h0.042c3.17 0 6-1.99 7.06-4.98l9.32-26.1 8.89 26c1.03 3.02 3.87 5.06 7.07 5.08h0.031c3.18 0 6.02-2.01 7.08-5.02l16.1-46.1c1.37-3.91-0.688-8.19-4.6-9.56-3.91-1.37-8.19 0.688-9.56 4.6z"/>
 <path d="m222 112-8.97 25.6-8.83-25.9c-8e-3 -0.022-0.018-0.042-0.026-0.064-2.32-6.6-11.7-6.72-14.1-0.085-7e-3 0.018-0.016 0.035-0.022 0.054l-9.34 26.2-8.84-25.7c-1.35-3.92-5.61-6-9.53-4.66-3.92 1.35-6 5.61-4.66 9.53l15.8 46c1.04 3.01 3.86 5.04 7.05 5.06h0.043c3.17 0 6-1.99 7.06-4.98l9.32-26.1 8.89 26.1c1.03 3.02 3.87 5.06 7.07 5.08h0.031c3.18 0 6.02-2.01 7.08-5.02l16.1-46.1c1.37-3.91-0.688-8.19-4.6-9.56-3.9-1.37-8.19 0.688-9.56 4.6z"/>
 <path d="m326 112-8.97 25.6-8.83-25.9c-2.33-6.75-11.7-6.7-14.1-0.15-7e-3 0.018-0.016 0.035-0.022 0.054l-9.34 26.2-8.84-25.7c-1.35-3.92-5.61-6-9.53-4.66-3.92 1.35-6 5.61-4.66 9.53l15.8 46c1.04 3.01 3.86 5.04 7.05 5.06h0.043c3.17 0 6-1.99 7.06-4.98l9.32-26.1 8.89 26.1c1.03 3.02 3.87 5.06 7.07 5.08h0.031c3.18 0 6.02-2.01 7.08-5.02l16.1-46.1c1.37-3.91-0.688-8.19-4.6-9.56-3.91-1.37-8.19 0.688-9.56 4.6z"/>
 <path d="m0 91v93.1c0 15.5 12.6 28.2 28.2 28.2h52.6c25.5 39.6 69.1 63.5 116 63.5 47.1 0 90.7-23.9 116-63.5h54.3c15.5 0 28.2-12.6 28.2-28.2v-29.9c0-61.9-3.36-66.8-7.5-66.8s-7.5 5.08-7.5 66.8v29.9c0 7.27-5.91 13.2-13.2 13.2h-339c-7.27 0-13.2-5.91-13.2-13.2v-93.1c0-7.27 5.91-13.2 13.2-13.2h339c7.27 0 13.2 5.91 13.2 13.2v27.9c0 4.14 3.36 66.2 7.5 66.2s7.5-62 7.5-66.2v-27.9c0-15.5-12.6-28.2-28.2-28.2h-54.3c-25.5-39.6-69.1-63.5-116-63.5-47.1 0-90.7 23.9-116 63.5h-52.6c-15.5 0-28.2 12.6-28.2 28.2zm265 121h30.2c-13.3 17.4-31.2 31.4-52.6 39.8 9.84-11.5 17.2-25.6 22.4-39.8zm-60.2 0h44.1c-8.23 20-23.1 42.9-44.1 47.6zm-15 0v47.6c-21.1-4.72-35.9-27.6-44.1-47.6zm-60.2 0c5.24 14.2 12.6 28.3 22.4 39.8-21.4-8.45-39.3-22.4-52.6-39.8zm166-149h-30.2c-5.26-14.2-12.6-28.3-22.4-39.8 21.4 8.47 39.3 22.5 52.6 39.8zm-90.4-47.6c21.1 4.72 35.9 27.6 44.1 47.6h-44.1zm-15 0v47.6h-44.1c8.23-20 23.1-42.9 44.1-47.6zm-37.8 7.79c-9.83 11.5-17.2 25.6-22.4 39.8h-30.2c13.3-17.3 31.2-31.4 52.6-39.8z"/>
 <g transform="matrix(.536 0 0 .536 445 1.84)">
  <g transform="translate(44.8)">
   <path d="m406 332c-29.6 0-55.8 14.6-72.2 36.8l-142-72.6c2.36-8.03 4.01-16.3 4.01-25.1 0-11.9-2.44-23.2-6.66-33.6l148-89.3c16.5 19.4 40.8 32 68.2 32 49.6 0 90-40.4 90-90s-40.4-90-90-90-90 40.4-90 90c0 11.4 2.36 22.3 6.26 32.4l-149 89.6c-16.5-18.8-40.4-30.9-67.4-30.9-49.6 0-90 40.4-90 90s40.4 90 90 90c30.1 0 56.7-15 73-37.8l141 72.4c-2.6 8.41-4.41 17.2-4.41 26.4 0 49.6 40.4 90 90 90s90-40.4 90-90-40.4-90-90-90z"/>
  </g>
 </g>
</svg>
