<svg width="505" height="512" version="1.1" viewBox="0 0 505 512" xmlns="http://www.w3.org/2000/svg">
 <g transform="translate(8.65)">
  <path d="m406 332c-29.6 0-55.8 14.6-72.2 36.8l-142-72.6c2.36-8.03 4.01-16.3 4.01-25.1 0-11.9-2.44-23.2-6.66-33.6l148-89.3c16.5 19.4 40.8 32 68.2 32 49.6 0 90-40.4 90-90s-40.4-90-90-90-90 40.4-90 90c0 11.4 2.36 22.3 6.26 32.4l-149 89.6c-16.5-18.8-40.4-30.9-67.4-30.9-49.6 0-90 40.4-90 90s40.4 90 90 90c30.1 0 56.7-15 73-37.8l141 72.4c-2.6 8.41-4.41 17.2-4.41 26.4 0 49.6 40.4 90 90 90s90-40.4 90-90-40.4-90-90-90z"/>
 </g>
 <g transform="matrix(.78 0 0 .78 -42.6 158)">
  <circle cx="197" cy="138" r="131" fill="#7fb2f9"/>
  <path d="m197 7c-11.3 0-22.2 1.43-32.7 4.12 56.4 14.5 98 65.7 98 127s-41.7 112-98 127c10.4 2.69 21.4 4.12 32.7 4.12 72.2 0 131-58.5 131-131s-58.5-131-131-131z" fill="#60a0f7"/>
  <circle cx="199" cy="138" r="137" fill="none" stroke="#000018" stroke-linecap="round" stroke-linejoin="round" stroke-width="14.3"/>
  <g transform="matrix(.744 0 0 .744 145 -20.3)">
   <circle cx="591" cy="-90" r="131" fill="#7fb2f9"/>
   <path d="m591-221c-11.3 0-22.2 1.43-32.7 4.12 56.4 14.5 98 65.7 98 127s-41.7 112-98 127c10.4 2.69 21.4 4.12 32.7 4.12 72.2 0 131-58.5 131-131s-58.5-131-131-131z" fill="#60a0f7"/>
  </g>
  <g transform="matrix(.744 0 0 .744 146 404)">
   <circle cx="591" cy="-90" r="131" fill="#7fb2f9"/>
   <path d="m591-221c-11.3 0-22.2 1.43-32.7 4.12 56.4 14.5 98 65.7 98 127s-41.7 112-98 127c10.4 2.69 21.4 4.12 32.7 4.12 72.2 0 131-58.5 131-131s-58.5-131-131-131z" fill="#60a0f7"/>
  </g>
 </g>
</svg>
