<svg width="162mm" height="135mm" fill-rule="evenodd" stroke-linejoin="round" stroke-width="28.2" preserveAspectRatio="xMidYMid" version="1.2" viewBox="1719 6919 16203 13462" xmlns="http://www.w3.org/2000/svg">
 <g class="com.sun.star.drawing.CustomShape" transform="translate(0 -10.2)">
  <rect class="BoundingBox" x="1719" y="6919" width="16203" height="12083" fill="none"/>
  <defs>
   <mask id="a">
    <defs>
     <linearGradient id="b" x1="9820" x2="9820" y1="6920" y2="19001" gradientUnits="userSpaceOnUse">
      <stop stop-color="#fff" offset="0"/>
      <stop offset="1"/>
     </linearGradient>
    </defs>
    <path d="m1720 6920h16201v12081h-16201z" fill="url(#b)"/>
   </mask>
  </defs>
  <g mask="url(#a)">
   <path d="m17921 12961c0 1060-374 2101-1085 3020-711 918-1734 1681-2965 2211-1232 530-2629 809-4050 809-1422 0-2819-279-4051-809-1231-530-2254-1293-2965-2211-711-919-1085-1960-1085-3020 0-1061 374-2102 1085-3021 711-918 1734-1681 2965-2211 1232-530 2629-809 4050-809 1422 0 2819 279 4051 809 1231 530 2254 1293 2965 2211 711 919 1085 1960 1085 3020z" fill="#ffee58"/>
  </g>
 </g>
 <g class="com.sun.star.drawing.ClosedBezierShape" transform="translate(0 -10.2)">
  <rect class="BoundingBox" x="13845" y="9485" width="743" height="743" fill="none"/>
  <path d="m14430 9545c54-14 105-34 155-59-24 50-44 101-59 155-37 141-37 288 1 429 14 53 34 106 59 156-50-25-102-45-157-59-140-38-288-38-428-1-53 14-105 35-154 59 24-50 44-101 58-154 37-141 37-289-1-429-14-54-34-107-59-157 50 25 103 45 157 60 69 19 142 28 213 28 73 0 145-9 215-28z" fill="#3090fc"/>
 </g>
 <g class="com.sun.star.drawing.ClosedBezierShape" transform="translate(0 -10.2)">
  <rect class="BoundingBox" x="10173" y="9053" width="743" height="742" fill="none"/>
  <path d="m10758 9114c54-15 106-35 155-59-24 49-44 101-59 154-37 140-37 288 0 429 15 54 35 106 60 156-50-25-103-45-156-59-141-38-289-39-429-1-53 14-105 35-155 59 25-49 45-101 59-155 19-70 28-142 28-215 0-71-9-143-28-213-14-54-35-107-60-157 50 25 103 46 157 61 69 18 141 28 213 28 73 0 145-10 215-28z" fill="#3090fc"/>
 </g>
 <g class="com.sun.star.drawing.ClosedBezierShape" transform="translate(0 -10.2)">
  <rect class="BoundingBox" x="13719" y="9359" width="994" height="994" fill="none"/>
  <path d="m13843 9362c-32.6 0.601-65.4 14.4-87.2 39.1-29.9 30.6-42.5 77.3-29.9 118 4.57 17.1 14.7 31.9 21.1 48.2 58.6 131 76.2 280 49.3 420-12 65.9-35 129-64.3 189-11.4 26.8-12.9 57.5-4.14 85.2 8.21 28.3 28.7 51.9 52.8 68.1 29 18.8 66 22.5 98.8 14.1 19.6-5.85 37-17 56-24.6 100-44.1 211-62 320-55.9 86.4 5.13 172 26.2 251 60.8 13.2 5.3 25.4 12.6 38.5 18 20.6 5.82 42.5 9.08 63.7 4.33 24.4-4.47 47.6-15.7 64.9-33.7 27.7-26.1 40.1-66.4 35.2-104-1.04-15.1-7.58-29.1-13.7-42.8-67.7-132-87.3-287-62.4-433 8.68-54.1 25-107 46.7-157 8.8-22.5 22.4-43.3 26.8-67.3 9.25-45.4-10-95.5-48-123-31.4-23.3-73.9-31.3-111-18.5-17.2 5.83-32.9 15.8-49.9 22.5-147 63.7-316 75.4-470 32.2-46.3-12.4-90.7-30.7-134-51.9-15.9-6.5-33.1-10.2-50.2-9.86zm547 322c-21.2 115-20.8 233 0.51 348-116-21.6-235-21.6-351 0 20.5-116 20.7-235-1.02-351 116 20.6 236 21.6 352-0.025-0.171 0.945-0.342 1.89-0.513 2.84z" fill="#284268"/>
 </g>
 <g class="com.sun.star.drawing.ClosedBezierShape" transform="translate(0 -10.2)">
  <rect class="BoundingBox" x="1e4" y="8927" width="994" height="994" fill="none"/>
  <path d="m10172 8934c-56.6 0.561-109 45.9-117 102-4.16 27 1.9 55.2 15.3 79.1 53.7 112 78.4 237 69 361-6.55 91.5-31.1 182-71.8 264-9.64 19.6-14.6 41.7-12.2 63.5 3.65 42.6 31.3 84 72 99.8 34 14.5 74.3 12.3 107-6.09 87.8-41.9 184-64.9 281-69.7 112-5.09 224 17.1 325 64.7 19.7 9.03 39.4 20.2 61.4 21.6 37.7 3.88 77.4-11.3 102-40.3 14.8-16.2 23.5-36.9 27.3-58.3 5.84-29.7-2.17-60.2-16.8-86.4-34.2-73.6-57.4-153-64.6-234-12.8-130 9.46-264 66.9-381 9.93-19.3 16.4-40.9 15.2-62.9-1.16-43.1-27.3-85-66.7-103-33.6-16.6-74.7-16.5-108 0.965-101 49.8-215 75.3-328 72.7-108-2.11-215-29.3-311-78.1-14.9-6.32-31.2-9.51-47.3-9.25zm195 310c118 22.5 240 22.1 358 0.541-22.9 119-22.9 242 0 361-119-22.8-242-23-361 0 23-119 21.9-243 0.09-362 0.942 0.17 1.88 0.34 2.83 0.51z" fill="#284268"/>
 </g>
 <g class="com.sun.star.drawing.ClosedBezierShape" transform="translate(0 -10.2)">
  <rect class="BoundingBox" x="11979" y="11359" width="462" height="463" fill="none"/>
  <path d="m12372 11427c29 29 49 64 60 103 10 39 10 81 0 120-11 39-31 75-60 103-28 29-64 49-103 60-39 10-80 10-119 0-40-11-74-32-103-60-29-29-49-64-60-103-11-40-10-81 0-120s31-74 59-103c29-28 64-49 104-59 39-11 80-11 119-1 39 11 75 32 103 60z" fill="#284268"/>
 </g>
 <g class="com.sun.star.drawing.ClosedBezierShape" transform="translate(0 -10.2)">
  <rect class="BoundingBox" x="14360" y="14240" width="463" height="463" fill="none"/>
  <path d="m14753 14308c29 29 50 64 60 104 11 39 11 79 0 118-10 39-31 75-59 103-29 29-65 50-104 60-39 11-79 11-118 0-40-10-75-31-104-60-29-28-49-63-59-103-12-39-11-80-1-119s31-75 60-104c29-28 64-49 103-59s80-11 119 1c40 10 75 30 103 59z" fill="#284268"/>
 </g>
 <g class="com.sun.star.drawing.PolyPolygonShape" transform="translate(0 -10.2)">
  <rect class="BoundingBox" x="6686" y="12039" width="5795" height="4887" fill="none"/>
  <path d="m10387 13244 2093 1205-1608 2476-4185-2410 1607-2475z" fill="#d1c4e9"/>
 </g>
 <g class="com.sun.star.drawing.PolyPolygonShape" transform="translate(0 -10.2)">
  <rect class="BoundingBox" x="5311" y="17204" width="3212" height="2958" fill="none"/>
  <path d="m8191 19556-330 604-2549-1746 660-1210 2549 1747z" fill="#ffe082"/>
 </g>
 <g class="com.sun.star.drawing.ClosedBezierShape" transform="translate(0 -10.2)">
  <rect class="BoundingBox" x="6486" y="13851" width="3796" height="4751" fill="none"/>
  <path d="m7716 14033c111-178 348-235 530-126 183 108 240 339 129 517l-562 894 2467 1469-533 848c-261 417-814 553-1246 312l-410 653-1594-948 410-652c-417-265-547-808-286-1225l504-802 183-291z" fill="#ffd54f"/>
 </g>
 <g class="com.sun.star.drawing.ClosedBezierShape" transform="translate(0 -10.2)">
  <rect class="BoundingBox" x="4920" y="11766" width="7561" height="8635" fill="none"/>
  <path d="m8183 11768c-57.4 1.16-114 33.1-142 83.1-528 862-1056 1723-1584 2585-28.8 48.8-29.3 112-1.81 162 15.8 29.6 41.4 53.2 70.7 69.1 106 64.3 212 129 318 193-158 258-316 516-474 774-96.7 163-151 350-155 539-3.01 127 17.4 255 56 376 57.7 180 163 344 301 472 7.94 7.4 16 14.7 24.2 21.8-86.6 142-173 283-260 425-148-90.3-296-181-445-271-58-31.8-135-23.8-186 19.9-19.3 15.6-32.3 37-44.8 58.1-239 390-478 780-717 1170-27.1 46.8-28.3 107-3.15 155 15 29.8 40 54 69.3 70.1 933 569 1865 1138 2798 1706 49.6 29.2 114 28.9 164-0.1 27.9-15.6 49.9-40 65.4-67.9 241-392 482-785 722-1177 22.6-39.2 27.7-87.8 13.4-131-12.4-40.4-41.7-74.5-78.6-94.6-143-87.1-286-174-429-261 87-142 174-283 261-425 176 69.9 369 93.4 556 68.1 211-28 414-116 577-253 96.7-81 179-179 243-288 152-248 304-495 456-743 96 58.3 192 117 288 175 44.8 24.5 102 28.9 149 6.21 32.2-14.8 59.2-40.1 76.2-71.2 528-862 1057-1724 1585-2586 32.9-55.9 25-130-14.2-181-15.2-20.4-36.4-35.5-58.5-47.9-1372-836-2743-1672-4115-2508-26.2-15.1-56.5-23.1-86.5-22.6zm58.3 390c1282 782 2564 1563 3847 2345-472 769-943 1538-1415 2306-898-548-1797-1097-2695-1645l501-816c58.2-98.5 84.8-215 75.2-329-10.3-130-67.5-257-160-350-89.4-90.9-210-151-337-165-137-15.7-280 21.3-392 102-65.4 46.4-120 108-160 177-163 266-326 531-490 797-63.1-38.7-126-77.4-189-116 471-769 943-1538 1414-2306l0.854 0.521zm-249 1670c62.3-0.765 124 26 167 69.8 53.6 53.1 78.1 133 64.2 207-5.91 34.4-20.8 66.6-40 95.6-192 313-384 625-576 938-27.3 47.1-27.8 109-1.92 156 15.2 29 39.6 52.8 68.5 68.2 801 490 1602 979 2404 1469-158 257-316 514-474 771-80.7 127-198 231-335 294-148 68.8-318 89.3-479 57.7-88.1-17-173-49.7-251-94.6-51.1-26.9-116-23.4-165 7.5-26.5 16.1-47.1 40.2-61.9 67.3-109 179-219 358-328 537-456-278-913-556-1369-834 114-187 229-373 343-560 29.3-51.8 26.1-119-7.4-168-14.2-21.9-34.6-38.9-56.7-52.4-128-85.3-229-210-288-351-68.9-165-81.3-353-32.1-525 21.1-74.9 54.2-146 96.1-212 374-611 749-1221 1123-1832 38-59.9 104-102 175-109 7.86-0.823 15.8-1.25 23.7-1.29zm-2123 3739c840 512 1680 1025 2521 1537-184 301-369 603-553 904-841-513-1683-1025-2524-1538 185-301 370-603 555-904l0.854 0.521z" fill="#3b404f"/>
 </g>
 <g class="com.sun.star.drawing.ClosedBezierShape" transform="translate(0 -10.2)">
  <rect class="BoundingBox" x="9061" y="14506" width="1629" height="1115" fill="none"/>
  <path d="m9134 14787c-72-44-94-136-51-208 44-71 137-94 209-51l1324 811c36 22 59 55 68 93s4 79-18 114c-43 72-137 95-208 51z" fill="#3b404f"/>
 </g>
 <g class="com.sun.star.drawing.ClosedBezierShape" transform="translate(0 -10.2)">
  <rect class="BoundingBox" x="9462" y="13907" width="1629" height="1115" fill="none"/>
  <path d="m9535 14188c-72-44-94-136-51-208 44-71 137-94 209-51l1324 811c36 22 59 55 68 93s4 79-18 114c-43 72-137 95-208 51z" fill="#3b404f"/>
 </g>
 <g class="com.sun.star.drawing.ClosedBezierShape" transform="matrix(.973 0 0 .973 -3584 850)">
  <rect class="BoundingBox" x="10173" y="9053" width="743" height="742" fill="none"/>
  <path d="m10758 9114c54-15 106-35 155-59-24 49-44 101-59 154-37 140-37 288 0 429 15 54 35 106 60 156-50-25-103-45-156-59-141-38-289-39-429-1-53 14-105 35-155 59 25-49 45-101 59-155 19-70 28-142 28-215 0-71-9-143-28-213-14-54-35-107-60-157 50 25 103 46 157 61 69 18 141 28 213 28 73 0 145-10 215-28z" fill="#3090fc"/>
 </g>
 <g class="com.sun.star.drawing.ClosedBezierShape" transform="matrix(.973 0 0 .973 -3584 850)">
  <rect class="BoundingBox" x="1e4" y="8927" width="994" height="994" fill="none"/>
  <path d="m10172 8934c-56.6 0.561-109 45.9-117 102-4.16 27 1.9 55.2 15.3 79.1 53.7 112 78.4 237 69 361-6.55 91.5-31.1 182-71.8 264-9.64 19.6-14.6 41.7-12.2 63.5 3.65 42.6 31.3 84 72 99.8 34 14.5 74.3 12.3 107-6.09 87.8-41.9 184-64.9 281-69.7 112-5.09 224 17.1 325 64.7 19.7 9.03 39.4 20.2 61.4 21.6 37.7 3.88 77.4-11.3 102-40.3 14.8-16.2 23.5-36.9 27.3-58.3 5.84-29.7-2.17-60.2-16.8-86.4-34.2-73.6-57.4-153-64.6-234-12.8-130 9.46-264 66.9-381 9.93-19.3 16.4-40.9 15.2-62.9-1.16-43.1-27.3-85-66.7-103-33.6-16.6-74.7-16.5-108 0.965-101 49.8-215 75.3-328 72.7-108-2.11-215-29.3-311-78.1-14.9-6.32-31.2-9.51-47.3-9.25zm195 310c118 22.5 240 22.1 358 0.541-22.9 119-22.9 242 0 361-119-22.8-242-23-361 0 23-119 21.9-243 0.09-362 0.942 0.17 1.88 0.34 2.83 0.51z" fill="#284268"/>
 </g>
 <g class="com.sun.star.drawing.ClosedBezierShape" transform="matrix(.946 0 0 .946 -5690 3866)">
  <rect class="BoundingBox" x="10173" y="9053" width="743" height="742" fill="none"/>
  <path d="m10758 9114c54-15 106-35 155-59-24 49-44 101-59 154-37 140-37 288 0 429 15 54 35 106 60 156-50-25-103-45-156-59-141-38-289-39-429-1-53 14-105 35-155 59 25-49 45-101 59-155 19-70 28-142 28-215 0-71-9-143-28-213-14-54-35-107-60-157 50 25 103 46 157 61 69 18 141 28 213 28 73 0 145-10 215-28z" fill="#3090fc"/>
 </g>
 <g class="com.sun.star.drawing.ClosedBezierShape" transform="matrix(.946 0 0 .946 -5690 3866)">
  <rect class="BoundingBox" x="1e4" y="8927" width="994" height="994" fill="none"/>
  <path d="m10172 8934c-56.6 0.561-109 45.9-117 102-4.16 27 1.9 55.2 15.3 79.1 53.7 112 78.4 237 69 361-6.55 91.5-31.1 182-71.8 264-9.64 19.6-14.6 41.7-12.2 63.5 3.65 42.6 31.3 84 72 99.8 34 14.5 74.3 12.3 107-6.09 87.8-41.9 184-64.9 281-69.7 112-5.09 224 17.1 325 64.7 19.7 9.03 39.4 20.2 61.4 21.6 37.7 3.88 77.4-11.3 102-40.3 14.8-16.2 23.5-36.9 27.3-58.3 5.84-29.7-2.17-60.2-16.8-86.4-34.2-73.6-57.4-153-64.6-234-12.8-130 9.46-264 66.9-381 9.93-19.3 16.4-40.9 15.2-62.9-1.16-43.1-27.3-85-66.7-103-33.6-16.6-74.7-16.5-108 0.965-101 49.8-215 75.3-328 72.7-108-2.11-215-29.3-311-78.1-14.9-6.32-31.2-9.51-47.3-9.25zm195 310c118 22.5 240 22.1 358 0.541-22.9 119-22.9 242 0 361-119-22.8-242-23-361 0 23-119 21.9-243 0.09-362 0.942 0.17 1.88 0.34 2.83 0.51z" fill="#284268"/>
 </g>
</svg>
