<?xml version="1.0" encoding="UTF-8" standalone="no"?>
<svg
   width="100"
   height="100"
   version="1.1"
   viewBox="0 0 100 100"
   xml:space="preserve"
   id="svg6"
   sodipodi:docname="categories_keywords.svg"
   inkscape:version="1.1.1 (3bf5ae0d25, 2021-09-20)"
   xmlns:inkscape="http://www.inkscape.org/namespaces/inkscape"
   xmlns:sodipodi="http://sodipodi.sourceforge.net/DTD/sodipodi-0.dtd"
   xmlns="http://www.w3.org/2000/svg"
   xmlns:svg="http://www.w3.org/2000/svg"><defs
     id="defs10" /><sodipodi:namedview
     id="namedview8"
     pagecolor="#ffffff"
     bordercolor="#666666"
     borderopacity="1.0"
     inkscape:pageshadow="2"
     inkscape:pageopacity="0.0"
     inkscape:pagecheckerboard="0"
     showgrid="false"
     inkscape:zoom="2.552473"
     inkscape:cx="42.116019"
     inkscape:cy="50.735111"
     inkscape:window-width="1366"
     inkscape:window-height="705"
     inkscape:window-x="-8"
     inkscape:window-y="-8"
     inkscape:window-maximized="1"
     inkscape:current-layer="g828" /><g
     id="g828"
     transform="translate(-3.0473093,-0.55405623)"><g
       id="g847"
       transform="matrix(1.3470573,0,0,1.3470573,-21.474831,-17.699117)"><g
         id="g840"><g
           transform="translate(7.4962813,-1.8353017)"
           id="g4"
           style="fill:#00af00;fill-opacity:0.881579"><path
             d="M 61,59.8 60.6,60.2 59.4,59 c 2.7,-3.5 4.2,-7.7 4.2,-12.2 0,-5.3 -2.1,-10.3 -5.8,-14.1 -8,-8 -21.3,-7.8 -28.9,0.8 -7,7.8 -6.6,20.1 0.9,27.5 3.9,3.8 8.9,5.7 14,5.7 4.3,0 8.6,-1.4 12.2,-4.2 l 1.2,1.2 -0.5,0.3 12.9,12.9 c 1.2,1.2 3.1,1.2 4.2,0 1.2,-1.2 1.2,-3.1 0,-4.2 z M 33.1,57.3 c -5.8,-5.8 -5.8,-15.3 0,-21.1 2.9,-2.9 6.7,-4.4 10.6,-4.4 3.8,0 7.6,1.5 10.6,4.4 2.8,2.8 4.4,6.6 4.4,10.6 0,4 -1.6,7.7 -4.4,10.6 -5.9,5.7 -15.3,5.7 -21.2,-0.1 z"
             id="path2"
             style="fill:#00af00;fill-opacity:0.881579" /></g></g><g
         id="g1936"
         transform="matrix(0.92516704,0,0,0.92516704,85.873687,43.81074)"
         style="fill:#5dcd47;fill-opacity:0.881579"><path
           d="m -29.582234,1.1493319 h -5.912077 v -5.912076 c 0,-0.66649 -0.542171,-1.208661 -1.20866,-1.208661 -0.66649,0 -1.208661,0.542171 -1.208661,1.208661 v 5.912076 h -5.912076 c -0.66649,0 -1.208661,0.54217 -1.208661,1.20866 0,0.66649 0.542171,1.208661 1.208661,1.208661 h 5.912076 v 5.912076 c 0,0.6664901 0.542171,1.2086611 1.208661,1.2086611 0.666489,0 1.20866,-0.542171 1.20866,-1.2086611 v -5.912076 h 5.912077 c 0.66649,0 1.20866,-0.542171 1.20866,-1.208661 0,-0.66649 -0.538717,-1.20866 -1.20866,-1.20866 z"
           id="path1921"
           style="fill:#5dcd47;fill-opacity:0.881579;stroke-width:0.345332" /></g></g></g></svg>
