<?xml version="1.0" encoding="UTF-8" standalone="no"?>
<svg
   width="700pt"
   height="700pt"
   version="1.1"
   viewBox="0 0 700 700"
   id="svg150"
   sodipodi:docname="goal.svg"
   inkscape:version="1.1.1 (3bf5ae0d25, 2021-09-20)"
   xmlns:inkscape="http://www.inkscape.org/namespaces/inkscape"
   xmlns:sodipodi="http://sodipodi.sourceforge.net/DTD/sodipodi-0.dtd"
   xmlns="http://www.w3.org/2000/svg"
   xmlns:svg="http://www.w3.org/2000/svg">
  <sodipodi:namedview
     id="namedview152"
     pagecolor="#ffffff"
     bordercolor="#666666"
     borderopacity="1.0"
     inkscape:pageshadow="2"
     inkscape:pageopacity="0.0"
     inkscape:pagecheckerboard="0"
     inkscape:document-units="pt"
     showgrid="false"
     inkscape:zoom="0.87"
     inkscape:cx="431.03448"
     inkscape:cy="481.03448"
     inkscape:window-width="1920"
     inkscape:window-height="1001"
     inkscape:window-x="-9"
     inkscape:window-y="-9"
     inkscape:window-maximized="1"
     inkscape:current-layer="g148" />
  <defs
     id="defs68">
    <symbol
       id="v"
       overflow="visible">
      <path
         d="m20.609-1.2344c-1.0625 0.55469-2.1719 0.96875-3.3281 1.25-1.1484 0.28125-2.3438 0.42188-3.5938 0.42188-3.7422 0-6.7031-1.0391-8.8906-3.125-2.1797-2.0938-3.2656-4.9258-3.2656-8.5 0-3.582 1.0859-6.4141 3.2656-8.5 2.1875-2.0938 5.1484-3.1406 8.8906-3.1406 1.25 0 2.4453 0.14062 3.5938 0.42188 1.1562 0.27344 2.2656 0.68359 3.3281 1.2344v4.6406c-1.0742-0.72656-2.1328-1.2578-3.1719-1.5938-1.043-0.34375-2.1367-0.51562-3.2812-0.51562-2.0625 0-3.6875 0.66406-4.875 1.9844-1.1797 1.3242-1.7656 3.1484-1.7656 5.4688 0 2.3125 0.58594 4.1328 1.7656 5.4531 1.1875 1.3242 2.8125 1.9844 4.875 1.9844 1.1445 0 2.2383-0.17188 3.2812-0.51562 1.0391-0.34375 2.0977-0.87891 3.1719-1.6094z"
         id="path2" />
    </symbol>
    <symbol
       id="d"
       overflow="visible">
      <path
         d="m15.078-12.25c-0.46875-0.21875-0.9375-0.37891-1.4062-0.48438-0.46094-0.10156-0.92969-0.15625-1.4062-0.15625-1.375 0-2.4375 0.44531-3.1875 1.3281-0.74219 0.88672-1.1094 2.1562-1.1094 3.8125v7.75h-5.3906v-16.828h5.3906v2.7656c0.6875-1.1016 1.4766-1.9062 2.375-2.4062 0.89453-0.50781 1.9688-0.76562 3.2188-0.76562 0.17578 0 0.36719 0.011719 0.57812 0.03125 0.21875 0.011719 0.52344 0.042969 0.92188 0.09375z"
         id="path5" />
    </symbol>
    <symbol
       id="b"
       overflow="visible">
      <path
         d="m19.375-8.4531v1.5312h-12.562c0.125 1.2617 0.57812 2.2109 1.3594 2.8438 0.78125 0.625 1.875 0.9375 3.2812 0.9375 1.125 0 2.2812-0.16406 3.4688-0.5 1.1875-0.33203 2.4062-0.84375 3.6562-1.5312v4.1562c-1.2734 0.48047-2.543 0.83984-3.8125 1.0781-1.2734 0.25-2.543 0.375-3.8125 0.375-3.043 0-5.4062-0.76953-7.0938-2.3125-1.6875-1.5508-2.5312-3.7227-2.5312-6.5156 0-2.75 0.82812-4.9102 2.4844-6.4844 1.6562-1.5703 3.9375-2.3594 6.8438-2.3594 2.6328 0 4.7422 0.79688 6.3281 2.3906 1.5938 1.5938 2.3906 3.7266 2.3906 6.3906zm-5.5312-1.7969c0-1.0195-0.29688-1.8438-0.89062-2.4688s-1.3711-0.9375-2.3281-0.9375c-1.043 0-1.8906 0.29688-2.5469 0.89062-0.64844 0.58594-1.0547 1.4219-1.2188 2.5156z"
         id="path8" />
    </symbol>
    <symbol
       id="j"
       overflow="visible">
      <path
         d="m10.125-7.5781c-1.125 0-1.9688 0.19531-2.5312 0.57812-0.5625 0.38672-0.84375 0.94922-0.84375 1.6875 0 0.67969 0.22266 1.2109 0.67188 1.5938 0.45703 0.38672 1.0938 0.57812 1.9062 0.57812 1.0078 0 1.8594-0.35938 2.5469-1.0781 0.69531-0.72656 1.0469-1.6406 1.0469-2.7344v-0.625zm8.2188-2.0156v9.5938h-5.4219v-2.5c-0.71875 1.0234-1.5312 1.7656-2.4375 2.2344-0.89844 0.46875-1.9922 0.70312-3.2812 0.70312-1.75 0-3.168-0.50391-4.25-1.5156-1.0859-1.0195-1.625-2.3438-1.625-3.9688 0-1.9688 0.67578-3.4102 2.0312-4.3281 1.3516-0.92578 3.4844-1.3906 6.3906-1.3906h3.1719v-0.42188c0-0.85156-0.33984-1.4766-1.0156-1.875-0.66797-0.39453-1.7148-0.59375-3.1406-0.59375-1.1484 0-2.2148 0.11719-3.2031 0.34375-0.99219 0.23047-1.9141 0.57812-2.7656 1.0469v-4.1094c1.1445-0.28125 2.2969-0.49219 3.4531-0.64062 1.1641-0.14453 2.332-0.21875 3.5-0.21875 3.0312 0 5.2188 0.60156 6.5625 1.7969 1.3516 1.1992 2.0312 3.1484 2.0312 5.8438z"
         id="path11" />
    </symbol>
    <symbol
       id="c"
       overflow="visible">
      <path
         d="m8.4531-21.609v4.7812h5.5469v3.8438h-5.5469v7.1406c0 0.78125 0.15625 1.3125 0.46875 1.5938 0.3125 0.27344 0.92578 0.40625 1.8438 0.40625h2.7656v3.8438h-4.6094c-2.125 0-3.6328-0.44141-4.5156-1.3281-0.88672-0.88281-1.3281-2.3906-1.3281-4.5156v-7.1406h-2.6719v-3.8438h2.6719v-4.7812z"
         id="path14" />
    </symbol>
    <symbol
       id="i"
       overflow="visible">
      <path
         d="m14.031-14.359v-9.0156h5.4062v23.375h-5.4062v-2.4375c-0.74219 0.99219-1.5586 1.7188-2.4531 2.1875-0.88672 0.45703-1.918 0.6875-3.0938 0.6875-2.0742 0-3.7773-0.82031-5.1094-2.4688-1.3359-1.6445-2-3.7656-2-6.3594s0.66406-4.7109 2-6.3594c1.332-1.6562 3.0352-2.4844 5.1094-2.4844 1.1641 0 2.1953 0.23438 3.0938 0.70312 0.89453 0.46875 1.7109 1.1953 2.4531 2.1719zm-3.5469 10.891c1.1562 0 2.0352-0.42188 2.6406-1.2656 0.60156-0.84375 0.90625-2.0625 0.90625-3.6562 0-1.6016-0.30469-2.8281-0.90625-3.6719-0.60547-0.84375-1.4844-1.2656-2.6406-1.2656-1.1484 0-2.0234 0.42188-2.625 1.2656-0.60547 0.84375-0.90625 2.0703-0.90625 3.6719 0 1.5938 0.30078 2.8125 0.90625 3.6562 0.60156 0.84375 1.4766 1.2656 2.625 1.2656z"
         id="path17" />
    </symbol>
    <symbol
       id="g"
       overflow="visible">
      <path
         d="m11.531-3.4688c1.1562 0 2.0352-0.42188 2.6406-1.2656 0.60156-0.84375 0.90625-2.0625 0.90625-3.6562 0-1.6016-0.30469-2.8281-0.90625-3.6719-0.60547-0.84375-1.4844-1.2656-2.6406-1.2656-1.1484 0-2.0273 0.42969-2.6406 1.2812-0.61719 0.84375-0.92188 2.0625-0.92188 3.6562 0 1.5859 0.30469 2.8047 0.92188 3.6562 0.61328 0.84375 1.4922 1.2656 2.6406 1.2656zm-3.5625-10.891c0.73828-0.97656 1.5547-1.7031 2.4531-2.1719 0.90625-0.46875 1.9414-0.70312 3.1094-0.70312 2.0703 0 3.7734 0.82812 5.1094 2.4844 1.332 1.6484 2 3.7656 2 6.3594s-0.66797 4.7148-2 6.3594c-1.3359 1.6484-3.0391 2.4688-5.1094 2.4688-1.168 0-2.2031-0.23438-3.1094-0.70312-0.89844-0.46875-1.7148-1.1914-2.4531-2.1719v2.4375h-5.3906v-23.375h5.3906z"
         id="path20" />
    </symbol>
    <symbol
       id="f"
       overflow="visible">
      <path
         d="m0.375-16.828h5.375l4.5312 11.422 3.8438-11.422h5.375l-7.0781 18.422c-0.71094 1.875-1.5391 3.1797-2.4844 3.9219-0.94922 0.75-2.1992 1.125-3.75 1.125h-3.1094v-3.5312h1.6875c0.90625 0 1.5664-0.14844 1.9844-0.4375 0.41406-0.29297 0.73828-0.8125 0.96875-1.5625l0.15625-0.46875z"
         id="path23" />
    </symbol>
    <symbol
       id="h"
       overflow="visible">
      <path
         d="m11.812-13.75c0.90625 0 1.5938-0.19531 2.0625-0.59375 0.47656-0.40625 0.71875-1 0.71875-1.7812 0-0.76953-0.24219-1.3594-0.71875-1.7656-0.46875-0.40625-1.1562-0.60938-2.0625-0.60938h-3.2031v4.75zm0.1875 9.8125c1.1641 0 2.0391-0.24219 2.625-0.73438 0.58203-0.48828 0.875-1.2266 0.875-2.2188 0-0.97656-0.29297-1.707-0.875-2.1875-0.57422-0.48828-1.4492-0.73438-2.625-0.73438h-3.3906v5.875zm5.375-8.0625c1.25 0.35547 2.2109 1.0234 2.8906 2 0.67578 0.96875 1.0156 2.1641 1.0156 3.5781 0 2.1562-0.73047 3.7656-2.1875 4.8281-1.4609 1.0625-3.6836 1.5938-6.6719 1.5938h-9.5938v-22.422h8.6719c3.1133 0 5.3672 0.46875 6.7656 1.4062 1.4062 0.9375 2.1094 2.4453 2.1094 4.5156 0 1.0938-0.25781 2.0273-0.76562 2.7969-0.51172 0.76172-1.2578 1.3281-2.2344 1.7031z"
         id="path26" />
    </symbol>
    <symbol
       id="a"
       overflow="visible">
      <path
         d="m10.594-13.391c-1.1992 0-2.1094 0.43359-2.7344 1.2969-0.625 0.85547-0.9375 2.0898-0.9375 3.7031 0 1.6055 0.3125 2.8398 0.9375 3.7031 0.625 0.85547 1.5352 1.2812 2.7344 1.2812 1.1641 0 2.0625-0.42578 2.6875-1.2812 0.625-0.86328 0.9375-2.0977 0.9375-3.7031 0-1.6133-0.3125-2.8477-0.9375-3.7031-0.625-0.86328-1.5234-1.2969-2.6875-1.2969zm0-3.8438c2.8945 0 5.1562 0.78125 6.7812 2.3438s2.4375 3.7305 2.4375 6.5c0 2.7617-0.8125 4.9219-2.4375 6.4844s-3.8867 2.3438-6.7812 2.3438c-2.9062 0-5.1797-0.78125-6.8125-2.3438-1.6367-1.5625-2.4531-3.7227-2.4531-6.4844 0-2.7695 0.81641-4.9375 2.4531-6.5 1.6328-1.5625 3.9062-2.3438 6.8125-2.3438z"
         id="path29" />
    </symbol>
    <symbol
       id="e"
       overflow="visible">
      <path
         d="m18.172-14.031c0.6875-1.0391 1.4922-1.832 2.4219-2.375 0.9375-0.55078 1.9688-0.82812 3.0938-0.82812 1.9375 0 3.4102 0.60156 4.4219 1.7969 1.0078 1.1875 1.5156 2.918 1.5156 5.1875v10.25h-5.4062v-8.7656c0.007812-0.13281 0.015625-0.26953 0.015625-0.40625 0.007813-0.14453 0.015625-0.34766 0.015625-0.60938 0-1.1875-0.17969-2.0469-0.53125-2.5781-0.35547-0.53906-0.92188-0.8125-1.7031-0.8125-1.0234 0-1.8086 0.42188-2.3594 1.2656-0.55469 0.83594-0.83984 2.0469-0.85938 3.6406v8.2656h-5.4062v-8.7656c0-1.8633-0.16406-3.0625-0.48438-3.5938-0.32422-0.53906-0.89844-0.8125-1.7188-0.8125-1.0312 0-1.8281 0.42188-2.3906 1.2656-0.55469 0.84375-0.82812 2.0547-0.82812 3.625v8.2812h-5.4219v-16.828h5.4219v2.4688c0.65625-0.94531 1.4102-1.6602 2.2656-2.1406 0.85156-0.48828 1.7969-0.73438 2.8281-0.73438 1.1641 0 2.1914 0.28125 3.0781 0.84375 0.89453 0.5625 1.5703 1.3516 2.0312 2.3594z"
         id="path32" />
    </symbol>
    <symbol
       id="u"
       overflow="visible">
      <path
         d="m18.438-21.719v4.75c-1.2422-0.55078-2.4492-0.96875-3.625-1.25-1.168-0.28125-2.2734-0.42188-3.3125-0.42188-1.375 0-2.3984 0.19531-3.0625 0.57812-0.65625 0.375-0.98438 0.96484-0.98438 1.7656 0 0.60547 0.21875 1.0742 0.65625 1.4062 0.44531 0.33594 1.2578 0.62109 2.4375 0.85938l2.4688 0.5c2.4883 0.5 4.2578 1.2617 5.3125 2.2812 1.0508 1.0234 1.5781 2.4766 1.5781 4.3594 0 2.4688-0.73438 4.3086-2.2031 5.5156-1.4688 1.2109-3.7109 1.8125-6.7188 1.8125-1.4297 0-2.8594-0.13672-4.2969-0.40625-1.4297-0.26953-2.8555-0.67188-4.2812-1.2031v-4.875c1.4258 0.76172 2.8047 1.3359 4.1406 1.7188 1.3438 0.38672 2.6328 0.57812 3.875 0.57812 1.2578 0 2.2227-0.20703 2.8906-0.625 0.67578-0.42578 1.0156-1.0312 1.0156-1.8125 0-0.69531-0.23047-1.2344-0.6875-1.6094-0.44922-0.38281-1.3555-0.72656-2.7188-1.0312l-2.2344-0.5c-2.25-0.47656-3.8984-1.2422-4.9375-2.2969-1.0312-1.0508-1.5469-2.4688-1.5469-4.25 0-2.2383 0.71875-3.957 2.1562-5.1562 1.4453-1.1953 3.5234-1.7969 6.2344-1.7969 1.2266 0 2.4922 0.09375 3.7969 0.28125 1.3008 0.17969 2.6484 0.45312 4.0469 0.82812z"
         id="path35" />
    </symbol>
    <symbol
       id="t"
       overflow="visible">
      <path
         d="m2.5781-23.375h5.3906v23.375h-5.3906z"
         id="path38" />
    </symbol>
    <symbol
       id="s"
       overflow="visible">
      <path
         d="m15.734-16.297v4.0781c-1.1562-0.47656-2.2734-0.83594-3.3438-1.0781-1.0742-0.23828-2.0859-0.35938-3.0312-0.35938-1.0234 0-1.7812 0.13281-2.2812 0.39062-0.49219 0.25-0.73438 0.64062-0.73438 1.1719 0 0.42969 0.1875 0.76172 0.5625 1 0.375 0.23047 1.0469 0.39844 2.0156 0.5l0.95312 0.14062c2.75 0.34375 4.5977 0.91797 5.5469 1.7188 0.95703 0.80469 1.4375 2.0625 1.4375 3.7812 0 1.793-0.66406 3.1406-1.9844 4.0469-1.3242 0.89844-3.2969 1.3438-5.9219 1.3438-1.1172 0-2.2656-0.089844-3.4531-0.26562-1.1875-0.17578-2.4062-0.4375-3.6562-0.78125v-4.0938c1.0703 0.52344 2.1719 0.91406 3.2969 1.1719 1.125 0.26172 2.2695 0.39062 3.4375 0.39062 1.0508 0 1.8438-0.14453 2.375-0.4375 0.53125-0.28906 0.79688-0.72266 0.79688-1.2969 0-0.47656-0.18359-0.83203-0.54688-1.0625-0.36719-0.23828-1.0938-0.42188-2.1875-0.54688l-0.95312-0.125c-2.3867-0.30078-4.0625-0.85938-5.0312-1.6719-0.96094-0.8125-1.4375-2.0391-1.4375-3.6875 0-1.7812 0.60938-3.1016 1.8281-3.9688 1.2188-0.86328 3.0938-1.2969 5.625-1.2969 0.98828 0 2.0312 0.078125 3.125 0.23438 1.0938 0.14844 2.2812 0.38281 3.5625 0.70312z"
         id="path41" />
    </symbol>
    <symbol
       id="r"
       overflow="visible">
      <path
         d="m13.656-23.375v3.5312h-2.9688c-0.76172 0-1.293 0.14062-1.5938 0.42188-0.30469 0.27344-0.45312 0.74609-0.45312 1.4219v1.1719h4.5938v3.8438h-4.5938v12.984h-5.375v-12.984h-2.6875v-3.8438h2.6875v-1.1719c0-1.832 0.50781-3.1875 1.5312-4.0625 1.0195-0.875 2.6016-1.3125 4.75-1.3125z"
         id="path44" />
    </symbol>
    <symbol
       id="q"
       overflow="visible">
      <path
         d="m19.5-10.25v10.25h-5.4062v-7.8125c0-1.4688-0.039062-2.4766-0.10938-3.0312-0.0625-0.55078-0.17188-0.95703-0.32812-1.2188-0.21094-0.35156-0.49609-0.625-0.85938-0.8125-0.35547-0.19531-0.76562-0.29688-1.2344-0.29688-1.1172 0-1.9961 0.43359-2.6406 1.2969-0.63672 0.86719-0.95312 2.0625-0.95312 3.5938v8.2812h-5.3906v-23.375h5.3906v9.0156c0.80078-0.97656 1.6562-1.7031 2.5625-2.1719 0.91406-0.46875 1.9258-0.70312 3.0312-0.70312 1.9453 0 3.4219 0.60156 4.4219 1.7969 1.0078 1.1875 1.5156 2.918 1.5156 5.1875z"
         id="path47" />
    </symbol>
    <symbol
       id="p"
       overflow="visible">
      <path
         d="m2.8281-22.422h6.4531l8.1562 15.375v-15.375h5.4844v22.422h-6.4531l-8.1562-15.391v15.391h-5.4844z"
         id="path50" />
    </symbol>
    <symbol
       id="o"
       overflow="visible">
      <path
         d="m2.4062-6.5469v-10.281h5.4062v1.6875c0 0.90625-0.007812 2.0547-0.015625 3.4375-0.011719 1.375-0.015625 2.293-0.015625 2.75 0 1.3555 0.03125 2.3281 0.09375 2.9219 0.070312 0.59375 0.19531 1.0273 0.375 1.2969 0.21875 0.35547 0.50391 0.625 0.85938 0.8125 0.35156 0.1875 0.75781 0.28125 1.2188 0.28125 1.125 0 2.0039-0.42578 2.6406-1.2812 0.64453-0.86328 0.96875-2.0625 0.96875-3.5938v-8.3125h5.375v16.828h-5.375v-2.4375c-0.8125 0.98047-1.6719 1.7031-2.5781 2.1719s-1.9023 0.70312-2.9844 0.70312c-1.9492 0-3.4336-0.59375-4.4531-1.7812-1.0117-1.1953-1.5156-2.9297-1.5156-5.2031z"
         id="path53" />
    </symbol>
    <symbol
       id="n"
       overflow="visible">
      <path
         d="m19.5-10.25v10.25h-5.4062v-7.8438c0-1.4453-0.039062-2.4453-0.10938-3-0.0625-0.55078-0.17188-0.95703-0.32812-1.2188-0.21094-0.35156-0.49609-0.625-0.85938-0.8125-0.35547-0.19531-0.76562-0.29688-1.2344-0.29688-1.1172 0-1.9961 0.43359-2.6406 1.2969-0.63672 0.86719-0.95312 2.0625-0.95312 3.5938v8.2812h-5.3906v-16.828h5.3906v2.4688c0.80078-0.97656 1.6562-1.7031 2.5625-2.1719 0.91406-0.46875 1.9258-0.70312 3.0312-0.70312 1.9453 0 3.4219 0.60156 4.4219 1.7969 1.0078 1.1875 1.5156 2.918 1.5156 5.1875z"
         id="path56" />
    </symbol>
    <symbol
       id="m"
       overflow="visible">
      <path
         d="m2.8281-22.422h9.5938c2.8516 0 5.0391 0.63672 6.5625 1.9062 1.5312 1.2617 2.2969 3.0625 2.2969 5.4062 0 2.3555-0.76562 4.168-2.2969 5.4375-1.5234 1.2617-3.7109 1.8906-6.5625 1.8906h-3.8125v7.7812h-5.7812zm5.7812 4.1875v6.2656h3.2031c1.1133 0 1.9766-0.26953 2.5938-0.8125 0.61328-0.55078 0.92188-1.3281 0.92188-2.3281s-0.30859-1.7695-0.92188-2.3125c-0.61719-0.53906-1.4805-0.8125-2.5938-0.8125z"
         id="path59" />
    </symbol>
    <symbol
       id="l"
       overflow="visible">
      <path
         d="m2.5781-16.828h5.3906v16.531c0 2.25-0.54297 3.9688-1.625 5.1562-1.0859 1.1875-2.6523 1.7812-4.7031 1.7812h-2.6562v-3.5312h0.92188c1.0195 0 1.7188-0.23047 2.0938-0.6875 0.38281-0.46094 0.57812-1.3672 0.57812-2.7188zm0-6.5469h5.3906v4.3906h-5.3906z"
         id="path62" />
    </symbol>
    <symbol
       id="k"
       overflow="visible">
      <path
         d="m16.172-16.297v4.3906c-0.73047-0.5-1.4648-0.86719-2.2031-1.1094-0.73047-0.25-1.4922-0.375-2.2812-0.375-1.5 0-2.6719 0.44531-3.5156 1.3281-0.83594 0.875-1.25 2.1016-1.25 3.6719 0 1.5742 0.41406 2.7969 1.25 3.6719 0.84375 0.875 2.0156 1.3125 3.5156 1.3125 0.84375 0 1.6406-0.125 2.3906-0.375 0.75781-0.25 1.457-0.61719 2.0938-1.1094v4.3906c-0.83594 0.3125-1.6875 0.54688-2.5625 0.70312-0.86719 0.15625-1.7305 0.23438-2.5938 0.23438-3.043 0-5.418-0.77344-7.125-2.3281-1.7109-1.5625-2.5625-3.7266-2.5625-6.5 0-2.7812 0.85156-4.9453 2.5625-6.5 1.707-1.5625 4.082-2.3438 7.125-2.3438 0.875 0 1.7383 0.078125 2.5938 0.23438 0.86328 0.15625 1.7188 0.39062 2.5625 0.70312z"
         id="path65" />
    </symbol>
  </defs>
  <g
     id="g148">
    <path
       d="m 448.1071,170.15 c -3.34843,-4.4844 -9.20707,-7.2109 -15.50558,-7.2109 -6.28012,0 -12.1384,2.7266 -15.49134,7.2109 L 281.97289,350.74 213.53993,259.299 c -3.25585,-4.3516 -8.86443,-7.0508 -14.95901,-7.2109 -6.23838,-0.0117 -11.8835,2.2695 -15.44036,6.457 l -149.175069,175.48 c -5.90037,6.9336 -4.010725,16.598 4.219158,21.574 3.232719,1.9453 6.965535,2.8984 10.665982,2.8984 5.705809,0 11.332894,-2.2461 14.912764,-6.457 l 63.000435,-74.125 27.69497,24.566 c 6.97478,6.1797 18.57633,6.4297 25.90823,0.55469 l 28.44546,-22.801 36.21723,19.832 -62.12427,83.027 c -5.40478,7.2109 -2.8436,16.77 5.71968,21.324 8.5494,4.5547 19.88289,2.3945 25.28222,-4.8203 l 71.65667,-95.762 c 0,0 0,-0.0117 0.009,-0.0117 0.009,0 0,0 0.009,-0.0117 l 24.96804,-33.367 30.5203,26.129 c 3.4364,2.9492 8.13728,4.6016 13.05133,4.6016 h 0.0277 c 4.91843,0 9.62393,-1.668 13.07386,-4.6406 l 26.56506,-22.875 26.73224,22.898 c 3.45041,2.9531 8.15116,4.6172 13.06912,4.6172 h 0.0139 c 4.91845,0 9.63319,-1.668 13.06913,-4.6406 l 26.69074,-22.953 27.31556,23.066 c 3.57537,3.0156 8.26699,4.5273 12.9636,4.5273 4.67764,0 9.34603,-1.4883 12.91262,-4.4922 l 29.30267,-24.543 97.0456,129.75 c 3.49663,4.6641 9.434,7.2109 15.5198,7.2109 3.34844,0 6.72936,-0.76953 9.7629,-2.3828 8.56801,-4.5547 11.12446,-14.109 5.72893,-21.336 z m -254.05525,179.28 -25.65333,20.555 -19.88645,-17.645 48.55481,-57.113 52.89893,70.684 -33.30888,-18.246 c -7.10449,-3.8828 -16.46949,-3.1758 -22.60508,1.7656 z m 319.6439,14.473 -27.49221,-23.207 c -3.43642,-2.8984 -8.1048,-4.5273 -12.9636,-4.5273 h -0.0879 c -4.8907,0.0234 -9.57758,1.6914 -12.99562,4.6406 l -26.59352,22.875 -26.74646,-22.898 c -3.4504,-2.9492 -8.15116,-4.6172 -13.06913,-4.6172 h -0.0139 c -4.91844,0.0117 -9.63318,1.6797 -13.08335,4.6406 l -26.56507,22.875 -23.44331,-20.062 101.94933,-136.24 103.20966,137.99 z"
       id="path70"
       style="stroke-width:1.08886" />
    <path
       d="m200.54 61.73c-22.844 0-44.078 11.082-57.27 29.109-3.6602-0.79297-7.3711-1.1875-11.109-1.1875-30.469 0-55.254 24.781-55.254 55.242 0 30.43 24.789 55.195 55.254 55.195l114.95-0.003906c23.551 0 48.898-12.512 48.898-40 0-17.312-10.324-32.344-25.473-39.016-5.5703-33.617-34.836-59.34-69.992-59.34zm46.492 107.43h-114.86c-13.414 0-24.324-10.879-24.324-24.266 0-13.414 10.91-24.312 24.324-24.312 3.6016 0 7.2734 0.93359 10.906 2.7891 3.7617 1.9258 8.1367 2.2109 12.117 0.84375 3.9805-1.3984 7.2266-4.3398 8.9766-8.1836 6.4844-14.195 20.77-23.367 36.371-23.367 22.074 0 40.031 17.98 40.031 40.375 0 7.9062 5.9648 14.527 13.828 15.371 6.0938 0.64453 10.684 5.6758 10.684 11.68-0.003907 8.3867-17.48 9.0586-18.051 9.0703z"
       id="path72" />
    <path
       style="fill:#2ca05a;stroke-width:1.53257;fill-opacity:1"
       d="m 576.56025,280.47324 c -16.72581,18.07887 -30.79071,38.68874 -46.07399,58.05232 -29.18701,39.16244 -59.33477,77.71195 -86.46237,118.33731 -0.70714,4.17029 4.97581,6.87622 7.2086,9.88911 6.71754,5.49436 12.95773,12.87817 21.02415,16.06277 15.50342,-9.20741 27.10008,-24.1379 42.91039,-32.79454 10.08911,-3.4171 21.76903,-1.29512 29.33953,6.47673 11.52047,8.36213 21.39319,19.44999 33.73069,26.43005 15.52862,-9.57929 27.54301,-24.26699 43.4402,-33.23679 11.05214,-3.55823 23.00047,0.6381 31.16647,8.47879 10.98603,7.75603 19.98228,18.66749 32.01599,24.74902 10.43607,-5.25171 19.33581,-13.61892 27.50764,-21.93112 2.67935,-3.3179 -4.17447,-6.22246 -4.81547,-9.28969 -41.69964,-55.35873 -82.29336,-111.5813 -125.14665,-166.05231 -1.80477,-1.7247 -3.28202,-4.57011 -5.84518,-5.17165 z"
       id="path1881"
       transform="scale(0.75)" />
    <path
       style="fill:#b7c8b7;stroke-width:1.53257;fill-opacity:1"
       d="m 262.32938,397.71911 c -13.31025,10.78082 -23.71572,24.9668 -35.2224,37.64744 -8.82873,11.07332 -19.12727,21.38076 -26.09225,33.72693 2.32852,7.5184 10.49674,11.64013 15.81978,16.98689 3.17381,2.08611 7.24423,7.34638 11.06375,3.26051 14.62665,-8.77188 26.04887,-23.13257 42.44791,-28.7087 14.07611,-2.69499 26.10756,8.19903 38.32166,13.46759 3.90911,1.18929 8.79465,5.74383 12.88165,3.36296 1.09154,-5.23563 -5.15117,-9.101 -7.04934,-13.56599 -15.82761,-21.79954 -31.21429,-44.06684 -48.74493,-64.53207 -0.93666,-0.84165 -2.06789,-1.82219 -3.42583,-1.64556 z"
       id="path1920"
       transform="scale(0.75)" />
    <path
       style="fill:#80ffe6;stroke-width:1.53257;fill-opacity:1"
       d="m 265.88093,123.98303 c -19.86596,0.21604 -38.06299,12.90877 -46.84582,30.45303 -4.60784,8.51174 -14.22213,14.60668 -23.99874,11.22486 -9.46393,-2.72213 -19.51844,-7.22438 -29.30361,-2.82417 -18.36936,5.55333 -26.58493,28.67466 -18.07651,45.29229 5.74997,12.03593 19.66964,18.04291 32.5697,16.73534 51.26371,0.39127 102.56615,0.73112 153.8123,-0.73318 7.10493,-0.008 17.86728,-1.78828 18.89818,-10.40545 0.48705,-9.18894 -8.23475,-15.00642 -16.34565,-16.44216 -10.2033,-2.3168 -16.47609,-12.69056 -16.01786,-22.76177 -1.60672,-25.73167 -23.05553,-49.18809 -49.27263,-50.41981 -1.80303,-0.13082 -3.61235,-0.16762 -5.41936,-0.11898 z"
       id="path1996"
       transform="scale(0.75)" />
  </g>
</svg>
