<?xml version="1.0" encoding="UTF-8"?>
<svg width="100" height="90" enable-background="new 0 0 90 90" version="1.1" viewBox="0 0 100 90" xmlns="http://www.w3.org/2000/svg">
 <path d="m50.45 14.565c-0.6655 0-1.21 0.54148-1.21 1.21v4.84c0 0.6655 0.54148 1.21 1.21 1.21 0.6655 0 1.21-0.54148 1.21-1.21v-4.84c0-0.6655-0.54148-1.21-1.21-1.21zm-17.122 7.0785c-0.30976 0-0.6171 0.12282-0.85305 0.35937-0.4725 0.4725-0.4725 1.2282 0 1.7l3.4243 3.4243c0.4725 0.4725 1.2282 0.4725 1.7 0 0.4725-0.4725 0.4725-1.2282 0-1.7l-3.4243-3.4243c-0.23595-0.23656-0.54148-0.35937-0.85305-0.35937zm34.243 0c-0.30976 0-0.6171 0.12282-0.85305 0.35937l-3.4243 3.4243c-0.4725 0.4725-0.4725 1.2282 0 1.7 0.4725 0.4725 1.2282 0.4725 1.7 0l3.4243-3.4243c0.4725-0.4725 0.4725-1.2282 0-1.7-0.23656-0.23656-0.54087-0.35937-0.85305-0.35937zm-17.122 2.5894c-7.986 0-15.73 6.2315-15.73 15.004 0 5.5539 2.1598 9.075 4.1624 11.918s3.7026 4.9005 3.7026 8.1675v7.26c0 2.051 1.7 3.63 3.63 3.63h0.605c0 1.9904 1.6396 3.63 3.63 3.63s3.63-1.6396 3.63-3.63h0.605c1.93 0 3.63-1.579 3.63-3.63v-7.26c0-3.2488 1.7061-5.324 3.7026-8.1675s4.1624-6.3525 4.1624-11.918c0-8.833-7.744-15.004-15.73-15.004zm0 2.42c6.776 0 13.31 5.2272 13.31 12.584 0 4.9489-1.7726 7.744-3.7026 10.527-1.7364 2.4563-3.7026 4.8944-4.0838 8.349h-11.011c-0.38418-3.4424-2.3474-5.8806-4.0838-8.349-1.936-2.7406-3.7026-5.56-3.7026-10.527 0-7.381 6.534-12.584 13.31-12.584zm-3.5574 2.4744c-0.16577 6.05e-4 -0.33456 0.02341-0.51062 0.07562-3.7389 1.4096-6.534 4.6888-7.26 8.712-0.11374 0.62315 0.35937 1.3068 0.9801 1.4157 0.62315 0.11374 1.2826-0.35937 1.3976-0.9801 0.56507-3.1762 2.783-5.7898 5.7294-6.897 0.52574-0.19542 0.8712-0.79255 0.7744-1.3431-0.20086-0.726-0.63525-0.98615-1.1374-0.9801zm-20.63 9.6195c-0.6655 0-1.21 0.54148-1.21 1.21s0.54148 1.21 1.21 1.21h4.84c0.6655 0 1.21-0.54148 1.21-1.21s-0.54148-1.21-1.21-1.21zm43.56 0c-0.6655 0-1.21 0.54148-1.21 1.21s0.54148 1.21 1.21 1.21h4.84c0.6655 0 1.21-0.54148 1.21-1.21s-0.54148-1.21-1.21-1.21zm-24.805 21.78h10.89v2.42h-10.89zm0 4.84h10.89v1.21c0 0.726-0.58382 1.21-1.21 1.21h-8.47c-0.6292 0-1.21-0.48279-1.21-1.21zm4.235 4.84h2.42c0 0.6897-0.51848 1.21-1.21 1.21s-1.21-0.51848-1.21-1.21z" color="#000000" enable-background="accumulate" overflow="visible" stroke-width=".605" style="text-indent:0;text-transform:none"/>
 <path d="m44.867 57.072c-0.41257-1.8596-1.1135-3.24-3.271-6.4417-2.401-3.563-3.3136-5.3141-3.8365-7.3612-1.4957-5.8552 0.46332-11.107 5.3335-14.298 4.3647-2.8598 9.76-2.9292 14.479-0.18627 1.4244 0.82791 3.6942 3.1325 4.481 4.5496 1.8245 3.2862 2.0975 7.0608 0.7924 10.956-0.64236 1.9173-1.1034 2.7478-3.3912 6.1086-2.0613 3.0281-3.0364 4.9266-3.356 6.5349l-0.22521 1.133h-10.785zm-3.756-17.915c0.16406-0.11996 0.41883-0.67972 0.56616-1.2439 0.66443-2.5444 2.4857-4.8004 4.8798-6.0446 1.3374-0.69505 1.6839-1.15 1.4836-1.948-0.05944-0.23684-0.29865-0.55549-0.53157-0.7081-0.38929-0.25507-0.49733-0.25421-1.3377 0.01069-2.8986 0.91371-5.712 3.9324-6.768 7.262-0.52026 1.6404-0.52635 1.8533-0.06955 2.4341 0.3983 0.50635 1.2536 0.62084 1.7773 0.23792z" fill="#ffde46" stroke-width=".17308"/>
 <g fill="#c0d9ff">
  <path d="m45.102 61.788v-1.125h10.731v2.25h-10.731z" stroke-width=".17308"/>
  <path d="m45.836 67.58c-0.43974-0.17666-0.73306-0.80193-0.73306-1.5626v-0.50796h10.731v0.76628c0 0.62168-0.08606 0.83398-0.45603 1.125-0.43479 0.342-0.65854 0.3582-4.8029 0.34774-2.3908-6e-3 -4.5232-0.08183-4.7388-0.16843z" stroke-width=".17308"/>
  <path d="m50.212 71.361c-0.2034-0.05329-0.34983-0.13342-0.50413-0.2759-0.21016-0.19406-0.34146-0.45479-0.37555-0.7458l-0.01458-0.1244h2.4046l-3.2e-4 0.07031c-5.78e-4 0.12678-0.06409 0.34429-0.1462 0.50071-0.25015 0.4765-0.82107 0.71725-1.3638 0.57507z" stroke-width=".021635"/>
  <g transform="translate(-9.9361)" stroke-width=".010817">
   <path d="m56.12 67.775c-0.32774-0.02968-0.63584-0.19335-0.83729-0.44479-0.08713-0.10876-0.17858-0.28831-0.21944-0.43089l-0.02945-0.10276-0.0074-1.4225h6.9782v0.1298h-6.9663v0.36c0 0.46956 0.02113 0.648 0.10946 0.92439 0.13923 0.43569 0.41344 0.7583 0.69102 0.813 0.19822 0.03907 0.93362 0.08226 1.8606 0.10928 0.91528 0.02668 1.4215 0.03386 2.8206 0.04001 1.2367 0.0054 1.4847 9e-3 1.4847 0.02115 0 0.01225-0.46979 0.01437-2.8963 0.01311-1.593-8.3e-4 -2.9377-0.0053-2.9883-0.0098z"/>
   <path d="m59.392 67.736c-1.5975-0.01657-3.2298-0.08276-3.5532-0.14408-0.10215-0.01937-0.2225-0.09189-0.33169-0.19986-0.23558-0.23295-0.38231-0.57372-0.44151-1.0254-0.01507-0.11495-0.03785-0.6463-0.03826-0.89232l-1.67e-4 -0.10006h6.9772v0.12978l-6.9718 0.0054 6.9718 0.0054v2.2284l-1.1926-0.0025c-0.65594-0.0014-1.2948-0.0035-1.4198-0.0048z"/>
   <path d="m55.028 61.734v-1.2061h6.9772v0.1298h-6.9663v2.2608h3.4832c2.3149 0 3.4832 0.0036 3.4832 0.01082 0 0.0072-1.1701 0.01082-3.4886 0.01082h-3.4886z"/>
   <path d="m55.028 61.734v-1.2061h6.9772v0.12978l-6.9718 0.0054 6.9718 0.0054v2.2392l-3.4859 0.0027c-3.3156 0.0025-3.3794 0.0029-1.3062 0.0081 1.1988 3e-3 2.1456 0.0091 2.104 0.01348-0.04165 0.0044-1.0237 0.0081-2.1824 0.0081l-2.1067 7.7e-5z"/>
  </g>
 </g>
 <path d="m50.824 71.412c-0.43987-0.02957-0.81345-0.27747-0.9975-0.66192-0.06523-0.13626-0.10882-0.30047-0.11476-0.43234l-0.0018-0.04032 0.0055 0.04102c0.0094 0.0698 0.01773 0.11726 0.02928 0.16608 0.07133 0.3015 0.25477 0.56137 0.51776 0.73349 0.25088 0.16419 0.60817 0.22573 0.9129 0.15723 0.0356-8e-3 0.03811-0.0081 0.03811-0.0017 0 0.0082-0.03057 0.01596-0.10742 0.02718-0.09494 0.01387-0.1884 0.01762-0.28206 0.01133z" fill="#00112b" stroke-width=".0039062"/>
 <path d="m49.689 71.006c-0.57387-0.57387-0.43505-0.69318 0.80648-0.69318 1.0562 0 1.1099 0.01298 1.0471 0.25302-0.18797 0.7188-1.3088 0.98496-1.8536 0.44017z" fill="#b7bec8" stroke-width=".125"/>
</svg>
