<svg width="120" height="90" enable-background="new 0 0 90 90" version="1.1" viewBox="0 0 120 90" xmlns="http://www.w3.org/2000/svg">
 <g transform="matrix(.605 0 0 .605 30.2 -562)">
  <path d="m50 953c-1.1 0-2 0.895-2 2v8c0 1.1 0.895 2 2 2 1.1 0 2-0.895 2-2v-8c0-1.1-0.895-2-2-2zm-28.3 11.7c-0.512 0-1.02 0.203-1.41 0.594-0.781 0.781-0.781 2.03 0 2.81l5.66 5.66c0.781 0.781 2.03 0.781 2.81 0 0.781-0.781 0.781-2.03 0-2.81l-5.66-5.66c-0.39-0.391-0.895-0.594-1.41-0.594zm56.6 0c-0.512 0-1.02 0.203-1.41 0.594l-5.66 5.66c-0.781 0.781-0.781 2.03 0 2.81 0.781 0.781 2.03 0.781 2.81 0l5.66-5.66c0.781-0.781 0.781-2.03 0-2.81-0.391-0.391-0.894-0.594-1.41-0.594zm-28.3 4.28c-13.2 0-26 10.3-26 24.8 0 9.18 3.57 15 6.88 19.7s6.12 8.1 6.12 13.5v12c0 3.39 2.81 6 6 6h1c0 3.29 2.71 6 6 6s6-2.71 6-6h1c3.19 0 6-2.61 6-6v-12c0-5.37 2.82-8.8 6.12-13.5s6.88-10.5 6.88-19.7c0-14.6-12.8-24.8-26-24.8zm0 4c11.2 0 22 8.64 22 20.8 0 8.18-2.93 12.8-6.12 17.4-2.87 4.06-6.12 8.09-6.75 13.8h-18.2c-0.635-5.69-3.88-9.72-6.75-13.8-3.2-4.53-6.12-9.19-6.12-17.4 0-12.2 10.8-20.8 22-20.8zm-5.88 4.09c-0.274 1e-3 -0.553 0.0387-0.844 0.125-6.18 2.33-10.8 7.75-12 14.4-0.188 1.03 0.594 2.16 1.62 2.34 1.03 0.188 2.12-0.594 2.31-1.62 0.934-5.25 4.6-9.57 9.47-11.4 0.869-0.323 1.44-1.31 1.28-2.22-0.332-1.2-1.05-1.63-1.88-1.62zm-34.1 15.9c-1.1 0-2 0.895-2 2s0.895 2 2 2h8c1.1 0 2-0.895 2-2s-0.895-2-2-2zm72 0c-1.1 0-2 0.895-2 2s0.895 2 2 2h8c1.1 0 2-0.895 2-2s-0.895-2-2-2zm-41 36h18v4h-18zm0 8h18v2c0 1.2-0.965 2-2 2h-14c-1.04 0-2-0.798-2-2zm7 8h4c0 1.14-0.857 2-2 2s-2-0.857-2-2z" color="#000000" enable-background="accumulate" overflow="visible" style="text-indent:0;text-transform:none"/>
 </g>
</svg>
