<?xml version="1.0" encoding="UTF-8"?>
<!-- Created with Inkscape (http://www.inkscape.org/) -->
<svg width="320" height="370" version="1.1" viewBox="0 0 300 346.88" xmlns="http://www.w3.org/2000/svg" xmlns:cc="http://creativecommons.org/ns#" xmlns:dc="http://purl.org/dc/elements/1.1/" xmlns:rdf="http://www.w3.org/1999/02/22-rdf-syntax-ns#">
 <defs>
  <clipPath id="clipPath4495">
   <path d="m698.97 972.13h25.11v-95.874h-25.11z"/>
  </clipPath>
  <clipPath id="clipPath4519">
   <path d="m488.49 791.57s-1.836-47.093 0-63.145c3.953-34.526 3.026-53.269 8.103-64.097l-14.278 9.046s-13.704-14.742-13.704-21.678c0 0-9.61 8.323-9.61-5.55v-13.873l-6.472-15.258s7.044-9.104 13.867-16.118c10.207-26.085 44.132-60.177 44.132-60.177l0.153-0.015 18.041-263.42-0.254-0.569s13.773-55.714 31.048-48.686c8.503 3.459 23.452 26.377 38.438 53.5l0.169 0.015-0.045 0.21c15.418 27.93 30.855 60.271 39.333 80.432 16.74 39.807 50.369 105.59 76.28 116.13l-72.332 49.334-65.143-144.81-35.063 162.14 13.735 58.762s-9.28 35.459-17.216 50.72c-1.832 3.522-5.499 5.49-10.053 6.436-15.039 40.382-27.456 133.08-36.683 133.09-0.842 0-1.657-0.771-2.446-2.425"/>
  </clipPath>
  <clipPath id="clipPath4527">
   <path d="m519.52 303.47h91.311v-91.311h-91.311z"/>
  </clipPath>
  <clipPath id="clipPath4531">
   <path d="m519.52 303.47h91.311v-91.311h-91.311z"/>
  </clipPath>
  <clipPath id="clipPath4535">
   <path d="m519.83 303.16h90.692v-90.691h-90.692z"/>
  </clipPath>
  <clipPath id="clipPath4539">
   <path d="m520.14 302.85h90.072v-90.075h-90.072z"/>
  </clipPath>
  <clipPath id="clipPath4543">
   <path d="m520.45 302.54h89.453v-89.453h-89.453z"/>
  </clipPath>
  <clipPath id="clipPath4547">
   <path d="m520.76 302.23h88.834v-88.834h-88.834z"/>
  </clipPath>
  <clipPath id="clipPath4551">
   <path d="m521.07 301.92h88.215v-88.215h-88.215z"/>
  </clipPath>
  <clipPath id="clipPath4555">
   <path d="m521.38 301.61h87.596v-87.597h-87.596z"/>
  </clipPath>
  <clipPath id="clipPath4559">
   <path d="m521.69 301.3h86.977v-86.979h-86.977z"/>
  </clipPath>
  <clipPath id="clipPath4563">
   <path d="m522 300.99h86.358v-86.357h-86.358z"/>
  </clipPath>
  <clipPath id="clipPath4567">
   <path d="m522.31 300.68h85.739v-85.739h-85.739z"/>
  </clipPath>
  <clipPath id="clipPath4571">
   <path d="m522.62 300.38h85.12v-85.121h-85.12z"/>
  </clipPath>
  <clipPath id="clipPath4575">
   <path d="m522.93 300.06h84.501v-84.502h-84.501z"/>
  </clipPath>
  <clipPath id="clipPath4579">
   <path d="m523.24 299.76h83.882v-83.883h-83.882z"/>
  </clipPath>
  <clipPath id="clipPath4583">
   <path d="m523.55 299.44h83.263v-83.261h-83.263z"/>
  </clipPath>
  <clipPath id="clipPath4587">
   <path d="m523.86 299.14h82.644v-82.645h-82.644z"/>
  </clipPath>
  <clipPath id="clipPath4591">
   <path d="m524.17 298.83h82.025v-82.025h-82.025z"/>
  </clipPath>
  <clipPath id="clipPath4595">
   <path d="m524.48 298.52h81.406v-81.407h-81.406z"/>
  </clipPath>
  <clipPath id="clipPath4599">
   <path d="m524.79 298.21h80.786v-80.787h-80.786z"/>
  </clipPath>
  <clipPath id="clipPath4603">
   <path d="m525.1 297.9h80.168v-80.168h-80.168z"/>
  </clipPath>
  <clipPath id="clipPath4607">
   <path d="m525.41 297.59h79.548v-79.549h-79.548z"/>
  </clipPath>
  <clipPath id="clipPath4611">
   <path d="m525.72 297.28h78.93v-78.929h-78.93z"/>
  </clipPath>
  <clipPath id="clipPath4615">
   <path d="m526.02 296.97h78.31v-78.313h-78.31z"/>
  </clipPath>
  <clipPath id="clipPath4619">
   <path d="m526.33 296.66h77.691v-77.693h-77.691z"/>
  </clipPath>
  <clipPath id="clipPath4623">
   <path d="m526.64 296.35h77.072v-77.073h-77.072z"/>
  </clipPath>
  <clipPath id="clipPath4627">
   <path d="m526.95 296.04h76.454v-76.453h-76.454z"/>
  </clipPath>
  <clipPath id="clipPath4631">
   <path d="m527.26 295.73h75.834v-75.836h-75.834z"/>
  </clipPath>
  <clipPath id="clipPath4635">
   <path d="m527.57 295.42h75.216v-75.217h-75.216z"/>
  </clipPath>
  <clipPath id="clipPath4639">
   <path d="m527.88 295.11h74.596v-74.597h-74.596z"/>
  </clipPath>
  <clipPath id="clipPath4643">
   <path d="m528.19 294.8h73.977v-73.977h-73.977z"/>
  </clipPath>
  <clipPath id="clipPath4647">
   <path d="m528.5 294.49h73.358v-73.359h-73.358z"/>
  </clipPath>
  <clipPath id="clipPath4651">
   <path d="m528.81 294.18h72.738v-72.741h-72.738z"/>
  </clipPath>
  <clipPath id="clipPath4655">
   <path d="m529.12 293.88h72.12v-72.121h-72.12z"/>
  </clipPath>
  <clipPath id="clipPath4659">
   <path d="m529.43 293.56h71.501v-71.502h-71.501z"/>
  </clipPath>
  <clipPath id="clipPath4663">
   <path d="m529.74 293.26h70.882v-70.883h-70.882z"/>
  </clipPath>
  <clipPath id="clipPath4667">
   <path d="m530.05 292.95h70.263v-70.263h-70.263z"/>
  </clipPath>
  <clipPath id="clipPath4671">
   <path d="m530.36 292.64h69.643v-69.645h-69.643z"/>
  </clipPath>
  <clipPath id="clipPath4675">
   <path d="m530.67 292.33h69.024v-69.025h-69.024z"/>
  </clipPath>
  <clipPath id="clipPath4679">
   <path d="m530.98 292.02h68.405v-68.407h-68.405z"/>
  </clipPath>
  <clipPath id="clipPath4683">
   <path d="m531.29 291.71h67.786v-67.787h-67.786z"/>
  </clipPath>
  <clipPath id="clipPath4687">
   <path d="m531.6 291.4h67.168v-67.168h-67.168z"/>
  </clipPath>
  <clipPath id="clipPath4691">
   <path d="m531.91 291.09h66.548v-66.549h-66.548z"/>
  </clipPath>
  <clipPath id="clipPath4695">
   <path d="m532.22 290.78h65.93v-65.931h-65.93z"/>
  </clipPath>
  <clipPath id="clipPath4699">
   <path d="m532.52 290.47h65.31v-65.311h-65.31z"/>
  </clipPath>
  <clipPath id="clipPath4703">
   <path d="m532.83 290.16h64.692v-64.691h-64.692z"/>
  </clipPath>
  <clipPath id="clipPath4707">
   <path d="m533.14 289.85h64.071v-64.073h-64.071z"/>
  </clipPath>
  <clipPath id="clipPath4711">
   <path d="m533.45 289.54h63.453v-63.455h-63.453z"/>
  </clipPath>
  <clipPath id="clipPath4715">
   <path d="m533.76 289.23h62.833v-62.836h-62.833z"/>
  </clipPath>
  <clipPath id="clipPath4719">
   <path d="m534.07 288.92h62.215v-62.215h-62.215z"/>
  </clipPath>
  <clipPath id="clipPath4723">
   <path d="m534.38 288.61h61.595v-61.597h-61.595z"/>
  </clipPath>
  <clipPath id="clipPath4727">
   <path d="m534.69 288.3h60.977v-60.979h-60.977z"/>
  </clipPath>
  <clipPath id="clipPath4731">
   <path d="m535 287.99h60.357v-60.359h-60.357z"/>
  </clipPath>
  <clipPath id="clipPath4735">
   <path d="m535.31 287.68h59.739v-59.741h-59.739z"/>
  </clipPath>
  <clipPath id="clipPath4739">
   <path d="m535.62 287.38h59.119v-59.121h-59.119z"/>
  </clipPath>
  <clipPath id="clipPath4743">
   <path d="m535.93 287.06h58.501v-58.502h-58.501z"/>
  </clipPath>
  <clipPath id="clipPath4747">
   <path d="m536.24 286.76h57.881v-57.883h-57.881z"/>
  </clipPath>
  <clipPath id="clipPath4751">
   <path d="m536.55 286.45h57.263v-57.263h-57.263z"/>
  </clipPath>
  <clipPath id="clipPath4755">
   <path d="m536.86 286.14h56.643v-56.647h-56.643z"/>
  </clipPath>
  <clipPath id="clipPath4759">
   <path d="m537.17 285.83h56.025v-56.025h-56.025z"/>
  </clipPath>
  <clipPath id="clipPath4763">
   <path d="m537.48 285.52h55.405v-55.407h-55.405z"/>
  </clipPath>
  <clipPath id="clipPath4767">
   <path d="m537.79 285.21h54.786v-54.787h-54.786z"/>
  </clipPath>
  <clipPath id="clipPath5551">
   <path d="m631 553h40v-212.25h-40z"/>
  </clipPath>
  <clipPath id="clipPath5567">
   <path d="m915.78 542h56.225v-240.42h-56.225z"/>
  </clipPath>
  <clipPath id="clipPath5587">
   <path d="m762.44 339.28h17.509v-20.203h-17.509z"/>
  </clipPath>
  <clipPath id="clipPath5607">
   <path d="m757.1 255.6h17.509v-20.203h-17.509z"/>
  </clipPath>
  <clipPath id="clipPath5627">
   <path d="m756.1 167.6h17.509v-20.203h-17.509z"/>
  </clipPath>
  <clipPath id="clipPath5651">
   <path d="m577 400h13.861v-95h-13.861z"/>
  </clipPath>
  <clipPath id="clipPath6647">
   <path d="m0 1200h1600v-1200h-1600z"/>
  </clipPath>
 </defs>
 <metadata>
  <rdf:RDF>
   <cc:Work rdf:about="">
    <dc:format>image/svg+xml</dc:format>
    <dc:type rdf:resource="http://purl.org/dc/dcmitype/StillImage"/>
   </cc:Work>
  </rdf:RDF>
 </metadata>
 <g transform="matrix(.94598 0 0 .94598 -148.5 -33.874)">
  <g transform="matrix(.29358 0 0 -.29743 249.95 249.72)">
   <path d="m0 0s-40-18-40-30 42 16 42 16z" fill="#a57e58"/>
  </g>
  <g transform="matrix(.29358 0 0 -.29743 311.6 213.13)">
   <path d="m0 0 6 16s112-2 116-10-24-90-24-90l-130 10z" fill="#c39c70"/>
  </g>
  <g transform="matrix(.29358 0 0 -.29743 372.2 147.42)">
   <path d="m0 0c-11.901 23.068-41.442 31.505-65.983 18.844s-34.788-41.625-22.886-64.694c11.901-23.068 41.443-31.504 65.983-18.844 24.541 12.661 34.787 41.625 22.886 64.694" fill="#8d6643"/>
  </g>
  <g transform="matrix(.29358 0 0 -.29743 352.87 162.85)">
   <path d="m0 0c-10.774 20.885-3.396 46.6 16.308 60.677 4.335 21.074 7.834 44.179 8.127 61.248-3.137 7.924-18.403 17.334-21.732 25.18-5.935-0.308-11.891-0.26-17.845 0.096 5.832-6.393 15.196-13.263 17.577-19.276-0.293-17.069-3.792-40.174-8.127-61.248-19.704-14.077-27.082-39.792-16.308-60.677 7.879-15.271 23.488-24.121 40.26-24.692-7.624 4.212-14.049 10.531-18.26 18.692" fill="#775334"/>
  </g>
  <g transform="matrix(.29358 0 0 -.29743 248.19 213.38)">
   <path d="m0 0c-19.844 24.971-35.726 168.09-46.535 145.42 0 0-1.836-47.094 0-63.147 3.97-34.679 3.016-53.437 8.17-64.242 0 0-29.308-25.034-32.876-47.477-3.968-24.97 46.766-75.985 46.766-75.985l28.444-2.775" fill="#fbdac4"/>
  </g>
  <g transform="matrix(.29358 0 0 -.29743 241.04 244.58)">
   <path d="m0 0 18.189-265.68 69.278 5.984-57.153 264.29" fill="#fbdac4"/>
  </g>
  <g transform="matrix(.29358 0 0 -.29743 238.87 219.98)">
   <path d="m0 0s-0.012 0-3.981-6.936c-3.969-6.937-7.961-8.324-10.607-12.485s-6.663-1.387-6.663-1.387-2.741 6.935-2.741-6.936-26.742 20.808-26.742 20.808l6.472 15.258v13.873c0 13.873 9.61 5.55 9.61 5.55 0 6.936 13.656 21.678 13.656 21.678l14.535-9.193" fill="#fbdac4"/>
  </g>
  <g transform="matrix(.29358 0 0 -.29743 249.75 244.53)">
   <path d="m0 0 14.571 62.338s-9.279 35.459-17.217 50.72c-7.937 15.259-50.272 1.387-50.272 1.387s3.97-18.035 31.751-16.648c0 0-15.875-29.131-10.583-56.874" fill="#fbdac4"/>
  </g>
  <g transform="matrix(.29358 0 0 -.29743 279.41 248.62)">
   <path d="m0 0-112.89-250.94s13.771-55.714 31.046-48.686c17.274 7.028 61.153 94.349 77.892 134.16 16.741 39.808 50.37 105.59 76.282 116.13" fill="#fbdac4"/>
  </g>
  <g transform="matrix(.29358 0 0 -.29743 235.44 215.39)">
   <path d="m0 0c6.176-9.714 32.426-16.191 32.426-16.191s-13.897-11.335-9.264-35.622" fill="#fbdac4"/>
   <path d="m0 0c1.869-2.456 4.422-4.206 7.056-5.697 2.643-1.5 5.428-2.737 8.246-3.884 2.827-1.128 5.704-2.138 8.604-3.076 2.903-0.91 5.841-1.792 8.769-2.528l1.914-0.481-1.507-1.329c-1.066-0.939-2.108-2.167-3.038-3.375-0.934-1.23-1.773-2.539-2.519-3.9-1.493-2.722-2.642-5.643-3.416-8.675-0.789-3.029-1.209-6.165-1.343-9.326-0.164-3.166 0.045-6.352 0.396-9.542-0.847 3.098-1.31 6.304-1.494 9.541-0.138 3.237 0.094 6.511 0.757 9.718 0.678 3.2 1.763 6.338 3.308 9.251 0.777 1.454 1.653 2.858 2.64 4.188 1 1.341 2.05 2.561 3.398 3.727l0.407-1.81c-3.02 0.79-5.963 1.689-8.882 2.726-2.92 1.019-5.8 2.157-8.611 3.462-2.813 1.292-5.56 2.762-8.131 4.51-1.28 0.88-2.511 1.838-3.646 2.898-1.138 1.054-2.162 2.253-2.908 3.602" fill="#f7ba9a"/>
  </g>
  <g transform="matrix(.29358 0 0 -.29743 234.99 228.88)">
   <path d="m0 0s4.632 6.477-6.177 17.811c0 0 15.441-17.811 21.618-8.096s0 14.573 0 14.573" fill="#fbdac4"/>
   <path d="m0 0c0.743 1.514 0.811 3.225 0.591 4.82-0.227 1.61-0.803 3.145-1.529 4.592-1.491 2.891-3.616 5.42-5.913 7.755l1.379 1.254c2.357-2.496 4.925-4.907 7.685-6.934 1.382-1.011 2.811-1.952 4.32-2.65 1.5-0.683 3.096-1.17 4.579-1.024 1.484 0.124 2.748 1.042 3.638 2.366 0.968 1.425 1.77 2.923 2.325 4.519 0.539 1.593 0.788 3.296 0.546 4.977-0.247 1.668-0.958 3.329-2.18 4.613 1.428-1.06 2.447-2.685 2.918-4.46 0.482-1.785 0.4-3.702-0.051-5.487-0.431-1.797-1.231-3.484-2.145-5.039-0.498-0.837-1.125-1.629-1.964-2.237-0.826-0.613-1.834-1.008-2.847-1.148-2.054-0.282-3.976 0.301-5.667 1.055-1.703 0.771-3.26 1.746-4.719 2.825-2.901 2.19-5.489 4.653-7.847 7.403l1.379 1.254c1.159-1.254 2.24-2.587 3.208-4.007 0.975-1.413 1.834-2.92 2.476-4.527 0.653-1.598 1.081-3.31 1.127-5.042 0.036-1.716-0.311-3.505-1.309-4.878" fill="#f7ba9a"/>
  </g>
  <g transform="matrix(.29358 0 0 -.29743 228.19 214.64)">
   <path d="m0 0s6.177-7.721 12.353-12.353" fill="#fbdac4"/>
   <path d="m0 0c1.249-0.863 2.364-1.812 3.442-2.791 1.079-0.977 2.122-1.977 3.131-3.007 1.013-1.025 1.988-2.085 2.955-3.162 0.968-1.079 1.917-2.175 2.825-3.393-1.426 0.534-2.707 1.323-3.903 2.202-1.196 0.881-2.317 1.855-3.346 2.912-1.036 1.052-1.984 2.185-2.854 3.381-0.866 1.195-1.66 2.455-2.25 3.858" fill="#f7ba9a"/>
  </g>
  <g transform="matrix(.29358 0 0 -.29743 244.51 212.02)">
   <path d="m0 0s-21.618-9.715-33.971-1.619" fill="#fbdac4"/>
   <path d="m0 0c-2.531-1.562-5.281-2.729-8.102-3.669-2.823-0.948-5.752-1.598-8.734-1.956-2.982-0.314-6.038-0.331-9.019 0.259-2.964 0.568-5.89 1.757-8.116 3.747 2.7-1.238 5.509-1.868 8.347-2.118 2.839-0.231 5.704-0.129 8.553 0.207 2.855 0.301 5.696 0.838 8.536 1.442 2.838 0.624 5.669 1.333 8.535 2.088" fill="#f7ba9a"/>
  </g>
  <g transform="matrix(.29358 0 0 -.29743 320.99 67.69)">
   <path d="m0 0c-75.338-1.65-118.58-80.726-123.04-146.33s-0.025-114.42 15.577-141.32c15.913-27.443 52.881-66.948 70.572-65.812 5.027 0.322 31.826 11.433 31.826 11.433s5.06-179.97-48.94-207.97l54.411-156.22 117.73 163.37s-102.62 116.54-22.137 266.86c0 0 160.51 35.577 91.645 190.03-42.421 95.147-89.747 88.111-187.64 85.967" fill="#fbdac4"/>
  </g>
  <g transform="matrix(.29358 0 0 -.29743 303.99 152.85)">
   <path d="m0 0s21.053-16.26 46.452 5.187" fill="none" stroke="#a57e58" stroke-linecap="round" stroke-linejoin="round" stroke-miterlimit="10" stroke-width="3.112"/>
  </g>
  <g transform="matrix(.29358 0 0 -.29743 297.91 126.88)">
   <path d="m0 0c-2.135 7.051-9.581 11.04-16.636 8.905-7.051-2.134-11.033-9.58-8.902-16.631 2.134-7.052 9.58-11.038 16.63-8.903 7.055 2.131 11.039 9.578 8.908 16.629" fill="#a57e58"/>
  </g>
  <g transform="matrix(.29358 0 0 -.29743 295.56 127.6)">
   <path d="m0 0c-0.798 2.646-3.594 4.139-6.237 3.339-2.646-0.798-4.139-3.59-3.337-6.236 0.798-2.644 3.588-4.139 6.235-3.338 2.643 0.801 4.141 3.593 3.339 6.235" fill="#64432e"/>
  </g>
  <g transform="matrix(.29358 0 0 -.29743 298.64 129.14)">
   <path d="m0 0c-3.317 3.634-6.909 6.99-10.747 9.692-1.897 1.368-3.87 2.559-5.868 3.472-1.965 0.962-3.971 1.636-5.89 1.922-1.926 0.324-3.764-0.032-5.342-0.603-1.588-0.577-3.071-1.13-4.846-1.74-1.765-0.615-3.702-1.438-5.816-2.414-2.134-0.962-4.395-2.086-7.151-3.098l-7e-3 -2e-3c-0.354-0.13-0.746 0.051-0.875 0.405-0.032 0.088-0.045 0.18-0.041 0.267 0.138 2.978 1.035 5.661 2.407 8.168 1.389 2.486 3.325 4.782 5.853 6.602 2.504 1.828 5.744 2.985 9.055 3.021 3.316 0.056 6.488-0.776 9.292-1.833 2.821-1.085 5.288-2.606 7.465-4.31 2.148-1.757 4.013-3.694 5.692-5.717 3.285-4.116 5.916-8.512 7.8-13.249 0.118-0.296-0.026-0.632-0.323-0.75-0.229-0.091-0.482-0.025-0.639 0.146z" fill="#775334"/>
  </g>
  <g transform="matrix(.29358 0 0 -.29743 286.66 124.94)">
   <path d="m0 0c-0.458 0.135-0.645 0.234-0.928 0.358-0.258 0.12-0.5 0.245-0.736 0.375-0.471 0.262-0.914 0.544-1.336 0.846-0.845 0.605-1.606 1.29-2.28 2.036-1.351 1.493-2.321 3.235-2.897 5.007-0.579 1.776-0.793 3.57-0.766 5.297 0.025 1.729 0.276 3.398 0.661 5.008 0.357-3.275 1.344-6.476 3.157-8.753 0.896-1.137 1.972-2.02 3.131-2.612 0.58-0.296 1.18-0.524 1.779-0.678 0.299-0.076 0.599-0.134 0.887-0.171 0.143-0.018 0.285-0.03 0.415-0.034 0.106 1e-3 0.31-0.013 0.252 0.037 1.854-0.37 3.058-2.173 2.688-4.028-0.369-1.854-2.173-3.058-4.027-2.688" fill="#775334"/>
  </g>
  <g transform="matrix(.29358 0 0 -.29743 288.46 123.61)">
   <path d="m0 0c-0.263 0.17-0.338 0.246-0.477 0.358l-0.338 0.304c-0.212 0.199-0.406 0.399-0.589 0.6-0.366 0.402-0.693 0.81-0.993 1.228-0.601 0.833-1.096 1.697-1.511 2.576-0.826 1.76-1.322 3.574-1.586 5.36-0.515 3.583-0.141 7.032 0.624 10.275 0.363-3.311 1.192-6.538 2.642-9.248 0.723-1.349 1.601-2.561 2.596-3.541 0.498-0.49 1.024-0.923 1.561-1.277 0.268-0.177 0.54-0.334 0.802-0.462 0.131-0.064 0.26-0.12 0.38-0.164 0.059-0.021 0.117-0.04 0.166-0.051 0.032-3e-3 0.13-0.039 0.045 0.03 1.654-0.917 2.251-3.002 1.333-4.655-0.917-1.654-3.002-2.25-4.655-1.333" fill="#775334"/>
  </g>
  <g transform="matrix(.29358 0 0 -.29743 291.31 123.96)">
   <path d="m0 0c-0.272 0.404-0.354 0.603-0.499 0.884-0.126 0.26-0.238 0.515-0.341 0.768-0.207 0.507-0.38 1.009-0.53 1.512-0.297 1.003-0.502 2.007-0.626 3.005-0.25 1.997-0.182 3.966 0.127 5.842 0.62 3.763 2.181 7.104 4.123 10.019-0.914-3.386-1.24-6.874-0.699-10.061 0.264-1.59 0.738-3.098 1.403-4.446 0.331-0.674 0.712-1.309 1.129-1.883 0.208-0.287 0.426-0.56 0.649-0.806 0.111-0.123 0.223-0.239 0.333-0.343 0.092-0.081 0.254-0.241 0.25-0.178 1.191-1.468 0.966-3.625-0.503-4.816-1.468-1.191-3.625-0.966-4.816 0.503" fill="#775334"/>
  </g>
  <g transform="matrix(.29358 0 0 -.29743 322.61 124.87)">
   <path d="m0 0c3.384 7.669 12.916 11.217 21.299 7.917 8.375-3.298 12.415-12.188 9.034-19.858-3.382-7.672-12.914-11.215-21.291-7.918-8.382 3.299-12.424 12.19-9.042 19.859" fill="#a57e58"/>
  </g>
  <g transform="matrix(.29358 0 0 -.29743 325.39 125.98)">
   <path d="m0 0c1.27 2.88 4.846 4.206 7.987 2.972 3.141-1.236 4.66-4.57 3.387-7.451-1.268-2.875-4.844-4.203-7.982-2.965-3.145 1.238-4.663 4.572-3.392 7.444" fill="#64432e"/>
  </g>
  <g transform="matrix(.29358 0 0 -.29743 316.21 127.89)">
   <path d="m0 0c3.019 5.75 7.044 10.92 11.897 15.554 2.465 2.27 5.167 4.377 8.173 6.19 3.031 1.75 6.369 3.192 9.98 4.096 3.599 0.867 7.473 1.478 11.41 1.223 3.929-0.244 7.749-1.6 10.875-3.734 3.144-2.123 5.714-4.816 7.675-7.801 1.938-3.009 3.345-6.279 3.861-9.959 0.06-0.43-0.24-0.828-0.671-0.888-0.126-0.018-0.248-5e-3 -0.361 0.033l-0.011 4e-3c-3.461 1.188-6.359 2.527-9.123 3.693-2.744 1.181-5.293 2.212-7.7 3.047-2.415 0.83-4.579 1.642-6.847 2.486-2.258 0.835-4.758 1.433-7.361 1.276-2.595-0.122-5.282-0.671-7.944-1.583-2.692-0.848-5.372-2.05-7.971-3.502-5.24-2.86-10.228-6.647-14.791-10.922l-0.026-0.024c-0.273-0.256-0.703-0.243-0.96 0.031-0.202 0.217-0.235 0.531-0.105 0.78" fill="#775334"/>
  </g>
  <g transform="matrix(.29358 0 0 -.29743 332.89 121.62)">
   <path d="m0 0c-0.047-0.047 0.188-0.061 0.32-0.077 0.159-0.014 0.328-0.02 0.502-0.022 0.348-2e-3 0.71 0.018 1.074 0.057 0.73 0.08 1.469 0.235 2.191 0.472 1.447 0.468 2.836 1.264 4.054 2.391 2.466 2.249 4.058 5.805 4.827 9.553 0.277-1.901 0.374-3.865 0.172-5.875-0.207-2.004-0.727-4.067-1.715-6.024-0.979-1.956-2.429-3.781-4.237-5.245-0.902-0.735-1.887-1.381-2.942-1.932-0.528-0.276-1.073-0.527-1.644-0.752-0.287-0.112-0.58-0.218-0.886-0.317-0.334-0.1-0.567-0.186-1.085-0.276-2.222-0.174-4.165 1.486-4.339 3.708-0.175 2.222 1.485 4.165 3.708 4.339" fill="#775334"/>
  </g>
  <g transform="matrix(.29358 0 0 -.29743 330.13 120.04)">
   <path d="m0 0c-0.097-0.062 0.018-0.038 0.058-0.04 0.059 5e-3 0.13 0.018 0.201 0.032 0.144 0.03 0.302 0.072 0.462 0.122 0.322 0.099 0.656 0.231 0.99 0.383 0.669 0.305 1.338 0.698 1.98 1.161 1.289 0.926 2.477 2.137 3.498 3.546 2.055 2.825 3.417 6.402 4.2 10.145 0.549-3.783 0.581-7.796-0.537-11.841-0.563-2.014-1.423-4.024-2.663-5.903-0.62-0.938-1.332-1.843-2.154-2.693-0.413-0.425-0.851-0.837-1.332-1.233-0.241-0.199-0.492-0.393-0.764-0.586l-0.429-0.289c-0.172-0.104-0.272-0.179-0.588-0.328-2.078-0.807-4.416 0.223-5.224 2.301-0.806 2.078 0.224 4.416 2.302 5.223" fill="#775334"/>
  </g>
  <g transform="matrix(.29358 0 0 -.29743 325.85 120.56)">
   <path d="m0 0c-0.046-0.073 0.054-5e-3 0.102 0.018l0.197 0.125c0.138 0.095 0.281 0.205 0.423 0.321 0.287 0.234 0.572 0.5 0.848 0.784 0.553 0.568 1.072 1.213 1.539 1.911 0.936 1.398 1.667 3.017 2.151 4.77 0.984 3.513 0.931 7.517 0.172 11.444 2.004-3.455 3.539-7.396 3.849-11.783 0.155-2.184-8e-3 -4.461-0.568-6.722-0.281-1.13-0.659-2.254-1.152-3.362-0.248-0.554-0.522-1.103-0.838-1.652-0.159-0.275-0.326-0.55-0.512-0.829l-0.297-0.426c-0.121-0.158-0.192-0.268-0.418-0.51-1.632-1.518-4.186-1.425-5.704 0.207-1.518 1.633-1.425 4.186 0.208 5.704" fill="#775334"/>
  </g>
  <g transform="matrix(.29358 0 0 -.29743 91.124 405.87)">
   <g clip-path="url(#clipPath4495)">
    <g transform="translate(698.97,972.13)">
     <path d="m0 0c5.654-4.689 10.366-10.496 14.23-16.837 0.952-1.597 1.873-3.22 2.698-4.896 0.817-1.681 1.568-3.398 2.25-5.147 1.375-3.495 2.406-7.153 3.006-10.903 0.649-3.73 0.711-7.634 0.543-11.305-0.154-3.72-0.544-7.442-1.252-11.121-0.701-3.677-1.659-7.331-3.107-10.825-0.715-1.748-1.534-3.461-2.485-5.113-0.474-0.826-0.987-1.635-1.557-2.414-0.588-0.796-1.132-1.503-1.94-2.306l0.258 1.588c0.112-0.254 0.349-0.673 0.551-1.013 0.214-0.36 0.44-0.719 0.673-1.077 0.465-0.717 0.961-1.423 1.461-2.13 0.995-1.419 2.048-2.813 3.129-4.189 1.089-1.368 2.168-2.754 3.29-4.108l3.362-4.078c-1.359 1.127-2.7 2.277-4.005 3.467-1.302 1.193-2.609 2.387-3.855 3.646-1.253 1.254-2.485 2.532-3.679 3.863-0.594 0.668-1.168 1.356-1.733 2.065-0.281 0.354-0.559 0.715-0.831 1.088-0.281 0.393-0.522 0.714-0.823 1.235l-0.434 0.748 0.691 0.84c0.434 0.527 0.956 1.303 1.375 2.019 0.432 0.739 0.842 1.5 1.225 2.277 0.761 1.558 1.408 3.183 1.958 4.844 1.08 3.329 1.878 6.768 2.391 10.261 0.502 3.496 0.761 7.035 0.859 10.584 0.029 1.768 0.063 3.571-0.025 5.276-0.088 1.729-0.262 3.457-0.52 5.177-0.518 3.44-1.377 6.84-2.46 10.191-0.549 1.672-1.166 3.328-1.852 4.96-0.669 1.64-1.378 3.27-2.156 4.874-3.113 6.415-6.892 12.578-11.236 18.459" fill="#fbdac4"/>
    </g>
   </g>
  </g>
  <g transform="matrix(.29358 0 0 -.29743 91.124 405.87)" clip-path="url(#clipPath4519)">
   <g clip-path="url(#clipPath4527)" opacity=".38">
    <g clip-path="url(#clipPath4531)">
     <g transform="translate(610.73,254.72)">
      <path d="m0 0c1.708 25.157-17.3 46.933-42.456 48.64-25.157 1.707-46.934-17.302-48.641-42.459-1.707-25.156 17.303-46.931 42.459-48.639 25.157-1.707 46.931 17.302 48.638 42.458" fill="#fff"/>
     </g>
    </g>
    <g clip-path="url(#clipPath4535)">
     <g transform="translate(610.42,254.74)">
      <path d="m0 0c1.697 24.987-17.183 46.615-42.168 48.311-24.987 1.695-46.616-17.185-48.312-42.171-1.695-24.986 17.186-46.614 42.171-48.31 24.987-1.695 46.613 17.185 48.309 42.17" fill="#fff"/>
     </g>
    </g>
    <g clip-path="url(#clipPath4539)">
     <g transform="translate(610.11,254.77)">
      <path d="m0 0c1.686 24.816-17.065 46.296-41.88 47.98-24.816 1.684-46.298-17.067-47.982-41.883-1.684-24.815 17.068-46.294 41.883-47.98 24.816-1.683 46.295 17.068 47.979 41.883" fill="#fffefe"/>
     </g>
    </g>
    <g clip-path="url(#clipPath4543)">
     <g transform="translate(609.8,254.79)">
      <path d="m0 0c1.674 24.646-16.948 45.979-41.593 47.65-24.645 1.673-45.979-16.949-47.652-41.594-1.672-24.644 16.952-45.977 41.596-47.65 24.645-1.673 45.977 16.949 47.649 41.594" fill="#fffefd"/>
     </g>
    </g>
    <g clip-path="url(#clipPath4547)">
     <g transform="translate(609.49,254.81)">
      <path d="m0 0c1.662 24.475-16.831 45.66-41.305 47.32-24.474 1.661-45.661-16.832-47.321-41.307-1.661-24.473 16.833-45.659 41.307-47.32s45.658 16.832 47.319 41.307" fill="#fffdfc"/>
     </g>
    </g>
    <g clip-path="url(#clipPath4551)">
     <g transform="translate(609.18,254.83)">
      <path d="m0 0c1.65 24.305-16.713 45.342-41.017 46.991-24.304 1.65-45.343-16.715-46.992-41.019-1.649-24.303 16.716-45.34 41.02-46.991 24.303-1.649 45.34 16.716 46.989 41.019" fill="#fffdfc"/>
     </g>
    </g>
    <g clip-path="url(#clipPath4555)">
     <g transform="translate(608.88,254.85)">
      <path d="m0 0c1.639 24.134-16.596 45.023-40.729 46.661-24.134 1.638-45.025-16.598-46.663-40.732-1.637-24.132 16.599-45.022 40.732-46.66s45.022 16.598 46.66 40.731" fill="#fffcfb"/>
     </g>
    </g>
    <g clip-path="url(#clipPath4559)">
     <g transform="translate(608.57,254.87)">
      <path d="m0 0c1.627 23.964-16.479 44.705-40.441 46.332-23.963 1.626-44.707-16.481-46.333-40.444-1.626-23.962 16.482-44.704 40.444-46.331 23.963-1.626 44.704 16.481 46.33 40.443" fill="#fffcf9"/>
     </g>
    </g>
    <g clip-path="url(#clipPath4563)">
     <g transform="translate(608.26,254.89)">
      <path d="m0 0c1.616 23.792-16.362 44.387-40.154 46.001s-44.388-16.363-46.002-40.156c-1.615-23.791 16.364-44.385 40.156-46s44.386 16.363 46 40.155" fill="#fffbf8"/>
     </g>
    </g>
    <g clip-path="url(#clipPath4567)">
     <g transform="translate(607.95,254.91)">
      <path d="m0 0c1.604 23.622-16.245 44.069-39.866 45.672-23.621 1.602-44.07-16.246-45.673-39.868-1.603-23.62 16.247-44.068 39.868-45.671 23.622-1.603 44.068 16.246 45.671 39.867" fill="#fffaf7"/>
     </g>
    </g>
    <g clip-path="url(#clipPath4571)">
     <g transform="translate(607.64,254.93)">
      <path d="m0 0c1.592 23.451-16.127 43.75-39.578 45.342-23.451 1.591-43.752-16.129-45.343-39.58-1.592-23.45 16.129-43.749 39.58-45.342 23.451-1.591 43.75 16.129 45.341 39.58" fill="#fffaf6"/>
     </g>
    </g>
    <g clip-path="url(#clipPath4575)">
     <g transform="translate(607.33,254.95)">
      <path d="m0 0c1.581 23.281-16.01 43.433-39.291 45.013-23.28 1.579-43.433-16.012-45.013-39.293-1.58-23.28 16.013-43.431 39.293-45.012 23.28-1.579 43.431 16.012 45.011 39.292" fill="#fffaf6"/>
     </g>
    </g>
    <g clip-path="url(#clipPath4579)">
     <g transform="translate(607.02,254.97)">
      <path d="m0 0c1.569 23.111-15.893 43.115-39.002 44.684-23.11 1.567-43.116-15.895-44.684-39.005s15.895-43.114 39.005-44.683c23.11-1.567 43.113 15.895 44.681 39.004" fill="#fff9f4"/>
     </g>
    </g>
    <g clip-path="url(#clipPath4583)">
     <g transform="translate(606.71,255)">
      <path d="m0 0c1.558 22.939-15.775 42.796-38.715 44.353-22.939 1.556-42.797-15.777-44.353-38.717-1.557-22.939 15.777-42.794 38.716-44.352 22.94-1.556 42.795 15.777 44.352 38.716" fill="#fff8f3"/>
     </g>
    </g>
    <g clip-path="url(#clipPath4587)">
     <g transform="translate(606.41,255.02)">
      <path d="m0 0c1.546 22.77-15.658 42.479-38.427 44.023-22.768 1.545-42.479-15.659-44.024-38.428s15.66-42.477 38.429-44.023c22.769-1.545 42.477 15.659 44.022 38.428" fill="#fef7f2"/>
     </g>
    </g>
    <g clip-path="url(#clipPath4591)">
     <g transform="translate(606.1,255.04)">
      <path d="m0 0c1.534 22.599-15.541 42.159-38.139 43.693s-42.161-15.542-43.694-38.141c-1.534-22.597 15.543-42.158 38.141-43.693 22.598-1.533 42.159 15.543 43.692 38.141" fill="#fef7f1"/>
     </g>
    </g>
    <g clip-path="url(#clipPath4595)">
     <g transform="translate(605.79,255.06)">
      <path d="m0 0c1.522 22.429-15.424 41.842-37.851 43.364-22.428 1.522-41.843-15.425-43.364-37.853-1.523-22.427 15.425-41.84 37.853-43.364 22.427-1.521 41.84 15.426 43.362 37.853" fill="#fef6f0"/>
     </g>
    </g>
    <g clip-path="url(#clipPath4599)">
     <g transform="translate(605.48,255.08)">
      <path d="m0 0c1.511 22.258-15.306 41.523-37.563 43.034-22.257 1.51-41.524-15.307-43.035-37.565-1.51-22.257 15.309-41.523 37.566-43.034 22.257-1.51 41.522 15.308 43.032 37.565" fill="#fef5ef"/>
     </g>
    </g>
    <g clip-path="url(#clipPath4603)">
     <g transform="translate(605.17,255.1)">
      <path d="m0 0c1.5 22.087-15.189 41.205-37.275 42.704-22.087 1.499-41.207-15.19-42.705-37.277-1.499-22.086 15.191-41.204 37.277-42.703s41.204 15.19 42.703 37.276" fill="#fef4ee"/>
     </g>
    </g>
    <g clip-path="url(#clipPath4607)">
     <g transform="translate(604.86,255.12)">
      <path d="m0 0c1.488 21.916-15.072 40.887-36.988 42.374-21.915 1.487-40.888-15.073-42.375-36.989s15.074-40.886 36.99-42.374c21.915-1.488 40.886 15.073 42.373 36.989" fill="#fef4ed"/>
     </g>
    </g>
    <g clip-path="url(#clipPath4611)">
     <g transform="translate(604.55,255.14)">
      <path d="m0 0c1.477 21.746-14.955 40.569-36.7 42.045s-40.57-14.956-42.045-36.702c-1.476-21.745 14.957-40.568 36.702-42.044s40.568 14.956 42.043 36.701" fill="#fef4ec"/>
     </g>
    </g>
    <g clip-path="url(#clipPath4615)">
     <g transform="translate(604.24,255.16)">
      <path d="m0 0c1.464 21.575-14.837 40.25-36.412 41.715-21.574 1.464-40.252-14.839-41.715-36.414-1.465-21.574 14.839-40.25 36.414-41.715 21.574-1.464 40.249 14.839 41.713 36.414" fill="#fef3eb"/>
     </g>
    </g>
    <g clip-path="url(#clipPath4619)">
     <g transform="translate(603.93,255.18)">
      <path d="m0 0c1.453 21.405-14.72 39.933-36.124 41.386-21.404 1.452-39.934-14.722-41.386-36.127-1.452-21.404 14.722-39.931 36.127-41.385 21.404-1.452 39.931 14.722 41.383 36.126" fill="#fef2ea"/>
     </g>
    </g>
    <g clip-path="url(#clipPath4623)">
     <g transform="translate(603.63,255.21)">
      <path d="m0 0c1.441 21.233-14.603 39.613-35.836 41.055-21.234 1.44-39.616-14.604-41.056-35.838-1.441-21.234 14.604-39.613 35.838-41.055 21.233-1.44 39.614 14.604 41.054 35.838" fill="#fef1e9"/>
     </g>
    </g>
    <g clip-path="url(#clipPath4627)">
     <g transform="translate(603.32,255.23)">
      <path d="m0 0c1.43 21.063-14.486 39.296-35.549 40.726-21.062 1.428-39.297-14.487-40.726-35.551-1.43-21.063 14.488-39.294 35.55-40.725 21.063-1.429 39.296 14.487 40.725 35.55" fill="#fef1e8"/>
     </g>
    </g>
    <g clip-path="url(#clipPath4631)">
     <g transform="translate(603.01,255.25)">
      <path d="m0 0c1.418 20.894-14.368 38.979-35.261 40.396-20.892 1.417-38.978-14.369-40.396-35.262s14.37-38.977 35.262-40.396c20.893-1.417 38.978 14.37 40.395 35.262" fill="#fef0e7"/>
     </g>
    </g>
    <g clip-path="url(#clipPath4635)">
     <g transform="translate(602.7,255.27)">
      <path d="m0 0c1.407 20.723-14.251 38.659-34.973 40.066-20.721 1.406-38.661-14.252-40.067-34.974-1.406-20.723 14.253-38.659 34.975-40.067 20.722-1.405 38.659 14.253 40.065 34.975" fill="#fef0e6"/>
     </g>
    </g>
    <g clip-path="url(#clipPath4639)">
     <g transform="translate(602.39,255.29)">
      <path d="m0 0c1.395 20.553-14.134 38.342-34.686 39.737-20.55 1.394-38.342-14.134-39.736-34.687-1.395-20.551 14.135-38.34 34.687-39.737 20.551-1.393 38.34 14.136 39.735 34.687" fill="#feefe5"/>
     </g>
    </g>
    <g clip-path="url(#clipPath4643)">
     <g transform="translate(602.08,255.31)">
      <path d="m0 0c1.383 20.381-14.017 38.023-34.397 39.406-20.381 1.383-38.024-14.016-39.407-34.398-1.384-20.381 14.018-38.023 34.399-39.406 20.38-1.383 38.023 14.017 39.405 34.398" fill="#feefe4"/>
     </g>
    </g>
    <g clip-path="url(#clipPath4647)">
     <g transform="translate(601.77,255.33)">
      <path d="m0 0c1.372 20.211-13.899 37.705-34.11 39.077-20.209 1.371-37.705-13.899-39.077-34.111-1.372-20.21 13.901-37.704 34.111-39.076 20.21-1.371 37.705 13.9 39.076 34.11" fill="#fdeee3"/>
     </g>
    </g>
    <g clip-path="url(#clipPath4651)">
     <g transform="translate(601.46,255.35)">
      <path d="m0 0c1.36 20.04-13.782 37.387-33.822 38.747-20.039 1.359-37.387-13.783-38.747-33.823s13.784-37.386 33.823-38.747c20.039-1.36 37.387 13.783 38.746 33.823" fill="#fdede2"/>
     </g>
    </g>
    <g clip-path="url(#clipPath4655)">
     <g transform="translate(601.16,255.37)">
      <path d="m0 0c1.349 19.87-13.665 37.068-33.534 38.418-19.868 1.348-37.07-13.666-38.417-33.536-1.349-19.869 13.666-37.068 33.535-38.417 19.869-1.348 37.068 13.666 38.416 33.535" fill="#fdece1"/>
     </g>
    </g>
    <g clip-path="url(#clipPath4659)">
     <g transform="translate(600.85,255.39)">
      <path d="m0 0c1.337 19.698-13.548 36.75-33.247 38.088-19.697 1.336-36.751-13.549-38.087-33.248-1.337-19.699 13.549-36.75 33.248-38.088 19.697-1.336 36.75 13.549 38.086 33.248" fill="#fdecdf"/>
     </g>
    </g>
    <g clip-path="url(#clipPath4663)">
     <g transform="translate(600.54,255.42)">
      <path d="m0 0c1.325 19.528-13.43 36.433-32.958 37.758s-36.433-13.431-37.758-32.96c-1.326-19.527 13.432-36.431 32.96-37.757 19.527-1.325 36.431 13.431 37.756 32.959" fill="#fdebde"/>
     </g>
    </g>
    <g clip-path="url(#clipPath4667)">
     <g transform="translate(600.23,255.44)">
      <path d="m0 0c1.313 19.357-13.313 36.113-32.671 37.428-19.356 1.313-36.115-13.314-37.428-32.672-1.314-19.358 13.315-36.113 32.672-37.428 19.357-1.313 36.114 13.314 37.427 32.672" fill="#fdebde"/>
     </g>
    </g>
    <g clip-path="url(#clipPath4671)">
     <g transform="translate(599.92,255.46)">
      <path d="m0 0c1.302 19.188-13.195 35.796-32.383 37.099-19.186 1.301-35.796-13.197-37.097-32.384-1.303-19.188 13.196-35.796 32.383-37.099 19.186-1.302 35.796 13.197 37.097 32.384" fill="#fdeadc"/>
     </g>
    </g>
    <g clip-path="url(#clipPath4675)">
     <g transform="translate(599.61,255.48)">
      <path d="m0 0c1.291 19.018-13.079 35.479-32.095 36.77-19.015 1.29-35.478-13.08-36.768-32.097-1.291-19.017 13.08-35.477 32.096-36.769 19.016-1.29 35.477 13.08 36.767 32.096" fill="#fde9db"/>
     </g>
    </g>
    <g clip-path="url(#clipPath4679)">
     <g transform="translate(599.3,255.5)">
      <path d="m0 0c1.279 18.846-12.961 35.159-31.808 36.438-18.844 1.28-35.159-12.96-36.438-31.807s12.963-35.159 31.808-36.439c18.845-1.279 35.16 12.962 36.438 31.808" fill="#fde9da"/>
     </g>
    </g>
    <g clip-path="url(#clipPath4683)">
     <g transform="translate(598.99,255.52)">
      <path d="m0 0c1.268 18.676-12.844 34.842-31.52 36.109-18.674 1.267-34.841-12.843-36.108-31.52-1.268-18.676 12.845-34.84 31.52-36.109 18.675-1.266 34.841 12.845 36.108 31.52" fill="#fde8d9"/>
     </g>
    </g>
    <g clip-path="url(#clipPath4687)">
     <g transform="translate(598.69,255.54)">
      <path d="m0 0c1.255 18.505-12.727 34.522-31.232 35.779-18.503 1.255-34.523-12.726-35.779-31.232-1.256-18.505 12.728-34.523 31.233-35.779 18.504-1.255 34.523 12.727 35.778 31.232" fill="#fce7d8"/>
     </g>
    </g>
    <g clip-path="url(#clipPath4691)">
     <g transform="translate(598.38,255.56)">
      <path d="m0 0c1.244 18.335-12.609 34.205-30.944 35.45-18.333 1.243-34.205-12.609-35.449-30.945-1.245-18.334 12.611-34.204 30.945-35.449 18.333-1.244 34.205 12.61 35.448 30.944" fill="#fce6d7"/>
     </g>
    </g>
    <g clip-path="url(#clipPath4695)">
     <g transform="translate(598.07,255.58)">
      <path d="m0 0c1.232 18.164-12.492 33.887-30.656 35.12-18.162 1.232-33.887-12.492-35.119-30.657-1.233-18.164 12.493-33.886 30.656-35.12 18.163-1.232 33.887 12.493 35.119 30.657" fill="#fce6d6"/>
     </g>
    </g>
    <g clip-path="url(#clipPath4699)">
     <g transform="translate(597.76,255.6)">
      <path d="m0 0c1.221 17.993-12.375 33.568-30.369 34.79-17.991 1.221-33.569-12.375-34.789-30.369-1.221-17.993 12.376-33.567 30.369-34.789 17.992-1.221 33.568 12.375 34.789 30.368" fill="#fce5d5"/>
     </g>
    </g>
    <g clip-path="url(#clipPath4703)">
     <g transform="translate(597.45,255.62)">
      <path d="m0 0c1.209 17.822-12.257 33.25-30.081 34.46-17.821 1.209-33.25-12.258-34.459-30.081-1.21-17.823 12.259-33.25 30.081-34.46 17.822-1.209 33.251 12.258 34.459 30.081" fill="#fce5d4"/>
     </g>
    </g>
    <g clip-path="url(#clipPath4707)">
     <g transform="translate(597.14,255.65)">
      <path d="m0 0c1.198 17.652-12.14 32.933-29.793 34.131-17.65 1.197-32.932-12.141-34.129-29.793-1.199-17.653 12.141-32.932 29.793-34.131 17.65-1.197 32.932 12.141 34.129 29.793" fill="#fce4d3"/>
     </g>
    </g>
    <g clip-path="url(#clipPath4711)">
     <g transform="translate(596.83,255.67)">
      <path d="m0 0c1.186 17.481-12.023 32.613-29.504 33.801-17.481 1.185-32.615-12.024-33.801-29.506-1.187-17.482 12.025-32.613 29.506-33.801 17.48-1.185 32.613 12.025 33.799 29.506" fill="#fce3d2"/>
     </g>
    </g>
    <g clip-path="url(#clipPath4715)">
     <g transform="translate(596.52,255.69)">
      <path d="m0 0c1.174 17.312-11.906 32.296-29.217 33.472-17.309 1.174-32.296-11.907-33.47-29.218-1.176-17.312 11.907-32.296 29.217-33.472 17.31-1.174 32.296 11.907 33.47 29.218" fill="#fce2d1"/>
     </g>
    </g>
    <g clip-path="url(#clipPath4719)">
     <g transform="translate(596.22,255.71)">
      <path d="m0 0c1.163 17.14-11.789 31.977-28.929 33.141-17.139 1.163-31.978-11.788-33.141-28.93-1.164-17.141 11.79-31.977 28.93-33.141 17.139-1.163 31.977 11.789 33.14 28.93" fill="#fce2d0"/>
     </g>
    </g>
    <g clip-path="url(#clipPath4723)">
     <g transform="translate(595.91,255.73)">
      <path d="m0 0c1.151 16.97-11.671 31.659-28.641 32.812-16.968 1.151-31.66-11.671-32.811-28.642-1.152-16.971 11.672-31.659 28.642-32.812 16.969-1.151 31.659 11.672 32.81 28.642" fill="#fce1cf"/>
     </g>
    </g>
    <g clip-path="url(#clipPath4727)">
     <g transform="translate(595.6,255.75)">
      <path d="m0 0c1.14 16.8-11.554 31.342-28.354 32.482-16.797 1.14-31.341-11.553-32.48-28.354-1.141-16.8 11.555-31.341 28.354-32.482 16.797-1.139 31.341 11.555 32.48 28.354" fill="#fce1ce"/>
     </g>
    </g>
    <g clip-path="url(#clipPath4731)">
     <g transform="translate(595.29,255.77)">
      <path d="m0 0c1.128 16.629-11.437 31.022-28.066 32.152-16.627 1.128-31.023-11.436-32.151-28.066-1.129-16.63 11.438-31.023 28.066-32.152 16.628-1.128 31.023 11.437 32.151 28.066" fill="#fce0cd"/>
     </g>
    </g>
    <g clip-path="url(#clipPath4735)">
     <g transform="translate(594.98,255.79)">
      <path d="m0 0c1.116 16.459-11.319 30.705-27.778 31.823-16.456 1.116-30.705-11.319-31.821-27.778-1.118-16.459 11.32-30.705 27.778-31.823 16.457-1.117 30.705 11.32 31.821 27.778" fill="#fcdfcc"/>
     </g>
    </g>
    <g clip-path="url(#clipPath4739)">
     <g transform="translate(594.67,255.81)">
      <path d="m0 0c1.104 16.287-11.202 30.387-27.49 31.492-16.286 1.105-30.387-11.201-31.491-27.49-1.107-16.288 11.202-30.386 27.489-31.492 16.287-1.105 30.388 11.202 31.492 27.49" fill="#fcdfcb"/>
     </g>
    </g>
    <g clip-path="url(#clipPath4743)">
     <g transform="translate(594.36,255.83)">
      <path d="m0 0c1.093 16.117-11.085 30.068-27.202 31.163-16.115 1.093-30.069-11.084-31.162-27.202-1.094-16.118 11.086-30.068 27.202-31.163 16.117-1.093 30.069 11.085 31.162 27.202" fill="#fbdeca"/>
     </g>
    </g>
    <g clip-path="url(#clipPath4747)">
     <g transform="translate(594.05,255.86)">
      <path d="m0 0c1.082 15.946-10.968 29.75-26.915 30.833-15.944 1.081-29.75-10.968-30.831-26.915-1.084-15.947 10.968-29.75 26.914-30.833 15.945-1.081 29.75 10.968 30.832 26.915" fill="#fbddc9"/>
     </g>
    </g>
    <g clip-path="url(#clipPath4751)">
     <g transform="translate(593.75,255.88)">
      <path d="m0 0c1.07 15.776-10.851 29.432-26.627 30.504-15.774 1.069-29.432-10.851-30.502-26.627-1.072-15.777 10.851-29.432 26.627-30.504 15.774-1.069 29.432 10.852 30.502 26.627" fill="#fbddc8"/>
     </g>
    </g>
    <g clip-path="url(#clipPath4755)">
     <g transform="translate(593.44,255.9)">
      <path d="m0 0c1.059 15.605-10.733 29.113-26.339 30.174-15.603 1.057-29.114-10.734-30.172-26.34-1.06-15.606 10.734-29.113 26.339-30.174 15.604-1.057 29.114 10.735 30.172 26.34" fill="#fbdcc7"/>
     </g>
    </g>
    <g clip-path="url(#clipPath4759)">
     <g transform="translate(593.13,255.92)">
      <path d="m0 0c1.046 15.435-10.616 28.796-26.051 29.844-15.433 1.047-28.796-10.615-29.843-26.051-1.048-15.436 10.617-28.796 26.051-29.844 15.434-1.047 28.796 10.616 29.843 26.051" fill="#fbdcc6"/>
     </g>
    </g>
    <g clip-path="url(#clipPath4763)">
     <g transform="translate(592.82,255.94)">
      <path d="m0 0c1.035 15.264-10.499 28.477-25.763 29.514-15.262 1.035-28.478-10.498-29.512-25.764-1.038-15.265 10.499-28.477 25.762-29.514 15.263-1.035 28.478 10.499 29.513 25.764" fill="#fbdbc5"/>
     </g>
    </g>
    <g clip-path="url(#clipPath4767)">
     <g transform="translate(592.51,255.96)">
      <path d="m0 0c1.023 15.094-10.381 28.159-25.476 29.185-15.091 1.023-28.159-10.381-29.182-25.476-1.026-15.095 10.382-28.159 25.475-29.185 15.092-1.023 28.16 10.382 29.183 25.476" fill="#fbdac4"/>
     </g>
    </g>
   </g>
  </g>
  <g transform="matrix(.29358 0 0 -.29743 349.76 118.87)">
   <path d="m0 0c-0.773 1.95-1.558 3.895-2.36 5.832 0.796 0.082 1.591 0.157 2.386 0.252 0 0 0-2.217-0.026-6.084m-145.08 43.515c-18.753 5.495-41.049 17.034-50.701 35.187 12.3-9.376 31.84-23.218 55.589-36.385-1.637 0.34-3.268 0.723-4.888 1.198m215.75-119.93c4.741 4.394 8.675 8.626 11.358 12.502 18 26 54 88-8 186s-238 92-284-32c0 0 1.676-10.089 4-12 5.903-25.485 32.324-32.582 55.685-40.273 7.422-2.443 14.726-3.441 22.452-4.42 2.139-0.271 4.271-0.561 6.406-0.841 33.615-16.351 73.118-29.292 111.73-27.285 3.329-7.846 18.595-17.257 21.731-25.181-0.606-35.306-14.927-96.44-22-112 0 0 47.13 26.75 75.314 50.77 12.098-9.435 19.108-24.119 17.894-39.696-1.374-17.632-18.128-24.408-32.519-29.828-4.232-1.594-1.6-8.08 2.623-6.491 16.623 6.261 33.801 14.361 36.665 33.859 2.598 17.689-5.659 35.789-19.335 46.884" fill="#8d6643"/>
  </g>
  <g transform="matrix(.29358 0 0 -.29743 317.47 258.05)">
   <path d="m0 0-30 72s-2-196 18-238l78 234z" fill="#555455"/>
  </g>
  <g transform="matrix(.29358 0 0 -.29743 314.54 309.5)">
   <path d="m0 0 78 234-30-29c-8.746-31.363-40.879-91.131-44-121 0 0-5.947 55.692-9.408 123.78l-12.592 30.22s-2-196 18-238" fill="#3e3f3f"/>
  </g>
  <g transform="matrix(.29358 0 0 -.29743 313.36 208.67)">
   <path d="m0 0c0.912 5.93-8-10-20-16s-8-16-22-24c-14.319-8.183-46-22-50-32s20-74 20-102c0 0-22-46-22-78s30-50 32-70 0-116-10-136-36-84-36-84 178-78 310 14c0 0-48 104-44 150s67.509 186.2 67.509 186.2l4.491 137.8s-90 25.029-90 42c0 4-20 16-26 12s-94-176-108-310c0 0-22 206-6 310" fill="#dbc3a6"/>
  </g>
  <g transform="matrix(.29358 0 0 -.29743 290.46 231.28)">
   <path d="m0 0s-20 14-24 4-78-210-78-210l-24 152s-32-38-52-38c0 0 21.442-187.43 27.721-217.71s24.279-68.286 42.279-48.286 100 200 120 222" fill="#dbc3a6"/>
  </g>
  <g transform="matrix(.29358 0 0 -.29743 373.84 227.71)">
   <path d="m0 0s10 22 36 10 36-64 40-178c3.657-104.24 10-204 10-224s4-105 4-105-50-10-66-2c0 0-8 133-14 197s-22 228-22 262" fill="#dbc3a6"/>
  </g>
  <g transform="matrix(.29358 0 0 -.29743 306.9 222.95)">
   <path d="m0 0c-3.449-11.404-7.023-22.768-10.53-34.152l-10.734-34.086-0.061 0.617c6.088-10.616 12.076-21.29 18.107-31.94l0.3-0.528-0.386-0.476-12.955-16.038c-4.327-5.337-8.616-10.708-12.975-16.019l0.096 1.101c5.457-10.003 10.656-20.116 15.697-30.32 5.028-10.207 9.89-20.5 14.364-30.967 4.481-10.46 8.72-21.037 12.29-31.852 1.762-5.414 3.361-10.886 4.63-16.439 1.248-5.546 2.223-11.206 2.157-16.901-0.14 5.69-1.289 11.285-2.655 16.781-1.404 5.498-3.135 10.906-5.026 16.255-3.764 10.705-8.125 21.196-12.764 31.556-4.669 10.347-9.534 20.609-14.607 30.767-5.08 10.153-10.33 20.236-15.81 30.162l-0.322 0.582 0.418 0.519c4.308 5.355 8.685 10.651 13.025 15.981l13.045 15.962-0.086-1.004c-5.969 10.683-11.981 21.343-17.893 32.059l-0.166 0.303 0.105 0.315 11.266 33.914c3.826 11.282 7.586 22.585 11.47 33.848" fill="#c39c70"/>
  </g>
  <g transform="matrix(.29358 0 0 -.29743 354.04 218.7)">
   <path d="m0 0c-1.824-12.425-3.802-24.824-5.697-37.237l-5.949-37.194-0.072-0.446-0.409-0.217-20.953-11.089-20.979-11.041 0.482 1.376 11.063-24.972c3.675-8.33 7.405-16.636 11.035-24.985l0.304-0.702-0.513-0.564c-8.633-9.473-17.07-19.165-25.348-28.969-8.275-9.812-16.359-19.783-24.282-29.877-7.897-10.114-15.538-20.433-22.664-31.1-3.57-5.327-7.008-10.748-10.156-16.337-3.122-5.596-6.05-11.332-8.167-17.403 1.886 6.15 4.632 12.008 7.632 17.695 3.008 5.69 6.311 11.22 9.749 16.659 6.931 10.846 14.455 21.296 22.195 31.57 7.729 10.284 15.818 20.291 24.052 30.168 8.247 9.873 16.632 19.614 25.256 29.18l-0.209-1.265c-3.703 8.316-7.307 16.677-10.966 25.014l-10.936 25.028-0.401 0.916 0.883 0.46 21.021 10.959 21.047 10.912-0.481-0.664 6.606 37.084c2.289 12.347 4.496 24.707 6.857 37.041" fill="#c39c70"/>
  </g>
  <g transform="matrix(.29358 0 0 -.29743 91.124 405.87)">
   <g clip-path="url(#clipPath5551)" opacity=".51">
    <g transform="translate(659,465)">
     <path d="m0 0c8 24 10 34 10 34l2 54s-6-62-16-68-24-120-24-144c0-0.088 2e-3 -0.166 2e-3 -0.254 10.919 21.728 21.854 43.425 31.535 61.885-2.127 7.728-10.579 41.244-3.537 62.369" fill="#dbc3a6"/>
    </g>
   </g>
   <g clip-path="url(#clipPath5567)" opacity=".5">
    <g transform="translate(960,448)">
     <path d="m0 0c0 20 12 94 12 94-18-48-24-112-24-112s-30-74-32-102c-0.682-9.537 0.264-18.606 1.803-26.425 6.19 30.026 25.634 80.26 41.783 119.17l0.414 7.252z" fill="#dbc3a6"/>
    </g>
   </g>
  </g>
  <g transform="matrix(.29358 0 0 -.29743 320.97 308.15)">
   <path d="m0 0c0 7.329-5.149 13.271-11.501 13.271s-11.501-5.942-11.501-13.271 5.149-13.271 11.501-13.271 11.501 5.942 11.501 13.271" fill="#a57e58"/>
  </g>
  <g transform="matrix(.29358 0 0 -.29743 91.124 405.87)">
   <g clip-path="url(#clipPath5587)">
    <g transform="translate(779.95,329.18)">
     <path d="m0 0c0 5.579-3.919 10.102-8.754 10.102s-8.755-4.523-8.755-10.102 3.92-10.102 8.755-10.102 8.754 4.523 8.754 10.102" fill="#a57e58"/>
    </g>
   </g>
  </g>
  <g transform="matrix(.29358 0 0 -.29743 319.4 333.04)">
   <path d="m0 0c0 7.329-5.149 13.271-11.501 13.271s-11.501-5.942-11.501-13.271 5.149-13.271 11.501-13.271 11.501 5.942 11.501 13.271" fill="#a57e58"/>
  </g>
  <g transform="matrix(.29358 0 0 -.29743 91.124 405.87)">
   <g clip-path="url(#clipPath5607)">
    <g transform="translate(774.61,245.5)">
     <path d="m0 0c0 5.578-3.919 10.101-8.754 10.101-4.836 0-8.755-4.523-8.755-10.101 0-5.579 3.919-10.102 8.755-10.102 4.835 0 8.754 4.523 8.754 10.102" fill="#a57e58"/>
    </g>
   </g>
  </g>
  <g transform="matrix(.29358 0 0 -.29743 319.1 359.21)">
   <path d="m0 0c0 7.329-5.148 13.271-11.501 13.271s-11.501-5.942-11.501-13.271 5.148-13.271 11.501-13.271 11.501 5.942 11.501 13.271" fill="#a57e58"/>
  </g>
  <g transform="matrix(.29358 0 0 -.29743 91.124 405.87)">
   <g clip-path="url(#clipPath5627)">
    <g transform="translate(773.61,157.5)">
     <path d="m0 0c0 5.578-3.92 10.101-8.755 10.101s-8.755-4.523-8.755-10.101c0-5.579 3.92-10.102 8.755-10.102s8.755 4.523 8.755 10.102" fill="#a57e58"/>
    </g>
   </g>
  </g>
  <g transform="matrix(.29358 0 0 -.29743 347.61 119.45)">
   <path d="m0 0s34.602 24.086 37.305-7.977c2.703-32.062-39.204-54.979-39.204-54.979" fill="#fbdac4"/>
  </g>
  <g transform="matrix(.29358 0 0 -.29743 345.07 113.49)">
   <path d="m0 0s8-34 4-52c0 0 16 38 16 58" fill="#8d6643"/>
  </g>
  <g transform="matrix(.29358 0 0 -.29743 91.124 405.87)">
   <g clip-path="url(#clipPath5651)" opacity=".51">
    <g transform="translate(577,381)">
     <path d="m0 0s12-46 6-76c0 0 17 47 1 95z" fill="#dbc3a6"/>
    </g>
   </g>
  </g>
  <g transform="matrix(.29358 0 0 -.29743 91.124 405.87)" clip-path="url(#clipPath6647)">
   <g transform="translate(725,1065)">
    <path d="m0 0s102-66 144-66c0 0-96-4-144 66" fill="#775334"/>
   </g>
   <g transform="translate(691,1073)">
    <path d="m0 0s24-46 80-60c0 0-58 32-80 60" fill="#775334"/>
   </g>
   <g transform="translate(951,997)">
    <path d="m0 0s-8-92-34-104c0 0 40 12 34 104" fill="#775334"/>
   </g>
   <g transform="translate(925,955)">
    <path d="m0 0s2-46-16-62c0 0 24 4 16 62" fill="#775334"/>
   </g>
   <g transform="translate(967,981)">
    <path d="m0 0s-2-68-44-84c0 0 36 38 44 84" fill="#775334"/>
   </g>
  </g>
 </g>
 <text transform="matrix(2.057,0,0,2.057,-297.1,-67.181)" font-family="Carlito" font-size="40px" style="line-height:1.25;shape-inside:url(#rect2271);white-space:pre" xml:space="preserve"/>
</svg>
