<?xml version="1.0" encoding="UTF-8" standalone="no"?>
<svg
   width="510.46201pt"
   height="501.71814pt"
   version="1.1"
   viewBox="0 0 510.462 501.71815"
   id="svg4"
   sodipodi:docname="magic.svg"
   inkscape:version="1.1.1 (3bf5ae0d25, 2021-09-20)"
   xmlns:inkscape="http://www.inkscape.org/namespaces/inkscape"
   xmlns:sodipodi="http://sodipodi.sourceforge.net/DTD/sodipodi-0.dtd"
   xmlns="http://www.w3.org/2000/svg"
   xmlns:svg="http://www.w3.org/2000/svg">
  <defs
     id="defs8" />
  <sodipodi:namedview
     id="namedview6"
     pagecolor="#ffffff"
     bordercolor="#666666"
     borderopacity="1.0"
     inkscape:pageshadow="2"
     inkscape:pageopacity="0.0"
     inkscape:pagecheckerboard="0"
     inkscape:document-units="pt"
     showgrid="false"
     inkscape:snap-global="false"
     inkscape:zoom="0.54343524"
     inkscape:cx="405.75212"
     inkscape:cy="348.7076"
     inkscape:window-width="1366"
     inkscape:window-height="705"
     inkscape:window-x="-8"
     inkscape:window-y="-8"
     inkscape:window-maximized="1"
     inkscape:current-layer="svg4" />
  <path
     d="m 234.99266,88.200939 h 0.004 c -2.4922,0.0703 -4.8359,1.1992 -6.4375,3.1055 -1.6016,1.9063 -2.3125,4.4062 -1.9531,6.875 l 12.305,88.285001 -78.527,41.973 -0.004,0.004 c -3.2695,1.7578 -5.0703,5.3945 -4.4805,9.0703 0.58984,3.6719 3.4375,6.582 7.0977,7.25 l 48.465,8.75 -190.139999,190.14 c -13.1330005,13.129 -13.9770005,34.461 -1.0273,47.406 12.95,12.945 34.277,12.105 47.406,-1.0234 l 190.139999,-190.14 8.7344,48.465 h 0.004 c 0.65625,3.6719 3.5703,6.5312 7.2539,7.1211 3.6836,0.58984 7.332,-1.2188 9.082,-4.5039 l 41.988,-78.492 88.285,12.289 0.004,-0.004 c 3.7031,0.53906 7.332,-1.332 9.0312,-4.6602 1.6992,-3.3281 1.0938,-7.375 -1.5117,-10.07 l -61.883,-64.395 38.742,-80.133 v -0.004 c 1.5859,-3.2422 1.0078,-7.1328 -1.4531,-9.7891 -2.6289,-2.8398 -6.8008,-3.625 -10.27,-1.9336 l -80.152,38.723 -64.344,-61.832001 v 0.004 c -1.6992,-1.6523 -3.9922,-2.543 -6.3555,-2.4766 z"
     id="path888" />
  <path
     d="m 398.42577,394.63986 h 0.004 c -2.3242,0.0234 -4.543,0.96875 -6.168,2.6328 -1.6289,1.6602 -2.5273,3.8984 -2.5,6.2227 v 11.297 c 0.008,4.832 3.9258,8.75 8.7617,8.75 4.832,0 8.7539,-3.918 8.7578,-8.75 v -11.297 c 0.0273,-2.3555 -0.89844,-4.625 -2.5625,-6.293 -1.668,-1.6641 -3.9336,-2.5898 -6.2891,-2.5625 z"
     id="path908" />
  <path
     d="m 423.42977,369.00686 c -4.7422,0.35547 -8.3359,4.4336 -8.0977,9.1836 0.24219,4.75 4.2305,8.4414 8.9883,8.3164 h 11.246 -0.004 c 4.7578,-0.10547 8.5586,-3.9922 8.5586,-8.75 0,-4.7578 -3.8008,-8.6445 -8.5586,-8.75 h -11.246 0.004 c -0.29688,-0.0156 -0.59375,-0.0156 -0.89062,0 z"
     id="path906" />
  <path
     d="m 360.64077,369.00686 c -4.75,0.33594 -8.3633,4.4023 -8.1367,9.1602 0.23047,4.7578 4.2148,8.4609 8.9766,8.3398 h 11.297 c 4.7539,-0.10547 8.5586,-3.9922 8.5586,-8.75 0,-4.7578 -3.8047,-8.6445 -8.5586,-8.75 h -11.297 c -0.28125,-0.0117 -0.55859,-0.0117 -0.83984,0 z"
     id="path904" />
  <path
     d="m 398.42577,331.80386 h 0.004 c -0.30469,0.004 -0.60547,0.0273 -0.90625,0.0625 -4.4805,0.51172 -7.8398,4.3438 -7.7617,8.8555 v 11.312 c 0.008,4.832 3.9258,8.75 8.7617,8.75 4.832,0 8.7539,-3.918 8.7578,-8.75 v -11.312 c 0.0391,-2.3672 -0.875,-4.6484 -2.543,-6.3242 -1.668,-1.6758 -3.9453,-2.6094 -6.3086,-2.582 z"
     id="path902" />
  <path
     d="m 264.4343,222.42645 20.91499,3.79799 3.76061,20.98033 -226.635971,227.63434 c -7.841976,7.87335 -19.217689,7.93153 -25.94525,1.17201 -6.728015,-6.75493 -6.576537,-18.10012 1.265439,-25.97347 z"
     id="path900"
     style="fill:#c87137;stroke-width:1.14294" />
  <path
     d="m 463.66485,197.18379 0.004,-0.004 c -2.3524,-0.13106 -4.6551,0.6894 -6.39391,2.27949 -1.73867,1.58617 -2.76428,3.8103 -2.84443,6.16053 -0.0803,2.35414 0.79143,4.64298 2.41798,6.34391 1.62644,1.70482 3.86789,2.68029 6.22389,2.7059 l 38.5326,1.31411 c 4.75863,0.0568 8.68969,-3.69817 8.85186,-8.4532 0.16216,-4.75504 -3.50395,-8.76903 -8.25539,-9.03663 z"
     id="path898"
     inkscape:transform-center-x="1.3801093"
     inkscape:transform-center-y="22.081748" />
  <path
     d="m 65.765769,160.49586 h 0.004 c -2.3203,0.043 -4.5273,1.0078 -6.1367,2.6836 -1.6094,1.6719 -2.4883,3.9141 -2.4414,6.2344 v 26.422 c 0.10547,4.7578 3.9922,8.5547 8.75,8.5547 4.7578,0 8.6445,-3.7969 8.75,-8.5547 v -26.422 c 0.0469,-2.3789 -0.87891,-4.6758 -2.5625,-6.3594 -1.6836,-1.6836 -3.9805,-2.6055 -6.3594,-2.5586 z"
     id="path896" />
  <path
     d="m 95.347769,130.33186 h 0.004 c -4.8242,0.26172 -8.5273,4.3828 -8.2773,9.207 0.25,4.8281 4.3555,8.543 9.1836,8.3086 h 26.352001 c 2.3281,0.008 4.5625,-0.91016 6.2109,-2.5547 1.6484,-1.6445 2.5781,-3.875 2.5781,-6.2031 0,-2.3281 -0.92969,-4.5586 -2.5781,-6.2031 -1.6484,-1.6445 -3.8828,-2.5625 -6.2109,-2.5547 H 96.258069 c -0.30078,-0.0156 -0.60156,-0.0156 -0.90625,0 z"
     id="path894" />
  <path
     d="m 8.2927686,130.33186 h 0.004 c -4.8242,0.25781 -8.53120005,4.375 -8.28520005,9.1992 0.24219,4.8281 4.34770005,8.5469 9.17580005,8.3164 H 35.605369 c 2.3281,0.008 4.5625,-0.91016 6.2109,-2.5547 1.6484,-1.64454 2.5781,-3.875 2.5781,-6.2031 0,-2.3281 -0.92969,-4.5586 -2.5781,-6.2031 -1.64841,-1.6445 -3.8828,-2.5625 -6.2109,-2.5547 H 9.1873686 c -0.29688,-0.0156 -0.59375,-0.0156 -0.89062,0 z"
     id="path892" />
  <path
     d="m 246.30162,121.27648 50.637,48.605 h 0.004 c 2.6328,2.5273 6.5586,3.1602 9.8438,1.5898 l 62.992,-30.418 -30.418,62.977 -0.004,-0.004 c -1.5781,3.2891 -0.94531,7.2227 1.5898,9.8633 l 48.605,50.637 -69.438,-9.6719 v -0.004 c -3.6211,-0.49609 -7.1641,1.3086 -8.8867,4.5312 l -32.984,61.695 -6.4414,-35.684 0.0859,-0.0977 -0.12109,-0.13281 -5.9648,-33.086 v -0.004 c -0.64844,-3.6094 -3.4766,-6.4414 -7.0898,-7.0898 l -33.121,-5.9648 -0.0859,-0.0976 -0.0703,0.0664 -35.699,-6.4414 61.695,-32.984 v -0.004 c 3.2266,-1.7148 5.0391,-5.2578 4.5469,-8.8867 z"
     id="path890"
     style="fill:#ffd42a" />
  <path
     d="m 65.761769,73.488158 c -4.8047,0.0977 -8.6367,4.0469 -8.5781,8.8555 v 26.422002 -0.004 c 0.10547,4.7578 3.9922,8.5586 8.75,8.5586 4.7578,0 8.6445,-3.8008 8.75,-8.5586 v -26.422002 0.004 c 0.0273,-2.3711 -0.90625,-4.6484 -2.5859,-6.3164 -1.6836,-1.668 -3.9688,-2.582 -6.3359,-2.5391 z"
     id="path886" />
  <path
     d="m 467.76439,48.478376 h 0.004 c -2.2695,0.07422 -4.418,1.0234 -6,2.6484 l -27.258,27.258 c -1.8516,1.5859 -2.957,3.875002 -3.0508,6.308602 -0.0937,2.4375 0.83203,4.8008 2.5547,6.5273 1.7266,1.7227 4.0898,2.6484 6.5273,2.5547 2.4336,-0.0937 4.7227,-1.1992 6.3086,-3.0508 l 27.258,-27.258002 c 2.5586,-2.5156 3.3203,-6.3438 1.9219,-9.6484 -1.3984,-3.3047 -4.6758,-5.4219 -8.2617,-5.3398 z"
     id="path884" />
  <path
     d="m 325.68769,7.243123 0.003,-0.0029 c -1.5147,1.691683 -2.31338,3.900557 -2.23208,6.166995 l 0.86521,38.538922 c -0.13327,2.434284 0.7574,4.815168 2.45158,6.564725 1.69707,1.75218 4.04499,2.71624 6.48337,2.664207 2.43835,-0.0575 4.74055,-1.125908 6.35728,-2.952484 1.61403,-1.823758 2.39688,-4.242282 2.15449,-6.668133 l -0.86537,-38.538879 c -0.0501,-3.58778 -2.29077,-6.783843 -5.64571,-8.05675 -3.35501,-1.272976 -7.1502,-0.36718 -9.56892,2.281442 z"
     id="path884-0" />
  <path
     d="m 180.15519,1.115061 c -4.21077,2.354828 -5.72036,7.677764 -3.37052,11.895697 l 18.44311,33.874722 c 2.36924,4.122887 7.60025,5.602482 11.77544,3.329298 4.17862,-2.275049 5.77474,-7.471673 3.59421,-11.69731 L 192.15434,4.642742 c -1.10579,-2.079944 -3.00032,-3.623655 -5.25749,-4.28938095 -2.2588,-0.660509 -4.68596,-0.388611 -6.74166,0.76169995 z"
     id="path2"
     inkscape:transform-center-x="0.69247122"
     inkscape:transform-center-y="-3.2308258" />
</svg>
