<svg width="120" height="90" enable-background="new 0 0 90 90" version="1.1" viewBox="0 0 120 90" xmlns="http://www.w3.org/2000/svg">
 <g fill-rule="evenodd">
  <path d="m95.6 56.6c-0.616-0.365-1.27-0.188-1.87 0.47-0.616 0.616-1.64 1.94-1.64 1.94-0.543 0.543-1.02 0.177-1.02-0.365 0.0626-1.02 0.136-1.68 0.251-2.83 0.115-1.14 1.1-6.44 1.1-6.44 0.115-0.668-0.355-1.34-1.03-1.46-0.668-0.125-1.34 0.365-1.45 1.02l-1.1 6.51c0 0.188-0.157 0.303-0.345 0.303h-0.136c-0.23 0-0.407-0.188-0.407-0.407l0.407-7.95c0.0731-0.689-0.48-1.27-1.14-1.35-0.658 0-1.25 0.501-1.33 1.16l-0.47 8.32c0 0.188-0.188 0.365-0.365 0.365-0.251 0-0.365-0.136-0.438-0.365l-0.365-7.18c-0.0418-0.658-0.585-1.19-1.25-1.14-0.658 0.0626-1.2 0.595-1.14 1.25l0.365 7.18c0 0.177-0.177 0.365-0.365 0.407-0.177 0-0.365-0.115-0.428-0.334l-0.668-5.5c-0.0626-0.658-0.72-1.14-1.39-1.09-0.658 0.0626-1.14 0.731-1.06 1.39 0 0 1.02 7.59 1.43 10.4 0.251 1.69 0.658 3.26 1.5 4.33 0 0.0626 0 0.136 0.0731 0.177 0.177 0.981 0.407 2.06 0.407 3.04v21.1c0 0.365 0.324 0.658 0.658 0.658h6.99c0.365 0 0.668-0.292 0.668-0.658v-21.1c0-0.804 0.177-1.65 0.428-2.42v-0.0626c0.48-0.303 0.96-0.783 1.39-1.21 1.62-1.81 4.29-6.2 4.29-6.2 0.292-0.616 0.115-1.5-0.553-1.93z"/>
  <path d="m73.7 78.4v-0.251c0.595-1.21 0.595-2.83 0.407-4.52-0.23-2.78-1.1-10.4-1.1-10.4-0.0418-0.668-0.658-1.14-1.37-1.08-0.658 0.0522-1.16 0.658-1.09 1.37l0.585 5.56c0 0.177-0.115 0.365-0.292 0.407-0.188 0.0731-0.407-0.115-0.407-0.292l-1.33-7.11c-0.136-0.668-0.793-1.1-1.46-0.96-0.658 0.115-1.09 0.773-0.95 1.43l1.32 7.07c0.0731 0.157-0.115 0.407-0.292 0.407-0.188 0.0731-0.365-0.0626-0.438-0.251l-2.41-8c-0.177-0.658-0.887-1.02-1.55-0.846-0.668 0.188-1.03 0.898-0.846 1.56l2.35 7.65c0.0418 0.251-0.0731 0.438-0.303 0.48h-0.136c-0.177 0.0731-0.365-0.0418-0.407-0.23l-2.6-6.03c-0.251-0.595-0.96-0.887-1.62-0.658-0.616 0.251-0.908 0.971-0.679 1.64 0 0 2.18 4.95 2.6 6.01 0.418 1.1 0.605 1.69 0.908 2.66 0.177 0.532-0.251 1.03-0.908 0.595 0 0-1.34-1.02-2.06-1.5-0.72-0.48-1.43-0.543-1.91 0-0.553 0.543-0.553 1.44 0.0418 1.98 0 0 3.62 3.62 5.61 5.01 0.48 0.303 1.02 0.668 1.58 0.846v0.0418c0.47 0.731 0.773 1.58 1.02 2.37l1.5 6.27c0.0626 0.292 0.292 0.47 0.616 0.47h7.22c0.407 0 0.731-0.355 0.595-0.793l-1.92-7.95c-0.177-0.887-0.251-1.98-0.292-2.93z"/>
  <path d="m114 73.2c-0.532-0.553-1.2-0.491-1.92 0-0.71 0.491-2.05 1.5-2.05 1.5-0.658 0.407-1.1-0.0731-0.908-0.616 0.292-0.96 0.48-1.57 0.908-2.64 0.418-1.09 2.6-6.04 2.6-6.04 0.23-0.595 0-1.32-0.689-1.62-0.595-0.251-1.32 0-1.62 0.668l-2.6 6.08c-0.0417 0.188-0.219 0.251-0.407 0.251h-0.136c-0.23-0.0626-0.345-0.251-0.292-0.47l2.3-7.66c0.188-0.658-0.177-1.33-0.846-1.58-0.658-0.177-1.32 0.188-1.57 0.846l-2.42 8.03c-0.0417 0.177-0.219 0.282-0.407 0.219-0.177-0.0522-0.365-0.219-0.313-0.407l1.34-7.07c0.115-0.658-0.313-1.32-0.981-1.43-0.658-0.115-1.32 0.292-1.43 0.96l-1.33 7.06c-0.0626 0.188-0.251 0.365-0.428 0.303-0.188-0.0731-0.292-0.251-0.292-0.438l0.585-5.53c0.0731-0.668-0.407-1.27-1.06-1.39-0.668-0.0522-1.28 0.428-1.39 1.09 0 0-0.783 7.66-1.1 10.4-0.188 1.68-0.115 3.37 0.48 4.58v0.136c-0.0522 0.95-0.115 2.1-0.345 3.01l-1.94 7.95c-0.115 0.428 0.188 0.773 0.595 0.773h7.3c0.313 0 0.543-0.188 0.605-0.48l1.51-6.26c0.177-0.773 0.543-1.62 0.95-2.35 0.553-0.177 1.17-0.48 1.64-0.846 2.06-1.39 5.61-5.01 5.61-5.01 0.595-0.595 0.668-1.5 0.0522-2.03z"/>
 </g>
 <g transform="matrix(2.12 0 0 2.12 6.47 8.25)">
  <g transform="translate(0 -1028)" shape-rendering="auto">
   <path d="m8.03 1041h-0.0195l-2.51 0.502 0.195 0.98 2.46-0.492c0.622-0.077 1.63 0.207 2.24 0.56l2.5 1.43h2.98c0.35 0 0.623 0.275 0.623 0.629v0.232c0 0.354-0.273 0.627-0.623 0.627h-4.33v1h4.33c0.892 0 1.62-0.734 1.62-1.63v-0.232c0-0.892-0.731-1.63-1.62-1.63h-2.71l-2.27-1.3c-0.791-0.454-1.88-0.809-2.87-0.685z" color="#000000" color-rendering="auto" enable-background="accumulate" fill-rule="evenodd" image-rendering="auto" solid-color="#000000" style="isolation:auto;mix-blend-mode:normal;text-decoration-color:#000000;text-decoration-line:none;text-decoration-style:solid;text-indent:0;text-transform:none;white-space:normal"/>
   <path d="m22 1044c-0.351-0.181-0.794-0.149-1.19 0.01l-4.01 1.61c-0.636 0.241-0.253 1.19 0.373 0.927l4.01-1.61c0.307-0.123 0.644 0 0.793 0.305l2e-3 0.01c0.16 0.328 0.0264 0.711-0.305 0.859l-5.56 2.48c-1.4 0.626-2.96 0.772-4.46 0.42l-5.99-1.42c-0.67-0.188-0.912 0.842-0.229 0.972l5.99 1.42c1.7 0.403 3.49 0.235 5.09-0.48l5.56-2.49c0.842-0.376 1.2-1.39 0.793-2.22-0.188-0.386-0.569-0.643-0.879-0.803z" color="#000000" color-rendering="auto" enable-background="accumulate" fill-rule="evenodd" image-rendering="auto" solid-color="#000000" style="isolation:auto;mix-blend-mode:normal;text-decoration-color:#000000;text-decoration-line:none;text-decoration-style:solid;text-indent:0;text-transform:none;white-space:normal"/>
   <path d="m2 1041a0.5 0.5 0 0 0-0.5 0.5v8a0.5 0.5 0 0 0 0.5 0.5h3.5a0.5 0.5 0 0 0 0.5-0.5v-8a0.5 0.5 0 0 0-0.5-0.5zm0.5 1h2.5v7h-2.5z" color="#000000" color-rendering="auto" enable-background="accumulate" image-rendering="auto" solid-color="#000000" style="isolation:auto;mix-blend-mode:normal;text-decoration-color:#000000;text-decoration-line:none;text-decoration-style:solid;text-indent:0;text-transform:none;white-space:normal"/>
  </g>
 </g>
 <g transform="translate(11.6 -34.5)">
  <path d="m37.7 59.7c0.0337 0.224 0.0635 0.367 0.0752 0.512 0.0376 0.488-0.125 0.866-0.565 1.13-0.344 0.209-0.346 0.853 2.01e-4 1.08 0.434 0.286 0.597 0.666 0.572 1.17-0.0223 0.449 9.17e-4 0.899-0.0069 1.35-0.0071 0.436-0.236 0.671-0.667 0.664-0.288-5e-3 -0.593-0.0036-0.856-0.0994-0.188-0.0679-0.332-0.282-0.473-0.45-0.151-0.179-0.25-0.406-0.416-0.566-0.616-0.59-1.48-0.458-1.91 0.363-0.366 0.702-0.913 0.825-1.59 0.756-0.318-0.0328-0.529-0.248-0.537-0.587-0.0129-0.584-0.0182-1.17 0.0027-1.75 0.012-0.344 0.195-0.608 0.494-0.796 0.376-0.237 0.452-0.858 0.0967-1.1-0.496-0.331-0.657-0.767-0.599-1.33 0.0071-0.0665 2e-3 -0.134-0.0019-0.202-0.0013-0.0212-0.013-0.0419-0.0291-0.0892-0.0975-0.0039-0.206-0.014-0.313-0.014-3.57 1.02e-4 -7.15 5.79e-4 -10.7 0.0018-1.09 3.9e-4 -1.95 0.635-2.26 1.67-0.147 0.506-0.27 1.02-0.382 1.53-0.346 1.59-1.69 2.61-3.31 2.51-1.49-0.0932-2.72-1.33-2.85-2.88-0.0066-0.0764-0.0171-0.152-0.0269-0.24-1.52 0.248-2.74-0.21-3.5-1.57-0.604-1.08-0.543-2.2 0.163-3.22 0.834-1.2 2.02-1.56 3.47-1.26-0.0182-0.12-0.0297-0.224-0.0517-0.326-0.346-1.67 0.717-3.31 2.37-3.67 1.68-0.366 3.33 0.687 3.71 2.36 0.129 0.557 0.259 1.12 0.425 1.66 0.298 0.98 1.17 1.6 2.2 1.6 3.71 6.24e-4 7.42-6.29e-4 11.1-0.0015 2.39-2.58e-4 4.79-8.9e-4 7.18-0.0015 0.581 2.68e-4 0.662 0.0816 0.662 0.661 6.06e-4 0.236 0.0012 0.472 3.19e-4 0.709-0.0014 0.292-0.162 0.439-0.441 0.439-0.313-0.0014-0.626-0.0271-1.04-0.0454zm-25.8 0.847c0.676-0.668 0.692-1.78 0.0369-2.46-0.653-0.676-1.78-0.688-2.45-0.0277-0.696 0.68-0.713 1.8-0.0392 2.48 0.665 0.667 1.79 0.67 2.46 0.0059zm1.49 0.569c-0.708 0.691-0.729 1.79-0.047 2.48 0.656 0.665 1.77 0.679 2.43 0.0298 0.702-0.684 0.721-1.79 0.0427-2.48-0.66-0.669-1.76-0.681-2.43-0.0277zm2.43-6.98c-0.687-0.691-1.8-0.695-2.48-0.0123-0.67 0.676-0.663 1.77 0.0174 2.45 0.672 0.674 1.78 0.68 2.45 0.0131 0.673-0.668 0.676-1.78 0.0078-2.45z" fill="#a08" stroke-width=".266"/>
 </g>
</svg>
