<?xml version="1.0" encoding="UTF-8"?>
<svg width="120" height="90" enable-background="new 0 0 90 90" version="1.1" viewBox="0 0 120 90" xmlns="http://www.w3.org/2000/svg">
 <g fill-rule="evenodd">
  <path d="m95.6 56.6c-0.616-0.365-1.27-0.188-1.87 0.47-0.616 0.616-1.64 1.94-1.64 1.94-0.543 0.543-1.02 0.177-1.02-0.365 0.0626-1.02 0.136-1.68 0.251-2.83 0.115-1.14 1.1-6.44 1.1-6.44 0.115-0.668-0.355-1.34-1.03-1.46-0.668-0.125-1.34 0.365-1.45 1.02l-1.1 6.51c0 0.188-0.157 0.303-0.345 0.303h-0.136c-0.23 0-0.407-0.188-0.407-0.407l0.407-7.95c0.0731-0.689-0.48-1.27-1.14-1.35-0.658 0-1.25 0.501-1.33 1.16l-0.47 8.32c0 0.188-0.188 0.365-0.365 0.365-0.251 0-0.365-0.136-0.438-0.365l-0.365-7.18c-0.0418-0.658-0.585-1.19-1.25-1.14-0.658 0.0626-1.2 0.595-1.14 1.25l0.365 7.18c0 0.177-0.177 0.365-0.365 0.407-0.177 0-0.365-0.115-0.428-0.334l-0.668-5.5c-0.0626-0.658-0.72-1.14-1.39-1.09-0.658 0.0626-1.14 0.731-1.06 1.39 0 0 1.02 7.59 1.43 10.4 0.251 1.69 0.658 3.26 1.5 4.33 0 0.0626 0 0.136 0.0731 0.177 0.177 0.981 0.407 2.06 0.407 3.04v21.1c0 0.365 0.324 0.658 0.658 0.658h6.99c0.365 0 0.668-0.292 0.668-0.658v-21.1c0-0.804 0.177-1.65 0.428-2.42v-0.0626c0.48-0.303 0.96-0.783 1.39-1.21 1.62-1.81 4.29-6.2 4.29-6.2 0.292-0.616 0.115-1.5-0.553-1.93z" fill="#37c837"/>
  <path d="m73.7 78.4v-0.251c0.595-1.21 0.595-2.83 0.407-4.52-0.23-2.78-1.1-10.4-1.1-10.4-0.0418-0.668-0.658-1.14-1.37-1.08-0.658 0.0522-1.16 0.658-1.09 1.37l0.585 5.56c0 0.177-0.115 0.365-0.292 0.407-0.188 0.0731-0.407-0.115-0.407-0.292l-1.33-7.11c-0.136-0.668-0.793-1.1-1.46-0.96-0.658 0.115-1.09 0.773-0.95 1.43l1.32 7.07c0.0731 0.157-0.115 0.407-0.292 0.407-0.188 0.0731-0.365-0.0626-0.438-0.251l-2.41-8c-0.177-0.658-0.887-1.02-1.55-0.846-0.668 0.188-1.03 0.898-0.846 1.56l2.35 7.65c0.0418 0.251-0.0731 0.438-0.303 0.48h-0.136c-0.177 0.0731-0.365-0.0418-0.407-0.23l-2.6-6.03c-0.251-0.595-0.96-0.887-1.62-0.658-0.616 0.251-0.908 0.971-0.679 1.64 0 0 2.18 4.95 2.6 6.01 0.418 1.1 0.605 1.69 0.908 2.66 0.177 0.532-0.251 1.03-0.908 0.595 0 0-1.34-1.02-2.06-1.5s-1.43-0.543-1.91 0c-0.553 0.543-0.553 1.44 0.0418 1.98 0 0 3.62 3.62 5.61 5.01 0.48 0.303 1.02 0.668 1.58 0.846v0.0418c0.47 0.731 0.773 1.58 1.02 2.37l1.5 6.27c0.0626 0.292 0.292 0.47 0.616 0.47h7.22c0.407 0 0.731-0.355 0.595-0.793l-1.92-7.95c-0.177-0.887-0.251-1.98-0.292-2.93z" fill="#3771c8"/>
  <path d="m114 73.2c-0.532-0.553-1.2-0.491-1.92 0-0.71 0.491-2.05 1.5-2.05 1.5-0.658 0.407-1.1-0.0731-0.908-0.616 0.292-0.96 0.48-1.57 0.908-2.64 0.418-1.09 2.6-6.04 2.6-6.04 0.23-0.595 0-1.32-0.689-1.62-0.595-0.251-1.32 0-1.62 0.668l-2.6 6.08c-0.0417 0.188-0.219 0.251-0.407 0.251h-0.136c-0.23-0.0626-0.345-0.251-0.292-0.47l2.3-7.66c0.188-0.658-0.177-1.33-0.846-1.58-0.658-0.177-1.32 0.188-1.57 0.846l-2.42 8.03c-0.0417 0.177-0.219 0.282-0.407 0.219-0.177-0.0522-0.365-0.219-0.313-0.407l1.34-7.07c0.115-0.658-0.313-1.32-0.981-1.43-0.658-0.115-1.32 0.292-1.43 0.96l-1.33 7.06c-0.0626 0.188-0.251 0.365-0.428 0.303-0.188-0.0731-0.292-0.251-0.292-0.438l0.585-5.53c0.0731-0.668-0.407-1.27-1.06-1.39-0.668-0.0522-1.28 0.428-1.39 1.09 0 0-0.783 7.66-1.1 10.4-0.188 1.68-0.115 3.37 0.48 4.58v0.136c-0.0522 0.95-0.115 2.1-0.345 3.01l-1.94 7.95c-0.115 0.428 0.188 0.773 0.595 0.773h7.3c0.313 0 0.543-0.188 0.605-0.48l1.51-6.26c0.177-0.773 0.543-1.62 0.95-2.35 0.553-0.177 1.17-0.48 1.64-0.846 2.06-1.39 5.61-5.01 5.61-5.01 0.595-0.595 0.668-1.5 0.0522-2.03z" fill="#c87137"/>
 </g>
 <g transform="translate(15.6,-34.5)" fill="#a80">
  <path d="m37.7 59.7c0.0337 0.224 0.0635 0.367 0.0752 0.512 0.0376 0.488-0.125 0.866-0.565 1.13-0.344 0.209-0.346 0.853 2.01e-4 1.08 0.434 0.286 0.597 0.666 0.572 1.17-0.0223 0.449 9.17e-4 0.899-0.0069 1.35-0.0071 0.436-0.236 0.671-0.667 0.664-0.288-5e-3 -0.593-0.0036-0.856-0.0994-0.188-0.0679-0.332-0.282-0.473-0.45-0.151-0.179-0.25-0.406-0.416-0.566-0.616-0.59-1.48-0.458-1.91 0.363-0.366 0.702-0.913 0.825-1.59 0.756-0.318-0.0328-0.529-0.248-0.537-0.587-0.0129-0.584-0.0182-1.17 0.0027-1.75 0.012-0.344 0.195-0.608 0.494-0.796 0.376-0.237 0.452-0.858 0.0967-1.1-0.496-0.331-0.657-0.767-0.599-1.33 0.0071-0.0665 2e-3 -0.134-0.0019-0.202-0.0013-0.0212-0.013-0.0419-0.0291-0.0892-0.0975-0.0039-0.206-0.014-0.313-0.014-3.57 1.02e-4 -7.15 5.79e-4 -10.7 0.0018-1.09 3.9e-4 -1.95 0.635-2.26 1.67-0.147 0.506-0.27 1.02-0.382 1.53-0.346 1.59-1.69 2.61-3.31 2.51-1.49-0.0932-2.72-1.33-2.85-2.88-0.0066-0.0764-0.0171-0.152-0.0269-0.24-1.52 0.248-2.74-0.21-3.5-1.57-0.604-1.08-0.543-2.2 0.163-3.22 0.834-1.2 2.02-1.56 3.47-1.26-0.0182-0.12-0.0297-0.224-0.0517-0.326-0.346-1.67 0.717-3.31 2.37-3.67 1.68-0.366 3.33 0.687 3.71 2.36 0.129 0.557 0.259 1.12 0.425 1.66 0.298 0.98 1.17 1.6 2.2 1.6 3.71 6.24e-4 7.42-6.29e-4 11.1-0.0015 2.39-2.58e-4 4.79-8.9e-4 7.18-0.0015 0.581 2.68e-4 0.662 0.0816 0.662 0.661 6.06e-4 0.236 0.0012 0.472 3.19e-4 0.709-0.0014 0.292-0.162 0.439-0.441 0.439-0.313-0.0014-0.626-0.0271-1.04-0.0454zm-25.8 0.847c0.676-0.668 0.692-1.78 0.0369-2.46-0.653-0.676-1.78-0.688-2.45-0.0277-0.696 0.68-0.713 1.8-0.0392 2.48 0.665 0.667 1.79 0.67 2.46 0.0059zm1.49 0.569c-0.708 0.691-0.729 1.79-0.047 2.48 0.656 0.665 1.77 0.679 2.43 0.0298 0.702-0.684 0.721-1.79 0.0427-2.48-0.66-0.669-1.76-0.681-2.43-0.0277zm2.43-6.98c-0.687-0.691-1.8-0.695-2.48-0.0123-0.67 0.676-0.663 1.77 0.0174 2.45 0.672 0.674 1.78 0.68 2.45 0.0131 0.673-0.668 0.676-1.78 0.0078-2.45z" fill="#a80" stroke-width=".266"/>
 </g>
 <g transform="translate(7.1746 24.243)">
  <g transform="translate(0 -1028.4)">
   <g transform="matrix(1.7798 0 0 1.4875 -2.943 -511.28)">
    <g shape-rendering="auto">
     <path d="m8.0293 1042.1h-0.019531l-2.5098 0.4343 0.19531 0.8484 2.4609-0.4259c0.62247-0.067 1.6286 0.1795 2.2441 0.4851l2.5 1.2404h2.9766c0.34968 0 0.62305 0.2377 0.62305 0.5442v0.2011c0 0.3065-0.27337 0.5424-0.62305 0.5424h-4.3301c-0.53922 0.2885-0.43782 0.6431 0 0.8653h4.3301c0.89212 0 1.623-0.6354 1.623-1.4077v-0.2011c0-0.7722-0.73093-1.4095-1.623-1.4095h-2.709l-2.2715-1.1255c-0.7914-0.3929-1.8803-0.7002-2.8672-0.5932z" color="#000000" color-rendering="auto" enable-background="accumulate" fill-rule="evenodd" image-rendering="auto" solid-color="#000000" style="isolation:auto;mix-blend-mode:normal;text-decoration-color:#000000;text-decoration-line:none;text-decoration-style:solid;text-indent:0;text-transform:none;white-space:normal"/>
     <path d="m21.951 1043.7c-0.35126-0.181-0.79398-0.1494-1.1855 0.01l-4.0078 1.6106c-0.63622 0.2409-0.25292 1.1937 0.37305 0.9273l4.0078-1.6106c0.30683-0.1231 0.64442 0 0.79297 0.3046l2e-3 0.01c0.16038 0.3285 0.02638 0.711-0.30469 0.8589l-5.5605 2.4834c-1.4 0.6255-2.9639 0.7724-4.4551 0.4197l-5.9922-1.4154c-0.67005-0.1879-0.9122 0.8423-0.22852 0.9723l5.9902 1.4173c1.7046 0.4032 3.4937 0.2347 5.0938-0.4802l5.5605-2.4854c0.84228-0.3764 1.204-1.3936 0.79297-2.2198-0.18775-0.3863-0.56894-0.643-0.87895-0.8027z" color="#000000" color-rendering="auto" enable-background="accumulate" fill-rule="evenodd" image-rendering="auto" solid-color="#000000" style="isolation:auto;mix-blend-mode:normal;text-decoration-color:#000000;text-decoration-line:none;text-decoration-style:solid;text-indent:0;text-transform:none;white-space:normal"/>
     <path d="m2 1040.9a0.50005 0.49984 0 0 0-0.5 0.4998v7.9967a0.50005 0.49984 0 0 0 0.5 0.4998h3.5a0.50005 0.49984 0 0 0 0.5-0.4998v-7.9967a0.50005 0.49984 0 0 0-0.5-0.4998zm0.5 0.9996h2.5v6.9971h-2.5z" color="#000000" color-rendering="auto" enable-background="accumulate" image-rendering="auto" solid-color="#000000" style="isolation:auto;mix-blend-mode:normal;text-decoration-color:#000000;text-decoration-line:none;text-decoration-style:solid;text-indent:0;text-transform:none;white-space:normal"/>
    </g>
    <rect x="2.2685" y="1041.7" width="2.9274" height="7.403" ry=".52016" fill="#2ca02c" stroke-width=".50524"/>
    <g fill="#d38d5f">
     <path transform="matrix(.56187 0 0 .67229 -2.3776 1018.8)" d="m20.683 43.564-5.6569-1.1494-0.20461-5.7748 1.6933-0.26997c2.8862-0.46016 4.5336-0.23271 7.8105 1.0784 2.7133 1.0856 3.5682 1.2654 6.0149 1.2654 2.9083 0 3.6523 0.32356 2.881 1.2529-0.32999 0.39761-1.3787 0.51484-4.6058 0.51484-2.6844 0-4.2654 0.14055-4.4214 0.39308-0.46482 0.75209 0.75626 1.0103 4.8026 1.0157 3.2885 0.0044 4.308-0.12031 5.3033-0.64861 2.2827-1.2116 8.1587-2.9907 8.5582-2.5913 0.81897 0.81897-0.27682 1.4789-5.8961 3.551-7.6198 2.8097-8.7083 2.9009-16.279 1.3626z" stroke-width=".35355"/>
     <g stroke-width=".03125">
      <path transform="matrix(.56187 0 0 .67229 -2.3776 1018.8)" d="m29.531 44.518c0-0.08583 0.0097-0.09318 0.14844-0.11243 0.08164-0.01133 0.36641-0.06237 0.63281-0.11342 1.6179-0.31006 3.5556-0.93452 7.5781-2.4422 4.5789-1.7162 5.6764-2.3969 5.0258-3.1171l-0.11118-0.12306h-0.24326c-0.66503 0-2.4365 0.44548-4.4682 1.1237-1.2985 0.43345-2.6919 0.96871-3.2254 1.2391-0.2262 0.11463-0.23529 0.09082-0.03904-0.10232 0.16302-0.16044 0.21248-0.18818 0.52688-0.29559 0.19083-0.06519 1.7743-0.5981 3.5188-1.1842l3.1719-1.0657 0.28125 0.01122c0.44688 0.01783 0.75056 0.18905 0.93918 0.52954 0.08062 0.14553 0.09208 0.19763 0.09208 0.41866 0 0.22656-0.0097 0.26817-0.09474 0.40568-0.16999 0.27495-0.29784 0.34322-1.4461 0.77219-9.8656 3.6855-9.494 3.549-10.189 3.7414-0.52964 0.14661-1.8455 0.40643-2.0583 0.40643-0.02359 0-0.04014-0.03788-0.04014-0.09184z"/>
      <path transform="matrix(.56187 0 0 .67229 -2.3776 1018.8)" d="m32.869 38.588c0.02256-9e-3 0.04951-0.0079 0.0599 0.0025 0.01038 0.01038-0.0081 0.01777-0.04102 0.01641-0.03641-0.0015-0.04381-0.0089-0.01888-0.01888z"/>
      <path transform="matrix(.56187 0 0 .67229 -2.3776 1018.8)" d="m31.391 40.421c1.1952-0.08299 1.6399-0.20997 1.8885-0.53928 0.47296-0.62642 0.19499-0.92346-1.0135-1.0831-0.1375-0.01816-0.84062-0.04632-1.5625-0.06258s-1.4812-0.03784-1.6875-0.04796c-0.38136-0.01871-1.1761-0.10403-1.2014-0.12898-0.0077-0.0075 1.1173-0.0098 2.5-5e-3l2.5139 0.0087 0.18455 0.07438c0.23703 0.09553 0.49892 0.34435 0.54664 0.51937 0.05631 0.2065 0.04304 0.51678-0.02807 0.65625-0.03437 0.06742-0.0625 0.14498-0.0625 0.17235 0 0.05296-0.15168 0.20703-0.28125 0.2857-0.24493 0.1487-0.34837 0.16237-1.2812 0.16942-0.70721 0.0053-0.8134 0.0014-0.51562-0.01931z"/>
     </g>
    </g>
    <path transform="matrix(.56187 0 0 .67229 -2.3776 1018.8)" d="m29.522 44.527c0-0.08063-0.01867-0.09473-0.09944-0.07513-0.05469 0.01328-0.3878 0.04789-0.74025 0.07692-1.1759 0.09687-2.7908-0.01375-4.5698-0.31304-0.43578-0.07331-0.83129-0.12092-0.87892-0.10581-0.0621 0.01971-0.07698 0.01192-0.05258-0.02756 0.02601-0.04209-0.0065-0.04802-0.1381-0.02519-0.13156 0.02282-0.1565 0.01828-0.10583-0.01929 0.05083-0.03768 0.02506-0.04283-0.11048-0.0221-0.13554 0.02074-0.16131 0.01558-0.11049-0.0221 0.05084-0.03769 0.02665-0.04256-0.10379-0.02092-0.12422 0.02061-0.16146 0.01427-0.1381-0.02352 0.0233-0.03769-7e-3 -0.04317-0.11166-0.02019-0.10727 0.02356-0.13524 0.01796-0.11049-0.0221 0.02464-0.03987-0.0023-0.04585-0.10496-0.02331-0.08928 0.01961-0.13811 0.01317-0.13811-0.01821 0-0.02972-0.04286-0.03779-0.11049-0.02082-0.06892 0.0173-0.11048 9e-3 -0.11048-0.0221 0-0.03183-0.04229-0.03921-0.11708-0.02044-0.08755 0.02197-0.10845 0.01542-0.08286-0.02598 0.02608-0.0422 4.4e-5 -0.04786-0.10942-0.02382-0.10727 0.02356-0.13524 0.01797-0.11048-0.0221 0.02464-0.03987-0.0023-0.04585-0.10496-0.02331-0.08928 0.01961-0.13811 0.01317-0.13811-0.01821 0-0.03045-0.04366-0.03759-0.11708-0.01916-0.08755 0.02197-0.10845 0.01542-0.08286-0.02598 0.02596-0.042 8.71e-4 -0.04804-0.10389-0.02503-0.0942 0.02069-0.13811 0.01364-0.13811-0.02216 0-0.03438-0.0394-0.04261-0.11419-0.02384-0.08251 0.02071-0.10512 0.01399-0.08152-0.02421 0.02398-0.0388-5e-3 -0.04533-0.10898-0.02453-0.10048 0.0201-0.13259 0.01367-0.11048-0.0221 0.02211-0.03577-0.01001-0.04219-0.11049-0.0221-0.10048 0.0201-0.13259 0.01367-0.11048-0.0221 0.02211-0.03577-0.01001-0.04219-0.11049-0.0221-0.09929 0.01986-0.13248 0.01348-0.11097-0.02132 0.02181-0.03528-0.01911-0.04101-0.14143-0.01979-0.13156 0.02282-0.1565 0.01827-0.10583-0.01929 0.05083-0.03768 0.02505-0.04283-0.11048-0.0221-0.13554 0.02073-0.16131 0.01558-0.11049-0.0221 0.05083-0.03768 0.02506-0.04283-0.11048-0.0221-0.13554 0.02074-0.16131 0.01558-0.11049-0.0221 0.05083-0.03768 0.02505-0.04283-0.11048-0.0221-0.13554 0.02074-0.16131 0.01558-0.11049-0.0221 0.05083-0.03768 0.02505-0.04283-0.11048-0.0221-0.13554 0.02073-0.16131 0.01558-0.11049-0.0221 0.05083-0.03768 0.02506-0.04283-0.11048-0.0221-0.13554 0.02074-0.16131 0.01558-0.11048-0.0221 0.05083-0.03768 0.02505-0.04283-0.11049-0.0221-0.10759 0.01646-0.15417 0.0118-0.11902-0.0119 0.03732-0.02516-0.23637-0.09741-0.7734-0.20417-0.45713-0.09087-0.92562-0.18511-1.0411-0.20942l-0.20992-0.0442v-3.1341c0-1.7238 0.01546-3.1341 0.03435-3.1341s0.31223-0.0389 0.65186-0.08645c1.0583-0.14816 1.8845-0.19081 2.6306-0.13579 1.4626 0.10788 2.5111 0.38524 4.781 1.2648 0.70866 0.2746 1.2112 0.4464 1.2557 0.4293 0.04673-0.01793 0.06349-0.01104 0.04519 0.01857-0.03277 0.05302 0.08915 0.11429 0.15116 0.07597 0.02211-0.01367 0.04021-0.0044 0.04021 0.02057 0 0.02498 0.02983 0.03397 0.06629 0.01998s0.06629-0.0077 0.06629 0.01408c0 0.02173 0.0348 0.04222 0.07734 0.04553 0.04254 0.0033 0.17678 0.04889 0.29831 0.1013 0.12153 0.05241 0.39996 0.14743 0.61872 0.21117l0.39775 0.11589 5.5243 0.04848 0.22626 0.11936c0.2467 0.13014 0.44329 0.334 0.48593 0.5039 0.04752 0.18933-0.0055 0.65225-0.0952 0.83165-0.06174 0.12344-0.15657 0.21241-0.32973 0.30936l-0.24307 0.13608-3.0052 0.03016c-3.6912 0.03704-5.0323 0.10886-5.5109 0.29515-0.2722 0.10594-0.32847 0.4214-0.11312 0.63411 0.33247 0.3284 1.2593 0.43038 4.2136 0.46361 2.351 0.02644 3.5401-0.01763 4.3995-0.16306 0.83751-0.14173 1.4968-0.42123 1.8774-0.79589l0.2236-0.22011 3.5538-1.197c3.4064-1.1473 3.5643-1.1959 3.8076-1.1723 0.32011 0.03109 0.54482 0.12421 0.73487 0.30452 0.2988 0.28348 0.38445 0.64715 0.23166 0.98355-0.16648 0.36653-0.28318 0.42583-2.376 1.2073-7.3475 2.7434-8.6114 3.2088-9.0905 3.3468-0.56337 0.16226-1.6403 0.39201-2.0729 0.44223-0.24269 0.02817-0.25412 0.02503-0.25412-0.06977z" fill="#deaa87" stroke-width=".044194"/>
    <path transform="matrix(.56187 0 0 .67229 -2.3776 1018.8)" d="m26.922 44.716c-1.0247-0.08559-1.3961-0.13696-2.3594-0.32635-0.36094-0.07096-0.83203-0.16227-1.0469-0.20291-0.21484-0.04064-0.71406-0.13809-1.1094-0.21656-0.94782-0.18813-1.3269-0.26294-1.4219-0.28061-0.04297-8e-3 -0.47188-0.09311-0.95312-0.18915-0.48125-0.09604-1.8031-0.35793-2.9375-0.58199-1.1344-0.22405-2.0941-0.41492-2.1328-0.42415l-0.07031-0.01678 4.73e-4 -1.8013c2.6e-4 -0.99072-0.01633-2.2897-0.03688-2.8866-0.03168-0.9207-0.03073-1.0984 0.0063-1.1719 0.02401-0.04762 0.04511-0.08992 0.04689-0.094 0.0018-0.0041 0.87892-0.13416 1.9492-0.28906 2.3962-0.34681 2.5527-0.3525 3.7834-0.13755 1.0355 0.18086 1.5061 0.33537 3.3444 1.098 0.74766 0.31018 1.4859 0.61512 1.6406 0.67765 0.15469 0.06252 0.30938 0.12716 0.34375 0.14364 0.18582 0.08909 0.79104 0.29605 1.0947 0.37436l0.34841 0.08983 5.4319 0.04358 0.17188 0.08648c0.43762 0.22018 0.59375 0.43629 0.59375 0.82184 0 0.26685-0.09549 0.55644-0.23142 0.70181-0.05306 0.05675-0.1809 0.14974-0.28409 0.20666l-0.18762 0.10348-2.9219 0.0365c-3.6694 0.04584-4.6536 0.08707-5.3152 0.22261-0.33146 0.06791-0.42272 0.11918-0.48732 0.27381-0.10237 0.245 0.08083 0.48577 0.45879 0.60298 0.50377 0.15622 0.52987 0.15707 4.5 0.14626l3.7031-0.01009 0.35938-0.08788c0.71011-0.17364 1.1523-0.38386 1.5448-0.73433 0.29411-0.26263-0.14217-0.10052 4.0958-1.5219l3.1563-1.0586 0.28125 0.0014c0.21476 0.0011 0.32337 0.01791 0.45943 0.07127 0.62862 0.24654 0.85257 0.98829 0.43721 1.448-0.20792 0.23014-0.01961 0.1529-3.9591 1.624-6.7799 2.5317-7.1268 2.6565-7.9219 2.8494-1.1956 0.29018-2.0428 0.39437-3.3281 0.40928-0.49844 0.0058-0.96953 0.0052-1.0469-0.0012z" fill="#deaa87" stroke-width=".03125"/>
   </g>
  </g>
 </g>
</svg>
