<?xml version="1.0" encoding="UTF-8" standalone="no"?>
<svg
   width="120"
   height="90"
   enable-background="new 0 0 90 90"
   version="1.1"
   viewBox="0 0 120 90"
   id="svg6"
   sodipodi:docname="places.svg"
   inkscape:version="1.1.1 (3bf5ae0d25, 2021-09-20)"
   xmlns:inkscape="http://www.inkscape.org/namespaces/inkscape"
   xmlns:sodipodi="http://sodipodi.sourceforge.net/DTD/sodipodi-0.dtd"
   xmlns="http://www.w3.org/2000/svg"
   xmlns:svg="http://www.w3.org/2000/svg">
  <defs
     id="defs10">
    <filter
       id="filter4037"
       height="1.2481335"
       width="1.0797722"
       y="-0.12406676"
       x="-0.039886108"
       color-interpolation-filters="sRGB">
      <feGaussianBlur
         id="feGaussianBlur4039"
         stdDeviation="11.868751" />
    </filter>
  </defs>
  <sodipodi:namedview
     id="namedview8"
     pagecolor="#ffffff"
     bordercolor="#666666"
     borderopacity="1.0"
     inkscape:pageshadow="2"
     inkscape:pageopacity="0.0"
     inkscape:pagecheckerboard="0"
     showgrid="false"
     inkscape:zoom="4.0855058"
     inkscape:cx="66.699207"
     inkscape:cy="50.055001"
     inkscape:window-width="1366"
     inkscape:window-height="705"
     inkscape:window-x="-8"
     inkscape:window-y="-8"
     inkscape:window-maximized="1"
     inkscape:current-layer="g2008" />
  <g
     id="layer1"
     transform="matrix(0.0790014,0,0,0.0790014,46.161883,19.186011)">
    <path
       id="path3969"
       filter="url(#filter4037)"
       d="m 169.86,507.87 c -20.785,77.131 -51.799,144.5 -72.654,221.61 2.1015,4.6742 8.8667,1.0502 12.719,2.1875 233.25,-0.083 466.56,0.1667 699.78,-0.125 4.2968,-2.5855 -1.1212,-8.655 -1.0077,-12.491 -20.23,-74.16 -48.44,-142.55 -68.69,-216.7 -196.02,0 -373.71,4.0362 -569.73,4.0362 l -0.27,0.96 z" />
    <path
       id="rect3020"
       fill="#dcd3ba"
       d="m 746.45,498.58 62.933,230.64 c 0.0643,0.2358 -0.23656,0.4411 -0.53041,0.4411 h -708.94 c -0.29385,0 -0.59221,-0.2046 -0.53041,-0.4411 l 62.067,-230.64 z" />
    <path
       id="path3795"
       opacity="0.4856"
       fill="#89d375"
       d="m 726.73,727.45 c 0,-1.1136 -3.3217,-4.2151 -5.067,-4.7311 -2.3188,-0.6855 -9.2187,-4.8201 -9.2187,-5.5241 0,-0.3098 -0.40179,-0.5771 -0.89286,-0.5938 -2.6563,-0.091 -10.236,-9.2779 -11.922,-14.45 -0.64973,-1.9935 -1.5989,-3.0627 -3.6462,-4.1071 -1.5223,-0.7766 -3.2689,-1.4121 -3.8812,-1.4121 -0.61236,0 -2.7948,-0.8905 -4.8499,-1.979 -2.0551,-1.0885 -5.6651,-2.5678 -8.0222,-3.2874 -6.7148,-2.0498 -10.022,-3.9058 -14.701,-8.2492 -3.3438,-3.1039 -4.6508,-4.927 -5.6893,-7.9356 -0.74155,-2.1483 -1.3588,-4.4202 -1.3716,-5.0487 -0.0129,-0.6286 -0.94749,-2.4186 -2.077,-3.9779 -1.12951,-1.5593 -2.2762,-3.5361 -2.5481,-4.3929 -0.27195,-0.8568 -0.79421,-1.5578 -1.1606,-1.5578 -0.36637,0 -0.66615,-0.631 -0.66615,-1.4021 0,-1.9039 -6.7557,-8.343 -10.714,-10.212 -1.7679,-0.8347 -3.4713,-1.938 -3.7855,-2.4518 -0.31417,-0.5137 -1.7606,-0.9343 -3.2143,-0.9345 -4.633,-9e-4 -20.857,-4.9085 -20.857,-6.309 0,-0.3169 -0.95919,-1.6505 -2.1315,-2.9636 -1.17231,-1.3131 -2.3386,-3.0398 -2.5917,-3.8372 -0.25309,-0.7974 -1.7046,-3.4831 -3.2256,-5.9681 -2.6817,-4.3813 -2.7658,-4.718 -2.7762,-11.113 -0.01,-6.0881 -0.73063,-9.7693 -2.5034,-12.786 -0.3851,-0.6554 -3.2716,-2.4385 -6.4145,-3.9625 -3.1429,-1.5239 -6.6229,-3.3712 -7.7334,-4.105 -1.6882,-1.1156 -4.0881,-1.4192 -14.643,-1.8523 -13.358,-0.5482 -19.644,-1.8523 -23.824,-4.9423 -1.0759,-0.7955 -2.2261,-1.4463 -2.556,-1.4463 -0.32984,0 -1.0065,-1.125 -1.5037,-2.5 -0.4972,-1.375 -1.3654,-2.5 -1.9292,-2.5 -0.56386,0 -1.0252,-0.3147 -1.0252,-0.6993 0,-0.9196 -7.8027,-8.5865 -8.7386,-8.5865 -0.61877,0 -8.4709,-3.756 -13.047,-6.2409 -0.78572,-0.4267 -3.3571,-1.1475 -5.7143,-1.6018 -4.7721,-0.9197 -10.318,-3.3679 -10.867,-4.7968 -0.19667,-0.5126 -0.72498,-0.9319 -1.174,-0.9319 -1.4014,0 -4.496,-4.5161 -5.0237,-7.3312 -0.27717,-1.4785 -0.52833,-7.8783 -0.55812,-14.222 -0.0534,-11.366 -0.0832,-11.579 -2.0572,-14.692 -1.1017,-1.7372 -3.3923,-4.5684 -5.0902,-6.2916 -1.6979,-1.7232 -4.6155,-4.7108 -6.4835,-6.6392 -1.868,-1.9284 -4.8349,-4.8322 -6.5931,-6.4529 l -2.7909,-3.8435 h 275 l 31.093,115.19 c 16.88,62.534 29.839,114.01 29.861,114.11 0.022,0.098 -18.121,0.1786 -40.317,0.1786 -22.196,0 -40.357,-0.2745 -40.357,-0.61 z" />
    <path
       id="rect3804"
       fill="#f7fd9f"
       d="m 589.45,498.58 h 45 l 9.933,231.08 h -65 z" />
    <g
       id="g3846"
       transform="translate(105.02,-618.78)"
       fill="#ffffff">
      <path
         id="rect3797"
         d="m 676.43,1242.4 10,40 h -590 l 10,-35 z" />
      <path
         id="rect3799"
         d="m 116.43,1117.4 h 40 l -36.067,165.08 h -50 z" />
    </g>
    <path
       id="path3861"
       fill="none"
       d="m 746.45,498.58 62.933,230.64 c 0.0643,0.2358 -0.23656,0.4411 -0.53041,0.4411 h -708.94 c -0.29385,0 -0.59221,-0.2046 -0.53041,-0.4411 l 62.067,-230.64 z" />
    <path
       id="path4041"
       opacity="0.8"
       d="m 746.45,498.58 62.933,230.64 c 0.0643,0.2358 -0.23656,0.4411 -0.53041,0.4411 h -708.94 c -0.29385,0 -0.59221,-0.2046 -0.53041,-0.4411 l 62.067,-230.64 z"
       stroke="#000000"
       stroke-width="10"
       fill="none" />
    <path
       id="path4043"
       stroke="#000000"
       stroke-width="10.397"
       fill="#e52626"
       d="m 452.08,63.785 c -99.484,0 -179.81,80.41 -179.81,179.59 0,31.186 7.9688,60.528 21.938,86.094 l 157.88,264.31 157.88,-264.31 c 13.969,-25.566 21.938,-54.908 21.938,-86.094 0,-99.184 -80.328,-179.59 -179.81,-179.59 z m -2,104.37 c 0.6674,-0.0169 1.3285,0 2,0 42.975,0 77.812,34.838 77.812,77.813 0,42.975 -34.838,77.812 -77.812,77.812 -42.975,0 -77.812,-34.838 -77.812,-77.812 0,-42.303 33.766,-76.747 75.812,-77.813 z" />
  </g>
  <g
     id="g2008"
     transform="translate(-4.1346267,11.263791)">
    <g
       id="g1991"
       transform="matrix(-0.53163122,0,0,0.53163122,41.577772,4.6315478)">
      <path
         d="M 8.38,20.08 A 1,1 0 0 0 7.62,21.92 1,1 0 0 0 8.38,20.08 Z"
         id="path1987" />
      <path
         d="M 47.32,39.05 A 38.26,38.26 0 0 1 34.54,31.41 C 41,28.21 45.11,24 46.87,18.83 a 19.4,19.4 0 0 0 -1,-14.3 1,1 0 0 0 -1.64,-0.18 c -0.06,0.07 -5.85,6.73 -12.38,7.66 -1.56,0.22 -2.82,0.46 -3.95,0.73 C 27.33,8.39 25.1,2 17.24,0 A 1,1 0 0 0 16,1.2 23.38,23.38 0 0 1 16,9.76 c -1.09,4.34 0.29,8.68 1.71,11.67 -0.14,0.49 -0.27,1 -0.37,1.48 C 13.28,22.43 13.74,16 9,16 4.77,16 2.66,18.83 3,22.72 L 0.2,26.4 A 1,1 0 0 0 1,28 h 4.26 c 0.8,2.38 3.78,9.82 10.8,13.58 4.76,2.55 10.37,2.85 16.68,0.89 3.5,4.12 3,5.53 4.26,5.53 10.87,0 11,-7.92 11,-8 A 1,1 0 0 0 47.32,39.05 Z M 18.23,2.42 C 23.7,4.44 25.5,9.23 26,13.3 a 12.52,12.52 0 0 0 -7.17,5.57 C 16,11.5 19.25,10.75 18.23,2.42 Z M 37.59,46 A 29.41,29.41 0 0 0 33.8,40.66 1,1 0 0 0 33.06,40.33 c -0.71,0 -8.55,3.51 -16,-0.49 C 9.61,35.84 7,26.83 7,26.74 6.74,25.74 6,26 3,26 4.89,23.48 5.08,23.4 5,22.84 A 5.11,5.11 0 0 1 5.84,19.17 4,4 0 0 1 9,18 c 3.26,0 2.94,7.21 9.26,6.93 2.74,-0.12 -2,-8.68 13.88,-10.94 5.58,-0.8 10.45,-5.09 12.54,-7.19 4.54,12.43 -4.25,21 -17,25.25 a 1.002447,1.002447 0 0 0 0.64,1.9 c 1.49,-0.5 2.91,-1.06 4.26,-1.65 a 40.79,40.79 0 0 0 13.34,8.38 c -0.28,1.54 -1.67,5.11 -8.33,5.32 z"
         id="path1989" />
    </g>
  </g>
</svg>
