<svg width="120" height="90" enable-background="new 0 0 90 90" version="1.1" viewBox="0 0 120 90" xmlns="http://www.w3.org/2000/svg">
 <g transform="rotate(91 41.1 41.1)">
  <path d="m31.4 3.96c2.92-2.14 6.36-3.62 10.1-4.19v-7.06c-5.66 0.658-10.8 2.89-15.1 6.25z"/>
  <path d="m22.3 19c0.573-3.73 2.05-7.17 4.19-10.1l-5-5c-3.36 4.25-5.59 9.43-6.25 15.1z"/>
  <g transform="translate(0,-22.5)">
   <path d="m68.4 27.9c2.72 3.72 4.5 8.03 5.21 12.6h-5.07c-0.612-3.2-1.89-6.27-3.73-8.98l3.59-3.59m0.102-1.52-5 5c2.15 2.92 3.62 6.36 4.19 10.1h7.06c-0.658-5.66-2.89-10.8-6.25-15.1z"/>
  </g>
  <g transform="translate(0,-22.5)">
   <path d="m49.5 16.4c4.54 0.709 8.85 2.49 12.6 5.21l-3.59 3.59c-2.71-1.84-5.78-3.12-8.98-3.73v-5.07m-0.999-1.14v7.06c3.73 0.573 7.17 2.05 10.1 4.19l5-5c-4.25-3.36-9.43-5.59-15.1-6.25z"/>
  </g>
  <g transform="translate(0,-22.5)">
   <path d="m73.6 49.5c-0.707 4.54-2.49 8.85-5.21 12.6l-3.59-3.59c1.84-2.71 3.12-5.78 3.73-8.98h5.07m1.14-0.999h-7.06c-0.572 3.73-2.05 7.17-4.19 10.1l5 5c3.36-4.25 5.59-9.43 6.25-15.1z"/>
  </g>
  <g transform="translate(0,-22.5)">
   <path d="m58.5 64.8 3.59 3.59c-3.72 2.72-8.03 4.5-12.6 5.21v-5.07c3.2-0.614 6.27-1.89 8.98-3.74m0.112-1.3c-2.92 2.15-6.36 3.62-10.1 4.19v7.06c5.66-0.658 10.8-2.89 15.1-6.25z"/>
  </g>
  <g transform="translate(0,-22.5)">
   <path d="m21.4 49.5c0.612 3.2 1.89 6.27 3.73 8.98l-3.59 3.59c-2.72-3.72-4.5-8.03-5.21-12.6h5.07m0.843-1h-7.06c0.658 5.66 2.89 10.8 6.25 15.1l5-5c-2.14-2.92-3.62-6.36-4.19-10.1z"/>
  </g>
  <g transform="translate(0,-22.5)">
   <path d="m31.5 64.8c2.71 1.84 5.78 3.12 8.98 3.73v5.07c-4.54-0.709-8.85-2.49-12.6-5.21l3.59-3.59m-0.111-1.3-5 5c4.25 3.36 9.43 5.59 15.1 6.25v-7.06c-3.73-0.572-7.17-2.05-10.1-4.19z"/>
  </g>
 </g>
</svg>
