<?xml version="1.0" encoding="UTF-8" standalone="no"?>
<svg
   width="100"
   height="100"
   enable-background="new 0 0 100 100"
   version="1.1"
   viewBox="0 0 100 100"
   xml:space="preserve"
   id="svg32"
   sodipodi:docname="title.svg"
   inkscape:version="1.1.1 (3bf5ae0d25, 2021-09-20)"
   xmlns:inkscape="http://www.inkscape.org/namespaces/inkscape"
   xmlns:sodipodi="http://sodipodi.sourceforge.net/DTD/sodipodi-0.dtd"
   xmlns="http://www.w3.org/2000/svg"
   xmlns:svg="http://www.w3.org/2000/svg"><defs
     id="defs36" /><sodipodi:namedview
     id="namedview34"
     pagecolor="#ffffff"
     bordercolor="#666666"
     borderopacity="1.0"
     inkscape:pageshadow="2"
     inkscape:pageopacity="0.0"
     inkscape:pagecheckerboard="0"
     showgrid="false"
     inkscape:zoom="3.6769553"
     inkscape:cx="32.77168"
     inkscape:cy="37.39507"
     inkscape:window-width="1366"
     inkscape:window-height="705"
     inkscape:window-x="-8"
     inkscape:window-y="-8"
     inkscape:window-maximized="1"
     inkscape:current-layer="svg32" /><g
     fill="none"
     id="g28"><path
       d="m23.425 46.785c0.297 0.023 0.594 0.048 0.891 0.075 8e-3 -0.647 0.038-1.29 0.114-1.933-0.323 0.095-0.64 0.203-0.947 0.328 0 0.021 3e-3 0.041 1e-3 0.062-0.061 0.479-0.107 0.982-0.059 1.468z"
       id="path2" /><path
       d="m25.615 46.988c0.482 0.05 0.964 0.102 1.447 0.152 0.037-0.922 0.128-1.841 0.142-2.764-0.485 0.069-0.968 0.144-1.443 0.235 3e-3 0.05 0 0.102-8e-3 0.156-0.12 0.735-0.135 1.478-0.138 2.221z"
       id="path4" /><path
       d="m75.707 51.509c1.177 0.034 2.419 0.13 3.582-0.087 0.291-0.054 0.416-0.059 0.46-0.04 2.302-4.758 1.175-11.237-0.052-16.145-5.226 0.385-10.699-0.845-15.793 0.662-5.291 1.565-10.152 4.437-14.922 7.148-4.357 2.476-8.838 4.8-13.855 5.535-4.919 0.721-9.864-0.667-14.794-0.61-0.358 1.002-0.675 2.02-0.884 3.064-0.776 3.866-0.668 7.92 0.441 11.715 0.137 0.47 0.282 0.939 0.454 1.397 0.248 0.658-0.22-0.111 0.648-0.097 2.323 0.037 4.62 0.33 6.929 0.551 5.161 0.493 9.845-0.024 14.584-2.224 4.187-1.944 8.093-4.435 12.191-6.553 4.058-2.098 8.414-4.277 13.062-4.507 2.658-0.132 5.295 0.114 7.949 0.191z"
       id="path6" /><path
       d="m21.31 46.674c0.271 6e-3 0.542 0.014 0.812 0.027-0.013-0.236-0.013-0.473 0-0.71-0.286 0.2-0.557 0.426-0.812 0.683z"
       id="path8" /><path
       d="m19.562 46.766c0.016-0.03 0.031-0.059 0.053-0.089 1.94-2.631 4.647-3.022 7.668-3.625 1.413-0.282 3.219-0.146 4.453-0.997 0.306-0.212 0.484-0.385 0.568-0.529 3e-3 -0.09 0.02-0.17 0.051-0.239-0.106-0.431-1.446-0.441-2.087-0.445-3.615-0.022-7.232 0.175-10.847 0.073-1.858-0.052-3.719-0.153-5.559-0.424-0.959-0.141-2.001-0.239-2.924-0.544-0.669-0.221-1.299-0.496-1.97-0.636 0.881 2.837 2.992 5.168 4.496 7.689 0.19 0.318 0.06 0.697-0.234 0.892-2.044 1.352-4.339 2.337-6.671 3.093 1.903 3.675 7.091 5.337 11.055 5.281 4e-3 -3.134 0.582-6.277 1.633-9.113 0.063-0.174 0.173-0.304 0.315-0.387z"
       id="path10" /><path
       d="m28.499 44.198c5e-3 0.037 0.011 0.073 0.01 0.114-0.011 0.988-0.115 1.97-0.148 2.956 0.365 0.034 0.73 0.065 1.094 0.093-9e-3 -1.113-0.039-2.226 0.131-3.328-0.358 0.061-0.721 0.115-1.087 0.165z"
       id="path12" /><path
       d="m31.175 43.694c-0.092 0.025-0.185 0.049-0.277 0.072 0.018 0.085 0.02 0.177 1e-3 0.277-0.215 1.114-0.151 2.265-0.14 3.396 0.389 0.017 0.777 0.028 1.165 0.031-0.052-1.44 0.208-2.856 0.326-4.284-0.347 0.231-0.719 0.41-1.075 0.508z"
       id="path14" /><path
       d="m75.6 54.417c0.32-0.108 0.634-0.228 0.939-0.364 0.044-0.378 0.075-0.767 0.05-1.148-0.302-0.01-0.604-0.023-0.906-0.042-9e-3 0.52-0.031 1.037-0.083 1.554z"
       id="path16" /><path
       d="m78.472 52.859c-0.196 0.019-0.394 0.032-0.593 0.041 6e-3 0.134 0.011 0.269 9e-3 0.404 0.201-0.137 0.396-0.286 0.584-0.445z"
       id="path18" /><path
       d="m82.28 43.309c0.11 2.622-0.133 5.232-0.976 7.657-0.161 0.465-0.281 0.787-0.43 1.023-0.011 0.092-0.046 0.188-0.117 0.285-1.861 2.538-4.626 3.517-7.607 4.148-1.432 0.303-2.999 0.272-4.363 0.841-0.159 0.066-0.803 0.42-1.09 0.745 3e-3 0.15-0.036 0.273-0.104 0.369 0.04 0.059 0.117 0.11 0.252 0.146 0.517 0.137 1.041 0.19 1.576 0.201 3.518 0.074 7.037-0.147 10.555-0.078 2.059 0.04 4.123 0.135 6.162 0.436 0.959 0.141 2.001 0.239 2.924 0.544 0.669 0.221 1.299 0.496 1.97 0.637-0.881-2.837-2.992-5.168-4.496-7.689-0.19-0.318-0.06-0.697 0.234-0.892 2.044-1.352 4.339-2.337 6.672-3.093-1.92-3.709-7.185-5.367-11.162-5.28z"
       id="path20" /><path
       d="m69.247 52.558c-0.39 3e-3 -0.78 0.013-1.169 0.034-0.011 1.25-0.215 2.486-0.322 3.729 0.422-0.237 0.886-0.406 1.346-0.52-0.017-0.083-0.019-0.174 0-0.271 0.188-0.976 0.161-1.98 0.145-2.972z"
       id="path22" /><path
       d="m70.548 52.573c0.01 0.988 0.017 1.974-0.132 2.952 0.358-0.067 0.719-0.129 1.082-0.191-2e-3 -0.025-7e-3 -0.048-7e-3 -0.074 9e-3 -0.884 0.12-1.762 0.15-2.645-0.364-0.018-0.729-0.031-1.093-0.042z"
       id="path24" /><path
       d="m72.8 55.105c0.487-0.09 0.972-0.188 1.448-0.303 0.108-0.672 0.13-1.351 0.136-2.03-0.38-0.028-0.757-0.055-1.123-0.074-0.106-6e-3 -0.213-0.011-0.319-0.017-0.031 0.809-0.123 1.614-0.142 2.424z"
       id="path26" /></g><path
     d="m94.965 48.814c-1.892-4.713-7.951-6.959-12.768-6.808-0.221-2.618-0.756-5.22-1.374-7.631-0.01-0.037-0.023-0.069-0.037-0.101-0.073-0.232-0.269-0.408-0.592-0.377-4.965 0.469-10.045-0.592-14.971 0.338-5.131 0.968-10.068 3.801-14.559 6.348-4.557 2.585-9.067 5.307-14.239 6.459-1.062 0.237-2.129 0.359-3.198 0.407-0.067-1.946 0.434-3.848 0.377-5.793 0.276-0.714 0.062-1.437-1.104-1.863-1.022-0.373-2.279-0.261-3.344-0.249-2.242 0.026-4.483 0.064-6.725 0.086-2.407 0.024-4.812-0.038-7.209-0.274-1.328-0.131-2.638-0.37-3.938-0.666-1.109-0.252-2.016-0.788-3.186-0.776-0.445 5e-3 -0.712 0.41-0.628 0.825 0.645 3.178 2.844 5.696 4.538 8.381-2.023 1.245-4.249 2.148-6.517 2.837-0.31 0.094-0.59 0.465-0.455 0.802 1.872 4.663 7.822 6.91 12.612 6.811 0.131 2.589 0.662 5.143 1.665 7.483 0.085 0.199 0.357 0.329 0.563 0.323 4.074-0.124 8.094 0.714 12.161 0.785 3.899 0.068 7.605-1.076 11.129-2.657 3.673-1.648 7.068-3.854 10.623-5.73 4.004-2.114 8.212-4.437 12.765-5.045 0.074-0.01 0.148-0.015 0.222-0.024-0.031 1.688-0.401 3.351-0.379 5.043 0 1e-3 -1e-3 2e-3 -2e-3 3e-3 -0.354 0.843 0.019 1.634 0.879 1.947 1.049 0.382 2.222 0.346 3.322 0.334 2.325-0.024 4.65-0.066 6.975-0.089 2.407-0.024 4.812 0.038 7.209 0.274 1.328 0.131 2.638 0.37 3.938 0.666 1.109 0.252 2.016 0.788 3.186 0.776 0.445-5e-3 0.712-0.41 0.628-0.825-0.645-3.178-2.844-5.696-4.539-8.381 2.023-1.245 4.249-2.148 6.518-2.837 0.309-0.095 0.589-0.466 0.454-0.802zm-77.352 7.451c-3.963 0.056-9.152-1.606-11.055-5.281 2.333-0.756 4.628-1.741 6.671-3.093 0.294-0.194 0.423-0.574 0.234-0.892-1.504-2.52-3.615-4.852-4.496-7.689 0.671 0.141 1.301 0.415 1.97 0.636 0.923 0.305 1.965 0.403 2.924 0.544 1.84 0.271 3.701 0.372 5.559 0.424 3.615 0.102 7.232-0.095 10.847-0.073 0.642 4e-3 1.981 0.013 2.087 0.445-0.031 0.069-0.048 0.149-0.051 0.239-0.083 0.144-0.261 0.318-0.568 0.529-1.234 0.852-3.04 0.716-4.453 0.997-3.021 0.603-5.728 0.994-7.668 3.625-0.022 0.03-0.037 0.059-0.053 0.089-0.143 0.082-0.252 0.213-0.316 0.385-1.051 2.838-1.628 5.98-1.632 9.115zm14.311-8.795c-0.388-3e-3 -0.776-0.013-1.165-0.031-0.011-1.131-0.076-2.281 0.14-3.396 0.019-0.1 0.017-0.192-1e-3 -0.277 0.093-0.023 0.186-0.047 0.277-0.072 0.355-0.098 0.728-0.277 1.075-0.508-0.118 1.427-0.379 2.844-0.326 4.284zm-2.468-0.109c-0.365-0.028-0.729-0.058-1.094-0.093 0.033-0.986 0.137-1.969 0.148-2.956 0-0.041-5e-3 -0.077-0.01-0.114 0.366-0.051 0.729-0.105 1.087-0.165-0.17 1.102-0.141 2.215-0.131 3.328zm-2.252-2.985c-0.014 0.923-0.105 1.842-0.142 2.764-0.482-0.05-0.964-0.102-1.447-0.152 3e-3 -0.743 0.018-1.486 0.137-2.221 9e-3 -0.054 0.011-0.106 8e-3 -0.156 0.476-0.091 0.959-0.166 1.444-0.235zm-3.722 0.88c0.307-0.126 0.623-0.234 0.947-0.328-0.076 0.642-0.106 1.285-0.114 1.933-0.297-0.027-0.594-0.052-0.891-0.075-0.048-0.486-2e-3 -0.989 0.059-1.467 3e-3 -0.023 0-0.043-1e-3 -0.063zm-1.36 1.445c-0.271-0.013-0.542-0.021-0.812-0.027 0.255-0.257 0.526-0.483 0.812-0.683-0.013 0.237-0.013 0.474 0 0.71zm32.576 9.123c-4.098 2.119-8.004 4.609-12.191 6.553-4.739 2.201-9.423 2.717-14.584 2.224-2.309-0.221-4.606-0.514-6.929-0.551-0.868-0.014-0.401 0.755-0.648 0.097-0.172-0.459-0.317-0.927-0.454-1.397-1.11-3.794-1.217-7.849-0.441-11.715 0.209-1.044 0.527-2.062 0.884-3.064 4.93-0.056 9.875 1.331 14.794 0.61 5.016-0.735 9.498-3.058 13.855-5.535 4.77-2.711 9.631-5.584 14.922-7.148 5.094-1.507 10.566-0.277 15.793-0.662 1.227 4.909 2.353 11.387 0.052 16.145-0.044-0.018-0.169-0.014-0.46 0.04-1.163 0.217-2.405 0.121-3.582 0.087-2.653-0.077-5.29-0.324-7.947-0.192-4.65 0.231-9.006 2.409-13.064 4.508zm23.774-2.965c-0.189 0.16-0.384 0.308-0.584 0.445 2e-3 -0.135-3e-3 -0.269-9e-3 -0.404 0.199-9e-3 0.397-0.022 0.593-0.041zm-1.932 1.194c-0.306 0.136-0.62 0.256-0.939 0.364 0.052-0.517 0.074-1.034 0.083-1.554 0.302 0.019 0.604 0.032 0.906 0.042 0.025 0.381-6e-3 0.77-0.05 1.148zm-2.156-1.281c-5e-3 0.679-0.027 1.358-0.136 2.03-0.477 0.114-0.961 0.212-1.448 0.303 0.019-0.81 0.111-1.615 0.142-2.424 0.106 6e-3 0.213 0.011 0.319 0.017 0.366 0.018 0.743 0.046 1.123 0.074zm-2.887 2.562c-0.362 0.062-0.723 0.125-1.082 0.191 0.148-0.978 0.142-1.964 0.132-2.952 0.365 0.011 0.729 0.024 1.093 0.041-0.03 0.883-0.141 1.761-0.15 2.645 0 0.027 5e-3 0.05 7e-3 0.075zm-2.395 0.466c-0.46 0.114-0.924 0.284-1.346 0.52 0.107-1.243 0.31-2.479 0.322-3.729 0.389-0.02 0.779-0.031 1.169-0.034 0.017 0.993 0.043 1.996-0.145 2.971-0.019 0.098-0.017 0.189 0 0.272zm17.668-4.119c-0.294 0.194-0.423 0.574-0.234 0.892 1.504 2.52 3.615 4.852 4.496 7.689-0.671-0.141-1.301-0.415-1.97-0.637-0.923-0.305-1.966-0.403-2.924-0.544-2.039-0.301-4.103-0.396-6.162-0.436-3.518-0.069-7.037 0.152-10.555 0.078-0.535-0.011-1.059-0.064-1.576-0.201-0.135-0.036-0.212-0.087-0.252-0.146 0.068-0.095 0.107-0.218 0.104-0.369 0.286-0.325 0.931-0.678 1.09-0.745 1.364-0.568 2.931-0.537 4.363-0.841 2.981-0.631 5.746-1.61 7.607-4.148 0.071-0.097 0.106-0.193 0.117-0.285 0.149-0.237 0.268-0.558 0.43-1.023 0.843-2.425 1.086-5.036 0.976-7.657 3.977-0.088 9.242 1.571 11.162 5.279-2.333 0.758-4.628 1.742-6.672 3.094z"
     id="path30" /><text
     xml:space="preserve"
     style="font-style:normal;font-variant:normal;font-weight:normal;font-stretch:normal;font-size:18.6986px;line-height:1.25;font-family:'Sitka Text';-inkscape-font-specification:'Sitka Text';fill:#000000;fill-opacity:1;stroke:none;stroke-width:0.467465"
     x="41.038208"
     y="60.697102"
     id="text656"
     transform="scale(1.0550813,0.94779427)"><tspan
       sodipodi:role="line"
       id="tspan654"
       x="41.038208"
       y="60.697102"
       style="font-style:normal;font-variant:normal;font-weight:normal;font-stretch:normal;font-family:'Sitka Text';-inkscape-font-specification:'Sitka Text';stroke-width:0.467465">?</tspan></text></svg>
