<?xml version="1.0" encoding="UTF-8" standalone="no"?>
<svg
   width="100"
   height="100"
   enable-background="new 0 0 100 100"
   version="1.1"
   viewBox="0 0 100 100"
   xml:space="preserve"
   id="svg36"
   sodipodi:docname="title.svg"
   inkscape:version="1.1.1 (3bf5ae0d25, 2021-09-20)"
   xmlns:inkscape="http://www.inkscape.org/namespaces/inkscape"
   xmlns:sodipodi="http://sodipodi.sourceforge.net/DTD/sodipodi-0.dtd"
   xmlns="http://www.w3.org/2000/svg"
   xmlns:svg="http://www.w3.org/2000/svg"><defs
     id="defs40" /><sodipodi:namedview
     id="namedview38"
     pagecolor="#ffffff"
     bordercolor="#666666"
     borderopacity="1.0"
     inkscape:pageshadow="2"
     inkscape:pageopacity="0.0"
     inkscape:pagecheckerboard="0"
     showgrid="false"
     inkscape:zoom="4.06"
     inkscape:cx="111.57635"
     inkscape:cy="38.793103"
     inkscape:window-width="1920"
     inkscape:window-height="1001"
     inkscape:window-x="-9"
     inkscape:window-y="-9"
     inkscape:window-maximized="1"
     inkscape:current-layer="svg36" /><g
     fill="none"
     id="g28"><path
       d="m23.425 46.785c0.297 0.023 0.594 0.048 0.891 0.075 8e-3 -0.647 0.038-1.29 0.114-1.933-0.323 0.095-0.64 0.203-0.947 0.328 0 0.021 3e-3 0.041 1e-3 0.062-0.061 0.479-0.107 0.982-0.059 1.468z"
       id="path2" /><path
       d="m25.615 46.988c0.482 0.05 0.964 0.102 1.447 0.152 0.037-0.922 0.128-1.841 0.142-2.764-0.485 0.069-0.968 0.144-1.443 0.235 3e-3 0.05 0 0.102-8e-3 0.156-0.12 0.735-0.135 1.478-0.138 2.221z"
       id="path4" /><path
       d="m75.707 51.509c1.177 0.034 2.419 0.13 3.582-0.087 0.291-0.054 0.416-0.059 0.46-0.04 2.302-4.758 1.175-11.237-0.052-16.145-5.226 0.385-10.699-0.845-15.793 0.662-5.291 1.565-10.152 4.437-14.922 7.148-4.357 2.476-8.838 4.8-13.855 5.535-4.919 0.721-9.864-0.667-14.794-0.61-0.358 1.002-0.675 2.02-0.884 3.064-0.776 3.866-0.668 7.92 0.441 11.715 0.137 0.47 0.282 0.939 0.454 1.397 0.248 0.658-0.22-0.111 0.648-0.097 2.323 0.037 4.62 0.33 6.929 0.551 5.161 0.493 9.845-0.024 14.584-2.224 4.187-1.944 8.093-4.435 12.191-6.553 4.058-2.098 8.414-4.277 13.062-4.507 2.658-0.132 5.295 0.114 7.949 0.191z"
       id="path6" /><path
       d="m21.31 46.674c0.271 6e-3 0.542 0.014 0.812 0.027-0.013-0.236-0.013-0.473 0-0.71-0.286 0.2-0.557 0.426-0.812 0.683z"
       id="path8" /><path
       d="m19.562 46.766c0.016-0.03 0.031-0.059 0.053-0.089 1.94-2.631 4.647-3.022 7.668-3.625 1.413-0.282 3.219-0.146 4.453-0.997 0.306-0.212 0.484-0.385 0.568-0.529 3e-3 -0.09 0.02-0.17 0.051-0.239-0.106-0.431-1.446-0.441-2.087-0.445-3.615-0.022-7.232 0.175-10.847 0.073-1.858-0.052-3.719-0.153-5.559-0.424-0.959-0.141-2.001-0.239-2.924-0.544-0.669-0.221-1.299-0.496-1.97-0.636 0.881 2.837 2.992 5.168 4.496 7.689 0.19 0.318 0.06 0.697-0.234 0.892-2.044 1.352-4.339 2.337-6.671 3.093 1.903 3.675 7.091 5.337 11.055 5.281 4e-3 -3.134 0.582-6.277 1.633-9.113 0.063-0.174 0.173-0.304 0.315-0.387z"
       id="path10" /><path
       d="m28.499 44.198c5e-3 0.037 0.011 0.073 0.01 0.114-0.011 0.988-0.115 1.97-0.148 2.956 0.365 0.034 0.73 0.065 1.094 0.093-9e-3 -1.113-0.039-2.226 0.131-3.328-0.358 0.061-0.721 0.115-1.087 0.165z"
       id="path12" /><path
       d="m31.175 43.694c-0.092 0.025-0.185 0.049-0.277 0.072 0.018 0.085 0.02 0.177 1e-3 0.277-0.215 1.114-0.151 2.265-0.14 3.396 0.389 0.017 0.777 0.028 1.165 0.031-0.052-1.44 0.208-2.856 0.326-4.284-0.347 0.231-0.719 0.41-1.075 0.508z"
       id="path14" /><path
       d="m75.6 54.417c0.32-0.108 0.634-0.228 0.939-0.364 0.044-0.378 0.075-0.767 0.05-1.148-0.302-0.01-0.604-0.023-0.906-0.042-9e-3 0.52-0.031 1.037-0.083 1.554z"
       id="path16" /><path
       d="m78.472 52.859c-0.196 0.019-0.394 0.032-0.593 0.041 6e-3 0.134 0.011 0.269 9e-3 0.404 0.201-0.137 0.396-0.286 0.584-0.445z"
       id="path18" /><path
       d="m82.28 43.309c0.11 2.622-0.133 5.232-0.976 7.657-0.161 0.465-0.281 0.787-0.43 1.023-0.011 0.092-0.046 0.188-0.117 0.285-1.861 2.538-4.626 3.517-7.607 4.148-1.432 0.303-2.999 0.272-4.363 0.841-0.159 0.066-0.803 0.42-1.09 0.745 3e-3 0.15-0.036 0.273-0.104 0.369 0.04 0.059 0.117 0.11 0.252 0.146 0.517 0.137 1.041 0.19 1.576 0.201 3.518 0.074 7.037-0.147 10.555-0.078 2.059 0.04 4.123 0.135 6.162 0.436 0.959 0.141 2.001 0.239 2.924 0.544 0.669 0.221 1.299 0.496 1.97 0.637-0.881-2.837-2.992-5.168-4.496-7.689-0.19-0.318-0.06-0.697 0.234-0.892 2.044-1.352 4.339-2.337 6.672-3.093-1.92-3.709-7.185-5.367-11.162-5.28z"
       id="path20" /><path
       d="m69.247 52.558c-0.39 3e-3 -0.78 0.013-1.169 0.034-0.011 1.25-0.215 2.486-0.322 3.729 0.422-0.237 0.886-0.406 1.346-0.52-0.017-0.083-0.019-0.174 0-0.271 0.188-0.976 0.161-1.98 0.145-2.972z"
       id="path22" /><path
       d="m70.548 52.573c0.01 0.988 0.017 1.974-0.132 2.952 0.358-0.067 0.719-0.129 1.082-0.191-2e-3 -0.025-7e-3 -0.048-7e-3 -0.074 9e-3 -0.884 0.12-1.762 0.15-2.645-0.364-0.018-0.729-0.031-1.093-0.042z"
       id="path24" /><path
       d="m72.8 55.105c0.487-0.09 0.972-0.188 1.448-0.303 0.108-0.672 0.13-1.351 0.136-2.03-0.38-0.028-0.757-0.055-1.123-0.074-0.106-6e-3 -0.213-0.011-0.319-0.017-0.031 0.809-0.123 1.614-0.142 2.424z"
       id="path26" /></g><path
     d="m94.965 48.814c-1.892-4.713-7.951-6.959-12.768-6.808-0.221-2.618-0.756-5.22-1.374-7.631-0.01-0.037-0.023-0.069-0.037-0.101-0.073-0.232-0.269-0.408-0.592-0.377-4.965 0.469-10.045-0.592-14.971 0.338-5.131 0.968-10.068 3.801-14.559 6.348-4.557 2.585-9.067 5.307-14.239 6.459-1.062 0.237-2.129 0.359-3.198 0.407-0.067-1.946 0.434-3.848 0.377-5.793 0.276-0.714 0.062-1.437-1.104-1.863-1.022-0.373-2.279-0.261-3.344-0.249-2.242 0.026-4.483 0.064-6.725 0.086-2.407 0.024-4.812-0.038-7.209-0.274-1.328-0.131-2.638-0.37-3.938-0.666-1.109-0.252-2.016-0.788-3.186-0.776-0.445 5e-3 -0.712 0.41-0.628 0.825 0.645 3.178 2.844 5.696 4.538 8.381-2.023 1.245-4.249 2.148-6.517 2.837-0.31 0.094-0.59 0.465-0.455 0.802 1.872 4.663 7.822 6.91 12.612 6.811 0.131 2.589 0.662 5.143 1.665 7.483 0.085 0.199 0.357 0.329 0.563 0.323 4.074-0.124 8.094 0.714 12.161 0.785 3.899 0.068 7.605-1.076 11.129-2.657 3.673-1.648 7.068-3.854 10.623-5.73 4.004-2.114 8.212-4.437 12.765-5.045 0.074-0.01 0.148-0.015 0.222-0.024-0.031 1.688-0.401 3.351-0.379 5.043 0 1e-3 -1e-3 2e-3 -2e-3 3e-3 -0.354 0.843 0.019 1.634 0.879 1.947 1.049 0.382 2.222 0.346 3.322 0.334 2.325-0.024 4.65-0.066 6.975-0.089 2.407-0.024 4.812 0.038 7.209 0.274 1.328 0.131 2.638 0.37 3.938 0.666 1.109 0.252 2.016 0.788 3.186 0.776 0.445-5e-3 0.712-0.41 0.628-0.825-0.645-3.178-2.844-5.696-4.539-8.381 2.023-1.245 4.249-2.148 6.518-2.837 0.309-0.095 0.589-0.466 0.454-0.802zm-77.352 7.451c-3.963 0.056-9.152-1.606-11.055-5.281 2.333-0.756 4.628-1.741 6.671-3.093 0.294-0.194 0.423-0.574 0.234-0.892-1.504-2.52-3.615-4.852-4.496-7.689 0.671 0.141 1.301 0.415 1.97 0.636 0.923 0.305 1.965 0.403 2.924 0.544 1.84 0.271 3.701 0.372 5.559 0.424 3.615 0.102 7.232-0.095 10.847-0.073 0.642 4e-3 1.981 0.013 2.087 0.445-0.031 0.069-0.048 0.149-0.051 0.239-0.083 0.144-0.261 0.318-0.568 0.529-1.234 0.852-3.04 0.716-4.453 0.997-3.021 0.603-5.728 0.994-7.668 3.625-0.022 0.03-0.037 0.059-0.053 0.089-0.143 0.082-0.252 0.213-0.316 0.385-1.051 2.838-1.628 5.98-1.632 9.115zm14.311-8.795c-0.388-3e-3 -0.776-0.013-1.165-0.031-0.011-1.131-0.076-2.281 0.14-3.396 0.019-0.1 0.017-0.192-1e-3 -0.277 0.093-0.023 0.186-0.047 0.277-0.072 0.355-0.098 0.728-0.277 1.075-0.508-0.118 1.427-0.379 2.844-0.326 4.284zm-2.468-0.109c-0.365-0.028-0.729-0.058-1.094-0.093 0.033-0.986 0.137-1.969 0.148-2.956 0-0.041-5e-3 -0.077-0.01-0.114 0.366-0.051 0.729-0.105 1.087-0.165-0.17 1.102-0.141 2.215-0.131 3.328zm-2.252-2.985c-0.014 0.923-0.105 1.842-0.142 2.764-0.482-0.05-0.964-0.102-1.447-0.152 3e-3 -0.743 0.018-1.486 0.137-2.221 9e-3 -0.054 0.011-0.106 8e-3 -0.156 0.476-0.091 0.959-0.166 1.444-0.235zm-3.722 0.88c0.307-0.126 0.623-0.234 0.947-0.328-0.076 0.642-0.106 1.285-0.114 1.933-0.297-0.027-0.594-0.052-0.891-0.075-0.048-0.486-2e-3 -0.989 0.059-1.467 3e-3 -0.023 0-0.043-1e-3 -0.063zm-1.36 1.445c-0.271-0.013-0.542-0.021-0.812-0.027 0.255-0.257 0.526-0.483 0.812-0.683-0.013 0.237-0.013 0.474 0 0.71zm32.576 9.123c-4.098 2.119-8.004 4.609-12.191 6.553-4.739 2.201-9.423 2.717-14.584 2.224-2.309-0.221-4.606-0.514-6.929-0.551-0.868-0.014-0.401 0.755-0.648 0.097-0.172-0.459-0.317-0.927-0.454-1.397-1.11-3.794-1.217-7.849-0.441-11.715 0.209-1.044 0.527-2.062 0.884-3.064 4.93-0.056 9.875 1.331 14.794 0.61 5.016-0.735 9.498-3.058 13.855-5.535 4.77-2.711 9.631-5.584 14.922-7.148 5.094-1.507 10.566-0.277 15.793-0.662 1.227 4.909 2.353 11.387 0.052 16.145-0.044-0.018-0.169-0.014-0.46 0.04-1.163 0.217-2.405 0.121-3.582 0.087-2.653-0.077-5.29-0.324-7.947-0.192-4.65 0.231-9.006 2.409-13.064 4.508zm23.774-2.965c-0.189 0.16-0.384 0.308-0.584 0.445 2e-3 -0.135-3e-3 -0.269-9e-3 -0.404 0.199-9e-3 0.397-0.022 0.593-0.041zm-1.932 1.194c-0.306 0.136-0.62 0.256-0.939 0.364 0.052-0.517 0.074-1.034 0.083-1.554 0.302 0.019 0.604 0.032 0.906 0.042 0.025 0.381-6e-3 0.77-0.05 1.148zm-2.156-1.281c-5e-3 0.679-0.027 1.358-0.136 2.03-0.477 0.114-0.961 0.212-1.448 0.303 0.019-0.81 0.111-1.615 0.142-2.424 0.106 6e-3 0.213 0.011 0.319 0.017 0.366 0.018 0.743 0.046 1.123 0.074zm-2.887 2.562c-0.362 0.062-0.723 0.125-1.082 0.191 0.148-0.978 0.142-1.964 0.132-2.952 0.365 0.011 0.729 0.024 1.093 0.041-0.03 0.883-0.141 1.761-0.15 2.645 0 0.027 5e-3 0.05 7e-3 0.075zm-2.395 0.466c-0.46 0.114-0.924 0.284-1.346 0.52 0.107-1.243 0.31-2.479 0.322-3.729 0.389-0.02 0.779-0.031 1.169-0.034 0.017 0.993 0.043 1.996-0.145 2.971-0.019 0.098-0.017 0.189 0 0.272zm17.668-4.119c-0.294 0.194-0.423 0.574-0.234 0.892 1.504 2.52 3.615 4.852 4.496 7.689-0.671-0.141-1.301-0.415-1.97-0.637-0.923-0.305-1.966-0.403-2.924-0.544-2.039-0.301-4.103-0.396-6.162-0.436-3.518-0.069-7.037 0.152-10.555 0.078-0.535-0.011-1.059-0.064-1.576-0.201-0.135-0.036-0.212-0.087-0.252-0.146 0.068-0.095 0.107-0.218 0.104-0.369 0.286-0.325 0.931-0.678 1.09-0.745 1.364-0.568 2.931-0.537 4.363-0.841 2.981-0.631 5.746-1.61 7.607-4.148 0.071-0.097 0.106-0.193 0.117-0.285 0.149-0.237 0.268-0.558 0.43-1.023 0.843-2.425 1.086-5.036 0.976-7.657 3.977-0.088 9.242 1.571 11.162 5.279-2.333 0.758-4.628 1.742-6.672 3.094z"
     id="path30" /><text
     xml:space="preserve"
     style="font-style:normal;font-weight:normal;font-size:14.156px;line-height:1.25;font-family:sans-serif;fill:#054df7;fill-opacity:0.57028753;stroke:none;stroke-width:0.353901"
     x="47.385422"
     y="53.419128"
     id="text1871"
     transform="scale(0.95332601,1.0489591)"><tspan
       sodipodi:role="line"
       id="tspan1869"
       x="47.385422"
       y="53.419128"
       style="font-style:normal;font-variant:normal;font-weight:bold;font-stretch:normal;font-family:Rubik;-inkscape-font-specification:'Rubik Bold';stroke-width:0.353901;fill:#054df7;fill-opacity:0.57028753">?</tspan></text><path
     style="fill:#a567c3;stroke-width:0.164204;fill-opacity:0.30351439"
     d="m 9.4697698,39.336707 c -0.7035066,0.06689 -0.3695881,0.95729 -0.1445601,1.334716 1.1222403,2.359144 2.8748323,4.36653 4.0200223,6.700998 -0.461335,0.79521 -1.491028,1.068541 -2.238638,1.537966 -1.3226385,0.734087 -2.778449,1.170693 -4.1215263,1.856431 -0.7063236,0.518158 0.093266,1.319899 0.4615822,1.776333 2.4018305,2.584762 6.0280221,3.654646 9.4614251,3.871871 0.395061,0.145089 0.936149,0.05739 0.882681,-0.458953 0.05485,-2.970916 0.542915,-5.947721 1.665207,-8.70656 1.134626,-1.954951 3.308152,-3.087427 5.481711,-3.524392 1.940612,-0.53341 3.972973,-0.648044 5.934449,-1.086618 0.588758,-0.286313 1.494969,-0.588822 1.5892,-1.327981 -0.204591,-0.705314 -1.18614,-0.499733 -1.747636,-0.589743 -6.552077,-0.126623 -13.201528,0.55334 -19.64678,-0.914789 -0.547024,-0.105873 -1.032604,-0.459711 -1.5971372,-0.469279 z"
     id="path5368" /><path
     style="fill:#a567c3;fill-opacity:0.303514;stroke-width:0.164204"
     d="m 82.327346,43.151555 c -0.460698,0.40234 -0.09073,1.276566 -0.227063,1.857393 -0.09216,2.422427 -0.373394,4.98972 -1.516317,7.156086 -1.739149,2.436585 -4.681872,3.535468 -7.498743,4.070732 -1.665065,0.424405 -3.573674,0.269745 -5.028198,1.296514 -0.550346,0.410274 -0.2366,1.430325 0.500662,1.272965 5.241327,0.17162 10.520622,-0.192528 15.73503,0.238769 1.959287,0.181944 3.914507,0.495269 5.805757,1.0598 0.355025,0.126695 1.195753,0.137522 0.936153,-0.461101 -1.128318,-2.531119 -2.884462,-4.707697 -4.252376,-7.097878 -0.430012,-0.666517 0.530984,-0.965993 0.931343,-1.254137 1.740096,-1.040067 3.658072,-1.7187 5.489676,-2.558546 0.552593,-0.37599 -0.131732,-1.027064 -0.381967,-1.382822 -2.170839,-2.620401 -5.618851,-3.749235 -8.892491,-4.152074 -0.532259,-0.05433 -1.067245,-0.04813 -1.601466,-0.0457 z"
     id="path8219" /><path
     style="fill:#a567c3;fill-opacity:0.0910543;stroke-width:0.164204"
     d="m 71.099764,35.084331 c -2.458716,0.01873 -4.981428,-0.141672 -7.33817,0.707406 -7.549702,2.254885 -13.962924,7.043228 -21.043377,10.309165 -3.612643,1.658064 -7.530955,2.638834 -11.519892,2.459265 -3.659592,-0.06846 -7.311612,-0.782326 -10.963787,-0.719644 -0.990526,2.531509 -1.455409,5.324843 -1.381748,8.068881 -0.06158,2.84316 0.360981,5.743424 1.402944,8.375107 3.636591,-0.06721 7.24219,0.534787 10.870873,0.663149 3.735292,-0.01751 7.509761,-0.618076 10.907989,-2.226598 7.081468,-3.170532 13.475037,-7.864548 20.859637,-10.320306 3.752803,-1.295742 7.769217,-0.854293 11.66743,-0.810244 1.736716,0.02781 3.485501,0.171972 5.214835,-0.05134 0.692028,-1.042738 0.921673,-2.392275 1.212016,-3.621641 0.320339,-2.319736 0.201862,-4.689469 -0.01032,-7.015434 -0.258916,-1.940956 -0.636765,-3.897908 -1.186183,-5.760629 -2.491418,-0.135225 -5.071522,-0.02009 -7.597106,-0.05764 -0.365049,1.69e-4 -0.730097,3.38e-4 -1.095145,5.07e-4 z"
     id="path8716" /><path
     style="fill:#a567c3;fill-opacity:0.09019608;stroke-width:0.164204"
     d="m 32.155124,43.360337 c -0.51747,0.0953 -1.494349,0.0301 -1.439347,0.810355 -0.08468,1.122433 -0.211056,2.289632 -0.0914,3.393193 0.488148,0.02159 1.614087,0.345908 1.457218,-0.506841 0.02501,-1.212495 0.237406,-2.44377 0.245753,-3.635371 -0.06453,0.03153 -0.109939,-0.07649 -0.172222,-0.06134 z"
     id="path11267" /><path
     style="fill:#a567c3;fill-opacity:0.0901961;stroke-width:0.164204"
     d="m 32.155124,43.360337 c -0.51747,0.0953 -1.494349,0.0301 -1.439347,0.810355 -0.08468,1.122433 -0.211056,2.289632 -0.0914,3.393193 0.488179,0.02155 1.612484,0.345826 1.457644,-0.506304 0.0279,-1.212541 0.244771,-2.444493 0.244605,-3.63663 -0.06415,0.03322 -0.109716,-0.07574 -0.1715,-0.06061 z"
     id="path11343" /><path
     style="fill:#a567c3;fill-opacity:0.0901961;stroke-width:0.164204"
     d="m 70.894349,33.741197 c -2.852461,-0.06669 -5.735557,0.129179 -8.459046,1.041514 -8.007022,2.611127 -14.703329,8.026699 -22.531739,11.038103 -2.096052,0.76945 -4.296197,1.341909 -6.534712,1.426049 0.05583,-2.210802 0.539421,-4.442215 0.36537,-6.660829 -0.331789,-0.704788 -1.232609,-0.97224 -1.900446,-1.19153 -5.889653,-0.03529 -11.831679,0.297101 -17.68027,-0.342254 -1.922894,-0.159014 -3.738669,-0.89332 -5.6295104,-1.266257 -0.5823243,-0.170576 -1.3244442,0.207548 -1.1894339,0.890452 0.5162874,2.92005 2.4486628,5.316044 4.0159333,7.748518 0.677166,0.603677 0.151488,0.911538 -0.516876,1.173974 -1.7632552,0.977104 -3.6975817,1.573334 -5.5584978,2.323852 -0.8094853,0.476532 -0.1164764,1.458685 0.183767,2.032742 2.03276,3.345776 5.9404648,5.057824 9.6855518,5.605289 0.775647,0.113178 1.559479,0.147086 2.340599,0.201649 0.233702,2.541712 0.683077,5.110362 1.739532,7.446409 0.738263,0.478621 1.732436,0.218615 2.570092,0.34757 3.912362,0.125151 7.806133,0.906297 11.731497,0.717509 5.300249,-0.326179 10.197434,-2.671003 14.74465,-5.249144 4.432761,-2.4454 8.815229,-5.031375 13.53838,-6.885968 1.563699,-0.531662 3.137477,-1.051026 4.791891,-1.230084 -0.08872,1.956567 -0.479427,3.915338 -0.394714,5.87525 0.350079,1.182398 1.803526,1.312828 2.842002,1.328142 5.425876,0.203234 10.890321,-0.232482 16.289243,0.337547 2.046723,0.214955 4.011223,0.84712 6.009948,1.286609 0.516974,0.129262 1.369789,0.01877 1.328221,-0.68191 -0.48092,-3.253884 -2.774378,-5.805527 -4.395734,-8.549733 2.00393,-1.36391 4.393388,-1.965841 6.574239,-2.958792 0.619019,-0.530959 -0.02933,-1.412263 -0.317864,-1.951817 -2.256956,-3.63173 -6.610864,-5.326286 -10.710799,-5.698083 -0.539821,-0.17831 -1.654776,0.262271 -1.534341,-0.599014 -0.349828,-2.415008 -0.690493,-4.861992 -1.434793,-7.190154 -0.459814,-0.391738 -1.215855,-0.146832 -1.781553,-0.263519 -2.725702,-0.08968 -5.453619,-0.10265 -8.180587,-0.10209 z m -0.187376,1.595934 c 2.966606,0.01315 5.932672,0.07814 8.898986,0.11762 0.994651,4.187186 1.710922,8.558869 0.984982,12.840354 -0.247946,0.961991 -0.413154,2.013101 -0.966461,2.845981 -1.081401,0.392997 -2.300406,0.11645 -3.436959,0.187373 -3.201684,0.02942 -6.41133,-0.309279 -9.607366,-0.06037 -5.336355,0.704867 -10.083271,3.467138 -14.76471,5.941021 -4.271391,2.273077 -8.392162,4.943961 -13.042066,6.398061 -3.975831,1.187941 -8.192103,1.040947 -12.275178,0.708293 -1.950664,-0.136184 -3.924245,-0.525326 -5.877098,-0.308527 -0.312125,0.14679 -0.245491,-0.562444 -0.396397,-0.741803 -0.946738,-2.807652 -1.173744,-5.76754 -0.999715,-8.711127 0.01658,-2.181992 0.497547,-4.322158 1.186849,-6.383017 4.380138,-0.04582 8.71143,0.95117 13.093553,0.722562 6.138781,-0.419274 11.639566,-3.475204 16.872601,-6.457418 4.824288,-2.653481 9.666112,-5.501834 15.076239,-6.7434 1.724141,-0.377184 3.495233,-0.342356 5.25274,-0.355603 z M 9.2718115,39.547654 c 3.2291415,1.041362 6.6331775,1.375704 10.0135985,1.349898 4.149455,0.110359 8.32969,-0.02576 12.459124,0.241707 0.390315,-0.08742 0.622283,0.255064 0.277576,0.504397 -1.218795,1.054854 -2.982362,0.938051 -4.468615,1.294787 -2.824757,0.512094 -6.038246,1.07045 -7.878994,3.517769 -1.096157,1.704157 -1.440656,3.772734 -1.815193,5.732394 -0.254618,1.310281 -0.176277,2.686746 -0.456772,3.975523 -2.802284,-0.07864 -5.627479,-0.81571 -8.0169525,-2.328836 -0.9970451,-0.762867 -2.0343148,-1.595976 -2.5888528,-2.750491 2.122982,-0.954269 4.3900223,-1.697386 6.2990683,-3.05741 0.664468,-0.350317 0.548587,-0.943053 0.121229,-1.453298 -1.259528,-2.320546 -3.050569,-4.369485 -3.9586864,-6.86865 0.011459,-0.04153 -0.1029994,-0.219311 0.01347,-0.15779 z m 73.4721365,3.876665 c 3.121538,0.0077 6.30737,1.091848 8.736386,3.009063 0.669287,0.595063 1.303042,1.255954 1.760699,2.030096 -2.190411,0.942778 -4.487661,1.759617 -6.449643,3.137507 -0.663957,0.677335 0.119999,1.600614 0.463385,2.228227 1.238548,2.003463 2.709814,3.936471 3.554954,6.133169 -1.341435,-0.166716 -2.757983,-0.723387 -4.164582,-0.877223 -6.025505,-0.832601 -12.162179,-0.355563 -18.197015,-0.628511 -0.251703,-0.0084 -0.907473,-0.07363 -0.50584,-0.424781 1.451592,-1.295275 3.541595,-1.098695 5.322506,-1.570572 2.824669,-0.573484 5.775491,-1.703373 7.484172,-4.158194 1.518598,-2.595286 1.457242,-5.71163 1.650295,-8.615879 0.01099,-0.22477 0.134859,-0.285808 0.344683,-0.262902 z m -50.700671,0.10415 c -0.118082,1.250463 -0.215194,2.503463 -0.274688,3.758563 -0.254041,-0.0676 -1.027622,0.288877 -0.889053,-0.268372 0.03783,-1.007644 -0.03143,-2.063946 0.224942,-3.034622 0.253488,-0.239891 0.647845,-0.343703 0.938799,-0.455569 z m -2.700941,0.715826 c -0.0082,0.971202 -0.0034,2.009941 -0.194591,2.936182 -0.498396,0.04794 -0.785443,-0.154101 -0.592456,-0.692991 0.05227,-0.719728 0.0509,-1.45534 0.180183,-2.153232 0.18464,-0.03871 0.45271,-0.139027 0.606864,-0.08996 z m -2.32547,0.737954 c -0.04295,0.64847 0.0087,1.360905 -0.192666,1.961543 -0.530329,-0.0062 -1.265636,0.04463 -1.008553,-0.707407 0.07754,-0.510648 -0.229308,-1.581546 0.594955,-1.561971 0.41929,-0.01983 0.734718,-0.374724 0.606264,0.307835 z m -2.788735,0.291285 c -0.06494,0.445923 0.0742,1.063877 -0.136622,1.425637 -0.332723,0.0317 -0.601781,-0.09224 -0.491168,-0.469761 -0.11866,-0.589606 0.05957,-1.232392 0.62779,-0.955876 z m -2.273755,1.074459 c 0.139912,0.303124 -0.5167,0.143778 -0.05539,0.0093 l 0.05203,-0.04085 z m 47.057083,6.389028 c 0.221676,0.260672 0.03714,0.881959 0.0736,1.276747 -0.138995,0.539996 0.132259,1.368818 -0.369217,1.737127 -0.223621,-0.0032 -0.883017,0.500131 -0.742285,0.05244 0.122026,-0.999836 0.166545,-2.007108 0.232115,-3.011709 0.268212,-0.02223 0.536137,-0.0573 0.805784,-0.0546 z m 2.133765,0.04907 c 0.687275,-0.0056 0.105528,1.184045 0.224658,1.711389 0.02336,0.453623 0.02258,0.891948 -0.558567,0.802693 -0.355466,-0.01307 -0.08319,-0.765362 -0.143548,-1.092775 0.144965,-0.427685 -0.170113,-1.395573 0.362723,-1.421307 z m 2.517174,0.123153 c 0.769778,-0.256151 0.476978,0.564291 0.515942,1.028998 0.06965,0.473449 -0.201847,0.941563 -0.736751,0.882754 -0.498755,0.273888 -0.498417,-0.107719 -0.450758,-0.500066 0.07184,-0.464205 -0.03983,-1.14392 0.250635,-1.411686 0.140311,0 0.280621,0 0.420932,0 z m 2.445976,0.123152 c 0.475188,-0.137901 0.309266,0.632727 0.218163,0.909213 -0.391388,0.293875 -0.599909,0.171124 -0.51089,-0.308603 0.05752,-0.27184 -0.185712,-0.741688 0.292727,-0.60061 z"
     id="path11382" /><path
     style="fill:#a567c3;fill-opacity:0.0901961;stroke-width:0.164204"
     d="m 26.718365,44.260891 c -0.924479,0.08611 -0.282806,1.701563 0.452442,0.988589 0.301604,-0.421023 0.23623,-1.150213 -0.452442,-0.988589 z"
     id="path11421" /><path
     style="fill:#a567c3;fill-opacity:0.0901961;stroke-width:0.164204"
     d="m 24.194456,45.390914 c -0.305309,0.275549 -0.01122,1.27327 0.347089,0.679023 0.04919,-0.245231 0.08199,-0.860329 -0.347089,-0.679023 z"
     id="path11460" /><path
     style="fill:#a567c3;fill-opacity:0.0901961;stroke-width:0.164204"
     d="m 26.484567,44.328 c -0.425586,0.027 -0.989913,0.149191 -0.915467,0.703077 -0.0041,0.659918 -0.319021,1.432327 0.02502,2.032741 0.476711,0.230841 1.110565,0.166959 1.596896,0.04017 0.06072,-0.918589 0.165352,-1.906385 0.04305,-2.812789 -0.239052,-0.106636 -0.501428,0.03151 -0.7495,0.0368 z"
     id="path11499" /><path
     style="fill:#a567c3;fill-opacity:0.0901961;stroke-width:0.0145137"
     d="m 29.542565,43.843528 c -0.355604,0.05561 -0.712116,0.108388 -1.067613,0.162791 -0.122558,0.02195 -0.176564,0.153123 -0.162518,0.266481 -0.0074,0.829665 -0.0801,1.654728 -0.123081,2.485879 -0.0048,0.180918 -0.03003,0.362908 -0.01506,0.543472 0.02578,0.114366 0.144578,0.167914 0.253065,0.166351 0.330301,0.03402 0.670679,0.06016 0.995594,0.08994 0.134452,0.01789 0.247021,-0.11084 0.227126,-0.241602 0.0045,-0.693217 -0.01138,-1.387322 0.01606,-2.077504 0.01882,-0.390225 0.0612,-0.783965 0.110165,-1.1669 0.0127,-0.128805 -0.102955,-0.249096 -0.233736,-0.22891 z"
     id="path11538" /><path
     style="fill:#a567c3;fill-opacity:0.0901961;stroke-width:0.0145137"
     d="m 27.180718,44.184033 c -0.48557,0.06166 -0.967766,0.148439 -1.4501,0.231439 -0.115999,0.02219 -0.17921,0.140456 -0.166054,0.251946 -0.0552,0.396219 -0.104691,0.793832 -0.119247,1.194038 -0.01585,0.381486 -0.01955,0.764416 -0.01198,1.145598 0.0078,0.125089 0.136992,0.189619 0.250547,0.186046 0.451875,0.04557 0.902959,0.102173 1.35554,0.138985 0.132523,0.006 0.237112,-0.122018 0.221617,-0.250212 0.04161,-0.896841 0.119435,-1.79212 0.140169,-2.689851 0.002,-0.116011 -0.103937,-0.218421 -0.22049,-0.207989 z"
     id="path11577" /><path
     style="fill:#a567c3;fill-opacity:0.0901961;stroke-width:0.0145137"
     d="m 27.180144,44.18416 c -0.48546,0.06166 -0.967682,0.147646 -1.449781,0.231376 -0.114811,0.02216 -0.178082,0.138631 -0.166256,0.249277 -0.0514,0.376779 -0.0992,0.762202 -0.116102,1.146588 -0.01946,0.395998 -0.02811,0.792766 -0.02532,1.189151 0.01373,0.117934 0.128252,0.189818 0.240781,0.187514 0.458386,0.05111 0.916806,0.105909 1.376361,0.143977 0.134862,0.0054 0.238016,-0.126219 0.221568,-0.255692 0.04253,-0.892086 0.118051,-1.782753 0.140325,-2.675718 0.0058,-0.119647 -0.101091,-0.227347 -0.221576,-0.216473 z"
     id="path11616" /><path
     style="fill:#a567c3;fill-opacity:0.0901961;stroke-width:0.0145137"
     d="m 24.402042,44.745985 c -0.192816,0.02734 -0.373888,0.107652 -0.559139,0.165021 -0.161992,0.06199 -0.333608,0.10664 -0.483551,0.194575 -0.09496,0.103129 -0.06848,0.255067 -0.09423,0.383357 -0.04654,0.446145 -0.08323,0.898728 -0.02997,1.345657 0.03321,0.112006 0.151975,0.154765 0.258993,0.152675 0.272227,0.02141 0.543123,0.05011 0.81393,0.06496 0.134612,-0.0085 0.207972,-0.147785 0.203672,-0.270467 0.01475,-0.366571 0.01515,-0.72536 0.04336,-1.085586 0.01585,-0.254352 0.04584,-0.511129 0.06827,-0.760083 -0.0093,-0.109874 -0.110929,-0.197857 -0.22134,-0.190109 z"
     id="path11655" /><path
     style="fill:#a567c3;fill-opacity:0.0901961;stroke-width:0.0145137"
     d="m 24.381844,44.746176 c -0.237113,0.05159 -0.464494,0.142043 -0.6941,0.219771 -0.111654,0.04843 -0.23907,0.072 -0.334966,0.148368 -0.08674,0.09941 -0.0618,0.243043 -0.08658,0.364632 -0.04753,0.448554 -0.08473,0.903378 -0.03173,1.352926 0.03116,0.110103 0.14664,0.15761 0.252715,0.154754 0.276067,0.02152 0.550777,0.05139 0.826648,0.06586 0.135683,-0.01244 0.207413,-0.15444 0.200016,-0.278658 0.0075,-0.594843 0.03801,-1.179403 0.104686,-1.769876 0.03321,-0.142172 -0.09325,-0.276018 -0.236691,-0.257781 z"
     id="path11694" /><path
     style="fill:#a567c3;fill-opacity:0.0901961;stroke-width:0.0145137"
     d="m 22.070108,45.834681 c -0.144488,0.02555 -0.24981,0.141949 -0.365383,0.223388 -0.166432,0.140119 -0.343725,0.273202 -0.481095,0.443186 -0.08949,0.122992 -0.04647,0.343577 0.11991,0.36891 0.158501,0.01361 0.307552,0.0045 0.464152,0.0145 0.124481,-0.0023 0.257627,0.03014 0.380548,-0.0033 0.113496,-0.0431 0.136865,-0.174003 0.12517,-0.28159 -0.004,-0.199191 0.008,-0.399872 -0.006,-0.598124 -0.01293,-0.112956 -0.129886,-0.180787 -0.237255,-0.167012 z"
     id="path11733" /><path
     style="fill:#a567c3;fill-opacity:0.0901961;stroke-width:0.0145137"
     d="m 29.509059,43.847865 c -0.349148,0.05619 -0.696814,0.1036 -1.045711,0.160574 -0.123562,0.02559 -0.166058,0.162396 -0.153123,0.274482 -0.0059,0.978194 -0.107632,1.956625 -0.141439,2.936973 -0.01813,0.130519 0.09465,0.248801 0.224506,0.245387 0.343245,0.03621 0.691189,0.06201 1.032321,0.09357 0.11358,0.01496 0.232859,-0.08814 0.225036,-0.209647 -0.0031,-1.015055 -0.03252,-2.043906 0.09712,-3.040476 0.0055,-0.129351 0.07394,-0.276354 -0.0099,-0.391773 -0.05395,-0.06996 -0.14589,-0.0873 -0.22877,-0.06909 z"
     id="path11811" /><path
     style="fill:#a567c3;fill-opacity:0.0901961;stroke-width:0.0821018"
     d="m 67.979454,52.443331 c -0.151803,0.613776 -0.107357,1.271196 -0.202245,1.900102 -0.02925,0.634543 -0.198412,1.282448 -0.148572,1.908371 0.272258,0.257203 0.675229,-0.04774 0.978496,-0.101103 0.299675,-0.108884 0.762663,-0.168228 0.687938,-0.598179 0.123111,-1.000725 0.14516,-2.023627 0.09347,-3.02344 -0.195959,-0.292131 -0.662155,-0.07738 -0.969275,-0.142878 -0.150814,0.0059 -0.304315,-0.02781 -0.439814,0.05713 z"
     id="path12047" /><path
     style="fill:#a567c3;fill-opacity:0.0901961;stroke-width:0.0821018"
     d="m 69.699262,33.680823 c -2.459074,-0.0075 -4.92452,0.312102 -7.266611,1.077345 -3.822081,1.186523 -7.349382,3.130573 -10.823418,5.082509 -4.672023,2.59935 -9.261635,5.513668 -14.481587,6.837172 -1.219494,0.308586 -2.473028,0.502901 -3.723556,0.586333 0.0096,-1.750465 0.339338,-3.484389 0.390135,-5.238538 0.03648,-0.59309 0.2333,-1.30389 -0.260007,-1.779964 -0.641884,-0.667461 -1.602936,-0.884527 -2.500802,-0.856107 -4.104607,-0.0056 -8.209403,0.05373 -12.314204,0.03481 -0.373844,0.139382 -0.132559,0.653512 -0.200003,0.961891 -0.01949,0.294359 -0.06829,0.823291 0.385452,0.714926 4.125899,0.0047 8.260624,-0.07184 12.381178,-0.004 0.280646,0.04071 0.723546,-0.03298 0.876141,0.235601 -0.258378,0.574061 -0.919861,0.81454 -1.475067,1.019618 -1.368621,0.348951 -2.795435,0.3792 -4.174699,0.68462 -2.121262,0.418664 -4.389389,0.894373 -6.013903,2.43136 -0.690843,0.683247 -1.446336,1.398993 -1.67369,2.382708 -0.195848,0.52562 -0.382712,1.055354 -0.305412,1.625648 0.02444,2.042594 -0.05184,4.089384 0.04991,6.129493 0.0037,0.348623 0.505979,0.312687 0.530255,-0.0051 0.137256,-1.066639 0.109317,-2.15005 0.301635,-3.206098 0.210681,-1.420929 0.559891,-2.844811 1.043303,-4.195692 2.364894,-0.06786 4.707533,0.23965 7.057736,0.476 2.934791,0.29137 5.931648,0.51063 8.838592,-0.129437 5.119114,-1.004284 9.711628,-3.622905 14.193401,-6.175598 4.469166,-2.509414 8.978244,-5.076829 13.947378,-6.433677 3.930032,-1.018652 7.998573,-0.471444 12.010122,-0.491226 1.025635,0.01094 2.051345,0.0038 3.077016,0.0052 0.716318,3.039011 1.360224,6.114667 1.298832,9.234288 0.02631,1.521242 -0.105831,3.07046 -0.519144,4.52935 -0.181438,0.689353 -0.413943,1.352416 -0.723644,1.991249 -1.916751,0.281677 -3.855405,0.106617 -5.781937,0.04563 -3.413317,-0.157404 -6.91511,-0.398368 -10.23898,0.579397 -3.607605,0.9858 -6.918603,2.773856 -10.21494,4.495916 -4.00404,2.126716 -7.854123,4.55291 -12.026584,6.347169 -3.467233,1.461808 -7.263375,2.017342 -11.007614,1.893308 -3.064295,-0.09092 -6.117302,-0.648609 -9.192567,-0.671148 -0.226033,0.01302 -0.463971,0.01828 -0.671365,0.119777 -0.80882,-2.385227 -1.323158,-4.890552 -1.346982,-7.416583 0.04119,-0.274446 -0.298409,-0.643237 -0.527248,-0.346608 -0.158998,0.669349 -0.05716,1.382031 -0.0947,2.067257 0.0027,1.721577 -0.0169,3.445785 0.0092,5.16568 0.277533,0.635051 0.379137,1.390451 0.853289,1.918248 0.608145,0.186235 1.277254,0.102074 1.909301,0.153634 3.43441,0.05995 6.843664,0.673421 10.287239,0.758808 2.239599,0.09153 4.480579,-0.211376 6.636448,-0.813704 4.290461,-1.168592 8.20277,-3.351197 12.032951,-5.553377 3.680103,-2.049202 7.359969,-4.13711 11.282768,-5.695892 1.638097,-0.602186 3.335369,-1.128612 5.064723,-1.337924 -0.128064,1.582125 -0.326635,3.168478 -0.396277,4.758577 -0.140141,0.536749 -0.203573,1.204922 0.222371,1.651498 0.786903,0.81649 2.024103,0.831155 3.081213,0.86275 5.036553,0.05917 10.106141,-0.271272 15.113005,0.194734 2.080561,0.193459 4.122722,0.663417 6.105216,1.285133 0.571952,0.122613 1.351447,0.381187 1.805573,-0.136933 0.382124,-0.528468 0.03549,-1.204522 -0.09571,-1.760987 -0.790456,-2.564583 -2.526134,-4.671211 -3.943042,-6.904064 -0.137223,-0.185848 -0.335339,-0.393197 0.0034,-0.478278 1.885295,-1.160234 3.971287,-1.892458 6.04761,-2.622445 0.4038,-0.131779 0.739668,-0.551749 0.577882,-0.987146 -0.707186,-1.936027 -2.24604,-3.463539 -3.952555,-4.563024 -2.460844,-1.575629 -5.381817,-2.295148 -8.28101,-2.405805 -0.505523,0.107068 -0.618744,-0.196976 -0.593824,-0.645771 -0.263393,-2.317772 -0.711459,-4.616499 -1.315449,-6.868712 -0.08493,-0.436014 -0.53702,-0.632065 -0.942224,-0.555942 -3.440552,0.257416 -6.885808,-0.101259 -10.334549,-0.0579 z m 13.528515,9.827442 c 2.943375,0.134428 6.000425,1.03084 8.304871,2.985731 0.644981,0.576043 1.234002,1.229571 1.661361,1.985236 -2.283947,0.809197 -4.564705,1.73127 -6.563652,3.120671 -0.381231,0.249878 -0.46588,0.79505 -0.170899,1.145296 1.261675,2.064872 2.786219,3.97621 3.842993,6.161452 0.170529,0.367043 0.339402,0.738904 0.463861,1.114901 -1.336866,-0.458062 -2.691823,-0.887122 -4.103504,-1.04012 -2.903381,-0.454298 -5.846299,-0.503261 -8.778701,-0.493709 -3.147069,-0.02319 -6.301638,0.06807 -9.443524,-0.03294 -0.181572,-0.04126 -0.521711,0.01722 -0.603765,-0.173722 0.184754,-0.560482 0.83516,-0.77614 1.337963,-0.967904 1.634151,-0.496275 3.359108,-0.513784 5.007701,-0.961558 2.173726,-0.532949 4.37037,-1.408551 5.914777,-3.0913 0.54715,-0.491879 0.972704,-1.102769 1.20178,-1.804946 0.981016,-2.532249 1.211331,-5.283543 1.166971,-7.977873 0.253922,0.01026 0.507845,0.02052 0.761767,0.03079 z m -51.193761,0.107518 c -0.156488,1.204255 -0.258851,2.436961 -0.286835,3.659583 -0.303472,-0.07268 -0.967579,0.215274 -0.820577,-0.307881 -0.0012,-1.016295 -0.01225,-2.046481 0.160195,-3.047067 0.314744,-0.141581 0.652058,-0.23271 0.956718,-0.398803 l -0.0062,0.06126 z m -2.658607,0.683353 c -0.105717,0.945047 -0.06921,1.89881 -0.07998,2.847907 -0.21509,-0.05408 -0.668463,0.07115 -0.756369,-0.100897 0.08628,-0.900907 0.07779,-1.809387 0.163817,-2.702632 0.225713,-0.03244 0.450743,-0.07036 0.67746,-0.09537 z m -2.381033,0.896465 c -0.04501,0.578774 -0.03004,1.211852 -0.129165,1.755047 -0.349993,-0.03231 -0.699709,-0.06751 -1.049444,-0.102468 -0.009,-0.701202 0.01789,-1.405011 0.111607,-2.085177 0.364229,-0.0706 0.73114,-0.126324 1.096708,-0.189419 -0.0099,0.207339 -0.0198,0.414678 -0.02971,0.622017 z m -2.769492,0.05953 c -0.04179,0.46591 -0.07298,0.932672 -0.10367,1.399419 -0.154762,-0.03569 -0.412958,0.0505 -0.513056,-0.06074 0.02623,-0.39402 -0.07547,-0.838603 0.08876,-1.202061 0.163732,-0.101422 0.357704,-0.139443 0.534945,-0.210947 l -0.0058,0.06131 z m -2.286263,1.257865 c -0.43704,0.144385 0.136503,-0.34324 0,0 z m 47.117216,7.2523 c -0.03869,0.631539 -0.0085,1.294393 -0.172461,1.913798 -0.292202,0.07121 -0.6193,0.212402 -0.91643,0.335783 0.09776,-1.077024 0.254978,-2.151705 0.274688,-3.234081 0.279043,-0.03627 0.560357,-0.05777 0.841865,-0.0558 -0.0092,0.346768 -0.01844,0.693536 -0.02766,1.040304 z m 2.045008,-0.979088 c 0.418584,-0.124881 0.358928,0.179863 0.318122,0.479404 -0.0633,0.633396 -0.05541,1.318184 -0.151072,1.916662 -0.174436,-0.04054 -0.705875,0.307791 -0.6237,-0.02862 0.04674,-0.788301 0.05175,-1.578215 0.07228,-2.367442 0.128124,0 0.256247,0 0.38437,0 z m 2.341706,0.09561 c 0.251251,0.01903 0.503403,0.03293 0.752988,0.06879 -0.04814,0.560122 0.0061,1.156917 -0.136863,1.695635 -0.341279,0.10513 -0.747044,0.187759 -1.069529,0.218403 0.03328,-0.665113 0.08446,-1.333804 0.126521,-2.003517 0.108961,0.0069 0.217922,0.01379 0.326883,0.02069 z m 2.462934,0.164886 c 0.259255,0.02559 0.633074,-0.03899 0.495497,0.35238 0.0021,0.251983 0.04298,0.585702 -0.288398,0.628752 -0.339553,0.231236 -0.323878,-0.05135 -0.274208,-0.362122 0.03197,-0.189138 -0.0086,-0.473391 0.06711,-0.61901 z"
     id="path12086" /><path
     style="fill:#a567c3;fill-opacity:0.0901961;stroke-width:0.0205255"
     d="m 72.974415,52.498202 c -0.140557,-0.0076 -0.23653,0.128976 -0.227695,0.260587 -0.04204,0.749315 -0.113796,1.500726 -0.134006,2.253069 -0.02047,0.130143 0.05827,0.282657 0.203173,0.282037 0.371493,-0.05418 0.738644,-0.14446 1.107189,-0.218473 0.150397,-0.04538 0.323864,-0.0433 0.454518,-0.133462 0.103087,-0.119604 0.07503,-0.294606 0.107787,-0.440998 0.071,-0.578287 0.08464,-1.162082 0.09287,-1.743917 -0.01688,-0.143495 -0.169758,-0.197947 -0.296851,-0.19135 -0.435163,-0.02952 -0.870933,-0.05668 -1.30699,-0.06749 z"
     id="path12125" /><path
     style="fill:#a567c3;fill-opacity:0.0901961;stroke-width:0.0205255"
     d="m 70.472214,52.399253 c -0.165206,0.08615 -0.108101,0.29061 -0.119848,0.442028 -0.01146,0.629446 0.0027,1.254208 -0.04262,1.881294 -0.01843,0.26653 -0.06394,0.525969 -0.07864,0.791816 0.0093,0.154092 0.182754,0.232169 0.317959,0.183547 0.328993,-0.06263 0.661799,-0.108476 0.988734,-0.179879 0.167251,-0.06198 0.154924,-0.265515 0.152425,-0.411521 0.01469,-0.832026 0.11788,-1.658958 0.139967,-2.490879 -0.0021,-0.150765 -0.163661,-0.213639 -0.294108,-0.199111 -0.334791,-0.01371 -0.671495,-0.03459 -1.005604,-0.02898 -0.01942,0.0039 -0.03885,0.0078 -0.05827,0.01168 z"
     id="path12164" /><path
     style="fill:#a567c3;fill-opacity:0.0901961;stroke-width:0.0205255"
     d="m 75.691562,52.671235 c -0.140998,0.0074 -0.21364,0.149784 -0.200205,0.277978 -0.01604,0.476305 -0.0437,0.952423 -0.07463,1.427669 0.0015,0.164639 0.19356,0.255846 0.333983,0.190228 0.299886,-0.102045 0.600992,-0.210281 0.884479,-0.350229 0.133518,-0.09016 0.103821,-0.27451 0.125333,-0.416369 0.01518,-0.303773 0.03085,-0.609855 0.02312,-0.913002 -0.01264,-0.150423 -0.181116,-0.191241 -0.307689,-0.179946 -0.261553,-0.0099 -0.522813,-0.02818 -0.784383,-0.03633 z"
     id="path12203" /><path
     style="fill:#a567c3;fill-opacity:0.0901961;stroke-width:0.0205255"
     d="m 75.696883,52.670333 c -0.142928,0.0033 -0.220378,0.148544 -0.205525,0.278639 -0.01603,0.476386 -0.0437,0.952584 -0.07464,1.42791 0.0016,0.164765 0.193722,0.255844 0.334189,0.190183 0.299808,-0.102078 0.600853,-0.210273 0.884273,-0.350214 0.136363,-0.09098 0.09969,-0.278922 0.126547,-0.421317 0.01892,-0.305307 0.04492,-0.614466 0.01478,-0.918881 -0.0231,-0.159956 -0.206326,-0.176224 -0.336704,-0.170815 -0.247748,-0.0095 -0.49515,-0.02764 -0.742925,-0.03551 z"
     id="path12242" /><path
     style="fill:#a567c3;fill-opacity:0.0901961;stroke-width:0.0205255"
     d="m 72.866716,52.514017 c -0.160879,0.09778 -0.114418,0.309719 -0.13734,0.468503 -0.03242,0.700654 -0.110351,1.397851 -0.1157,2.100386 -0.0054,0.153421 0.162887,0.24957 0.299754,0.199464 0.468734,-0.09504 0.940464,-0.181993 1.403656,-0.300136 0.163122,-0.07859 0.129036,-0.282093 0.161265,-0.43029 0.0762,-0.59165 0.09328,-1.190141 0.101628,-1.785415 -0.0047,-0.147575 -0.162117,-0.207885 -0.290182,-0.197174 -0.444782,-0.02815 -0.889343,-0.06925 -1.335136,-0.07539 -0.02931,0.0067 -0.05863,0.01337 -0.08795,0.02005 z"
     id="path12281" /><path
     style="fill:#a567c3;fill-opacity:0.0901961;stroke-width:0.0205255"
     d="m 70.472063,52.399373 c -0.165091,0.08624 -0.10791,0.290585 -0.119644,0.441968 -0.01171,0.847079 0.0096,1.697851 -0.113315,2.539384 -0.03721,0.128735 0.01088,0.298207 0.158906,0.324398 0.183271,0.0081 0.364243,-0.05452 0.546215,-0.07617 0.206507,-0.04523 0.423199,-0.05651 0.623134,-0.125119 0.168454,-0.09664 0.111614,-0.31713 0.123574,-0.476796 0.02322,-0.802874 0.117183,-1.606854 0.139262,-2.411353 -0.0021,-0.150456 -0.163101,-0.213344 -0.293333,-0.199471 -0.335064,-0.01456 -0.672144,-0.03417 -1.006554,-0.02859 -0.01942,0.0039 -0.03883,0.0078 -0.05824,0.01174 z"
     id="path12359" /><path
     style="fill:#a567c3;fill-opacity:0.0901961;stroke-width:0.0205255"
     d="m 68.940953,52.367984 c -0.30008,0.012 -0.603781,0.0013 -0.901155,0.04391 -0.139588,0.04105 -0.156608,0.199118 -0.155615,0.322181 -0.02397,0.679759 -0.08567,1.362571 -0.163331,2.042797 -0.05169,0.492166 -0.111373,0.984061 -0.152228,1.477035 0.001,0.176618 0.213916,0.261271 0.35677,0.182684 0.395679,-0.174905 0.797224,-0.346237 1.219068,-0.446407 0.158689,-0.04435 0.14879,-0.226793 0.145654,-0.359046 0.02845,-0.251227 0.08042,-0.503964 0.102287,-0.75873 0.07337,-0.773394 0.06884,-1.553215 0.04231,-2.328306 -0.01195,-0.150667 -0.177787,-0.20283 -0.307213,-0.179189 -0.06218,10e-4 -0.124365,0.002 -0.186548,0.0031 z"
     id="path12398" /><path
     style="fill:#a567c3;fill-opacity:0.0901961;stroke-width:0.0205255"
     d="m 72.874564,52.505959 c -0.169002,0.09365 -0.126489,0.310008 -0.144591,0.471655 -0.03414,0.700938 -0.10753,1.401924 -0.118943,2.105713 0.002,0.156389 0.174996,0.252186 0.314975,0.197445 0.459089,-0.09326 0.920862,-0.180224 1.374905,-0.293645 0.173771,-0.05827 0.146138,-0.267617 0.175798,-0.413999 0.07922,-0.596725 0.09219,-1.199624 0.104014,-1.800628 -0.006,-0.14048 -0.151413,-0.21209 -0.278236,-0.202409 -0.451076,-0.02924 -0.902904,-0.06724 -1.354334,-0.07772 -0.02453,0.0045 -0.04906,0.0091 -0.07359,0.01359 z"
     id="path12437" /><path
     style="fill:#a567c3;fill-opacity:0.0901961;stroke-width:0.0205255"
     d="m 75.695771,52.670694 c -0.141711,0.004 -0.219625,0.147707 -0.204847,0.277225 -0.01619,0.475365 -0.04405,0.950459 -0.07411,1.424874 -9.7e-4,0.169108 0.197287,0.262039 0.339993,0.192126 0.295727,-0.103793 0.594696,-0.205518 0.87596,-0.344353 0.144766,-0.105685 0.106889,-0.309072 0.132142,-0.464589 0.01505,-0.291376 0.03696,-0.585894 0.01324,-0.876375 -0.01927,-0.153911 -0.193794,-0.180935 -0.321318,-0.173398 -0.253725,-0.01065 -0.507204,-0.02877 -0.761056,-0.03551 z"
     id="path12476" /></svg>
