<svg width="9.15mm" height="9.29mm" version="1.1" viewBox="0 0 9.15 9.29" xmlns="http://www.w3.org/2000/svg">
 <g transform="translate(-37.3 -103)">
  <g aria-label="@">
   <path d="m40.6 107q0 0.739 0.367 1.16 0.367 0.419 1.01 0.419 0.636 0 0.997-0.424 0.367-0.424 0.367-1.16 0-0.723-0.372-1.15-0.372-0.429-1-0.429-0.625 0-0.997 0.424-0.367 0.424-0.367 1.15zm2.82 1.55q-0.31 0.398-0.713 0.589-0.398 0.186-0.93 0.186-0.889 0-1.45-0.641-0.553-0.646-0.553-1.68t0.558-1.68q0.558-0.646 1.44-0.646 0.532 0 0.935 0.196 0.403 0.191 0.708 0.584v-0.677h0.739v3.8q0.754-0.114 1.18-0.687 0.429-0.579 0.429-1.49 0-0.553-0.165-1.04-0.16-0.486-0.491-0.899-0.537-0.677-1.31-1.03-0.77-0.362-1.68-0.362-0.636 0-1.22 0.171-0.584 0.165-1.08 0.496-0.811 0.527-1.27 1.38-0.455 0.853-0.455 1.85 0 0.822 0.295 1.54 0.3 0.718 0.863 1.27 0.543 0.537 1.26 0.816 0.713 0.284 1.52 0.284 0.667 0 1.31-0.227 0.646-0.222 1.18-0.641l0.465 0.574q-0.646 0.501-1.41 0.765-0.76 0.269-1.55 0.269-0.956 0-1.8-0.341-0.847-0.336-1.51-0.982-0.661-0.646-1.01-1.49-0.346-0.853-0.346-1.83 0-0.941 0.351-1.79 0.351-0.853 1-1.5 0.667-0.656 1.54-1 0.873-0.351 1.85-0.351 1.1 0 2.03 0.45 0.941 0.45 1.58 1.28 0.388 0.506 0.589 1.1 0.207 0.594 0.207 1.23 0 1.36-0.822 2.14-0.822 0.785-2.27 0.816z" stroke-width=".265"/>
  </g>
 </g>
</svg>
