<?xml version="1.0" encoding="UTF-8" standalone="no"?>
<svg
   xmlns:dc="http://purl.org/dc/elements/1.1/"
   xmlns:cc="http://creativecommons.org/ns#"
   xmlns:rdf="http://www.w3.org/1999/02/22-rdf-syntax-ns#"
   xmlns:svg="http://www.w3.org/2000/svg"
   xmlns="http://www.w3.org/2000/svg"
   xmlns:sodipodi="http://sodipodi.sourceforge.net/DTD/sodipodi-0.dtd"
   xmlns:inkscape="http://www.inkscape.org/namespaces/inkscape"
   width="9.1470003mm"
   height="9.2840004mm"
   version="1.1"
   viewBox="0 0 9.1470007 9.2840004"
   id="svg8"
   sodipodi:docname="businessCard.svg"
   inkscape:version="0.92.4 (5da689c313, 2019-01-14)">
  <metadata
     id="metadata14">
    <rdf:RDF>
      <cc:Work
         rdf:about="">
        <dc:format>image/svg+xml</dc:format>
        <dc:type
           rdf:resource="http://purl.org/dc/dcmitype/StillImage" />
        <dc:title></dc:title>
      </cc:Work>
    </rdf:RDF>
  </metadata>
  <defs
     id="defs12" />
  <sodipodi:namedview
     pagecolor="#ffffff"
     bordercolor="#666666"
     borderopacity="1"
     objecttolerance="10"
     gridtolerance="10"
     guidetolerance="10"
     inkscape:pageopacity="0"
     inkscape:pageshadow="2"
     inkscape:window-width="1366"
     inkscape:window-height="705"
     id="namedview10"
     showgrid="false"
     inkscape:zoom="13.862857"
     inkscape:cx="17.068346"
     inkscape:cy="20.794439"
     inkscape:window-x="-8"
     inkscape:window-y="-8"
     inkscape:window-maximized="1"
     inkscape:current-layer="svg8" />
  <g
     transform="translate(-37.359,-102.336)"
     id="g6">
    <g
       aria-label="@"
       id="g4">
      <path
         d="m 40.6,107 q 0,0.739 0.367,1.16 0.367,0.419 1.01,0.419 0.636,0 0.997,-0.424 0.367,-0.424 0.367,-1.16 0,-0.723 -0.372,-1.15 -0.372,-0.429 -1,-0.429 -0.625,0 -0.997,0.424 -0.367,0.424 -0.367,1.15 z m 2.82,1.55 q -0.31,0.398 -0.713,0.589 -0.398,0.186 -0.93,0.186 -0.889,0 -1.45,-0.641 -0.553,-0.646 -0.553,-1.68 0,-1.034 0.558,-1.68 0.558,-0.646 1.44,-0.646 0.532,0 0.935,0.196 0.403,0.191 0.708,0.584 v -0.677 h 0.739 v 3.8 q 0.754,-0.114 1.18,-0.687 0.429,-0.579 0.429,-1.49 0,-0.553 -0.165,-1.04 -0.16,-0.486 -0.491,-0.899 -0.537,-0.677 -1.31,-1.03 -0.77,-0.362 -1.68,-0.362 -0.636,0 -1.22,0.171 -0.584,0.165 -1.08,0.496 -0.811,0.527 -1.27,1.38 -0.455,0.853 -0.455,1.85 0,0.822 0.295,1.54 0.3,0.718 0.863,1.27 0.543,0.537 1.26,0.816 0.713,0.284 1.52,0.284 0.667,0 1.31,-0.227 0.646,-0.222 1.18,-0.641 l 0.465,0.574 q -0.646,0.501 -1.41,0.765 -0.76,0.269 -1.55,0.269 -0.956,0 -1.8,-0.341 -0.847,-0.336 -1.51,-0.982 -0.661,-0.646 -1.01,-1.49 -0.346,-0.853 -0.346,-1.83 0,-0.941 0.351,-1.79 0.351,-0.853 1,-1.5 0.667,-0.656 1.54,-1 0.873,-0.351 1.85,-0.351 1.1,0 2.03,0.45 0.941,0.45 1.58,1.28 0.388,0.506 0.589,1.1 0.207,0.594 0.207,1.23 0,1.36 -0.822,2.14 -0.822,0.785 -2.27,0.816 z"
         id="path2"
         inkscape:connector-curvature="0"
         style="stroke-width:0.26499999" />
    </g>
  </g>
</svg>
