<svg width="48" height="60" enable-background="new 0 0 100 100" version="1.1" viewBox="0 0 48 60" xmlns="http://www.w3.org/2000/svg">
 <path d="m44.1 15.1c1.77 4.86 2.06 9.87 1.03 15-0.295 1.62-1.03 3.1-2.06 4.27-1.77 1.92-4.13 2.51-6.63 2.21-2.06-0.147-3.98-0.884-5.45-2.51-0.295-0.295-0.442-0.147-0.59 0-1.47 1.18-2.95 1.92-4.86 2.21-5.16 0.884-12.1-1.47-13.4-9.43-0.442-2.51-0.295-4.86 0.737-7.22 1.92-4.42 5.31-6.63 10-6.78 2.21-0.147 4.27 0.295 6.19 1.47 0.295 0.147 0.442 0.147 0.59 0 0.884-0.737 1.77-0.884 2.8-0.442 1.03 0.442 1.47 1.33 1.47 2.36v11.8c0 0.59 0.147 1.33 0.295 1.92 0.147 0.59 0.59 1.03 1.03 1.33 1.18 0.59 2.36 0.59 3.54 0.295 0.59-0.147 0.884-0.737 1.18-1.33 0.442-1.18 0.59-2.36 0.737-3.54 0.147-3.1 0-6.34-1.03-9.29-1.47-4.27-4.42-7.07-8.7-8.4-4.42-1.33-8.84-1.47-13.1 0-6.19 2.21-9.58 6.63-10.6 13.1-0.59 3.98-0.147 7.81 1.77 11.3 2.51 4.86 6.63 7.37 12.1 8.25 3.83 0.59 7.52 0 11.1-1.77 1.33-0.737 2.8-0.295 3.54 1.03 0.737 1.33 0.147 2.8-1.03 3.39-3.83 2.06-7.81 2.95-12.1 2.65-3.68-0.295-7.07-1.18-10.2-3.1-5.16-3.1-8.25-7.66-9.58-13.4-1.33-6.04-0.59-11.9 2.65-17.2 3.39-5.45 8.4-8.7 14.7-9.73 4.57-0.737 9.14-0.442 13.6 1.18 4.86 1.47 8.4 5.16 10.3 10.3zm-15.3 7.52c0-1.47-0.59-2.51-1.77-3.54-0.884-0.737-1.77-1.03-2.95-1.18-2.95-0.295-5.16 0.737-6.34 3.1s-1.18 4.86 0 7.22c1.77 3.68 7.07 4.42 9.87 1.47 0.737-0.737 1.18-1.62 1.18-2.8v-2.21z" stroke-width="1.47"/>
</svg>
