<svg width="100" height="99.8" enable-background="new 0 0 100 100" version="1.1" viewBox="0 0 100 99.8" xmlns="http://www.w3.org/2000/svg">
 <path d="m0.456 89.1 31.3-31.3c-4.06-6.06-6.25-13.2-6.25-20.6 0-9.92 3.86-19.3 10.9-26.3 7.02-7.02 16.3-10.9 26.3-10.9s19.3 3.86 26.3 10.9c7.02 7.02 10.9 16.3 10.9 26.3s-3.86 19.3-10.9 26.3-16.3 10.9-26.3 10.9c-7.54 0-14.7-2.23-20.8-6.38l-31.3 31.3c-1.06 1.06-3 0.826-4.33-0.511l-5.25-5.25c-1.34-1.34-1.57-3.28-0.51-4.33zm62.2-24.8c14.9 0 27.1-12.2 27.1-27.1s-12.2-27.1-27.1-27.1-27.1 12.2-27.1 27.1 12.2 27.1 27.1 27.1z"/>
</svg>
