<svg xmlns="http://www.w3.org/2000/svg" xmlns:xlink="http://www.w3.org/1999/xlink" version="1.1" x="0px" y="0px" viewBox="0 0 64 80" style="enable-background:new 0 0 64 64;" xml:space="preserve"><path d="M23.7,37.6c-0.9,0.9-1.4,2.1-1.4,3.4c0,1.3,0.5,2.5,1.4,3.4c1.9,1.9,4.9,1.9,6.8,0l19.9-19.9c1.9-1.9,3-4.5,3-7.2  c0-2.7-1.1-5.2-3-7.2c-3.9-3.9-10.4-3.9-14.3,0L15,31.3c-2.8,2.8-4.4,6.6-4.4,10.5s1.6,7.7,4.4,10.5c5.8,5.8,15.2,5.8,21,0.1  l15.4-15.2c1-1,2.6-1,3.5,0c1,1,1,2.6,0,3.5L39.5,56.1c-3.9,3.8-8.9,5.7-14,5.7c-5.1,0-10.2-1.9-14.1-5.8c-3.8-3.8-5.8-8.8-5.8-14.1  s2.1-10.3,5.8-14.1L32.6,6.6c5.9-5.9,15.5-5.9,21.4,0c2.9,2.9,4.4,6.7,4.4,10.7S56.8,25.2,54,28L34,48c-3.8,3.8-10.1,3.8-13.9,0  c-1.9-1.9-2.9-4.3-2.9-6.9c0-2.6,1-5.1,2.9-6.9l18.7-18.7c1-1,2.6-1,3.5,0c1,1,1,2.6,0,3.5L23.7,37.6z"/><text x="0" y="79" fill="#000000" font-size="5px" font-weight="bold" font-family="'Helvetica Neue', Helvetica, Arial-Unicode, Arial, Sans-serif">Created by nico bayu saputro</text><text x="0" y="84" fill="#000000" font-size="5px" font-weight="bold" font-family="'Helvetica Neue', Helvetica, Arial-Unicode, Arial, Sans-serif">from the Noun Project</text></svg>