<svg width="39.9" height="65.1" version="1.1" viewBox="0 0 39.9 65.1" xmlns="http://www.w3.org/2000/svg">
 <path d="m15.6 43.3c0 1.27 0.495 2.47 1.41 3.39 0.919 0.919 2.12 1.41 3.39 1.41 2.69 0 4.81-2.12 4.81-4.81v-28.1c0-2.69-1.06-5.3-2.97-7.21-1.91-1.91-4.45-2.9-7.21-2.97-5.52 0-10.1 4.6-10.1 10.1l0.0707 29.9c0 3.96 1.56 7.78 4.31 10.5 2.76 2.76 6.58 4.31 10.5 4.31 8.2 0 14.8-6.65 14.9-14.8l0.141-27.6h4.95v27.8c-0.0707 5.44-2.26 10.3-5.87 13.9-3.61 3.61-8.56 5.87-14.1 5.87-5.37 0-10.3-2.12-14.1-5.87-3.75-3.75-5.8-8.77-5.87-14.1v-30c0-8.34 6.79-15.1 15.1-15.1 4.1 0 7.85 1.63 10.7 4.45s4.45 6.72 4.45 10.7v28.3c0 5.37-4.45 9.83-9.83 9.83-2.69 0-5.09-0.99-6.93-2.83-1.84-1.84-2.9-4.31-2.83-6.93v-26.4h4.95z"/>
</svg>
