<svg width="22.6mm" height="20.3mm" fill-rule="evenodd" stroke-linejoin="round" stroke-width="28.2" preserveAspectRatio="xMidYMid" version="1.2" viewBox="12 13 2258 2033" xmlns="http://www.w3.org/2000/svg">
 <defs class="EmbeddedBulletChars"></defs>
 <g class="Page">
  <g class="com.sun.star.drawing.ClosedBezierShape">
   <g>
    <rect class="BoundingBox" x="12" y="13" width="2258" height="2033" fill="none"/>
    <path d="m484 966h-349v821h349v-821zm587-558 94-270c16-45 42-77 79-98 32-18 72-29 112-26 37 2 76 15 108 37 42 29 77 71 92 132 43 148 43 283 19 399-16 77-42 148-77 214h582c50 0 98 22 132 56 35 34 56 79 56 132v29c0 50-21 97-53 129 26 34 40 77 40 122v29c0 53-32 98-77 132l-8 5c24 32 40 72 40 117v29c0 116-67 161-143 177 10 24 16 47 16 74v29c0 53-21 98-56 132-34 35-79 56-132 56h-774c-10 0-18-3-26-8l-492-222v29c0 32-27 61-58 61h-471c-32 0-61-27-61-61v-938c0-32 27-61 61-61h471c29 0 55 24 58 56l468-492zm-444 639v648l507 230h758c19 0 35-8 48-19 13-13 18-29 18-47v-29c0-19-8-35-18-48-13-13-29-19-48-19h-55v-119h84 37c56 0 127-8 127-68v-29c0-19-8-35-18-48-13-13-29-19-48-19h-58v-119h58c27 0 58-10 82-29 16-13 27-26 27-37v-26c0-21-6-40-19-53-8-11-21-16-37-16h-55v-119h55c19 0 34-8 48-18 13-14 18-30 18-47v-29c0-19-8-34-18-48-14-13-29-18-48-18h-687c-11 0-24-3-32-11-27-18-35-55-16-82 50-76 93-164 116-264 21-101 21-214-16-344-7-32-26-53-47-69-16-10-32-16-48-16-16-2-29 3-42 8-13 8-21 19-26 35l-98 277c0 11-6 19-11 27l-538 565z"/>
   </g>
  </g>
 </g>
</svg>
