<svg version="1.1" viewBox="0 0 383 639" xmlns="http://www.w3.org/2000/svg">
 <title>Map_1</title>
 <g data-name="Calque 2">
  <g data-name="Capa 1">
   <path d="m383 191c-0.2-103-82.1-187-184-191l-2.41-0.08h-2.44l-2.47-0.07h-2.47l-2.44 0.05-2.41 0.08c-102 3.87-184 88.1-184 191q0 3.33 0.12 6.67-0.12 3.57-0.12 7.13a216 216 0 0 0 3.4 38.5c0.1 0.75 0.5 3 1.3 6.86a212 212 0 0 0 12.8 40.4c20.6 52 65.9 132 165 217a12.8 12.8 0 0 0 17 0c99.3-85.6 145-165 165-217a210 210 0 0 0 12.8-40.4c0.8-3.86 1.2-6.11 1.3-6.86a226 226 0 0 0 3.4-38.5c0-2.4-0.05-4.79-0.13-7.17q0.14-3.31 0.13-6.63zm-97.2 8.85a94.4 94.4 0 0 1-188 0q-0.26-3.35-0.25-6.75a94.4 94.4 0 0 1 189 0q0 3.41-0.25 6.75z"/>
  </g>
 </g>
</svg>
