<svg width="73.4" height="88.2" data-name="Layer 1" version="1.1" viewBox="0 0 73.4 88.2" xmlns="http://www.w3.org/2000/svg">
 <title>01</title>
 <path d="m36.7 87.1a2.1 2.1 0 0 1-1.5-0.6l-23.4-23.5c-13.8-13.7-14.3-37-1.1-50.8a36 36 0 0 1 52 0c13.2 13.8 12.7 37-1.1 50.8l-23.4 23.5a2.1 2.1 0 0 1-1.5 0.6zm0-82a31.7 31.7 0 0 0-23.1 9.9c-11.7 12.2-11.3 33 1 45.2l22.1 22.1 22.1-22.1c12.3-12.3 12.7-33 1-45.2a31.7 31.7 0 0 0-23.1-9.9z" stroke="#000" stroke-width="2.2"/>
 <path d="m36.7 50a14.9 14.9 0 1 1 14.9-14.9 15 15 0 0 1-14.9 14.9zm0-25.9a10.9 10.9 0 1 0 10.9 11 10.9 10.9 0 0 0-10.9-11z" stroke="#000" stroke-width="2.2"/>
</svg>
