<?xml version="1.0" encoding="UTF-8" standalone="no"?>
<svg
   xmlns:dc="http://purl.org/dc/elements/1.1/"
   xmlns:cc="http://creativecommons.org/ns#"
   xmlns:rdf="http://www.w3.org/1999/02/22-rdf-syntax-ns#"
   xmlns:svg="http://www.w3.org/2000/svg"
   xmlns="http://www.w3.org/2000/svg"
   xmlns:sodipodi="http://sodipodi.sourceforge.net/DTD/sodipodi-0.dtd"
   xmlns:inkscape="http://www.inkscape.org/namespaces/inkscape"
   width="102.899"
   height="122.7975"
   version="1.1"
   viewBox="0 0 102.899 122.7975"
   id="svg12"
   sodipodi:docname="news2.svg"
   inkscape:version="0.92.4 (5da689c313, 2019-01-14)">
  <metadata
     id="metadata18">
    <rdf:RDF>
      <cc:Work
         rdf:about="">
        <dc:format>image/svg+xml</dc:format>
        <dc:type
           rdf:resource="http://purl.org/dc/dcmitype/StillImage" />
        <dc:title></dc:title>
      </cc:Work>
    </rdf:RDF>
  </metadata>
  <defs
     id="defs16" />
  <sodipodi:namedview
     pagecolor="#ffffff"
     bordercolor="#666666"
     borderopacity="1"
     objecttolerance="10"
     gridtolerance="10"
     guidetolerance="10"
     inkscape:pageopacity="0"
     inkscape:pageshadow="2"
     inkscape:window-width="1366"
     inkscape:window-height="705"
     id="namedview14"
     showgrid="false"
     inkscape:zoom="1.9186992"
     inkscape:cx="18.9"
     inkscape:cy="82.147458"
     inkscape:window-x="-8"
     inkscape:window-y="-8"
     inkscape:window-maximized="1"
     inkscape:current-layer="svg12" />
  <path
     d="m 78.4,2.1975 c -2.93,-2.93 -7.68,-2.93 -10.6,0 -2.93,2.93 -2.93,7.68 0,10.6 13,13 20.1,30.2 20.1,48.6 0,18.3 -7.15,35.6 -20.1,48.6 -2.93,2.93 -2.93,7.68 -10e-4,10.6 1.46,1.46 3.38,2.2 5.3,2.2 1.92,0 3.84,-0.732 5.3,-2.2 15.8,-15.8 24.5,-36.8 24.5,-59.2 0,-22.4 -8.7,-43.4 -24.5,-59.2 z"
     id="path4"
     inkscape:connector-curvature="0"
     style="fill:#05852d;fill-opacity:1" />
  <path
     d="m 47.4,99.9975 c 1.46,1.46 3.38,2.2 5.3,2.2 1.92,0 3.84,-0.732 5.3,-2.2 10.4,-10.4 16.1,-24.3 16.1,-39 0,-14.7 -5.73,-28.6 -16.1,-39 -2.93,-2.93 -7.68,-2.93 -10.6,0.001 -2.93,2.93 -2.93,7.68 0.001,10.6 7.58,7.58 11.8,17.7 11.8,28.4 0,10.7 -4.17,20.8 -11.8,28.4 -2.93,2.93 -2.93,7.68 10e-4,10.6 z"
     id="path8"
     inkscape:connector-curvature="0"
     style="fill:#ffa500;fill-opacity:1" />
  <path
     d="m 19,80.3975 c 10.5,0 19,-8.53 19,-19 0,-10.47 -8.52,-19 -19,-19 -10.5,0 -19,8.53 -19,19 0.001,10.5 8.53,19 19,19 z"
     id="path10"
     inkscape:connector-curvature="0"
     style="fill:#0051fc;fill-opacity:1" />
</svg>
