<svg width="100" height="100" enable-background="new 0 0 100 100" version="1.1" viewBox="0 0 100 100" xmlns="http://www.w3.org/2000/svg">
 <path d="m61.6 52.8c-8.01 0.731-14.3 7.46-14.3 15.7 0 7.83 5.72 8.22 13.2 8.22 0.816 0 1.66-5e-3 2.51-5e-3h16.2c0.852 0 1.69 5e-3 2.51 5e-3 7.49 0 13.2-0.384 13.2-8.22-1e-3 -8.2-6.27-14.9-14.3-15.7"/>
 <circle cx="71.2" cy="36.9" r="13.6"/>
 <g transform="translate(0 -5e-4)">
  <path d="m16.1 52.2c-6.23 0.57-11.1 5.8-11.1 12.2 0 6.09 4.45 6.39 10.3 6.39 0.636 0 1.29-4e-3 1.95-4e-3h12.6c0.662 0 1.32 4e-3 1.95 4e-3 5.83 0 10.3-0.299 10.3-6.39 0-6.38-4.88-11.6-11.1-12.2"/>
  <circle cx="23.5" cy="39.8" r="10.6"/>
 </g>
</svg>
