<?xml version="1.0" encoding="UTF-8" standalone="no"?>
<svg
   xmlns:dc="http://purl.org/dc/elements/1.1/"
   xmlns:cc="http://creativecommons.org/ns#"
   xmlns:rdf="http://www.w3.org/1999/02/22-rdf-syntax-ns#"
   xmlns:svg="http://www.w3.org/2000/svg"
   xmlns="http://www.w3.org/2000/svg"
   xmlns:sodipodi="http://sodipodi.sourceforge.net/DTD/sodipodi-0.dtd"
   xmlns:inkscape="http://www.inkscape.org/namespaces/inkscape"
   width="46.718281"
   height="46.684986"
   enable-background="new 0 0 48 48"
   version="1.1"
   viewBox="0 0 46.718281 46.684986"
   id="svg127"
   sodipodi:docname="description.svg"
   inkscape:version="0.92.4 (5da689c313, 2019-01-14)">
  <metadata
     id="metadata133">
    <rdf:RDF>
      <cc:Work
         rdf:about="">
        <dc:format>image/svg+xml</dc:format>
        <dc:type
           rdf:resource="http://purl.org/dc/dcmitype/StillImage" />
        <dc:title></dc:title>
      </cc:Work>
    </rdf:RDF>
  </metadata>
  <defs
     id="defs131" />
  <sodipodi:namedview
     pagecolor="#ffffff"
     bordercolor="#666666"
     borderopacity="1"
     objecttolerance="10"
     gridtolerance="10"
     guidetolerance="10"
     inkscape:pageopacity="0"
     inkscape:pageshadow="2"
     inkscape:window-width="1366"
     inkscape:window-height="705"
     id="namedview129"
     showgrid="false"
     inkscape:zoom="10.356383"
     inkscape:cx="29.000106"
     inkscape:cy="16.411035"
     inkscape:window-x="-8"
     inkscape:window-y="-8"
     inkscape:window-maximized="1"
     inkscape:current-layer="svg127" />
  <path
     inkscape:connector-curvature="0"
     d="M 0.28309749,41.602571 14.897691,26.987977 c -1.895694,-2.82954 -2.918249,-6.163348 -2.918249,-9.61856 0,-4.631844 1.802311,-9.0115468 5.089427,-12.2799938 C 20.346646,1.8116468 24.679663,0 29.348861,0 c 4.669199,0 9.011554,1.8023168 12.279994,5.0894232 3.277778,3.277777 5.089427,7.6108048 5.089427,12.2799938 0,4.669202 -1.802311,9.011559 -5.089427,12.280006 -3.287115,3.268433 -7.610795,5.089422 -12.279994,5.089422 -3.520574,0 -6.863721,-1.041236 -9.711932,-2.978947 L 5.0223347,46.374492 C 4.5274002,46.869419 3.6215753,46.760164 3.0005718,46.135888 L 0.54924212,43.684565 C -0.07643029,43.058892 -0.18382263,42.153062 0.3111132,41.662794 Z M 29.325516,30.022956 c 6.957106,0 12.653529,-5.696425 12.653529,-12.653539 0,-6.957103 -5.696423,-12.6535268 -12.653529,-12.6535268 -6.957107,0 -12.653528,5.6964238 -12.653528,12.6535268 0,6.957114 5.696421,12.653539 12.653528,12.653539 z"
     id="path56"
     style="stroke-width:0.46691987" />
</svg>
