<svg width="508" height="508" version="1.1" viewBox="0 0 508 508" xmlns="http://www.w3.org/2000/svg">
 <path d="m186 203v-51.2c0-18.8 15.3-34.1 34.1-34.1 21.5 10.7 46.8 10.7 68.3 0 18.8 0 34.1 15.3 34.1 34.1v51.2c0 9.43-7.64 17.1-17.1 17.1h-102c-9.43 0-17.1-7.64-17.1-17.1z" fill="#ef2648"/>
 <circle cx="254" cy="49.2" r="42.7" fill="#ffd4b0"/>
 <g transform="translate(-1.91 -1.99)" fill="#ffdc13">
  <path d="m59.7 265c-4.71 0-8.53-3.82-8.53-8.53-0.077-82.2 49-156 125-189 4.34-1.84 9.35 0.171 11.2 4.51s-0.171 9.35-4.51 11.2c-69.3 29.4-114 97.5-114 173 0 4.71-3.82 8.53-8.53 8.53z"/>
  <path d="m452 265c-4.71 0-8.53-3.82-8.53-8.53 0.068-75.3-44.9-143-114-173-4.34-1.84-6.35-6.86-4.51-11.2s6.86-6.35 11.2-4.51c75.6 32.1 125 106 125 189 0 4.71-3.82 8.53-8.53 8.53z"/>
  <path d="m256 461c-27.5 0.051-54.8-5.49-80.1-16.3-4.34-1.84-6.35-6.86-4.51-11.2s6.86-6.35 11.2-4.51c47 19.8 99.9 19.8 147 0 4.34-1.84 9.35 0.171 11.2 4.51s-0.171 9.35-4.51 11.2c-25.3 10.8-52.6 16.3-80.1 16.3z"/>
  <path d="m196 478c-3.18 9e-3 -6.1-1.76-7.58-4.58l-17.1-32.7c-2.18-4.17-0.563-9.34 3.61-11.5 0.495-0.256 1.02-0.469 1.56-0.631l34.1-10c4.52-1.32 9.27 1.27 10.6 5.79s-1.27 9.27-5.79 10.6l-24.2 7.08 12.3 23.4c2.18 4.18 0.563 9.34-3.61 11.5-1.22 0.639-2.58 0.972-3.95 0.972z"/>
  <path d="m452 265c-2.26 0-4.44-0.896-6.03-2.5l-25.6-25.6c-3.28-3.39-3.18-8.79 0.213-12.1 3.31-3.19 8.55-3.19 11.9 0l19.6 19.6 19.6-19.6c3.39-3.28 8.79-3.18 12.1 0.213 3.19 3.31 3.19 8.55 0 11.9l-25.6 25.6c-1.6 1.6-3.77 2.5-6.03 2.5z"/>
  <path d="m162 119c-1.28 0-2.53-0.29-3.69-0.853-4.24-2.04-6.03-7.13-3.99-11.4l13.3-27.8-26.2-11.9c-4.21-2.12-5.9-7.25-3.78-11.5 2-3.98 6.74-5.74 10.9-4.05l34.1 15.6c4.28 1.97 6.15 7.04 4.18 11.3l-0.051 0.102-17.1 35.6c-1.42 2.95-4.4 4.83-7.68 4.84z"/>
 </g>
 <path d="m280 15.2c14.2 18.7 10.5 45.3-8.17 59.5-15.2 11.5-36.2 11.5-51.4 0 14 18.9 40.7 22.8 59.5 8.77s22.8-40.7 8.77-59.5c-2.48-3.34-5.44-6.3-8.77-8.77z" fill="#edc4a2"/>
 <circle cx="433" cy="331" r="42.7" fill="#ffd4b0"/>
 <path d="m459 297c14.2 18.7 10.5 45.3-8.17 59.5-15.2 11.5-36.2 11.5-51.4 0 14 18.9 40.7 22.8 59.5 8.77s22.8-40.7 8.77-59.5c-2.48-3.34-5.44-6.3-8.77-8.77z" fill="#edc4a2"/>
 <circle cx="74.9" cy="331" r="42.7" fill="#ffd4b0"/>
 <path d="m100 297c14.2 18.7 10.5 45.3-8.17 59.5-15.2 11.5-36.2 11.5-51.4 0 14 18.9 40.7 22.8 59.5 8.77 18.9-14 22.8-40.7 8.77-59.5-2.48-3.34-5.44-6.3-8.77-8.77z" fill="#edc4a2"/>
 <path d="m186 203c0 9.43 7.64 17.1 17.1 17.1h102c9.43 0 17.1-7.64 17.1-17.1v-51.2c-0.034-5.94-1.63-11.8-4.63-16.9-30.4 42.7-79.5 68.1-132 68.1z" fill="#b20d24"/>
 <path d="m6.63 484v-51.2c0-18.8 15.3-34.1 34.1-34.1 21.5 10.7 46.8 10.7 68.3 0 18.8 0 34.1 15.3 34.1 34.1v51.2c0 9.43-7.64 17.1-17.1 17.1h-102c-9.43 0-17.1-7.64-17.1-17.1z" fill="#ffa511"/>
 <path d="m6.63 484c0 9.43 7.64 17.1 17.1 17.1h102c9.43 0 17.1-7.64 17.1-17.1v-51.2c-0.034-5.94-1.63-11.8-4.63-16.9-30.4 42.7-79.5 68.1-132 68.1z" fill="#f08015"/>
 <path d="m365 484v-51.2c0-18.8 15.3-34.1 34.1-34.1 21.5 10.7 46.8 10.7 68.3 0 18.8 0 34.1 15.3 34.1 34.1v51.2c0 9.43-7.64 17.1-17.1 17.1h-102c-9.43 0-17.1-7.64-17.1-17.1z" fill="#4db5ff"/>
 <path d="m365 484c0 9.43 7.64 17.1 17.1 17.1h102c9.43 0 17.1-7.64 17.1-17.1v-51.2c-0.034-5.94-1.63-11.8-4.63-16.9-30.4 42.7-79.5 68.1-132 68.1z" fill="#3596d8"/>
 <path d="m253 0.0293c-40.5-1.05-63.9 53.8-35.1 82.3 16.1 18.6 46.5 21.5 65.8 6.29 20-14.3 25.8-44.3 12.6-64.9-8.94-15-26-24.3-43.4-23.7zm1.29 13c19.7-0.539 37.2 17.5 36.1 37.1 0.0218 19.7-18.4 36.7-38 35.1-19.6-0.488-36.2-19.3-34.1-38.9 1.12-18.4 17.6-33.6 36-33.3z"/>
 <path d="m219 111c-22.1 2e-3 -41.1 20.7-39.6 42.7 0.378 18-0.72 36 0.477 53.9 2.21 12.3 15 20.5 27.1 18.9 34-0.206 68 0.398 102-0.275 12.8-1.66 21.8-14.8 20-27.4-0.488-18.1 0.942-36.3-0.639-54.3-3.06-19.5-22.7-35.6-42.5-33.1-19.8 10.2-44.6 10-64.3-0.445-0.872 3e-3 -1.74-8e-3 -2.62 0.0137zm0.084 13.3c22 10.4 48.8 10.3 70.7-0.217 15.4 0.408 27.8 15.4 26.1 30.6-0.312 16.9 0.572 34-0.344 50.9-1.62 7.07-9.93 9.04-16.2 7.85-32.8-0.162-65.7 0.315-98.6-0.223-6.9-1.23-9.62-9.09-8.36-15.3 0.479-17.1-0.876-34.4 0.51-51.5 2.2-12.2 13.7-22.4 26.1-22.1z"/>
 <path d="m432 282c-24.4 0.0307-46.4 21-47.7 45.1-2.47 22.7 13.7 45.6 35.5 51.4 23.2 7.06 49.7-5.66 58.8-28.2 9.61-21.5 0.727-49.4-19.9-61.2-8-4.88-17.4-7.36-26.8-7.11zm1.29 13.1c19.7-0.543 37.2 17.5 36.1 37.1 0.0177 19.7-18.4 36.7-38 35.1-19.6-0.488-36.2-19.3-34.1-38.9 1.13-18.4 17.6-33.6 36-33.3z"/>
 <path d="m398 393c-22.1-3e-3 -41.2 20.7-39.6 42.7 0.432 18-0.799 36 0.484 54 2.23 12.3 15 20.5 27.1 18.8 34-0.206 68 0.398 102-0.275 12.8-1.65 21.7-14.8 20-27.3-0.488-18.1 0.944-36.3-0.639-54.3-3.07-19.6-22.7-35.6-42.5-33.1-19.8 10.2-44.5 9.98-64.2-0.428-0.878 3e-3 -1.76-0.01-2.63 0.0156zm0.082 13.3c21.8 10.4 49 10.3 70.7-0.217 15.4 0.408 27.8 15.4 26.1 30.6-0.314 16.9 0.575 34-0.346 50.9-1.62 7.08-9.93 9.04-16.2 7.85-32.9-0.165-65.7 0.321-98.6-0.227-6.9-1.22-9.62-9.09-8.36-15.3 0.478-17.1-0.876-34.4 0.51-51.5 2.2-12.2 13.7-22.4 26.1-22.1z"/>
 <path d="m73.6 282c-24.4 0.0484-46.5 21-47.8 45.4-2.3 22.7 13.9 45.4 35.6 51.1 23.2 7.06 49.7-5.67 58.8-28.2 9.22-20.6 1.42-47.6-17.9-59.9-8.41-5.71-18.6-8.67-28.8-8.38zm1.29 13.1c19.7-0.542 37.2 17.5 36.1 37.1 0.0184 19.7-18.4 36.7-38 35.1-19.6-0.488-36.2-19.3-34.1-38.9 1.13-18.4 17.6-33.6 36-33.3z"/>
 <path d="m39.7 393c-22.1-1e-3 -41.2 20.7-39.6 42.7 0.338 17.8-0.622 35.6 0.373 53.4 1.95 12.6 14.9 21.1 27.2 19.4 34-0.203 68 0.393 102-0.275 12.8-1.66 21.8-14.8 20-27.3-0.473-18.1 0.922-36.3-0.639-54.3-3.08-19.6-22.7-35.6-42.5-33.1-19.8 10.2-44.5 9.99-64.2-0.427-0.879 3e-3 -1.76-0.01-2.64 0.0156zm0.0859 13.3c21.8 10.4 49 10.3 70.7-0.217 15.4 0.409 27.8 15.4 26.1 30.6-0.314 16.9 0.575 34-0.346 50.9-1.62 7.08-9.93 9.04-16.2 7.85-32.9-0.165-65.7 0.321-98.6-0.227-6.9-1.22-9.62-9.1-8.36-15.3 0.487-17.2-0.892-34.4 0.52-51.5 2.22-12.1 13.7-22.3 26.1-22z"/>
</svg>
