<svg width="76" height="60" data-name="Layer 1" version="1.1" viewBox="0 0 76 60" xmlns="http://www.w3.org/2000/svg">
 <path d="m70 0h-64a6 6 0 0 0-6 6v50a4 4 0 0 0 4 4h68a4 4 0 0 0 4-4v-50a6 6 0 0 0-6-6zm-64 4h64a2 2 0 0 1 2 2v38.5l-17-17a4 4 0 0 0-5.66 0l-7.42 7.42-14.9-14.9a4 4 0 0 0-5.66 0l-17.3 17.3v-31.2a2 2 0 0 1 2-2zm0 52a2 2 0 0 1-2-2v-11.1l20.1-20.1 14.9 14.9a4 4 0 0 0 5.66 0l7.42-7.42 19.9 19.9v3.85a2 2 0 0 1-2 2z"/>
 <path d="m61.4 20.8a6.67 6.67 0 1 0-6.67-6.67 6.67 6.67 0 0 0 6.67 6.67zm0-9.33a2.67 2.67 0 1 1-2.67 2.67 2.67 2.67 0 0 1 2.67-2.67z"/>
</svg>
