<svg width="74.2" height="36.3" enable-background="new 0 0 100 100" version="1.1" viewBox="0 0 74.2 36.3" xmlns="http://www.w3.org/2000/svg">
 <g transform="translate(-5 -32.9)" opacity=".96">
  <path d="m26.5 54c-0.817-3.56-13.9-2.5-13.9-2.5-4.23 0.387-7.55 3.95-7.55 8.28 0 4.14 3.03 4.34 6.99 4.34 0.432 0 0.876-3e-3 1.33-3e-3h8.56c1.1-0.443 0.425-0.941 1.94-5.1 1.27-3.5 3.07-3.28 2.67-5.02z"/>
  <circle cx="17.6" cy="43.1" r="7.18"/>
 </g>
 <g transform="matrix(-1 0 0 1 79.2 -32.9)" opacity=".96">
  <path d="m26.5 54c-0.817-3.56-13.9-2.5-13.9-2.5-4.23 0.387-7.55 3.95-7.55 8.28 0 4.14 3.03 4.34 6.99 4.34 0.432 0 0.876-3e-3 1.33-3e-3h8.56c1.1-0.443 0.425-0.941 1.94-5.1 1.27-3.5 3.07-3.28 2.67-5.02z"/>
  <circle cx="17.6" cy="43.1" r="7.18"/>
 </g>
 <g transform="translate(-12.9 -31.8)">
  <path d="m56.5 51.9h-13c-5.44 0.498-9.71 5.07-9.71 10.6 0 5.32 3.89 5.59 8.99 5.59 0.556 0 1.12-4e-3 1.71-4e-3h11c0.579 0 1.15 4e-3 1.7 4e-3 5.1 0 8.99-0.262 8.99-5.59 0-5.58-4.26-10.2-9.71-10.6z"/>
  <circle cx="50" cy="41.1" r="9.24"/>
 </g>
</svg>
