<svg enable-background="new 0 0 100 100" version="1.1" viewBox="0 0 100 125" xmlns="http://www.w3.org/2000/svg">
 <path d="m80.5 40.2c-1.12-1.23-2.71-1.93-4.36-1.93h-28.6l3.83-4.62c2.02-2.43 1.97-5.94-0.11-8.15-1.16-1.23-2.72-1.91-4.4-1.91h-0.0146c-1.65 0-3.25 0.684-4.32 1.82l-15 13.9c-0.279 0.26-0.619 0.456-0.983 0.565l-4.67 1.41c-2.34 0.706-3.91 2.82-3.91 5.27v20.9c0 2.74 2.04 5.08 4.75 5.45l25.5 3.5c0.154 0.0205 0.31 0.0312 0.465 0.0312h4.94c3.11 0 5.77-2.34 6.06-5.32 0.143-1.49-0.288-2.98-1.19-4.16 1.76-0.906 3.03-2.62 3.22-4.63 0.143-1.49-0.288-2.98-1.19-4.16 1.76-0.907 3.03-2.62 3.22-4.63 0.115-1.21-0.147-2.43-0.734-3.47h12.9c3.11 0 5.77-2.34 6.06-5.32 0.158-1.66-0.391-3.31-1.5-4.54zm-4.55 6.86h-23.7c-0.828 0-1.5 0.671-1.5 1.5s0.672 1.5 1.5 1.5h5.63c0.813 9.77e-4 1.59 0.347 2.14 0.949 0.556 0.611 0.818 1.41 0.739 2.24-0.14 1.46-1.49 2.61-3.07 2.61h-5.44c-0.828 0-1.5 0.672-1.5 1.5s0.672 1.5 1.5 1.5h3.59c0.814 0 1.6 0.346 2.14 0.949 0.555 0.611 0.817 1.41 0.738 2.24-0.14 1.46-1.49 2.61-3.07 2.61h-3.4c-0.828 0-1.5 0.672-1.5 1.5s0.672 1.5 1.5 1.5h1.56c0.813 0 1.59 0.346 2.14 0.948 0.556 0.611 0.817 1.41 0.738 2.24-0.14 1.46-1.49 2.61-3.07 2.61l-5.01-0.00488-25.4-3.5c-1.23-0.169-2.16-1.23-2.16-2.48v-20.9c0-1.11 0.714-2.07 1.78-2.39l4.67-1.41c0.801-0.242 1.55-0.671 2.16-1.24l15-14c0.581-0.611 1.36-0.947 2.21-0.947h0.00781c0.846 0.00195 1.64 0.347 2.22 0.971 1.03 1.09 1.02 2.92-0.0151 4.17l-5.86 7.07c-0.371 0.448-0.45 1.07-0.203 1.6 0.247 0.526 0.776 0.862 1.36 0.862h31.8c0.814 0 1.6 0.346 2.14 0.949 0.555 0.611 0.817 1.41 0.738 2.24-0.14 1.46-1.49 2.61-3.07 2.61z"/>
</svg>
