<svg width="47" height="47" enable-background="new 0 0 48 48" version="1.1" viewBox="0 0 47 47" xmlns="http://www.w3.org/2000/svg">
 <path d="m23.5 47h0.022c0.01 0 0.02 4e-3 0.029 4e-3h2e-3 1e-3c0.015 0 0.03-6e-3 0.045-6e-3 12.9-0.055 23.4-10.6 23.4-23.5s-10.5-23.4-23.3-23.5h-0.015c-0.058-1e-3 -0.115-5e-3 -0.175-5e-3 -13 0-23.5 10.6-23.5 23.5 0 13 10.6 23.5 23.5 23.5zm20.4-23.5c0 2.68-0.523 5.23-1.47 7.57-1.11-0.391-2.84-0.938-5.09-1.46 0.467-1.98 0.725-4.02 0.725-6.11 0-2.11-0.265-4.18-0.744-6.19 1.66-0.393 3.36-0.871 5.08-1.44 0.955 2.36 1.49 4.93 1.49 7.63zm-8.99 0c0 1.87-0.235 3.7-0.66 5.48-2.62-0.463-5.71-0.818-9.14-0.896v-9.17c2.86-0.078 5.92-0.371 9.12-0.951 0.436 1.79 0.676 3.65 0.676 5.54zm-13 19c-3.65-2.66-6.43-6.3-8.05-10.4 2.82-0.48 5.51-0.721 8.05-0.793v11.2zm3.16 0.074v-11.3c3.04 0.076 5.79 0.381 8.17 0.775-1.64 4.19-4.45 7.86-8.17 10.5zm0-26.9v-11.3c3.7 2.67 6.52 6.34 8.16 10.5-2.86 0.488-5.59 0.728-8.16 0.796zm-3.16-11.2v11.2c-3-0.082-5.71-0.385-8.06-0.774 1.62-4.15 4.4-7.79 8.06-10.5zm0 14.4v9.18c-2.83 0.082-5.85 0.369-9.02 0.943-0.435-1.79-0.674-3.64-0.674-5.54 0-1.87 0.234-3.7 0.66-5.48 2.6 0.459 5.64 0.811 9.03 0.894zm-12.1 10.8c-1.7 0.4-3.42 0.889-5.18 1.47-0.963-2.36-1.5-4.95-1.5-7.65 0-2.69 0.527-5.25 1.48-7.6 1.1 0.393 2.87 0.955 5.18 1.49-0.467 1.98-0.724 4.02-0.724 6.11 0 2.11 0.263 4.18 0.742 6.18zm-3.75 4.33c1.58-0.51 3.14-0.932 4.67-1.28 1.43 3.88 3.76 7.4 6.79 10.2-4.83-1.49-8.89-4.72-11.5-8.96zm23.6 8.91c3.02-2.85 5.33-6.36 6.75-10.2 1.97 0.445 3.53 0.906 4.58 1.26-2.53 4.23-6.55 7.46-11.3 8.98zm11.3-29.9c-1.55 0.497-3.08 0.91-4.58 1.26-1.42-3.86-3.73-7.36-6.74-10.2 4.77 1.51 8.78 4.73 11.3 8.94zm-23.4-8.99c-3.05 2.86-5.38 6.39-6.81 10.3-2.03-0.457-3.62-0.935-4.67-1.29 2.56-4.26 6.64-7.51 11.5-9z"/>
</svg>
