<?xml version="1.0" encoding="UTF-8"?>
<!DOCTYPE svg PUBLIC "-//W3C//DTD SVG 1.1//EN" "http://www.w3.org/Graphics/SVG/1.1/DTD/svg11.dtd">
<svg version="1.2" width="28.31mm" height="28.3mm" viewBox="11200 3300 2831 2830" preserveAspectRatio="xMidYMid" fill-rule="evenodd" stroke-width="28.222" stroke-linejoin="round" xmlns="http://www.w3.org/2000/svg" xmlns:ooo="http://xml.openoffice.org/svg/export" xmlns:xlink="http://www.w3.org/1999/xlink" xmlns:presentation="http://sun.com/xmlns/staroffice/presentation" xmlns:smil="http://www.w3.org/2001/SMIL20/" xmlns:anim="urn:oasis:names:tc:opendocument:xmlns:animation:1.0" xml:space="preserve">
 <defs class="EmbeddedBulletChars">
  <g id="bullet-char-template-57356" transform="scale(0.00048828125,-0.00048828125)">
   <path d="M 580,1141 L 1163,571 580,0 -4,571 580,1141 Z"/>
  </g>
  <g id="bullet-char-template-57354" transform="scale(0.00048828125,-0.00048828125)">
   <path d="M 8,1128 L 1137,1128 1137,0 8,0 8,1128 Z"/>
  </g>
  <g id="bullet-char-template-10146" transform="scale(0.00048828125,-0.00048828125)">
   <path d="M 174,0 L 602,739 174,1481 1456,739 174,0 Z M 1358,739 L 309,1346 659,739 1358,739 Z"/>
  </g>
  <g id="bullet-char-template-10132" transform="scale(0.00048828125,-0.00048828125)">
   <path d="M 2015,739 L 1276,0 717,0 1260,543 174,543 174,936 1260,936 717,1481 1274,1481 2015,739 Z"/>
  </g>
  <g id="bullet-char-template-10007" transform="scale(0.00048828125,-0.00048828125)">
   <path d="M 0,-2 C -7,14 -16,27 -25,37 L 356,567 C 262,823 215,952 215,954 215,979 228,992 255,992 264,992 276,990 289,987 310,991 331,999 354,1012 L 381,999 492,748 772,1049 836,1024 860,1049 C 881,1039 901,1025 922,1006 886,937 835,863 770,784 769,783 710,716 594,584 L 774,223 C 774,196 753,168 711,139 L 727,119 C 717,90 699,76 672,76 641,76 570,178 457,381 L 164,-76 C 142,-110 111,-127 72,-127 30,-127 9,-110 8,-76 1,-67 -2,-52 -2,-32 -2,-23 -1,-13 0,-2 Z"/>
  </g>
  <g id="bullet-char-template-10004" transform="scale(0.00048828125,-0.00048828125)">
   <path d="M 285,-33 C 182,-33 111,30 74,156 52,228 41,333 41,471 41,549 55,616 82,672 116,743 169,778 240,778 293,778 328,747 346,684 L 369,508 C 377,444 397,411 428,410 L 1163,1116 C 1174,1127 1196,1133 1229,1133 1271,1133 1292,1118 1292,1087 L 1292,965 C 1292,929 1282,901 1262,881 L 442,47 C 390,-6 338,-33 285,-33 Z"/>
  </g>
  <g id="bullet-char-template-9679" transform="scale(0.00048828125,-0.00048828125)">
   <path d="M 813,0 C 632,0 489,54 383,161 276,268 223,411 223,592 223,773 276,916 383,1023 489,1130 632,1184 813,1184 992,1184 1136,1130 1245,1023 1353,916 1407,772 1407,592 1407,412 1353,268 1245,161 1136,54 992,0 813,0 Z"/>
  </g>
  <g id="bullet-char-template-8226" transform="scale(0.00048828125,-0.00048828125)">
   <path d="M 346,457 C 273,457 209,483 155,535 101,586 74,649 74,723 74,796 101,859 155,911 209,963 273,989 346,989 419,989 480,963 531,910 582,859 608,796 608,723 608,648 583,586 532,535 482,483 420,457 346,457 Z"/>
  </g>
  <g id="bullet-char-template-8211" transform="scale(0.00048828125,-0.00048828125)">
   <path d="M -4,459 L 1135,459 1135,606 -4,606 -4,459 Z"/>
  </g>
  <g id="bullet-char-template-61548" transform="scale(0.00048828125,-0.00048828125)">
   <path d="M 173,740 C 173,903 231,1043 346,1159 462,1274 601,1332 765,1332 928,1332 1067,1274 1183,1159 1299,1043 1357,903 1357,740 1357,577 1299,437 1183,322 1067,206 928,148 765,148 601,148 462,206 346,322 231,437 173,577 173,740 Z"/>
  </g>
 </defs>
 <g class="Page">
  <g class="Group">
   <g class="com.sun.star.drawing.ClosedBezierShape">
    <g id="id3">
     <rect class="BoundingBox" stroke="none" fill="none" x="11200" y="3300" width="2831" height="2830"/>
     <path fill="rgb(98,134,255)" stroke="none" d="M 12615,3300 C 11837,3300 11200,3937 11200,4715 11200,4966 11268,5220 11399,5438 L 11205,6020 C 11195,6049 11202,6082 11225,6104 11247,6127 11280,6134 11309,6124 L 11891,5930 C 12109,6061 12363,6129 12615,6129 13392,6129 14029,5492 14029,4715 14029,3937 13392,3300 12615,3300 Z"/>
    </g>
   </g>
   <g class="com.sun.star.drawing.ClosedBezierShape">
    <g id="id4">
     <rect class="BoundingBox" stroke="none" fill="none" x="12615" y="3300" width="1416" height="2830"/>
     <path fill="rgb(0,81,252)" stroke="none" d="M 14030,4715 C 14030,5492 13392,6129 12615,6129 L 12615,3300 C 13392,3300 14030,3937 14030,4715 Z"/>
    </g>
   </g>
   <g class="com.sun.star.drawing.ClosedBezierShape">
    <g id="id5">
     <rect class="BoundingBox" stroke="none" fill="none" x="12366" y="5300" width="499" height="499"/>
     <path fill="rgb(255,255,255)" stroke="none" d="M 12615,5300 C 12477,5300 12366,5411 12366,5549 12366,5686 12477,5797 12615,5797 12752,5797 12863,5686 12863,5549 12863,5411 12752,5300 12615,5300 Z"/>
    </g>
   </g>
   <g class="com.sun.star.drawing.ClosedBezierShape">
    <g id="id6">
     <rect class="BoundingBox" stroke="none" fill="none" x="12117" y="3720" width="996" height="1416"/>
     <path fill="rgb(255,255,255)" stroke="none" d="M 12614,3720 L 12606,3720 C 12337,3720 12117,3940 12117,4209 12117,4302 12192,4375 12283,4375 12374,4375 12448,4302 12448,4209 12448,4123 12520,4051 12606,4051 L 12614,4051 C 12707,4057 12780,4133 12780,4225 12780,4280 12772,4323 12729,4365 L 12614,4481 12546,4549 C 12483,4612 12448,4695 12448,4783 L 12448,4969 C 12448,5060 12523,5135 12614,5135 12705,5135 12780,5060 12780,4969 L 12780,4783 12964,4600 C 13060,4502 13111,4381 13111,4225 13111,3950 12889,3725 12614,3720 Z"/>
    </g>
   </g>
   <g class="com.sun.star.drawing.ClosedBezierShape">
    <g id="id7">
     <rect class="BoundingBox" stroke="none" fill="none" x="12614" y="5300" width="251" height="499"/>
     <path fill="rgb(238,238,238)" stroke="none" d="M 12864,5549 C 12864,5686 12753,5797 12615,5797 L 12615,5300 C 12753,5300 12864,5411 12864,5549 Z"/>
    </g>
   </g>
   <g class="com.sun.star.drawing.ClosedBezierShape">
    <g id="id8">
     <rect class="BoundingBox" stroke="none" fill="none" x="12615" y="3720" width="498" height="1416"/>
     <path fill="rgb(238,238,238)" stroke="none" d="M 13112,4225 C 13112,4381 13061,4502 12965,4600 L 12781,4783 12781,4969 C 12781,5060 12706,5135 12615,5135 L 12615,4481 12730,4365 C 12773,4323 12781,4280 12781,4225 12781,4133 12708,4057 12615,4051 L 12615,3720 C 12890,3725 13112,3950 13112,4225 Z"/>
    </g>
   </g>
  </g>
 </g>
</svg>