<?xml version="1.0" encoding="UTF-8" standalone="no"?>
<svg
   width="700pt"
   height="700pt"
   version="1.1"
   viewBox="0 0 700 700"
   id="svg146"
   sodipodi:docname="noun-wait-2711897.svg"
   inkscape:version="1.1.1 (3bf5ae0d25, 2021-09-20)"
   xmlns:inkscape="http://www.inkscape.org/namespaces/inkscape"
   xmlns:sodipodi="http://sodipodi.sourceforge.net/DTD/sodipodi-0.dtd"
   xmlns="http://www.w3.org/2000/svg"
   xmlns:svg="http://www.w3.org/2000/svg">
  <sodipodi:namedview
     id="namedview148"
     pagecolor="#ffffff"
     bordercolor="#666666"
     borderopacity="1.0"
     inkscape:pageshadow="2"
     inkscape:pageopacity="0.0"
     inkscape:pagecheckerboard="0"
     inkscape:document-units="pt"
     showgrid="false"
     inkscape:zoom="0.27857143"
     inkscape:cx="504.35897"
     inkscape:cy="472.05128"
     inkscape:window-width="1366"
     inkscape:window-height="705"
     inkscape:window-x="-8"
     inkscape:window-y="-8"
     inkscape:window-maximized="1"
     inkscape:current-layer="g144" />
  <defs
     id="defs62">
    <symbol
       id="i"
       overflow="visible">
      <path
         d="m17.031-1.0156c-0.875 0.46094-1.793 0.80469-2.75 1.0312-0.94922 0.22656-1.9375 0.34375-2.9688 0.34375-3.0938 0-5.543-0.85938-7.3438-2.5781-1.8047-1.7266-2.7031-4.0703-2.7031-7.0312 0-2.957 0.89844-5.3008 2.7031-7.0312 1.8008-1.7266 4.25-2.5938 7.3438-2.5938 1.0312 0 2.0195 0.12109 2.9688 0.35938 0.95703 0.23047 1.875 0.57422 2.75 1.0312v3.8281c-0.88672-0.60156-1.7617-1.0469-2.625-1.3281-0.85547-0.28125-1.7617-0.42188-2.7188-0.42188-1.6992 0-3.0391 0.54688-4.0156 1.6406-0.98047 1.0938-1.4688 2.6016-1.4688 4.5156 0 1.918 0.48828 3.4219 1.4688 4.5156 0.97656 1.0859 2.3164 1.625 4.0156 1.625 0.95703 0 1.8633-0.14062 2.7188-0.42188 0.86328-0.28125 1.7383-0.72266 2.625-1.3281z"
         id="path2" />
    </symbol>
    <symbol
       id="c"
       overflow="visible">
      <path
         d="m12.469-10.109c-0.39844-0.1875-0.78906-0.32031-1.1719-0.40625-0.38672-0.09375-0.77344-0.14062-1.1562-0.14062-1.1484 0-2.0273 0.37109-2.6406 1.1094-0.61719 0.73047-0.92188 1.7773-0.92188 3.1406v6.4062h-4.4375v-13.906h4.4375v2.2812c0.57031-0.90625 1.2266-1.5664 1.9688-1.9844 0.73828-0.41406 1.625-0.625 2.6562-0.625 0.15625 0 0.31641 0.007813 0.48438 0.015625 0.17578 0.011719 0.42969 0.039062 0.76562 0.078125z"
         id="path5" />
    </symbol>
    <symbol
       id="b"
       overflow="visible">
      <path
         d="m16.016-6.9844v1.2656h-10.391c0.10156 1.043 0.47656 1.8242 1.125 2.3438 0.64453 0.52344 1.5469 0.78125 2.7031 0.78125 0.9375 0 1.8945-0.13281 2.875-0.40625 0.97656-0.28125 1.9883-0.70312 3.0312-1.2656v3.4219c-1.0547 0.39844-2.1055 0.69531-3.1562 0.89062-1.0547 0.20703-2.1055 0.3125-3.1562 0.3125-2.5117 0-4.4648-0.63281-5.8594-1.9062-1.3984-1.2812-2.0938-3.0781-2.0938-5.3906 0-2.2695 0.67969-4.0508 2.0469-5.3438 1.375-1.3008 3.2578-1.9531 5.6562-1.9531 2.1875 0 3.9375 0.65625 5.25 1.9688s1.9688 3.0742 1.9688 5.2812zm-4.5781-1.4844c0-0.84375-0.24609-1.5195-0.73438-2.0312-0.49219-0.51953-1.1328-0.78125-1.9219-0.78125-0.86719 0-1.5703 0.24609-2.1094 0.73438-0.53125 0.48047-0.86719 1.1719-1 2.0781z"
         id="path8" />
    </symbol>
    <symbol
       id="f"
       overflow="visible">
      <path
         d="m8.3594-6.25c-0.92969 0-1.625 0.15625-2.0938 0.46875-0.46094 0.3125-0.6875 0.77734-0.6875 1.3906 0 0.5625 0.1875 1.0078 0.5625 1.3281 0.375 0.3125 0.89453 0.46875 1.5625 0.46875 0.84375 0 1.5469-0.29688 2.1094-0.89062 0.57031-0.60156 0.85938-1.3594 0.85938-2.2656v-0.5zm6.7969-1.6875v7.9375h-4.4844v-2.0625c-0.59375 0.84375-1.2656 1.4609-2.0156 1.8438-0.74219 0.38281-1.6406 0.57812-2.7031 0.57812-1.4492 0-2.6211-0.41406-3.5156-1.25-0.89844-0.84375-1.3438-1.9375-1.3438-3.2812 0-1.625 0.55469-2.8164 1.6719-3.5781 1.125-0.76953 2.8906-1.1562 5.2969-1.1562h2.6094v-0.34375c0-0.69531-0.27734-1.207-0.82812-1.5312-0.55469-0.33203-1.418-0.5-2.5938-0.5-0.94922 0-1.8359 0.09375-2.6562 0.28125-0.82422 0.1875-1.5859 0.47656-2.2812 0.85938v-3.3906c0.94531-0.22656 1.8984-0.39844 2.8594-0.51562 0.95703-0.125 1.9219-0.1875 2.8906-0.1875 2.5 0 4.3047 0.49609 5.4219 1.4844 1.1133 0.99219 1.6719 2.5938 1.6719 4.8125z"
         id="path11" />
    </symbol>
    <symbol
       id="a"
       overflow="visible">
      <path
         d="m6.9844-17.844v3.9375h4.5781v3.1875h-4.5781v5.8906c0 0.64844 0.12891 1.0859 0.39062 1.3125 0.25781 0.23047 0.76953 0.34375 1.5312 0.34375h2.2812v3.1719h-3.8125c-1.7617 0-3.0078-0.36328-3.7344-1.0938-0.73047-0.73828-1.0938-1.9844-1.0938-3.7344v-5.8906h-2.2188v-3.1875h2.2188v-3.9375z"
         id="path14" />
    </symbol>
    <symbol
       id="l"
       overflow="visible">
      <path
         d="m11.594-11.859v-7.4531h4.4688v19.312h-4.4688v-2.0156c-0.61719 0.82422-1.293 1.4297-2.0312 1.8125-0.73047 0.375-1.5781 0.5625-2.5469 0.5625-1.7188 0-3.1328-0.67578-4.2344-2.0312-1.0938-1.3633-1.6406-3.1172-1.6406-5.2656 0-2.1445 0.54688-3.8945 1.6406-5.25 1.1016-1.3633 2.5156-2.0469 4.2344-2.0469 0.95703 0 1.8047 0.19531 2.5469 0.57812 0.73828 0.38672 1.4141 0.98438 2.0312 1.7969zm-2.9219 8.9844c0.94531 0 1.6719-0.34375 2.1719-1.0312 0.5-0.69531 0.75-1.707 0.75-3.0312 0-1.3203-0.25-2.332-0.75-3.0312-0.5-0.69531-1.2266-1.0469-2.1719-1.0469-0.94922 0-1.6719 0.35156-2.1719 1.0469-0.5 0.69922-0.75 1.7109-0.75 3.0312 0 1.3242 0.25 2.3359 0.75 3.0312 0.5 0.6875 1.2227 1.0312 2.1719 1.0312z"
         id="path17" />
    </symbol>
    <symbol
       id="k"
       overflow="visible">
      <path
         d="m9.5312-2.875c0.94531 0 1.6719-0.34375 2.1719-1.0312 0.50781-0.69531 0.76562-1.707 0.76562-3.0312 0-1.3203-0.25781-2.332-0.76562-3.0312-0.5-0.69531-1.2266-1.0469-2.1719-1.0469-0.94922 0-1.6797 0.35547-2.1875 1.0625-0.51172 0.69922-0.76562 1.7031-0.76562 3.0156s0.25391 2.3203 0.76562 3.0156c0.50781 0.69922 1.2383 1.0469 2.1875 1.0469zm-2.9531-8.9844c0.61328-0.8125 1.2891-1.4102 2.0312-1.7969 0.75-0.38281 1.6094-0.57812 2.5781-0.57812 1.707 0 3.1133 0.68359 4.2188 2.0469 1.1016 1.3555 1.6562 3.1055 1.6562 5.25 0 2.1484-0.55469 3.9023-1.6562 5.2656-1.1055 1.3555-2.5117 2.0312-4.2188 2.0312-0.96875 0-1.8281-0.19531-2.5781-0.57812-0.74219-0.38281-1.418-0.98438-2.0312-1.7969v2.0156h-4.4375v-19.312h4.4375z"
         id="path20" />
    </symbol>
    <symbol
       id="j"
       overflow="visible">
      <path
         d="m0.3125-13.906h4.4375l3.7344 9.4375 3.1875-9.4375h4.4375l-5.8438 15.219c-0.58594 1.5508-1.2734 2.6328-2.0625 3.25-0.78125 0.61328-1.8125 0.92188-3.0938 0.92188h-2.5625v-2.9219h1.3906c0.75 0 1.2969-0.12109 1.6406-0.35938 0.34375-0.24219 0.60938-0.66797 0.79688-1.2812l0.125-0.39062z"
         id="path23" />
    </symbol>
    <symbol
       id="e"
       overflow="visible">
      <path
         d="m16.109-8.4688v8.4688h-4.4688v-6.4531c0-1.2188-0.027344-2.0508-0.078125-2.5-0.054688-0.45703-0.14844-0.79688-0.28125-1.0156-0.17969-0.28906-0.41797-0.51562-0.71875-0.67188-0.29297-0.16406-0.625-0.25-1-0.25-0.92969 0-1.6562 0.35938-2.1875 1.0781s-0.79688 1.7109-0.79688 2.9688v6.8438h-4.4375v-19.312h4.4375v7.4531c0.66406-0.8125 1.375-1.4102 2.125-1.7969 0.75781-0.38281 1.5938-0.57812 2.5-0.57812 1.6016 0 2.8203 0.49609 3.6562 1.4844 0.83203 0.98047 1.25 2.4062 1.25 4.2812z"
         id="path26" />
    </symbol>
    <symbol
       id="t"
       overflow="visible">
      <path
         d="m2.1406-13.906h4.4375v13.906h-4.4375zm0-5.4062h4.4375v3.625h-4.4375z"
         id="path29" />
    </symbol>
    <symbol
       id="h"
       overflow="visible">
      <path
         d="m16.109-8.4688v8.4688h-4.4688v-6.4844c0-1.1953-0.027344-2.0195-0.078125-2.4688-0.054688-0.45703-0.14844-0.79688-0.28125-1.0156-0.17969-0.28906-0.41797-0.51562-0.71875-0.67188-0.29297-0.16406-0.625-0.25-1-0.25-0.92969 0-1.6562 0.35938-2.1875 1.0781s-0.79688 1.7109-0.79688 2.9688v6.8438h-4.4375v-13.906h4.4375v2.0469c0.66406-0.8125 1.375-1.4102 2.125-1.7969 0.75781-0.38281 1.5938-0.57812 2.5-0.57812 1.6016 0 2.8203 0.49609 3.6562 1.4844 0.83203 0.98047 1.25 2.4062 1.25 4.2812z"
         id="path32" />
    </symbol>
    <symbol
       id="g"
       overflow="visible">
      <path
         d="m1.9844-5.4062v-8.5h4.4688v1.3906c0 0.76172-0.007813 1.7109-0.015625 2.8438v2.2812c0 1.1172 0.023438 1.918 0.078125 2.4062 0.0625 0.49219 0.16016 0.85156 0.29688 1.0781 0.1875 0.29297 0.42578 0.51562 0.71875 0.67188 0.28906 0.15625 0.62891 0.23438 1.0156 0.23438 0.92578 0 1.6484-0.35156 2.1719-1.0625 0.53125-0.71875 0.79688-1.707 0.79688-2.9688v-6.875h4.4531v13.906h-4.4531v-2.0156c-0.66797 0.8125-1.375 1.4141-2.125 1.7969s-1.5781 0.57812-2.4844 0.57812c-1.6055 0-2.8281-0.48828-3.6719-1.4688-0.83594-0.98828-1.25-2.4219-1.25-4.2969z"
         id="path35" />
    </symbol>
    <symbol
       id="s"
       overflow="visible">
      <path
         d="m1.4531-13.906h12.125v3.1094l-7.3281 7.625h7.3281v3.1719h-12.438v-3.1094l7.3281-7.6094h-7.0156z"
         id="path38" />
    </symbol>
    <symbol
       id="r"
       overflow="visible">
      <path
         d="m11.281-19.312v2.9219h-2.4531c-0.63672 0-1.0781 0.11719-1.3281 0.34375-0.24219 0.21875-0.35938 0.60938-0.35938 1.1719v0.96875h3.7969v3.1875h-3.7969v10.719h-4.4531v-10.719h-2.2031v-3.1875h2.2031v-0.96875c0-1.5078 0.42188-2.625 1.2656-3.3438 0.84375-0.72656 2.1484-1.0938 3.9219-1.0938z"
         id="path41" />
    </symbol>
    <symbol
       id="d"
       overflow="visible">
      <path
         d="m8.75-11.062c-0.98047 0-1.7305 0.35547-2.25 1.0625-0.52344 0.71094-0.78125 1.7305-0.78125 3.0625 0 1.3359 0.25781 2.3555 0.78125 3.0625 0.51953 0.71094 1.2695 1.0625 2.25 1.0625 0.96875 0 1.707-0.35156 2.2188-1.0625 0.51953-0.70703 0.78125-1.7266 0.78125-3.0625 0-1.332-0.26172-2.3516-0.78125-3.0625-0.51172-0.70703-1.25-1.0625-2.2188-1.0625zm0-3.1719c2.3945 0 4.2656 0.64844 5.6094 1.9375 1.3438 1.293 2.0156 3.0781 2.0156 5.3594s-0.67188 4.0703-2.0156 5.3594c-1.3438 1.293-3.2148 1.9375-5.6094 1.9375-2.3984 0-4.2734-0.64453-5.625-1.9375-1.3555-1.2891-2.0312-3.0781-2.0312-5.3594s0.67578-4.0664 2.0312-5.3594c1.3516-1.2891 3.2266-1.9375 5.625-1.9375z"
         id="path44" />
    </symbol>
    <symbol
       id="q"
       overflow="visible">
      <path
         d="m15.016-11.594c0.5625-0.86328 1.2266-1.5195 2-1.9688 0.78125-0.44531 1.6328-0.67188 2.5625-0.67188 1.5938 0 2.8047 0.49609 3.6406 1.4844 0.84375 0.98047 1.2656 2.4062 1.2656 4.2812v8.4688h-4.4688v-7.25-0.32812c0.007813-0.125 0.015625-0.28906 0.015625-0.5 0-0.98828-0.14844-1.7031-0.4375-2.1406-0.28125-0.44531-0.74609-0.67188-1.3906-0.67188-0.84375 0-1.5 0.35156-1.9688 1.0469-0.46094 0.69922-0.69531 1.7031-0.70312 3.0156v6.8281h-4.4688v-7.25c0-1.5391-0.13672-2.5312-0.40625-2.9688-0.26172-0.44531-0.73047-0.67188-1.4062-0.67188-0.85547 0-1.5156 0.35547-1.9844 1.0625-0.46094 0.69922-0.6875 1.6953-0.6875 2.9844v6.8438h-4.4688v-13.906h4.4688v2.0469c0.53906-0.78906 1.1641-1.3828 1.875-1.7812 0.70703-0.39453 1.4883-0.59375 2.3438-0.59375 0.95703 0 1.8047 0.23438 2.5469 0.70312 0.73828 0.46094 1.2969 1.1055 1.6719 1.9375z"
         id="path47" />
    </symbol>
    <symbol
       id="p"
       overflow="visible">
      <path
         d="m2.3281-18.531h5.3438l6.7344 12.703v-12.703h4.5312v18.531h-5.3281l-6.75-12.719v12.719h-4.5312z"
         id="path50" />
    </symbol>
    <symbol
       id="o"
       overflow="visible">
      <path
         d="m2.3281-18.531h7.9375c2.3516 0 4.1602 0.52734 5.4219 1.5781 1.2695 1.043 1.9062 2.5312 1.9062 4.4688s-0.63672 3.4336-1.9062 4.4844c-1.2617 1.043-3.0703 1.5625-5.4219 1.5625h-3.1562v6.4375h-4.7812zm4.7812 3.4688v5.1719h2.6406c0.92578 0 1.6406-0.22266 2.1406-0.67188 0.50781-0.45703 0.76562-1.0977 0.76562-1.9219 0-0.83203-0.25781-1.4688-0.76562-1.9062-0.5-0.44531-1.2148-0.67188-2.1406-0.67188z"
         id="path53" />
    </symbol>
    <symbol
       id="n"
       overflow="visible">
      <path
         d="m2.1406-13.906h4.4375v13.656c0 1.8633-0.44922 3.2852-1.3438 4.2656-0.89844 0.97656-2.1875 1.4688-3.875 1.4688h-2.2031v-2.9219h0.76562c0.84375 0 1.4219-0.19531 1.7344-0.57812 0.32031-0.375 0.48438-1.1211 0.48438-2.2344zm0-5.4062h4.4375v3.625h-4.4375z"
         id="path56" />
    </symbol>
    <symbol
       id="m"
       overflow="visible">
      <path
         d="m13.375-13.469v3.625c-0.60547-0.41406-1.2148-0.72266-1.8281-0.92188-0.60547-0.19531-1.2344-0.29688-1.8906-0.29688-1.2422 0-2.2109 0.36719-2.9062 1.0938-0.6875 0.71875-1.0312 1.7305-1.0312 3.0312 0 1.3047 0.34375 2.3203 1.0312 3.0469 0.69531 0.71875 1.6641 1.0781 2.9062 1.0781 0.69531 0 1.3594-0.10156 1.9844-0.3125 0.625-0.20703 1.2031-0.51562 1.7344-0.92188v3.6406c-0.69922 0.25-1.4062 0.4375-2.125 0.5625-0.71875 0.13281-1.4375 0.20312-2.1562 0.20312-2.5 0-4.4609-0.64062-5.875-1.9219-1.418-1.2891-2.125-3.082-2.125-5.375 0-2.2891 0.70703-4.0781 2.125-5.3594 1.4141-1.2891 3.375-1.9375 5.875-1.9375 0.72656 0 1.4453 0.0625 2.1562 0.1875 0.70703 0.125 1.4141 0.32031 2.125 0.57812z"
         id="path59" />
    </symbol>
  </defs>
  <g
     id="g144">
    <path
       d="m 293.68,215.29 c 3.4609,2.4453 7.75,3.418 11.93,2.7031 4.1758,-0.71875 7.8945,-3.0664 10.344,-6.5273 l 58.418,-82.625 -10.98,-7.7656 -0.004,0.004 c -1.7422,-2.0508 -3.9727,-3.6289 -6.4883,-4.5898 l -65.152,-46.066 -0.004,0.0039 c -3.457,-2.4453 -7.75,-3.418 -11.926,-2.7031 -4.1758,0.71875 -7.8984,3.0664 -10.344,6.5234 -2.4453,3.4609 -3.418,7.75 -2.6992,11.93 0.71484,4.1758 3.0625,7.8945 6.5234,10.344 l 33.48,23.672 c -62.953,11.125 -119.45,45.438 -158.35,96.168 -38.902,50.73 -57.379002,114.2 -51.789002,177.88 5.585902,63.684 34.836002,122.96 81.977002,166.14 47.141,43.18 108.75,67.129 172.68,67.121 5.707,0 10.984,-3.0469 13.836,-7.9883 2.8555,-4.9453 2.8555,-11.035 0,-15.977 -2.8516,-4.9453 -8.1289,-7.9883 -13.836,-7.9883 -56.605,0.004 -111.11,-21.453 -152.51,-60.047 -41.41,-38.594 -66.645,-91.453 -70.617,-147.92 -3.9727,-56.465 13.613,-112.34 49.207,-156.35 35.598,-44.012 86.555,-72.887 142.61,-80.809 l -30.117,42.598 v -0.004 c -2.4492,3.4609 -3.418,7.7539 -2.7031,11.93 0.71875,4.1758 3.0664,7.8945 6.5234,10.344 z"
       id="path64" />
    <path
       d="m 487.28,548.67 c -21.07,16.172 -44.859,28.453 -70.246,36.266 -3.2617,0.98047 -6.125,2.9883 -8.1562,5.7227 -2.0352,2.7344 -3.1328,6.0508 -3.1328,9.457 -0.0156,1.625 0.21875,3.2383 0.69141,4.793 0.98828,3.2773 3.0117,6.1484 5.7656,8.1836 2.7539,2.0352 6.0938,3.125 9.5195,3.1055 1.4609,0.004 2.9141,-0.21484 4.3125,-0.63672 v 0.0508 l 0.37109,-0.10547 c 0.16016,-0.0508 0.37109,-0.16016 0.53125,-0.21484 h 0.004 c 28.84,-8.8867 55.859,-22.867 79.777,-41.273 3.375,-2.5742 5.5859,-6.3828 6.1484,-10.59 0.55859,-4.207 -0.58203,-8.4648 -3.1641,-11.832 -2.6445,-3.2773 -6.4492,-5.4141 -10.625,-5.957 -4.1758,-0.54688 -8.4023,0.53906 -11.797,3.0312 z"
       id="path66" />
    <path
       d="m 572.54,337.83 c 0.57031,3.7773 2.4727,7.2266 5.3633,9.7266 2.8906,2.5 6.582,3.8867 10.402,3.9023 0.80469,0.0117 1.6055,-0.0586 2.3984,-0.21094 3.7656,-0.57422 7.2031,-2.4727 9.6992,-5.3516 2.5,-2.875 3.8906,-6.5469 3.9336,-10.359 -0.0195,-0.80078 -0.0898,-1.6016 -0.21484,-2.3984 -4.4492,-30.066 -14.262,-59.09 -28.969,-85.688 -2.3203,-4.1719 -6.3789,-7.0938 -11.074,-7.9609 -4.6914,-0.87109 -9.5273,0.40234 -13.188,3.4648 -3.6602,3.0664 -5.7578,7.6055 -5.7266,12.379 0.004,2.6719 0.70313,5.2969 2.0273,7.6133 12.855,23.246 21.441,48.605 25.348,74.883 z"
       id="path68" />
    <path
       d="m 440.3,131.348 c -1.793,-0.65234 -3.6836,-0.99219 -5.5938,-1.0078 -3.2578,0.0195 -6.4297,1.0312 -9.1016,2.8945 -2.6719,1.8633 -4.7148,4.4922 -5.8633,7.543 -0.62891,1.7617 -0.96875,3.6133 -1.0117,5.4844 -0.004,3.2695 0.99609,6.4609 2.8633,9.1445 1.8672,2.6875 4.5078,4.7344 7.5742,5.8711 24.77,9.2227 47.707,22.766 67.746,39.996 l 0.10547,0.0508 c 0.0508,0.10547 0.16016,0.16016 0.21094,0.21484 l 0.10547,0.0547 c 2.8711,2.4844 6.5391,3.8477 10.336,3.8359 4.6406,-0.004 9.0547,-2.0273 12.086,-5.5391 2.5273,-2.8906 3.9102,-6.6016 3.8906,-10.441 0.008,-4.6445 -2.0156,-9.0586 -5.5391,-12.086 -22.977,-19.867 -49.332,-35.449 -77.809,-46.016 z"
       id="path70" />
    <path
       d="m 589.16,404.56 c -4.1367,-0.80078 -8.4258,0.0391 -11.953,2.3477 -3.5312,2.3047 -6.0234,5.8945 -6.9531,10.004 -5.3906,26.008 -15.422,50.832 -29.609,73.285 -1.6445,2.5742 -2.4961,5.5742 -2.4492,8.6289 0.0273,4.6289 2.0664,9.0195 5.582,12.027 3.5195,3.0117 8.168,4.3516 12.746,3.668 4.582,-0.68359 8.6367,-3.3242 11.121,-7.2305 16.238,-25.703 27.727,-54.113 33.926,-83.879 0.83984,-4.1445 0.008,-8.4531 -2.3164,-11.984 -2.3242,-3.5352 -5.9531,-6.0039 -10.094,-6.8672 z"
       id="path72" />
    <path
       d="m 333.29112,401.11574 c -1.85376,-1.97465 -2.96436,-4.57267 -2.96436,-7.41462 V 260.48466 c 0,-6.12915 5.18959,-11.10038 11.57848,-11.10038 6.39314,0 11.57849,4.9753 11.57849,11.10038 v 128.61732 l 94.85899,90.94204 c 4.51518,4.32874 4.51518,11.368 0,15.69654 -4.51519,4.32875 -11.85763,4.32875 -16.37261,0 0,0 -98.56651,-94.49646 -98.6792,-94.62828 z"
       style="fill-rule:evenodd;stroke:#000000;stroke-width:7.18516;stroke-miterlimit:4;stroke-dasharray:none;stroke-opacity:1"
       id="path1053" />
  </g>
</svg>
