<?xml version="1.0" encoding="UTF-8"?>
<svg width="700pt" height="700pt" version="1.1" viewBox="0 0 700 700" xmlns="http://www.w3.org/2000/svg">
 <g transform="matrix(.81773 0 0 .81773 146.73 -249.63)">
  <path d="m357.42 482.92c0-3.5664-2.8906-6.457-6.457-6.457s-6.4609 2.8906-6.4609 6.457c0 0 0.97084 95.816 0 148.87l12.918 0.035s-1e-4 -28.404-1e-4 -148.9z" fill="#dba17c"/>
  <g transform="translate(0,7.5)" fill="#107800" fill-opacity=".57812">
   <path d="m301.38 405.96c-6.3875 8.6871-5.0748 23.793 3.9315 36.612 9.0014 12.811 22.77 19.176 33.1 16.111 6.391-8.6854 5.0765-23.797-3.9252-36.608-9.0068-12.818-22.765-19.178-33.107-16.115z"/>
   <path d="m349.62 354.64c-10.099 3.7625-17.28 17.12-16.77 32.775 0.5118 15.652 8.5423 28.515 18.874 31.615 10.099-3.7625 17.282-17.123 16.77-32.775-0.51228-15.651-8.5458-28.508-18.874-31.615z"/>
   <path d="m415.12 422.9c0.5445 10.767-8.8767 22.653-23.448 28.39-14.571 5.7372-29.566 3.4624-36.507-4.7947-0.5445-10.767 8.8732-22.655 23.445-28.383 14.58-5.7372 29.575-3.4624 36.511 4.7876z"/>
  </g>
  <path d="m342.55 631.39c-51.492 3.3867-92.868 46.547-69.871 46.547 0 0 121.98 0.86341 152.66 0 27.968-0.78714-22.262-42.867-69.871-46.512l-12.918-0.035z" fill="#a75f2e" fill-opacity=".56944" stroke-width=".75"/>
 </g>
 <g transform="translate(-209.83 -140.61)">
  <path d="m357.42 482.92c0-3.5664-2.8906-6.457-6.457-6.457s-6.4609 2.8906-6.4609 6.457c0 0 0.97084 95.816 0 148.87l12.918 0.035s-1e-4 -28.404-1e-4 -148.9z" fill="#dba17c"/>
  <g transform="translate(0,7.5)" fill="#107800" fill-opacity=".57812">
   <path d="m301.38 405.96c-6.3875 8.6871-5.0748 23.793 3.9315 36.612 9.0014 12.811 22.77 19.176 33.1 16.111 6.391-8.6854 5.0765-23.797-3.9252-36.608-9.0068-12.818-22.765-19.178-33.107-16.115z"/>
   <path d="m349.62 354.64c-10.099 3.7625-17.28 17.12-16.77 32.775 0.5118 15.652 8.5423 28.515 18.874 31.615 10.099-3.7625 17.282-17.123 16.77-32.775-0.51228-15.651-8.5458-28.508-18.874-31.615z"/>
   <path d="m415.12 422.9c0.5445 10.767-8.8767 22.653-23.448 28.39-14.571 5.7372-29.566 3.4624-36.507-4.7947-0.5445-10.767 8.8732-22.655 23.445-28.383 14.58-5.7372 29.575-3.4624 36.511 4.7876z"/>
  </g>
  <path d="m342.55 631.39c-51.492 3.3867-92.868 46.547-69.871 46.547 0 0 121.98 0.86341 152.66 0 27.968-0.78714-22.262-42.867-69.871-46.512l-12.918-0.035z" fill="#a75f2e" fill-opacity=".56944" stroke-width=".75"/>
 </g>
 <path d="m617.79 228.33-79.395 204.78 20.719 7.1489 78.759-206.31c1.589-13.589-15.029-18.461-20.083-5.6204z" fill="#deaa87" fill-rule="evenodd" stroke-width=".42508"/>
 <rect x="423.16" y="541.27" width="250.23" height="8.8492" rx="28.474" ry="0" fill="#a75f2e" fill-opacity=".56863" stroke="#b3b3b3" stroke-dashoffset="140" stroke-width=".11198"/>
 <path d="m357.42 482.92c0-3.5664-2.8906-6.457-6.457-6.457s-6.4609 2.8906-6.4609 6.457c0 0 0.97084 95.816 0 148.87l12.918 0.035s-1e-4 -28.404-1e-4 -148.9z" fill="#dba17c"/>
 <g transform="translate(0,7.5)" fill="#107800" fill-opacity=".57812">
  <path d="m301.38 405.96c-6.3875 8.6871-5.0748 23.793 3.9315 36.612 9.0014 12.811 22.77 19.176 33.1 16.111 6.391-8.6854 5.0765-23.797-3.9252-36.608-9.0068-12.818-22.765-19.178-33.107-16.115z"/>
  <path d="m349.62 354.64c-10.099 3.7625-17.28 17.12-16.77 32.775 0.5118 15.652 8.5423 28.515 18.874 31.615 10.099-3.7625 17.282-17.123 16.77-32.775-0.51228-15.651-8.5458-28.508-18.874-31.615z"/>
  <path d="m415.12 422.9c0.5445 10.767-8.8767 22.653-23.448 28.39-14.571 5.7372-29.566 3.4624-36.507-4.7947-0.5445-10.767 8.8732-22.655 23.445-28.383 14.58-5.7372 29.575-3.4624 36.511 4.7876z"/>
 </g>
 <path d="m342.55 631.39c-51.492 3.3867-92.868 46.547-69.871 46.547 0 0 121.98 0.86341 152.66 0 27.968-0.78714-22.262-42.867-69.871-46.512l-12.918-0.035z" fill="#a75f2e" fill-opacity=".56944" stroke-width=".75"/>
 <path d="m538.39 433.12-31.024-10.705c-4.8097-1.6596-10.035 0.88488-11.694 5.6944l-7.3235 21.225c-14.369 41.644-3.4762 82.498 24.272 92.071 27.748 9.5742 61.516-15.869 75.885-57.513l7.3235-21.225c1.6596-4.8097-0.88488-10.035-5.6944-11.694l-31.024-10.705" fill="#bdbdbd" fill-rule="evenodd" stroke-width=".42508"/>
</svg>
