<?xml version="1.0" encoding="UTF-8" standalone="no"?>
<svg
   viewBox="0 0 57 48.9995"
   version="1.1"
   x="0px"
   y="0px"
   id="svg24"
   sodipodi:docname="noun-advice-584215.svg"
   width="57"
   height="48.9995"
   inkscape:version="1.1.1 (3bf5ae0d25, 2021-09-20)"
   xmlns:inkscape="http://www.inkscape.org/namespaces/inkscape"
   xmlns:sodipodi="http://sodipodi.sourceforge.net/DTD/sodipodi-0.dtd"
   xmlns="http://www.w3.org/2000/svg"
   xmlns:svg="http://www.w3.org/2000/svg"
   xmlns:rdf="http://www.w3.org/1999/02/22-rdf-syntax-ns#"
   xmlns:cc="http://creativecommons.org/ns#"
   xmlns:dc="http://purl.org/dc/elements/1.1/">
  <defs
     id="defs28" />
  <sodipodi:namedview
     id="namedview26"
     pagecolor="#ffffff"
     bordercolor="#666666"
     borderopacity="1.0"
     inkscape:pageshadow="2"
     inkscape:pageopacity="0.0"
     inkscape:pagecheckerboard="0"
     showgrid="false"
     inkscape:zoom="9.0222222"
     inkscape:cx="28.041872"
     inkscape:cy="24.21798"
     inkscape:window-width="1920"
     inkscape:window-height="1001"
     inkscape:window-x="-9"
     inkscape:window-y="-9"
     inkscape:window-maximized="1"
     inkscape:current-layer="g16" />
  <title
     id="title2">insights-advice</title>
  <desc
     id="desc4">Created with Sketch.</desc>
  <g
     stroke="none"
     stroke-width="1"
     fill="none"
     fill-rule="evenodd"
     id="g18"
     transform="translate(-8,-12)">
    <g
       fill="#000000"
       id="g16">
      <path
         d="M 24.998,45 C 24.752,45 24.51,44.909 24.321,44.736 L 11.822,33.237 c -0.109,-0.1 -0.191,-0.22 -0.246,-0.349 C 9.266,30.634 8,27.854 8,25 8,17.832 15.851,12 25.5,12 35.149,12 43,17.832 43,25 c 0,0.553 -0.447,1 -1,1 -0.553,0 -1,-0.447 -1,-1 C 41,18.935 34.047,14 25.5,14 16.953,14 10,18.935 10,25 c 0,2.5 1.167,4.861 3.376,6.831 0.111,0.1 0.196,0.22 0.252,0.35 L 23.999,41.722 24,37.205 c -0.031,-0.13 -0.036,-0.266 -0.011,-0.401 0.091,-0.483 0.479,-0.824 0.981,-0.825 l 0.251,0.011 c 0.574,0.031 1.149,10e-4 1.714,-0.037 0.571,-0.021 1.028,0.383 1.063,0.933 0.036,0.552 -0.382,1.027 -0.933,1.063 -0.352,0.023 -0.708,0.038 -1.065,0.046 L 25.998,44 c 0,0.397 -0.235,0.757 -0.599,0.916 C 25.27,44.973 25.134,45 24.998,45"
         id="path6"
         style="fill:#ff6600;fill-opacity:0.62152779" />
      <path
         d="m 49,53.3115 10e-4,4.41 10.371,-9.541 c 0.056,-0.13 0.141,-0.25 0.252,-0.349 2.209,-1.97 3.376,-4.332 3.376,-6.832 0,-6.065 -6.953,-11 -15.5,-11 -8.547,0 -15.5,4.935 -15.5,11 0,6.066 6.953,11 15.5,11 0.095,0 0.188,-0.004 0.28,-0.009 l 0.25,-0.011 c 0.473,-0.01 0.918,0.332 1.009,0.814 0.034,0.178 0.018,0.356 -0.039,0.518 m -0.998,7.688 c -0.136,0 -0.273,-0.027 -0.401,-0.084 -0.364,-0.159 -0.599,-0.518 -0.599,-0.916 L 47,53.9955 c -9.419,-0.198 -17,-5.952 -17,-12.996 0,-7.167 7.851,-13 17.5,-13 9.649,0 17.5,5.833 17.5,13 0,2.855 -1.266,5.634 -3.576,7.888 -0.055,0.129 -0.137,0.249 -0.246,0.35 l -12.499,11.499 c -0.188,0.173 -0.431,0.263 -0.677,0.263"
         id="path8"
         style="fill:#2fb92a;fill-opacity:0.75173604" />
      <path
         d="m 25.5654,29.1729 c 0.811,0 1.477,0.667 1.477,1.477 0,0.81 -0.666,1.476 -1.477,1.476 -0.811,0 -1.477,-0.666 -1.477,-1.476 0,-0.81 0.666,-1.477 1.477,-1.477 m 0.09,-10.371 c 2.305,0 4.573,1.062 4.573,3.601 0,2.341 -2.683,3.242 -3.259,4.087 -0.431,0.63 -0.288,1.513 -1.476,1.513 -0.775,0 -1.153,-0.63 -1.153,-1.206 0,-2.143 3.152,-2.629 3.152,-4.394 0,-0.972 -0.649,-1.548 -1.729,-1.548 -2.304,0 -1.404,2.377 -3.151,2.377 -0.63,0 -1.17,-0.378 -1.17,-1.099 0,-1.765 2.017,-3.331 4.213,-3.331"
         id="path10"
         style="fill:#00c100;fill-opacity:1" />
      <path
         d="m 50,48 h -4 c -0.553,0 -1,-0.447 -1,-1 0,-0.553 0.447,-1 1,-1 h 1 v -5 h -1 c -0.553,0 -1,-0.447 -1,-1 0,-0.553 0.447,-1 1,-1 h 2 c 0.553,0 1,0.447 1,1 v 6 h 1 c 0.553,0 1,0.447 1,1 0,0.553 -0.447,1 -1,1"
         id="path12"
         style="fill:#ffa400;fill-opacity:1" />
      <path
         d="M 49,36.5 C 49,37.328 48.328,38 47.5,38 46.672,38 46,37.328 46,36.5 46,35.672 46.672,35 47.5,35 c 0.828,0 1.5,0.672 1.5,1.5"
         id="path14"
         style="fill:#ffa400;fill-opacity:1" />
    </g>
  </g>
  <metadata
     id="metadata845">
    <rdf:RDF>
      <cc:Work
         rdf:about="">
        <dc:title>insights-advice</dc:title>
      </cc:Work>
    </rdf:RDF>
  </metadata>
</svg>
