<?xml version="1.0" encoding="UTF-8" standalone="no"?>
<svg
   data-name="Layer 1"
   viewBox="0 0 197.93603 190.0627"
   x="0px"
   y="0px"
   version="1.1"
   id="svg20"
   sodipodi:docname="star.svg"
   width="197.93604"
   height="190.0627"
   inkscape:version="1.1.1 (3bf5ae0d25, 2021-09-20)"
   xmlns:inkscape="http://www.inkscape.org/namespaces/inkscape"
   xmlns:sodipodi="http://sodipodi.sourceforge.net/DTD/sodipodi-0.dtd"
   xmlns="http://www.w3.org/2000/svg"
   xmlns:svg="http://www.w3.org/2000/svg">
  <defs
     id="defs24" />
  <sodipodi:namedview
     id="namedview22"
     pagecolor="#ffffff"
     bordercolor="#666666"
     borderopacity="1.0"
     inkscape:pageshadow="2"
     inkscape:pageopacity="0.0"
     inkscape:pagecheckerboard="0"
     showgrid="false"
     inkscape:zoom="0.89714173"
     inkscape:cx="352.22974"
     inkscape:cy="151.03522"
     inkscape:window-width="1920"
     inkscape:window-height="1001"
     inkscape:window-x="-9"
     inkscape:window-y="-9"
     inkscape:window-maximized="1"
     inkscape:current-layer="svg20" />
  <path
     d="m 151.87986,186.91189 a 13.037,13.037 0 0 1 -8.11926,-1.38651 L 98.656723,161.6011 53.380873,185.19729 A 13.085,13.085 0 0 1 34.444453,171.33127 L 43.262863,121.04196 6.8304933,85.27137 A 13.085,13.085 0 0 1 13.993773,63.00414 l 0.16998,-0.0263 50.55099,-7.15724 22.76263,-45.69934 a 13.085,13.085 0 0 1 23.467897,0.0867 l 22.42738,45.86437 50.49733,7.52645 a 13.085,13.085 0 0 1 7.17008,22.34575 l -36.68928,35.50384 8.44578,50.35073 a 13.118,13.118 0 0 1 -10.91884,15.11212 z m -97.732667,-12.1432 0.002,0.0148 v 0 z"
     id="path2"
     style="fill:#ffcc00;stroke:#000000;stroke-width:6;stroke-miterlimit:4;stroke-dasharray:none;stroke-opacity:1" />
</svg>
