<?xml version="1.0" encoding="UTF-8"?>
<svg width="325.49" height="96.362" fill-rule="evenodd" stroke-linejoin="round" stroke-width="28.2" preserveAspectRatio="xMidYMid" version="1.2" viewBox="22104 4982 8605.5 2549.3" xmlns="http://www.w3.org/2000/svg" xmlns:cc="http://creativecommons.org/ns#" xmlns:dc="http://purl.org/dc/elements/1.1/" xmlns:rdf="http://www.w3.org/1999/02/22-rdf-syntax-ns#">
 <metadata>
  <rdf:RDF>
   <cc:Work rdf:about="">
    <dc:format>image/svg+xml</dc:format>
    <dc:type rdf:resource="http://purl.org/dc/dcmitype/StillImage"/>
   </cc:Work>
  </rdf:RDF>
 </metadata>
 <text x="11930.652" y="644.771" fill="#000000" font-family="Nunito" font-size="1058.2px" stroke-width="746.03" style="line-height:1.25" xml:space="preserve"><tspan x="11930.652" y="644.771" font-family="Nunito" stroke-width="746.03"/></text>
 <g transform="matrix(2.4555 0 0 2.4555 -20975 -6886.3)" fill="#007300" stroke-width="746.03" aria-label="Propon">
  <path d="m17625 5589q-40.211 0-61.375-22.222t-21.164-62.434v-587.3q0-41.27 21.164-62.434 22.222-21.164 62.433-21.164h257.14q124.87 0 192.59 63.492 67.725 62.434 67.725 174.6 0 112.17-67.725 175.66-67.724 63.492-192.59 63.492h-176.72v193.65q0 40.212-21.164 62.434-20.106 22.222-60.318 22.222zm81.482-405.29h149.21q63.492 0 96.296-28.571 33.862-28.571 33.862-83.598 0-55.026-33.862-82.54-32.804-27.513-96.296-27.513h-149.21z"/>
  <path d="m18304 5589c-26.808 0-47.267-7.0547-61.376-21.164s-21.164-34.215-21.164-60.317v-375.66c0-26.102 6.702-45.855 20.106-59.259 14.109-14.109 33.51-21.164 58.201-21.164 25.397 0 44.797 7.0546 58.201 21.164 13.404 13.404 20.106 33.157 20.106 59.259l-1.143 20.733c6.941-20.228 17.721-40.839 46.645-64.12 28.925-23.28 66.315-36.331 112.17-39.153 17.637-1.4109 31.04 3.1746 40.211 13.756 9.877 9.8765 15.168 26.455 15.873 49.735 1.411 21.87-3.174 39.153-13.756 51.852-9.877 12.698-26.808 20.458-50.794 23.28l-24.339 2.1164c-40.211 3.5273-70.194 15.168-89.947 34.921-19.047 19.753-28.571 48.324-28.571 85.714v196.83c0 26.102-7.055 46.208-21.164 60.317-13.404 14.109-33.157 21.164-59.259 21.164z"/>
  <path d="m18897 5591.1q-83.598 0-146.03-32.804-61.375-32.804-95.238-94.18-33.862-61.376-33.862-144.97 0-62.434 19.047-112.17 19.048-49.735 55.027-84.656 37.037-35.979 87.83-53.968 50.794-19.048 113.23-19.048 83.598 0 144.97 32.804 62.434 32.804 96.296 93.122 34.921 60.317 34.921 143.92 0 63.492-20.106 113.23-19.047 49.735-55.026 85.714t-87.831 55.026q-50.793 17.989-113.23 17.989zm0-119.58q34.92 0 60.317-16.931t40.212-49.735q14.815-33.862 14.815-85.714 0-77.249-31.746-113.23-31.746-37.037-83.598-37.037-33.863 0-60.318 15.873-25.396 15.873-40.211 49.735-13.757 32.804-13.757 84.656 0 77.249 31.746 115.34 31.746 37.037 82.54 37.037z"/>
  <path d="m19351 5871.6c-26.102 0-46.208-7.0546-60.317-21.164-13.404-13.404-20.106-33.51-20.106-60.317v-658.3c0-26.102 6.702-45.855 20.106-59.259 14.109-14.109 33.51-21.164 58.201-21.164 26.102 0 45.855 7.0546 59.259 21.164 13.404 13.404 20.106 33.157 20.106 59.259l-1.616 11.335c16.509-28.743 21.722-41.67 53.468-62.129 32.451-21.164 69.488-31.746 111.11-31.746 45.149 0 84.655 10.935 118.52 32.804 34.568 21.87 61.376 52.91 80.423 93.122 19.048 40.212 28.572 88.183 28.572 143.92s-9.524 104.06-28.572 144.97c-19.047 40.917-45.502 72.31-79.365 94.18-33.862 21.87-73.721 32.804-119.58 32.804-40.917 0-77.249-9.8765-109-29.63-31.746-20.458-37.601-28.862-52.391-52.961l0.539 281.64c0.05 26.808-7.055 46.914-21.164 60.317-13.404 14.109-32.804 21.164-58.201 21.164zm192.59-400.1c22.575 0 42.328-5.6437 59.259-16.931 17.637-11.288 31.04-27.866 40.211-49.735 9.877-22.575 14.815-51.146 14.815-85.714 0-51.499-10.582-89.242-31.746-113.23-21.164-24.691-48.677-37.037-82.539-37.037-22.575 0-42.681 5.291-60.318 15.873-16.931 10.582-30.335 27.16-40.211 49.735-9.877 21.87-14.815 50.088-14.815 84.656 0 51.499 10.582 89.947 31.746 115.34 21.164 24.691 49.03 37.037 83.598 37.037z"/>
  <path d="m20166 5591.1q-83.598 0-146.03-32.804-61.375-32.804-95.238-94.18-33.862-61.376-33.862-144.97 0-62.434 19.048-112.17 19.047-49.735 55.026-84.656 37.037-35.979 87.831-53.968 50.793-19.048 113.23-19.048 83.598 0 144.97 32.804 62.434 32.804 96.297 93.122 34.92 60.317 34.92 143.92 0 63.492-20.106 113.23-19.047 49.735-55.026 85.714t-87.831 55.026q-50.793 17.989-113.23 17.989zm0-119.58q34.921 0 60.317-16.931 25.397-16.931 40.212-49.735 14.815-33.862 14.815-85.714 0-77.249-31.746-113.23-31.746-37.037-83.598-37.037-33.862 0-60.317 15.873-25.397 15.873-40.212 49.735-13.757 32.804-13.757 84.656 0 77.249 31.746 115.34 31.746 37.037 82.54 37.037z"/>
  <path d="m20620 5589c-26.102 0-46.208-7.0547-60.317-21.164-13.404-14.109-20.106-34.215-20.106-60.317v-375.66c0-26.102 6.702-45.855 20.106-59.259 14.109-14.109 33.51-21.164 58.201-21.164 25.397 0 44.797 7.0546 58.201 21.164 13.404 13.404 20.106 33.157 20.106 59.259 16.226-22.375 28.571-35.626 60.317-53.968 32.451-19.048 69.136-28.571 110.05-28.571 41.623 0 75.838 8.1128 102.64 24.338 26.808 15.52 46.914 39.506 60.318 71.958 13.403 31.746 20.105 72.31 20.105 121.69v240.21c0 26.102-7.055 46.208-21.164 60.317-13.403 14.109-33.156 21.164-59.259 21.164-25.397 0-45.15-7.0547-59.259-21.164-13.404-14.109-20.106-34.215-20.106-60.317v-232.8c0-35.979-6.702-61.728-20.106-77.249-12.698-16.226-32.451-24.339-59.259-24.339-33.862 0-61.022 10.582-81.481 31.746-19.753 21.164-29.63 49.383-29.63 84.656v217.99c0 54.321-26.455 81.481-79.365 81.481z"/>
 </g>
</svg>
