<?xml version="1.0" encoding="UTF-8" standalone="no"?>
<svg
   xmlns:dc="http://purl.org/dc/elements/1.1/"
   xmlns:cc="http://creativecommons.org/ns#"
   xmlns:rdf="http://www.w3.org/1999/02/22-rdf-syntax-ns#"
   xmlns:svg="http://www.w3.org/2000/svg"
   xmlns="http://www.w3.org/2000/svg"
   xmlns:sodipodi="http://sodipodi.sourceforge.net/DTD/sodipodi-0.dtd"
   xmlns:inkscape="http://www.inkscape.org/namespaces/inkscape"
   width="52.366432mm"
   height="81.399994mm"
   preserveAspectRatio="xMidYMid"
   version="1.2"
   viewBox="22104 4982 5232.6456 8138.9992"
   id="svg59"
   sodipodi:docname="pop_logo.svg"
   style="fill-rule:evenodd;stroke-width:28.20000076;stroke-linejoin:round"
   inkscape:version="0.92.4 (5da689c313, 2019-01-14)">
  <metadata
     id="metadata63">
    <rdf:RDF>
      <cc:Work
         rdf:about="">
        <dc:format>image/svg+xml</dc:format>
        <dc:type
           rdf:resource="http://purl.org/dc/dcmitype/StillImage" />
      </cc:Work>
    </rdf:RDF>
  </metadata>
  <sodipodi:namedview
     pagecolor="#ffffff"
     bordercolor="#666666"
     borderopacity="1"
     objecttolerance="10"
     gridtolerance="10"
     guidetolerance="10"
     inkscape:pageopacity="0"
     inkscape:pageshadow="2"
     inkscape:window-width="686"
     inkscape:window-height="480"
     id="namedview61"
     showgrid="false"
     inkscape:zoom="0.76709663"
     inkscape:cx="100.403"
     inkscape:cy="155.35498"
     inkscape:window-x="0"
     inkscape:window-y="0"
     inkscape:window-maximized="0"
     inkscape:current-layer="svg59" />
  <defs
     class="ClipPathGroup"
     id="defs5">
    <clipPath
       id="presentation_clip_path">
      <rect
         x="22104"
         y="4982"
         width="5236"
         height="8139"
         id="rect2" />
    </clipPath>
  </defs>
  <g
     class="SlideGroup"
     id="g57"
     transform="translate(-1.6783762)">
    <g
       class="Slide"
       clip-path="url(#presentation_clip_path)"
       id="g55">
      <g
         class="Page"
         id="g53">
        <g
           class="Group"
           id="g51">
          <g
             class="com.sun.star.drawing.CustomShape"
             id="g19">
            <rect
               class="BoundingBox"
               x="22472"
               y="4981"
               width="1238"
               height="8141"
               id="rect7"
               style="fill:none" />
            <path
               d="m 22473,4982 v 8137 h 1235 V 4982 Z m 0,0 z m 1235,8138 z"
               id="path9"
               inkscape:connector-curvature="0"
               style="fill:#05852d" />
            <g
               id="g17"
               style="fill:none;stroke:#007826">
              <path
                 d="m 22473,4982 v 8137 h 1235 V 4982 Z"
                 id="path11"
                 inkscape:connector-curvature="0" />
              <path
                 d="M 22473,4982 Z"
                 id="path13"
                 inkscape:connector-curvature="0" />
              <path
                 d="M 23708,13120 Z"
                 id="path15"
                 inkscape:connector-curvature="0" />
            </g>
          </g>
          <g
             class="com.sun.star.drawing.CustomShape"
             id="g27">
            <rect
               class="BoundingBox"
               x="23607"
               y="4981"
               width="1231"
               height="268"
               id="rect21"
               style="fill:none" />
            <path
               d="m 24222,5247 h -614 v -265 h 1228 v 265 z"
               id="path23"
               inkscape:connector-curvature="0"
               style="fill:#05852d" />
            <path
               d="m 24222,5247 h -614 v -265 h 1228 v 265 z"
               id="path25"
               inkscape:connector-curvature="0"
               style="fill:none;stroke:#007826" />
          </g>
          <g
             class="com.sun.star.drawing.CustomShape"
             id="g41">
            <rect
               class="BoundingBox"
               x="22104"
               y="4981"
               width="5238"
               height="4011"
               id="rect29"
               style="fill:none" />
            <path
               d="m 24732,8990 132,-3 132,-8 131,-13 130,-18 129,-23 127,-29 125,-33 123,-37 120,-43 117,-47 114,-52 111,-56 106,-60 102,-64 98,-68 94,-72 88,-75 84,-79 78,-81 73,-85 67,-87 61,-90 55,-92 49,-94 43,-96 36,-98 30,-98 23,-100 17,-101 10,-101 3,-101 -3,-101 -10,-101 -17,-101 -23,-100 -30,-98 -36,-98 -43,-96 -49,-94 -55,-92 -61,-90 -67,-87 -73,-85 -78,-81 -84,-79 -88,-75 -94,-72 -98,-68 -102,-64 -106,-60 -111,-56 -114,-52 -117,-47 -120,-43 -123,-37 -125,-33 -127,-29 -129,-23 -130,-18 -131,-13 -132,-8 -132,-3 -1,262 115,3 114,7 114,11 114,16 112,20 110,24 109,29 106,33 105,37 102,41 99,45 96,48 92,52 89,56 85,59 82,63 76,65 73,68 68,71 63,74 58,76 54,78 47,80 43,82 37,83 32,85 26,85 20,87 14,87 9,88 3,88 -3,88 -9,88 -14,87 -20,87 -26,85 -32,85 -37,83 -43,82 -47,80 -54,78 -58,76 -63,74 -68,71 -73,68 -76,65 -82,63 -85,59 -89,56 -92,52 -96,48 -99,45 -102,41 -105,37 -106,33 -109,29 -110,24 -112,20 -114,16 -114,11 -114,7 -115,3 z m 2608,-4008 z m -5235,4008 z"
               id="path31"
               inkscape:connector-curvature="0"
               style="fill:#05852d" />
            <g
               id="g39"
               style="fill:none;stroke:#007826">
              <path
                 d="m 24732,8990 132,-3 132,-8 131,-13 130,-18 129,-23 127,-29 125,-33 123,-37 120,-43 117,-47 114,-52 111,-56 106,-60 102,-64 98,-68 94,-72 88,-75 84,-79 78,-81 73,-85 67,-87 61,-90 55,-92 49,-94 43,-96 36,-98 30,-98 23,-100 17,-101 10,-101 3,-101 -3,-101 -10,-101 -17,-101 -23,-100 -30,-98 -36,-98 -43,-96 -49,-94 -55,-92 -61,-90 -67,-87 -73,-85 -78,-81 -84,-79 -88,-75 -94,-72 -98,-68 -102,-64 -106,-60 -111,-56 -114,-52 -117,-47 -120,-43 -123,-37 -125,-33 -127,-29 -129,-23 -130,-18 -131,-13 -132,-8 -132,-3 -1,262 115,3 114,7 114,11 114,16 112,20 110,24 109,29 106,33 105,37 102,41 99,45 96,48 92,52 89,56 85,59 82,63 76,65 73,68 68,71 63,74 58,76 54,78 47,80 43,82 37,83 32,85 26,85 20,87 14,87 9,88 3,88 -3,88 -9,88 -14,87 -20,87 -26,85 -32,85 -37,83 -43,82 -47,80 -54,78 -58,76 -63,74 -68,71 -73,68 -76,65 -82,63 -85,59 -89,56 -92,52 -96,48 -99,45 -102,41 -105,37 -106,33 -109,29 -110,24 -112,20 -114,16 -114,11 -114,7 -115,3 z"
                 id="path33"
                 inkscape:connector-curvature="0" />
              <path
                 d="M 27340,4982 Z"
                 id="path35"
                 inkscape:connector-curvature="0" />
              <path
                 d="M 22105,8990 Z"
                 id="path37"
                 inkscape:connector-curvature="0" />
            </g>
          </g>
          <g
             class="com.sun.star.drawing.ClosedBezierShape"
             id="g49">
            <rect
               class="BoundingBox"
               x="23969"
               y="8273"
               width="1033"
               height="1169"
               id="rect43"
               style="fill:none" />
            <path
               d="m 24006,8795 c -11,6 -20,15 -26,27 -7,11 -10,23 -10,36 0,13 3,25 10,36 7,11 15,20 26,27 l 885,509 c 12,7 23,10 37,10 13,0 24,-3 36,-10 11,-7 19,-15 27,-26 6,-12 9,-23 9,-37 V 8346 c 0,-13 -3,-24 -9,-36 -7,-11 -16,-19 -27,-27 -12,-6 -23,-9 -36,-9 -14,0 -25,3 -37,9 z"
               id="path45"
               inkscape:connector-curvature="0"
               style="fill:#ff6600" />
            <path
               d="m 24006,8795 c -11,6 -20,15 -26,27 -7,11 -10,23 -10,36 0,13 3,25 10,36 7,11 15,20 26,27 l 885,509 c 12,7 23,10 37,10 13,0 24,-3 36,-10 11,-7 19,-15 27,-26 6,-12 9,-23 9,-37 V 8346 c 0,-13 -3,-24 -9,-36 -7,-11 -16,-19 -27,-27 -12,-6 -23,-9 -36,-9 -14,0 -25,3 -37,9 z"
               id="path47"
               inkscape:connector-curvature="0"
               style="fill:none;stroke:#ff6600" />
          </g>
        </g>
      </g>
    </g>
  </g>
</svg>
