<?xml version="1.0" encoding="UTF-8"?>
<svg width="380.83" height="91.088" enable-background="new 0 0 1024 1024" version="1.1" viewBox="0 0 380.83 91.088" xml:space="preserve" xmlns="http://www.w3.org/2000/svg">





<g transform="translate(-12.192 -154.64)"><path d="m379.04 227.35c0.0321 2.205-0.97799 2.9885-2.9487 2.987-4.4581-3e-3 -9.1295 0.0656-13.378-0.0748-2.2204-0.0734-2.8321-1.8405-2.808-4.0354 0.0647-2.9168-0.20675-20.851-0.66601-28.276s-5.4238-10.39-11.46-10.504c-6.2331-0.11811-11.933 3.0407-12.062 10.669-0.12838 7.628-0.0554 18.217-0.0692 27.327-7e-3 4.5658-0.0109 4.5219-4.4575 4.4417-3.9841-0.0719-7.9714-0.0926-11.955-0.0168-1.9131 0.0365-2.7369-0.61436-2.7248-2.6197 0.0649-10.817-0.54272-21.675 0.21359-32.44 0.81696-11.627 7.3889-19.931 18.071-24.617 21.018-9.2212 40.439 5.0212 43.877 23.885 0.74875 11.162 0.22492 22.901 0.36721 33.274z" fill="#007300" stroke-width=".56938"/><path d="m95.326 207.08c0.02298 6.4767-8.3e-5 12.695 0.09402 18.912 0.03307 2.1852-0.74814 3.1046-3.02 3.0867-4.0541-0.0319-8.1117 0.13764-12.165 0.29628-1.9282 0.0755-2.7844-0.53992-2.76-2.6578 0.10153-8.8074 0.02915-17.616 0.06573-26.424 0.06246-15.033 11.275-27.322 26.288-29.221 7.8628-0.99513 15.378 0.59242 22.76 1.8061 0.40688 0.80948 0.25356 1.2243 0.0128 1.5811-3.0902 4.5785-6.2065 9.1393-9.2829 13.727-0.82723 1.2337-1.8975 1.2453-3.181 0.97115-3.408-0.72782-6.8245-1.0052-10.24 0.0282-4.8195 1.4582-8.3069 5.865-8.509 10.901-0.08977 2.2421-0.04577 4.4896-0.06258 6.9937z" fill="#007300" stroke-width=".51877"/><g fill="#5dad3e"><path d="m390.18 154.64c-0.14865-5.7e-4 -0.30472 2e-3 -0.46707 0.01-7.2807 0.34445-14.568 0.53283-21.852 0.81069-2.9303 0.11176-5.859 0.27516-8.7856 0.46151-0.85186 0.0543-1.8081 0.21635-2.0029 1.2433-0.19367 1.0213 0.61676 1.4924 1.399 1.8861 0.42244 0.21261 0.86837 0.3795 1.2911 0.59164 5.4864 2.7528 10.428 6.0224 14.696 9.9318 4.8857 5.1837 8.6848 11.375 11.649 18.343 0.18517 0.43524 0.32363 0.89064 0.50933 1.3256 0.34383 0.80534 0.76343 1.6439 1.7949 1.5147 1.0371-0.12991 1.2591-1.0738 1.3668-1.9205 0.36957-2.9092 0.71554-5.8225 1.0109-8.7401 0.73422-7.2523 1.3792-14.513 2.1797-21.758 0.12147-1.0994 0.0278-1.8901-0.3136-2.4098-0.27229-0.88603-1.0665-1.2826-2.4755-1.29z" stroke-width=".56938"/><path d="m281.89 169.74a30.031 28.934 0 0 0-30.031 28.934 30.031 28.934 0 0 0 30.031 28.934 30.031 28.934 0 0 0 30.031-28.934 30.031 28.934 0 0 0-30.031-28.934zm0 16.113a14.167 12.821 0 0 1 14.167 12.821 14.167 12.821 0 0 1-14.167 12.82 14.167 12.821 0 0 1-14.168-12.82 14.167 12.821 0 0 1 14.168-12.821z" stroke-width=".96312" style="paint-order:markers stroke fill"/><path d="m151.38 170.42a30.031 28.934 0 0 0-30.031 28.934 30.031 28.934 0 0 0 30.031 28.934 30.031 28.934 0 0 0 30.031-28.934 30.031 28.934 0 0 0-30.031-28.934zm0 16.113a14.167 12.821 0 0 1 14.167 12.821 14.167 12.821 0 0 1-14.167 12.82 14.167 12.821 0 0 1-14.168-12.82 14.167 12.821 0 0 1 14.168-12.821z" stroke-width=".96312" style="paint-order:markers stroke fill"/></g><path d="m12.192 217.63c0-24.884 0.05312-26.209 1.2023-29.941 4.4306-13.218 16.797-20.548 28.975-20.7 9.0316 0 16.078 2.8645 22.265 9.0515 12.069 12.069 12.07 30.752 0.0046 42.818-8.3398 8.3398-18.619 10.576-32.937 7.1652-0.23935-0.0571-0.56324 3.9958-0.71982 9.0065l-0.35523 8.6512c-5.4756 0.83494-11.964 0.74674-18.217 0.76673 0.24968-1.4994-0.21649-26.213-0.2171-26.818zm36.911-10.482c5.0327-3.366 6.7381-10.427 3.7501-15.525-2.1407-3.6528-5.8578-5.8453-9.8834-5.8294-11.235 0.0444-16.742 12.605-8.7663 19.991 2.9327 2.7156 4.7351 3.3729 8.7349 3.1852 2.956-0.1386 4.1968-0.50532 6.1642-1.8211z" fill="#007300" stroke-width="2.152"/><path d="m186.44 218.91c0-24.884 0.0531-26.209 1.2023-29.941 4.4306-13.218 16.797-20.548 28.975-20.7 9.0316 0 16.078 2.8645 22.265 9.0515 12.069 12.069 12.07 30.752 4e-3 42.818-8.3398 8.3398-18.619 10.576-32.937 7.1651-0.23935-0.0571-0.56324 3.9958-0.71982 9.0065l-0.35523 8.6512c-5.4756 0.83495-11.964 0.74676-18.217 0.76674 0.24967-1.4994-0.2165-26.213-0.2171-26.818zm36.911-10.482c5.0327-3.366 6.7381-10.427 3.7501-15.525-2.1407-3.6528-5.8578-5.8453-9.8834-5.8294-11.235 0.0444-16.742 12.605-8.7662 19.991 2.9327 2.7156 4.7351 3.3729 8.7349 3.1852 2.956-0.13858 4.1968-0.50531 6.1642-1.8211z" fill="#007300" stroke-width="2.152"/></g></svg>
