<svg width="512pt" height="512pt" version="1.1" viewBox="-64 0 512 512" xmlns="http://www.w3.org/2000/svg">
 <path d="m256 80h-32v-48h-64v48h-32v-80h128z" fill="#333"/>
 <path d="m304 512h-224c-26.5 0-48-21.5-48-48v-336h320v336c0 26.5-21.5 48-48 48z" fill="#f44336"/>
 <path d="m384 160h-384v-64c0-17.7 14.3-32 32-32h320c17.7 0 32 14.3 32 32z" fill="#483e37"/>
 <path d="m260 260c-6.25-6.25-16.4-6.25-22.6 0l-41.4 41.4-41.4-41.4c-6.25-6.25-16.4-6.25-22.6 0s-6.25 16.4 0 22.6l41.4 41.4-41.4 41.4c-6.25 6.25-6.25 16.4 0 22.6s16.4 6.25 22.6 0l41.4-41.4 41.4 41.4c6.25 6.25 16.4 6.25 22.6 0s6.25-16.4 0-22.6l-41.4-41.4 41.4-41.4c6.25-6.25 6.25-16.4 0-22.6z" fill="#fff"/>
</svg>
