<svg enable-background="new 0 0 24 24" height="512" viewBox="0 0 24 24" width="512" xmlns="http://www.w3.org/2000/svg"><path d="m18.5 9c-.829 0-1.5.672-1.5 1.5v-1c0-.828-.671-1.5-1.5-1.5s-1.5.672-1.5 1.5v-1c0-.828-.671-1.5-1.5-1.5s-1.5.672-1.5 1.5v-6c0-.828-.671-1.5-1.5-1.5s-1.5.672-1.5 1.5v12.5l-3.717-2.279-.003-.001c-.22-.14-.49-.22-.78-.22-.83 0-1.5.67-1.5 1.5 0 .29.08.57.23.8l-.001-.004 4.596 7.329c.731 1.167 2.011 1.875 3.388 1.875h4.787c2.761 0 5-2.238 5-5v-8.5c0-.828-.671-1.5-1.5-1.5z" fill="#ffcc80"/><g fill="#ffa726"><path d="m17.5 9.39v2.61c-.28 0-.5-.22-.5-.5v-1c0-.44.19-.84.5-1.11z"/><path d="m14.5 8.39v3.61c-.28 0-.5-.22-.5-.5v-2c0-.44.19-.84.5-1.11z"/><path d="m11.5 7.39v4.61c-.28 0-.5-.22-.5-.5v-3c0-.44.19-.84.5-1.11z"/></g><path d="m11 8.495v.005c0-.002 0-.003 0-.005zm0-.005v.003c0-.001 0-.002 0-.003zm0-.005v.003c0-.001 0-.002 0-.003zm0-.005v.003c0-.001 0-.002 0-.003zm0-.005v.003c0-.001 0-.002 0-.003zm0-.005v.003c0-.001 0-.002 0-.003zm0-.005v.003c0-.001 0-.002 0-.003zm.001-.005v.003c-.001-.001 0-.002 0-.003zm0-.005v.003c0-.001 0-.002 0-.003zm0-.005v.003c0-.001 0-.002 0-.003zm0-.005v.003c0-.001 0-.002 0-.003zm0-.005v.003c0-.001 0-.002 0-.003zm0-.005v.003c0-.001 0-.002 0-.003zm.001-.006v.004c0-.001 0-.002 0-.004zm0-.011c0 .003 0 .007-.001.01.001-.003.001-.007.001-.01zm0-.005v.005c0-.002 0-.004 0-.005zm.001-.005v.004c0-.001 0-.003 0-.004zm0-.005v.004c0-.001 0-.003 0-.004zm0-.005v.004c0-.002 0-.003 0-.004zm.001-.005v.004c0-.002 0-.003 0-.004zm0-.005v.004c0-.002 0-.003 0-.004zm.001-.005v.004c-.001-.002-.001-.003 0-.004zm0-.005v.004c0-.001 0-.003 0-.004zm0-.005v.004c0-.002 0-.003 0-.004zm.001-.005v.004c0-.002 0-.003 0-.004zm0-.006v.005c0-.002 0-.003 0-.005zm-1.506-7.362c-.829 0-1.5.672-1.5 1.5v12.5l-3.717-2.279-.003-.001c-.22-.14-.49-.22-.78-.22-.83 0-1.5.67-1.5 1.5 0 .29.08.57.23.8l-.001-.004 4.596 7.329c.731 1.167 2.011 1.875 3.388 1.875h1.787v-16.915c-.541.191-.94.684-.994 1.277.035-.385.216-.73.494-.972v4.61c-.28 0-.5-.22-.5-.5v-3-6c0-.828-.671-1.5-1.5-1.5z" fill="#deb26f"/><path d="m11.5 7.39c-.277.242-.459.587-.494.972v.005.001.004.001.004.001.004.001.004.001.004.001.004.001.004.001.004.001.004.001.005c0 .003 0 .007-.001.01v.001.004.002.003.002.003.002.003.002.003.002.003.002.003.002.003.002.003.002.003.002.003.002.003.002.003.002.005 3c0 .28.22.5.5.5v-4.61z" fill="#de9121"/></svg>