<?xml version="1.0" encoding="UTF-8" standalone="no"?>
<svg
   version="1.2"
   width="7.9324307mm"
   height="7.0728807mm"
   viewBox="3359 8060 793.24307 707.2881"
   preserveAspectRatio="xMidYMid"
   fill-rule="evenodd"
   stroke-width="28.222"
   stroke-linejoin="round"
   xml:space="preserve"
   id="svg61"
   sodipodi:docname="add_presentation.svg"
   inkscape:version="1.1.1 (3bf5ae0d25, 2021-09-20)"
   xmlns:inkscape="http://www.inkscape.org/namespaces/inkscape"
   xmlns:sodipodi="http://sodipodi.sourceforge.net/DTD/sodipodi-0.dtd"
   xmlns="http://www.w3.org/2000/svg"
   xmlns:svg="http://www.w3.org/2000/svg"><sodipodi:namedview
   id="namedview63"
   pagecolor="#ffffff"
   bordercolor="#666666"
   borderopacity="1.0"
   inkscape:pageshadow="2"
   inkscape:pageopacity="0.0"
   inkscape:pagecheckerboard="0"
   inkscape:document-units="mm"
   showgrid="false"
   inkscape:zoom="16"
   inkscape:cx="26.125"
   inkscape:cy="5.09375"
   inkscape:window-width="1920"
   inkscape:window-height="1001"
   inkscape:window-x="-9"
   inkscape:window-y="-9"
   inkscape:window-maximized="1"
   inkscape:current-layer="g59" />
 <defs
   class="EmbeddedBulletChars"
   id="defs32">
    
   
    
   
     
     
    
     
     
    
   
  
    
    
    
   <pattern
   id="EMFhbasepattern"
   patternUnits="userSpaceOnUse"
   width="6"
   height="6"
   x="0"
   y="0" /></defs>
 <g
   class="Page"
   id="g59"
   transform="translate(11.2039)">
  
  <g
   class="Group"
   id="g57"
   transform="translate(16.536459,-4.9609376)">
   <path
   id="rect43"
   style="fill:#007c7c;fill-opacity:0.717014;stroke-width:1.06666"
   class="BoundingBox"
   d="M 12.585938,0 V 7.2949219 H 5.2910156 v 1.4726562 1.4746099 0.03906 h 7.2949224 v 7.255859 0.03711 h 2.947265 V 10.28125 h 7.332031 V 7.2949219 h -0.03711 -7.294922 V 0 Z"
   transform="matrix(26.458334,0,0,26.458334,3359,8060)" />
   
  </g>
 <path
   style="fill:#000000;fill-opacity:0.77083325;fill-rule:evenodd;stroke:none;stroke-width:784.904"
   d="m 4031.0346,8667.2446 v -181.8184 c 0,-1.7398 1.0092,-3.4797 2.0185,-6.0896 1.0092,-1.7399 3.0277,-2.6098 5.046,-4.3497 2.0185,-0.87 5.0461,-1.7399 7.0645,-1.7399 h 81.7465 c 2.0185,0 5.0461,0.8699 7.0644,1.7399 2.0185,1.7399 4.037,2.6098 5.0461,4.3497 1.0092,2.6099 2.0186,4.3498 2.0186,6.0896 v 269.6828 c 0,1.7398 -1.0094,4.3496 -2.0186,6.0896 -1.0091,1.7398 -3.0276,3.4797 -5.0461,4.3496 -2.0183,0.87 -5.0459,1.7399 -7.0644,1.7399 h -764.985 c -2.0184,0 -5.046,-0.8699 -7.0645,-1.7399 -2.0184,-0.8699 -4.0368,-2.6098 -5.0461,-4.3496 -1.0092,-1.74 -2.0184,-4.3498 -2.0184,-6.0896 v -269.6828 c 0,-1.7398 1.0092,-3.4797 2.0184,-6.0896 1.0093,-1.7399 3.0277,-2.6098 5.0461,-4.3497 2.0185,-0.87 5.0461,-1.7399 7.0645,-1.7399 h 77.7095 c 2.0185,0 5.0461,0.8699 7.0646,1.7399 2.0184,1.7399 4.0368,2.6098 5.0461,4.3497 1.0092,2.6099 2.0184,4.3498 2.0184,6.0896 v 181.8184 z"
   id="path4366" /></g>
</svg>
