<?xml version="1.0" encoding="UTF-8"?>
<svg width="11.009" height="12.614" version="1.1" viewBox="0 0 11.009 12.614" xmlns="http://www.w3.org/2000/svg">
 <path d="m2.1138 1.7089c-0.14613-5.571e-4 -0.26506 0.11744-0.26564 0.26357v3.137c5.844e-4 0.14613 0.11951 0.26413 0.26564 0.26357h6.8447c0.14613 5.571e-4 0.26506-0.11744 0.26564-0.26357v-3.137c-5.85e-4 -0.14613-0.11951-0.26413-0.26564-0.26357zm0.26409 0.52715h6.317v2.6078h-6.317zm-0.26409 3.9066c-0.14613-5.571e-4 -0.26506 0.11744-0.26564 0.26358v4.2074c-5.601e-4 0.14694 0.1187 0.2662 0.26564 0.26564h2.5236c0.14633-3e-4 0.26465-0.11931 0.26409-0.26564v-4.2074c-5.822e-4 -0.14553-0.11856-0.26328-0.26409-0.26358zm3.9009 0.22843c-0.14695-5.749e-4 -0.26622 0.11869-0.26564 0.26564 5.698e-4 0.14614 0.1195 0.26415 0.26564 0.26357h2.9438c0.14614 5.718e-4 0.26507-0.11743 0.26564-0.26357 5.75e-4 -0.14695-0.11869-0.26622-0.26564-0.26564zm-3.6368 0.30078h1.9939v3.6781h-1.9939zm3.6368 1.5747c-0.14614-5.72e-4 -0.26507 0.11743-0.26564 0.26357-5.755e-4 0.14695 0.11869 0.26622 0.26564 0.26564h2.9438c0.14695 5.74e-4 0.26622-0.1187 0.26564-0.26564-5.7e-4 -0.14614-0.1195-0.26415-0.26564-0.26357zm0 1.8729c-0.14695-5.75e-4 -0.26622 0.11869-0.26564 0.26564 5.698e-4 0.14614 0.1195 0.26415 0.26564 0.26357h2.9438c0.14614 5.72e-4 0.26507-0.11744 0.26564-0.26357 5.75e-4 -0.14695-0.11869-0.26622-0.26564-0.26564z" color="#000000" stroke-linecap="round" stroke-linejoin="round"/>
 <path d="m1.1313 0c-0.62146 0-1.1313 0.50779-1.1313 1.1292v1.8259h11.009v-1.8259c0-0.62145-0.50778-1.1292-1.1292-1.1292zm0 0.52922h8.7486c0.33744 0 0.5995 0.26262 0.5995 0.60002v10.354c0 0.3374-0.26206 0.60157-0.5995 0.60157h-8.7486c-0.33744 0-0.60157-0.26417-0.60157-0.60157v-10.354c0-0.3374 0.26413-0.60002 0.60157-0.60002zm-1.1313 2.4259v8.5284c0 0.62145 0.50984 1.1308 1.1313 1.1308h8.7486c0.62146 0 1.1292-0.50934 1.1292-1.1308v-8.5284" color="#000000" stroke-linecap="round" stroke-linejoin="round"/>
</svg>
