<?xml version="1.0" encoding="UTF-8"?>
<svg width="24" height="24" version="1.1" viewBox="0 -960 960 960" xmlns="http://www.w3.org/2000/svg">
 <path d="m221.28-38.03c-22 0-40.833-7.8333-56.5-23.5s-23.5-34.5-23.5-56.5v-720c0-22 7.8333-40.833 23.5-56.5s34.5-23.5 56.5-23.5h407c10.667 0 20.833 2 30.5 6s18.167 9.6667 25.5 17l154 154c7.3333 7.3333 13 15.833 17 25.5s6 19.833 6 30.5v567c0 22-7.8333 40.833-23.5 56.5s-34.5 23.5-56.5 23.5zm0-80h560v-560h-120c-11.333 0-20.833-3.8333-28.5-11.5s-11.5-17.167-11.5-28.5v-120h-400zm440-240c11.333 0 20.833-3.8333 28.5-11.5s11.5-17.167 11.5-28.5-3.8333-20.833-11.5-28.5-17.167-11.5-28.5-11.5h-320c-11.333 0-20.833 3.8333-28.5 11.5s-11.5 17.167-11.5 28.5 3.8333 20.833 11.5 28.5 17.167 11.5 28.5 11.5zm-200-320c11.333 0 20.833-3.8333 28.5-11.5s11.5-17.167 11.5-28.5-3.8333-20.833-11.5-28.5-17.167-11.5-28.5-11.5h-120c-11.333 0-20.833 3.8333-28.5 11.5s-11.5 17.167-11.5 28.5 3.8333 20.833 11.5 28.5 17.167 11.5 28.5 11.5zm200 160c11.333 0 20.833-3.8333 28.5-11.5s11.5-17.167 11.5-28.5-3.8333-20.833-11.5-28.5-17.167-11.5-28.5-11.5h-320c-11.333 0-20.833 3.8333-28.5 11.5s-11.5 17.167-11.5 28.5 3.8333 20.833 11.5 28.5 17.167 11.5 28.5 11.5zm-440-320v160-160 720z"/>
 <path d="m658.92-200.08c11.333 0 20.833-3.8332 28.5-11.5 7.6667-7.6667 11.5-17.167 11.5-28.5s-3.8332-20.833-11.5-28.5c-7.6667-7.6667-17.167-11.5-28.5-11.5h-320c-11.333 0-20.833 3.8332-28.5 11.5-7.6667 7.6667-11.5 17.167-11.5 28.5s3.8333 20.833 11.5 28.5c7.6667 7.6667 17.167 11.5 28.5 11.5z" stroke-width="40"/>
</svg>
