<?xml version="1.0" encoding="UTF-8" standalone="no"?>
<svg
   height="24"
   viewBox="0 -960 960 960"
   width="24"
   version="1.1"
   id="svg4"
   sodipodi:docname="article.svg"
   inkscape:version="1.1.1 (3bf5ae0d25, 2021-09-20)"
   xmlns:inkscape="http://www.inkscape.org/namespaces/inkscape"
   xmlns:sodipodi="http://sodipodi.sourceforge.net/DTD/sodipodi-0.dtd"
   xmlns="http://www.w3.org/2000/svg"
   xmlns:svg="http://www.w3.org/2000/svg">
  <defs
     id="defs8" />
  <sodipodi:namedview
     id="namedview6"
     pagecolor="#ffffff"
     bordercolor="#666666"
     borderopacity="1.0"
     inkscape:pageshadow="2"
     inkscape:pageopacity="0.0"
     inkscape:pagecheckerboard="0"
     showgrid="false"
     inkscape:zoom="16.916667"
     inkscape:cx="19.980295"
     inkscape:cy="18.354679"
     inkscape:window-width="1920"
     inkscape:window-height="1001"
     inkscape:window-x="-9"
     inkscape:window-y="-9"
     inkscape:window-maximized="1"
     inkscape:current-layer="svg4" />
  <path
     d="m 200,-120 c -22,0 -40.83333,-7.83333 -56.5,-23.5 C 127.83333,-159.16666 120,-178 120,-200 v -560 c 0,-22 7.83333,-40.83333 23.5,-56.5 15.66667,-15.66667 34.5,-23.5 56.5,-23.5 h 407 c 10.66667,0 20.83333,2 30.5,6 9.66667,4 18.16667,9.66667 25.5,17 l 154,154 c 7.33333,7.33333 13,15.83333 17,25.5 4,9.66667 6,19.83333 6,30.5 v 407 c 0,22 -7.83333,40.83334 -23.5,56.5 -15.66667,15.66667 -34.5,23.5 -56.5,23.5 z m 0,-80 H 760 V -600 H 640 c -11.33333,0 -20.83333,-3.83333 -28.5,-11.5 -7.66667,-7.66667 -11.5,-17.16667 -11.5,-28.5 V -760 H 200 Z m 440,-80 c 11.33333,0 20.83333,-3.83333 28.5,-11.5 7.66667,-7.66667 11.5,-17.16667 11.5,-28.5 0,-11.33333 -3.83333,-20.83333 -11.5,-28.5 -7.66667,-7.66667 -17.16667,-11.5 -28.5,-11.5 H 320 c -11.33333,0 -20.83333,3.83333 -28.5,11.5 -7.66667,7.66667 -11.5,17.16667 -11.5,28.5 0,11.33333 3.83333,20.83333 11.5,28.5 7.66667,7.66667 17.16667,11.5 28.5,11.5 z M 440,-600 c 11.33333,0 20.83333,-3.83333 28.5,-11.5 7.66667,-7.66667 11.5,-17.16667 11.5,-28.5 0,-11.33333 -3.83333,-20.83333 -11.5,-28.5 -7.66667,-7.66667 -17.16667,-11.5 -28.5,-11.5 H 320 c -11.33333,0 -20.83333,3.83333 -28.5,11.5 -7.66667,7.66667 -11.5,17.16667 -11.5,28.5 0,11.33333 3.83333,20.83333 11.5,28.5 7.66667,7.66667 17.16667,11.5 28.5,11.5 z m 200,160 c 11.33333,0 20.83333,-3.83333 28.5,-11.5 7.66667,-7.66667 11.5,-17.16667 11.5,-28.5 0,-11.33333 -3.83333,-20.83333 -11.5,-28.5 -7.66667,-7.66667 -17.16667,-11.5 -28.5,-11.5 H 320 c -11.33333,0 -20.83333,3.83333 -28.5,11.5 -7.66667,7.66667 -11.5,17.16667 -11.5,28.5 0,11.33333 3.83333,20.83333 11.5,28.5 7.66667,7.66667 17.16667,11.5 28.5,11.5 z M 200,-760 v 160 -160 560 z"
     id="path2"
     sodipodi:nodetypes="sssssssssssssssscccssscccsssssssssssssssssssssssssssssssssccccc" />
</svg>
