<?xml version="1.0" encoding="UTF-8" standalone="no"?>
<!-- Created with Inkscape (http://www.inkscape.org/) -->

<svg
   version="1.0"
   width="475.24799"
   height="228.092"
   viewBox="0 0 475.248 228.092"
   id="Layer_1"
   xml:space="preserve"
   sodipodi:docname="categories.svg"
   inkscape:version="1.1.1 (3bf5ae0d25, 2021-09-20)"
   xmlns:inkscape="http://www.inkscape.org/namespaces/inkscape"
   xmlns:sodipodi="http://sodipodi.sourceforge.net/DTD/sodipodi-0.dtd"
   xmlns="http://www.w3.org/2000/svg"
   xmlns:svg="http://www.w3.org/2000/svg"><sodipodi:namedview
   id="namedview5"
   pagecolor="#ffffff"
   bordercolor="#666666"
   borderopacity="1.0"
   inkscape:pageshadow="2"
   inkscape:pageopacity="0.0"
   inkscape:pagecheckerboard="0"
   showgrid="false"
   inkscape:zoom="0.562338"
   inkscape:cx="63.129292"
   inkscape:cy="-63.129292"
   inkscape:window-width="1366"
   inkscape:window-height="705"
   inkscape:window-x="-8"
   inkscape:window-y="-8"
   inkscape:window-maximized="1"
   inkscape:current-layer="Layer_1" /><defs
   id="defs1337" />
<path
   d="M 462.836,114.054 412.799,85.158 v 20.613 H 157.046 l 49.798,-52.612 c 4.238,-3.397 9.783,-5.78 15.487,-5.912 23.075,0 36.778,-0.006 41.822,-0.016 3.419,9.741 12.603,16.772 23.521,16.772 13.812,0 25.021,-11.208 25.021,-25.025 0,-13.823 -11.208,-25.027 -25.021,-25.027 -10.918,0 -20.102,7.027 -23.521,16.76 l -41.332,-0.007 c -11.202,0 -22.94,6.146 -30.411,13.351 0.204,-0.214 0.416,-0.442 -0.012,0.004 -0.158,0.178 -52.834,55.814 -52.834,55.814 -4.229,3.392 -9.771,5.76 -15.471,5.896 H 95.161 C 91.326,86.656 74.448,72.256 54.202,72.256 c -23.083,0 -41.794,18.711 -41.794,41.787 0,23.083 18.711,41.795 41.794,41.795 20.25,0 37.128,-14.412 40.963,-33.541 h 28.425 c 0.073,0 0.146,0.004 0.22,0 h 62.871 c 5.689,0.145 11.224,2.516 15.449,5.912 0,0 52.664,55.632 52.827,55.812 0.422,0.447 0.212,0.214 0.004,0.004 7.471,7.204 19.214,13.346 30.418,13.346 l 39.832,-0.009 v 16.777 h 50.05 v -50.045 h -50.05 v 16.755 c 0,0 -10.491,-0.019 -40.32,-0.019 -5.705,-0.131 -11.256,-2.511 -15.492,-5.908 L 219.59,122.3 h 193.209 v 20.646 z"
   id="path1334"
   style="fill:#065fd4;fill-opacity:1.0" />
</svg>
