<?xml version="1.0" encoding="UTF-8" standalone="no"?>
<svg
   data-name="Layer 1"
   viewBox="0 0 55.083 50.665852"
   x="0px"
   y="0px"
   version="1.1"
   id="svg14"
   sodipodi:docname="chatbot.svg"
   width="55.083"
   height="50.665852"
   inkscape:version="1.1.1 (3bf5ae0d25, 2021-09-20)"
   xmlns:inkscape="http://www.inkscape.org/namespaces/inkscape"
   xmlns:sodipodi="http://sodipodi.sourceforge.net/DTD/sodipodi-0.dtd"
   xmlns="http://www.w3.org/2000/svg"
   xmlns:svg="http://www.w3.org/2000/svg"
   xmlns:rdf="http://www.w3.org/1999/02/22-rdf-syntax-ns#"
   xmlns:cc="http://creativecommons.org/ns#"
   xmlns:dc="http://purl.org/dc/elements/1.1/">
  <sodipodi:namedview
     id="namedview16"
     pagecolor="#ffffff"
     bordercolor="#666666"
     borderopacity="1.0"
     inkscape:pageshadow="2"
     inkscape:pageopacity="0.0"
     inkscape:pagecheckerboard="0"
     showgrid="false"
     inkscape:zoom="6.8378947"
     inkscape:cx="27.640086"
     inkscape:cy="23.033405"
     inkscape:window-width="1920"
     inkscape:window-height="1001"
     inkscape:window-x="-9"
     inkscape:window-y="-9"
     inkscape:window-maximized="1"
     inkscape:current-layer="svg14" />
  <defs
     id="defs4">
    <style
       id="style2">.cls-1{fill-rule:evenodd;}</style>
  </defs>
  <title
     id="title6">a</title>
  <path
     class="cls-1"
     d="m 52.269,36.913853 c -0.0033,2.1093 -1.712699,3.818247 -3.822,3.821 h -0.609 c 0.01,-0.194 0.017,-0.388 0.017,-0.584 v -15.193 c 0,-0.2 -0.007,-0.391 -0.017,-0.585 h 0.613 c 2.10969,0.0028 3.819245,1.71231 3.822,3.822 v 8.719 z m -7.231,3.237 c -0.0066,4.249853 -3.450147,7.693392 -7.7,7.7 h -19.82 c -4.250081,-0.0061 -7.693941,-3.449919 -7.7,-7.7 v -15.193 c 0.0061,-4.250081 3.449919,-7.693941 7.7,-7.7 h 19.82 c 4.249853,0.0066 7.693392,3.450147 7.7,7.7 z m -38.412,0.584 c -2.109073,-0.0033 -3.818146,-1.711928 -3.822,-3.821 v -8.719 c 0.0033,-2.109462 1.712538,-3.818696 3.822,-3.822 H 7.02 c -0.011,0.194 -0.018,0.389 -0.018,0.585 v 15.193 c 0,0.2 0.007,0.39 0.018,0.584 z m 20.8,-37.926 c 1.688928,-0.0053 2.539531,2.03505 1.347315,3.231056 C 27.581098,7.235914 25.538008,6.39179 25.538,4.702853 c 0.0033,-1.04466 0.84934,-1.890706 1.894,-1.894 z m 21.021,18.752 h -1.162 c -1.45729,-4.25199 -5.452219,-7.110731 -9.947,-7.118 h -8.5 v -5.248 C 33.985403,7.582744 32.81376,0 27.4315,0 22.04924,0 20.877597,7.582744 26.025,9.194853 v 5.248 h -8.5 c -4.495443,0.0059 -8.49136,2.865091 -9.948,7.118 H 6.634 c -3.66203,0.0044 -6.629592,2.97197 -6.634,6.634 v 8.719 c 0.0044,3.661867 2.972132,6.629143 6.634,6.633 h 0.943 c 1.456555,4.253113 5.452393,7.11262 9.948,7.119 h 19.813 c 4.495681,-0.0069 8.491556,-2.866112 9.949,-7.119 h 1.162 c 3.661868,-0.0039 6.629591,-2.971133 6.634,-6.633 v -8.719 c -0.0044,-3.66203 -2.97197,-6.629592 -6.634,-6.634 z m -16.268,17.317 c 0,-0.776903 -0.630097,-1.406553 -1.407,-1.406 h -6.69 c -1.874666,0 -1.874666,2.812 0,2.812 h 6.69 c 0.776674,0 1.406448,-0.629326 1.407,-1.406 z m 5.375,-12.832 c 0,-1.874666 -2.812,-1.874666 -2.812,0 v 3.57 c 0,1.874666 2.812,1.874666 2.812,0 z m -17.441,0 c 0,-1.874666 -2.812,-1.874666 -2.812,0 v 3.57 c 0,1.874666 2.812,1.874666 2.812,0 z"
     id="path8"
     sodipodi:nodetypes="cccsscccccccccccccccccccsscccsccccccccscccccccccccccccscccssscssssssssss" />
  <metadata
     id="metadata833">
    <rdf:RDF>
      <cc:Work
         rdf:about="">
        <dc:title>a</dc:title>
      </cc:Work>
    </rdf:RDF>
  </metadata>
  <path
     style="fill:#ff00ff;fill-opacity:0.015625;stroke-width:0"
     d="m 21.029122,17.076254 c -2.586022,0.105906 -5.452293,-0.297094 -7.709793,1.263352 -2.359645,1.495397 -3.8405404,4.284175 -3.6216884,7.089664 -0.00635,5.27146 -0.114853,10.548453 0.06842,15.816921 0.4595584,3.745246 4.0363414,6.939794 7.8611784,6.671233 7.030361,0.136507 14.070895,0.214534 21.097674,-0.07569 3.19162,-0.503051 5.878408,-3.288783 6.347325,-6.469576 0.180452,-5.502024 0.09359,-11.01275 0.05749,-16.517403 0.118067,-3.632209 -2.814965,-6.977874 -6.336266,-7.613688 -5.743936,-0.236776 -11.499421,-0.114627 -17.247917,-0.165869 -0.172141,3.53e-4 -0.344283,7.06e-4 -0.516425,0.0011 z m -2.193943,7.751209 c 1.21701,0.118894 1.105495,1.508088 1.111847,2.400079 -0.08868,1.085598 0.332601,2.435532 -0.434613,3.335707 -0.891983,0.727461 -2.457886,-0.235594 -2.055697,-1.374749 0.109371,-1.332553 -0.240786,-2.763761 0.314482,-3.989429 0.259147,-0.285943 0.695498,-0.376489 1.063981,-0.371608 z m 17.354173,-2.86e-4 c 0.886732,-0.04527 1.223785,0.884951 1.163954,1.586118 -0.0054,1.239302 0.155705,2.588657 -0.07203,3.756038 -0.551018,0.936976 -2.12063,0.828938 -2.332424,-0.30874 -0.093,-1.442598 -0.179164,-2.979401 0.11511,-4.413307 0.236447,-0.377046 0.665647,-0.667204 1.12539,-0.620109 z m -8.689511,12.840895 c 1.291916,0.01419 2.583831,0.02837 3.875747,0.04256 0.852402,0.586017 0.772586,2.036669 -0.274207,2.334759 -2.482022,0.160288 -5.038377,0.159901 -7.486142,-0.03142 -1.30442,-0.422377 -0.718139,-2.653977 0.587797,-2.381803 1.098935,0.01197 2.197869,0.02394 3.296805,0.0359 z"
     id="path5088" />
  <path
     style="fill:#006eff;fill-opacity:0.0555556;stroke-width:0"
     d="m 6.2113644,24.26391 c -1.7673466,0.110331 -3.2517863,1.632429 -3.5595522,3.303054 0.073721,3.452621 -0.156329,6.922273 0.1451013,10.364747 0.3950611,1.868898 2.5261631,3.240185 4.3790319,2.848899 0.101917,-5.451395 0.014532,-10.934972 0.043702,-16.398734 -0.1148624,-0.412483 -0.720841,-0.06315 -1.008283,-0.117966 z"
     id="path5402" />
  <path
     style="fill:#006eff;fill-opacity:0.0555556;stroke-width:0"
     d="m 47.674922,24.251914 c -0.123883,5.447911 -0.01767,10.939267 -0.05313,16.403874 0.414032,0.416156 1.273034,0.157499 1.850613,0.08826 1.776083,-0.42461 3.041677,-2.195965 2.873177,-4.016361 0.09378,-3.284205 0.218241,-6.597721 -0.160525,-9.86595 -0.578581,-1.861161 -2.678206,-2.856059 -4.510137,-2.609824 z"
     id="path5441" />
  <path
     style="fill:#726eff;fill-opacity:0.05555557;stroke-width:0"
     d="m 27.46128,2.7075105 c -1.428598,-0.125082 -2.47796,1.4642158 -1.906311,2.7463566 0.4861,1.479003 2.72109,1.7483779 3.550126,0.423593 0.85195,-1.1914143 -0.0033,-3.3978777 -1.643815,-3.1699496 z"
     id="path5480" />
</svg>
