<?xml version="1.0" encoding="UTF-8" standalone="no"?>
<svg
   data-name="Layer 1"
   viewBox="0 0 55.083 50.665852"
   x="0px"
   y="0px"
   version="1.1"
   id="svg14"
   sodipodi:docname="noun-chatbot-6438989.svg"
   width="55.083"
   height="50.665852"
   inkscape:version="1.1.1 (3bf5ae0d25, 2021-09-20)"
   xmlns:inkscape="http://www.inkscape.org/namespaces/inkscape"
   xmlns:sodipodi="http://sodipodi.sourceforge.net/DTD/sodipodi-0.dtd"
   xmlns="http://www.w3.org/2000/svg"
   xmlns:svg="http://www.w3.org/2000/svg"
   xmlns:rdf="http://www.w3.org/1999/02/22-rdf-syntax-ns#"
   xmlns:cc="http://creativecommons.org/ns#"
   xmlns:dc="http://purl.org/dc/elements/1.1/">
  <sodipodi:namedview
     id="namedview16"
     pagecolor="#ffffff"
     bordercolor="#666666"
     borderopacity="1.0"
     inkscape:pageshadow="2"
     inkscape:pageopacity="0.0"
     inkscape:pagecheckerboard="0"
     showgrid="false"
     inkscape:zoom="6.8378947"
     inkscape:cx="27.640086"
     inkscape:cy="23.033405"
     inkscape:window-width="1920"
     inkscape:window-height="1001"
     inkscape:window-x="-9"
     inkscape:window-y="-9"
     inkscape:window-maximized="1"
     inkscape:current-layer="svg14" />
  <defs
     id="defs4">
    <style
       id="style2">.cls-1{fill-rule:evenodd;}</style>
  </defs>
  <title
     id="title6">a</title>
  <path
     class="cls-1"
     d="m 52.269,36.913853 c -0.0033,2.1093 -1.712699,3.818247 -3.822,3.821 h -0.609 c 0.01,-0.194 0.017,-0.388 0.017,-0.584 v -15.193 c 0,-0.2 -0.007,-0.391 -0.017,-0.585 h 0.613 c 2.10969,0.0028 3.819245,1.71231 3.822,3.822 v 8.719 z m -7.231,3.237 c -0.0066,4.249853 -3.450147,7.693392 -7.7,7.7 h -19.82 c -4.250081,-0.0061 -7.693941,-3.449919 -7.7,-7.7 v -15.193 c 0.0061,-4.250081 3.449919,-7.693941 7.7,-7.7 h 19.82 c 4.249853,0.0066 7.693392,3.450147 7.7,7.7 z m -38.412,0.584 c -2.109073,-0.0033 -3.818146,-1.711928 -3.822,-3.821 v -8.719 c 0.0033,-2.109462 1.712538,-3.818696 3.822,-3.822 H 7.02 c -0.011,0.194 -0.018,0.389 -0.018,0.585 v 15.193 c 0,0.2 0.007,0.39 0.018,0.584 z m 20.8,-37.926 c 1.688928,-0.0053 2.539531,2.03505 1.347315,3.231056 C 27.581098,7.235914 25.538008,6.39179 25.538,4.702853 c 0.0033,-1.04466 0.84934,-1.890706 1.894,-1.894 z m 21.021,18.752 h -1.162 c -1.45729,-4.25199 -5.452219,-7.110731 -9.947,-7.118 h -8.5 v -5.248 C 33.985403,7.582744 32.81376,0 27.4315,0 22.04924,0 20.877597,7.582744 26.025,9.194853 v 5.248 h -8.5 c -4.495443,0.0059 -8.49136,2.865091 -9.948,7.118 H 6.634 c -3.66203,0.0044 -6.629592,2.97197 -6.634,6.634 v 8.719 c 0.0044,3.661867 2.972132,6.629143 6.634,6.633 h 0.943 c 1.456555,4.253113 5.452393,7.11262 9.948,7.119 h 19.813 c 4.495681,-0.0069 8.491556,-2.866112 9.949,-7.119 h 1.162 c 3.661868,-0.0039 6.629591,-2.971133 6.634,-6.633 v -8.719 c -0.0044,-3.66203 -2.97197,-6.629592 -6.634,-6.634 z m -16.268,17.317 c 0,-0.776903 -0.630097,-1.406553 -1.407,-1.406 h -6.69 c -1.874666,0 -1.874666,2.812 0,2.812 h 6.69 c 0.776674,0 1.406448,-0.629326 1.407,-1.406 z m 5.375,-12.832 c 0,-1.874666 -2.812,-1.874666 -2.812,0 v 3.57 c 0,1.874666 2.812,1.874666 2.812,0 z m -17.441,0 c 0,-1.874666 -2.812,-1.874666 -2.812,0 v 3.57 c 0,1.874666 2.812,1.874666 2.812,0 z"
     id="path8"
     sodipodi:nodetypes="cccsscccccccccccccccccccsscccsccccccccscccccccccccccccscccssscssssssssss" />
  <metadata
     id="metadata833">
    <rdf:RDF>
      <cc:Work
         rdf:about="">
        <dc:title>a</dc:title>
      </cc:Work>
    </rdf:RDF>
  </metadata>
</svg>
