<?xml version="1.0" encoding="UTF-8" standalone="no"?>
<svg
   width="16"
   height="16"
   fill="currentColor"
   class="bi bi-chat-quote"
   viewBox="0 0 16 16"
   version="1.1"
   id="svg6"
   sodipodi:docname="comment.svg"
   inkscape:version="1.1.1 (3bf5ae0d25, 2021-09-20)"
   xmlns:inkscape="http://www.inkscape.org/namespaces/inkscape"
   xmlns:sodipodi="http://sodipodi.sourceforge.net/DTD/sodipodi-0.dtd"
   xmlns="http://www.w3.org/2000/svg"
   xmlns:svg="http://www.w3.org/2000/svg">
  <defs
     id="defs10" />
  <sodipodi:namedview
     id="namedview8"
     pagecolor="#ffffff"
     bordercolor="#666666"
     borderopacity="1.0"
     inkscape:pageshadow="2"
     inkscape:pageopacity="0.0"
     inkscape:pagecheckerboard="0"
     showgrid="false"
     inkscape:zoom="50.75"
     inkscape:cx="8"
     inkscape:cy="8.0098522"
     inkscape:window-width="1920"
     inkscape:window-height="1001"
     inkscape:window-x="-9"
     inkscape:window-y="-9"
     inkscape:window-maximized="1"
     inkscape:current-layer="svg6" />
  <path
     d="M2.678 11.894a1 1 0 0 1 .287.801 10.97 10.97 0 0 1-.398 2c1.395-.323 2.247-.697 2.634-.893a1 1 0 0 1 .71-.074A8.06 8.06 0 0 0 8 14c3.996 0 7-2.807 7-6 0-3.192-3.004-6-7-6S1 4.808 1 8c0 1.468.617 2.83 1.678 3.894zm-.493 3.905a21.682 21.682 0 0 1-.713.129c-.2.032-.352-.176-.273-.362a9.68 9.68 0 0 0 .244-.637l.003-.01c.248-.72.45-1.548.524-2.319C.743 11.37 0 9.76 0 8c0-3.866 3.582-7 8-7s8 3.134 8 7-3.582 7-8 7a9.06 9.06 0 0 1-2.347-.306c-.52.263-1.639.742-3.468 1.105z"
     id="path2" />
  <circle
     style="fill:#000000;stroke:none;stroke-width:4.11456;paint-order:markers stroke fill"
     id="path939"
     cx="5.3596058"
     cy="8.0689659"
     r="0.84729064" />
  <circle
     style="fill:#000000;stroke:none;stroke-width:4.11456;paint-order:markers stroke fill"
     id="path939-4"
     cx="8.0985212"
     cy="8.0689659"
     r="0.84729064" />
  <circle
     style="fill:#000000;stroke:none;stroke-width:4.11456;paint-order:markers stroke fill"
     id="path939-4-0"
     cx="10.857142"
     cy="8.0689659"
     r="0.84729064" />
</svg>
