<?xml version="1.0" encoding="UTF-8" standalone="no"?>
<svg
   version="1.1"
   x="0px"
   y="0px"
   viewBox="0 0 31.069929 29.1"
   xml:space="preserve"
   id="svg10"
   sodipodi:docname="filters.svg"
   width="31.069929"
   height="29.1"
   inkscape:version="1.1.1 (3bf5ae0d25, 2021-09-20)"
   xmlns:inkscape="http://www.inkscape.org/namespaces/inkscape"
   xmlns:sodipodi="http://sodipodi.sourceforge.net/DTD/sodipodi-0.dtd"
   xmlns="http://www.w3.org/2000/svg"
   xmlns:svg="http://www.w3.org/2000/svg"><defs
     id="defs14" /><sodipodi:namedview
     id="namedview12"
     pagecolor="#ffffff"
     bordercolor="#666666"
     borderopacity="1.0"
     inkscape:pageshadow="2"
     inkscape:pageopacity="0.0"
     inkscape:pagecheckerboard="0"
     showgrid="false"
     inkscape:zoom="8.6666667"
     inkscape:cx="11.365385"
     inkscape:cy="22.211538"
     inkscape:window-width="1366"
     inkscape:window-height="705"
     inkscape:window-x="-8"
     inkscape:window-y="-8"
     inkscape:window-maximized="1"
     inkscape:current-layer="svg10" /><style
     type="text/css"
     id="style2">
	.st0{fill:none;stroke:#000000;stroke-width:2;stroke-linecap:round;stroke-miterlimit:10;}
	.st1{fill:none;stroke:#000000;stroke-width:2;stroke-linecap:round;stroke-linejoin:round;stroke-miterlimit:10;}
	.st2{fill:none;stroke:#000000;stroke-width:2;stroke-miterlimit:10;}
</style><path
     d="m 6.70666,5.9 c -0.4,-0.3 -0.9,-0.6 -1.5,-0.7 V 1 c 0,-0.6 -0.4,-1 -1,-1 -0.6,0 -1,0.4 -1,1 v 4.2 c -0.9,0.2 -1.8,0.8 -2.39999999,1.6 -1.4,1.9 -0.9,4.5 0.89999999,5.8 0.4,0.3 0.9,0.5 1.5,0.7 V 28 c 0,0.6 0.4,1 1,1 0.6,0 1,-0.4 1,-1 V 13.3 c 0.9,-0.2 1.8,-0.8 2.4,-1.6 1.4,-1.8 1,-4.5 -0.9,-5.8 z m -0.7,4.6 c -0.3,0.5 -0.8,0.8 -1.4,0.9 -0.6,0.1 -1.1,0 -1.6,-0.4 -1,-0.7 -1.2,-2.1 -0.5,-3 0.3,-0.5 0.8,-0.8 1.4,-0.9 h 0.3 c 0.5,0 0.9,0.1 1.3,0.4 1,0.7 1.2,2.1 0.5,3 z m 12.1,4.2 c -0.4,-0.3 -0.9,-0.6 -1.5,-0.7 V 1 c 0,-0.6 -0.4,-1 -1,-1 -0.6,0 -1,0.4 -1,1 v 13 c -0.9,0.2 -1.8,0.8 -2.4,1.6 -1.4,1.9 -0.9,4.5 0.9,5.8 0.4,0.3 0.9,0.5 1.5,0.7 V 28 c 0,0.6 0.4,1 1,1 0.6,0 1,-0.4 1,-1 v -5.9 c 0.9,-0.2 1.8,-0.8 2.4,-1.6 1.3,-1.8 0.9,-4.4 -0.9,-5.8 z m -0.8,4.6 c -0.3,0.5 -0.8,0.8 -1.4,0.9 -0.6,0.1 -1.1,0 -1.6,-0.4 -1,-0.7 -1.2,-2.1 -0.5,-3 0.3,-0.5 0.8,-0.8 1.4,-0.9 h 0.3 v 0 0 c 0,0 0.9,0.1 1.3,0.4 1,0.7 1.2,2.1 0.5,3 z m 12.1,-9.5 c -0.4,-0.3 -0.9,-0.6 -1.5,-0.7 V 1 c 0,-0.6 -0.4,-1 -1,-1 -0.6,0 -1,0.4 -1,1 v 8.1 c -0.9,0.2 -1.8,0.8 -2.4,1.6 -0.7,0.9 -0.9,2 -0.8,3.1 0.2,1.1 0.8,2.1 1.7,2.7 0.5,0.3 0.9,0.5 1.5,0.7 v 10.9 c 0,0.6 0.4,1 1,1 0.6,0 1,-0.4 1,-1 v -11 c 0.9,-0.2 1.8,-0.8 2.4,-1.6 1.3,-1.8 0.9,-4.4 -0.9,-5.7 z m -0.7,4.6 c -0.4,0.5 -0.9,0.8 -1.5,0.9 h -0.2 -0.2 c -0.4,0 -0.7,-0.2 -1,-0.4 -0.5,-0.3 -0.8,-0.8 -0.9,-1.4 -0.1,-0.6 0.1,-1.1 0.4,-1.6 0.3,-0.5 0.8,-0.8 1.4,-0.9 h 0.3 v 0 0 c 0,0 0.9,0.1 1.3,0.4 0.9,0.7 1.1,2 0.4,3 z"
     id="path4"
     sodipodi:nodetypes="ccsssccccsssccccscccsccccsssccccsssccccscccccsccccssscccccsssccccccscsscccscc"
     style="fill:#cccccc;fill-opacity:1.0" /></svg>
