<?xml version="1.0" encoding="UTF-8" standalone="no"?>
<svg
   width="2.22mm"
   height="1.33mm"
   fill-rule="evenodd"
   stroke-linejoin="round"
   stroke-width="28.2"
   preserveAspectRatio="xMidYMid"
   version="1.2"
   viewBox="265 251 222 133"
   id="svg22"
   sodipodi:docname="follow.svg"
   inkscape:version="1.1.1 (3bf5ae0d25, 2021-09-20)"
   xmlns:inkscape="http://www.inkscape.org/namespaces/inkscape"
   xmlns:sodipodi="http://sodipodi.sourceforge.net/DTD/sodipodi-0.dtd"
   xmlns="http://www.w3.org/2000/svg"
   xmlns:svg="http://www.w3.org/2000/svg">
  <sodipodi:namedview
     id="namedview24"
     pagecolor="#ffffff"
     bordercolor="#666666"
     borderopacity="1.0"
     inkscape:pageshadow="2"
     inkscape:pageopacity="0.0"
     inkscape:pagecheckerboard="0"
     inkscape:document-units="mm"
     showgrid="false"
     inkscape:zoom="80.14968"
     inkscape:cx="5.1029524"
     inkscape:cy="3.2626456"
     inkscape:window-width="1920"
     inkscape:window-height="1001"
     inkscape:window-x="-9"
     inkscape:window-y="-9"
     inkscape:window-maximized="1"
     inkscape:current-layer="g20" />
  <defs
     class="EmbeddedBulletChars"
     id="defs2" />
  <g
     class="Page"
     id="g20">
    <rect
       class="BoundingBox"
       x="300.996"
       y="234.1064"
       width="199.20845"
       height="78.820419"
       fill="none"
       id="rect4"
       style="stroke-width:24.3324" />
    <g
       id="g1358"
       transform="matrix(1.0769843,0,0,1.0769843,-24.902965,-18.090832)">
      <path
         d="m 333.53915,336.74722 h 85.6499 c 5.82652,0 9.90509,-3.99875 9.90509,-8.49734 0,-4.99842 -4.07857,-8.49733 -9.90509,-8.49733 h -85.6499 c -6.99183,0 -12.23571,-4.99842 -12.23571,-10.49669 v -10.4967 c 0,-4.99844 -4.66122,-8.49733 -9.90508,-8.49733 -5.82653,0 -9.90509,3.49889 -9.90509,8.49733 v 10.4967 c 0,15.49513 13.98365,27.49136 32.04588,27.49136 z"
         id="path6"
         style="stroke-width:15.2184" />
      <g
         class="com.sun.star.drawing.ClosedBezierShape"
         id="g18"
         transform="matrix(0.51252699,0,0,0.58741806,193.39783,135.06196)">
        <rect
           class="BoundingBox"
           x="413"
           y="272"
           width="74"
           height="112"
           fill="none"
           id="rect12" />
        <path
           d="m 432,383 c 3,0 7,-2 11,-5 l 37,-38 c 3,-3 5,-8 5,-12 0,-5 -2,-9 -5,-12 l -37,-38 c -7,-7 -18,-7 -24,0 -7,7 -6,18 0,25 l 25,25 -25,25 c -6,7 -6,18 0,25 4,3 8,5 13,5 z"
           id="path14" />
      </g>
    </g>
  </g>
</svg>
