<?xml version="1.0" encoding="UTF-8" standalone="no"?>
<svg
   width="2.22mm"
   height="1.33mm"
   fill-rule="evenodd"
   stroke-linejoin="round"
   stroke-width="28.2"
   preserveAspectRatio="xMidYMid"
   version="1.2"
   viewBox="265 251 222 133"
   id="svg22"
   sodipodi:docname="follow.svg"
   inkscape:version="1.1.1 (3bf5ae0d25, 2021-09-20)"
   xmlns:inkscape="http://www.inkscape.org/namespaces/inkscape"
   xmlns:sodipodi="http://sodipodi.sourceforge.net/DTD/sodipodi-0.dtd"
   xmlns="http://www.w3.org/2000/svg"
   xmlns:svg="http://www.w3.org/2000/svg">
  <sodipodi:namedview
     id="namedview24"
     pagecolor="#ffffff"
     bordercolor="#666666"
     borderopacity="1.0"
     inkscape:pageshadow="2"
     inkscape:pageopacity="0.0"
     inkscape:pagecheckerboard="0"
     inkscape:document-units="mm"
     showgrid="false"
     inkscape:zoom="80.14968"
     inkscape:cx="5.1029524"
     inkscape:cy="3.2626456"
     inkscape:window-width="1920"
     inkscape:window-height="1001"
     inkscape:window-x="-9"
     inkscape:window-y="-9"
     inkscape:window-maximized="1"
     inkscape:current-layer="g1358" />
  <defs
     class="EmbeddedBulletChars"
     id="defs2" />
  <g
     class="Page"
     id="g20">
    <rect
       class="BoundingBox"
       x="300.996"
       y="234.1064"
       width="199.20845"
       height="78.820419"
       fill="none"
       id="rect4"
       style="stroke-width:24.3324" />
    <g
       id="g1358"
       transform="matrix(1.0769843,0,0,1.0769843,-24.902965,-18.090832)">
      <path
         d="m 333.53915,336.74722 h 85.6499 c 5.82652,0 9.90509,-3.99875 9.90509,-8.49734 0,-4.99842 -4.07857,-8.49733 -9.90509,-8.49733 h -85.6499 c -6.99183,0 -12.23571,-4.99842 -12.23571,-10.49669 v -10.4967 c 0,-4.99844 -4.66122,-8.49733 -9.90508,-8.49733 -5.82653,0 -9.90509,3.49889 -9.90509,8.49733 v 10.4967 c 0,15.49513 13.98365,27.49136 32.04588,27.49136 z"
         id="path6"
         style="stroke-width:15.2184;fill:#62ae53;fill-opacity:1.0" />
      <rect
         class="BoundingBox"
         x="405.07147"
         y="294.83966"
         width="37.926998"
         height="65.790825"
         fill="none"
         id="rect12"
         style="stroke-width:15.4732" />
      <path
         d="m 414.80949,360.04308 c 1.53758,0 3.58769,-1.17484 5.6378,-2.93709 l 18.9635,-22.32189 c 1.53758,-1.76225 2.56263,-4.69934 2.56263,-7.04902 0,-2.93709 -1.02505,-5.28676 -2.56263,-7.04901 l -18.9635,-22.32189 c -3.58769,-4.11193 -9.22549,-4.11193 -12.30065,0 -3.58769,4.11193 -3.07516,10.57353 0,14.68545 l 12.81317,14.68545 -12.81317,14.68546 c -3.07516,4.11192 -3.07516,10.57352 0,14.68545 2.05011,1.76225 4.10021,2.93709 6.66285,2.93709 z"
         id="path14"
         style="stroke-width:15.4732;fill:#62ae53;fill-opacity:1.0" />
    </g>
  </g>
</svg>
