<?xml version="1.0" encoding="UTF-8"?>
<svg width="64" height="64" fill="none" version="1.1" viewBox="0 0 64 64" xmlns="http://www.w3.org/2000/svg">
 <g fill="#000">
  <path d="m32 6c-14.359 0-26 11.641-26 26s11.641 26 26 26 26-11.641 26-26c0-1.1046 0.8954-2 2-2s2 0.8954 2 2c0 16.568-13.432 30-30 30s-30-13.432-30-30 13.432-30 30-30c1.1046 0 2 0.89543 2 2s-0.8954 2-2 2z"/>
  <path d="m32 20c-6.6274 0-12 5.3726-12 12s5.3726 12 12 12 12-5.3726 12-12c0-1.1046 0.8954-2 2-2s2 0.8954 2 2c0 8.8366-7.1634 16-16 16s-16-7.1634-16-16 7.1634-16 16-16c1.1046 0 2 0.8954 2 2s-0.8954 2-2 2z"/>
  <path d="m42.033 11.512 0.3153 7.2528-10.763 10.763c-0.7811 0.781-0.7811 2.0473 0 2.8284 0.781 0.781 2.0473 0.781 2.8284 0l10.763-10.763 7.2528 0.3154c0.5601 0.0243 1.1047-0.1875 1.5011-0.5839l7.4246-7.4247c0.5608-0.5608 0.7373-1.4 0.4497-2.1392-0.2875-0.7392-0.9847-1.2386-1.777-1.2731l-6.3002-0.2739-0.2739-6.3001c-0.0344-0.79238-0.5339-1.4895-1.273-1.7771-0.7392-0.28753-1.5785-0.1111-2.1393 0.44973l-7.4246 7.4247c-0.3964 0.3964-0.6083 0.941-0.5839 1.501zm4.2701 6.1264-0.2357-5.4211 3.5877-3.5877 0.156 3.5895c0.0451 1.0364 0.875 1.8662 1.9113 1.9113l3.5895 0.1561-3.5876 3.5876z" clip-rule="evenodd" fill-rule="evenodd"/>
 </g>
</svg>
