<?xml version="1.0" encoding="UTF-8" standalone="no"?>
<svg
   version="1.1"
   x="0px"
   y="0px"
   viewBox="0 0 90.339394 90"
   enable-background="new 0 0 100 100"
   xml:space="preserve"
   id="svg10"
   sodipodi:docname="noun-handshake-796422.svg"
   width="90.339394"
   height="90"
   inkscape:version="1.1.1 (3bf5ae0d25, 2021-09-20)"
   xmlns:inkscape="http://www.inkscape.org/namespaces/inkscape"
   xmlns:sodipodi="http://sodipodi.sourceforge.net/DTD/sodipodi-0.dtd"
   xmlns="http://www.w3.org/2000/svg"
   xmlns:svg="http://www.w3.org/2000/svg"><defs
     id="defs14" /><sodipodi:namedview
     id="namedview12"
     pagecolor="#ffffff"
     bordercolor="#666666"
     borderopacity="1.0"
     inkscape:pageshadow="2"
     inkscape:pageopacity="0.0"
     inkscape:pagecheckerboard="0"
     showgrid="false"
     inkscape:zoom="6.496"
     inkscape:cx="43.719212"
     inkscape:cy="39.94766"
     inkscape:window-width="1920"
     inkscape:window-height="1001"
     inkscape:window-x="-9"
     inkscape:window-y="-9"
     inkscape:window-maximized="1"
     inkscape:current-layer="svg10" /><g
     id="g4"
     transform="translate(-4.6520062,-4.65985)"><path
       d="m 94.286,44.794 -0.809,-0.13 c -0.322,-0.054 -0.627,0.084 -0.809,0.324 -4.75,0.715 -8.926,1.705 -12.071,4.671 -0.97,0.915 -1.771,1.973 -2.545,2.996 -0.911,1.202 -1.777,2.335 -2.869,3.223 -0.378,-0.47 -0.816,-0.94 -1.363,-1.421 -2.278,-2.004 -4.993,-3.374 -7.618,-4.7 -1.668,-0.843 -3.394,-1.715 -4.961,-2.731 -2.149,-1.391 -4.106,-3.12 -5.926,-4.772 -1.398,-1.269 -3.313,-3.007 -5.696,-3.094 -2.103,-0.109 -3.907,1.113 -5.693,2.448 l -4.667,3.489 c -0.772,0.577 -1.571,1.174 -2.443,1.454 -0.658,0.209 -1.578,0.257 -2.189,-0.243 -0.97,-0.792 -0.704,-2.519 -0.599,-3.029 0.511,-2.483 2.109,-4.878 4.5,-6.744 1.925,-1.504 4.285,-2.677 7.651,-3.805 1.517,-0.509 3.521,-1.114 5.572,-1.284 3.48,-0.289 7.021,0.664 10.447,1.583 l 1.132,0.302 c 0.778,0.205 1.747,0.471 2.757,0.396 2.041,-0.13 3.65,-1.481 5.069,-2.672 l 0.185,-0.154 c 2.902,-2.431 6.082,-4.539 9.452,-6.266 0.417,-0.214 0.581,-0.725 0.369,-1.141 -0.213,-0.416 -0.723,-0.583 -1.141,-0.367 -3.483,1.784 -6.77,3.963 -9.768,6.475 l -0.186,0.157 c -1.279,1.074 -2.602,2.184 -4.088,2.28 -0.677,0.039 -1.376,-0.122 -2.217,-0.345 l -1.125,-0.3 c -3.566,-0.957 -7.255,-1.942 -11.025,-1.634 -2.233,0.184 -4.364,0.826 -5.971,1.366 -2.38,0.798 -4.288,1.628 -5.918,2.576 -1.776,-0.25 -3.579,-0.545 -5.366,-0.881 C 33.481,32.657 32.699,32.494 32,32.176 31.245,31.83 30.55,31.275 29.878,30.738 L 19.983,22.846 C 19.688,22.61 19.274,22.597 18.968,22.815 18.66,23.03 18.531,23.424 18.652,23.78 l 0.321,0.948 c 0.149,0.444 0.63,0.682 1.075,0.53 0.054,-0.019 0.106,-0.042 0.154,-0.07 l 8.618,6.874 c 0.716,0.573 1.529,1.221 2.473,1.654 0.873,0.399 1.798,0.593 2.75,0.771 1.192,0.224 2.389,0.424 3.583,0.612 -0.046,0.035 -0.096,0.069 -0.141,0.104 -2.707,2.113 -4.524,4.86 -5.115,7.738 -0.416,2.021 0.018,3.728 1.187,4.683 0.967,0.788 2.378,0.991 3.778,0.543 1.142,-0.366 2.097,-1.08 2.94,-1.71 l 4.667,-3.489 c 1.534,-1.146 3.046,-2.144 4.616,-2.113 1.763,0.065 3.346,1.502 4.619,2.657 1.871,1.698 3.888,3.478 6.142,4.939 1.644,1.066 3.41,1.958 5.118,2.821 2.647,1.337 5.147,2.6 7.263,4.461 1.109,0.974 1.762,1.851 2.057,2.764 0.335,1.034 0.113,2.165 -0.542,2.748 -0.767,0.681 -1.975,0.624 -2.857,0.344 -0.133,-0.132 -0.302,-0.229 -0.503,-0.249 -0.041,-0.004 -0.077,0.01 -0.117,0.011 -0.63,-0.279 -1.239,-0.654 -1.875,-1.047 -0.254,-0.157 -0.508,-0.313 -0.765,-0.466 -1.277,-0.751 -2.637,-1.377 -3.952,-1.982 -2.313,-1.064 -4.498,-2.068 -6.251,-3.697 -0.343,-0.32 -0.878,-0.301 -1.197,0.043 -0.319,0.343 -0.3,0.878 0.043,1.197 1.952,1.815 4.364,2.925 6.697,3.997 1.277,0.587 2.596,1.194 3.799,1.901 0.246,0.146 0.49,0.297 0.735,0.448 0.58,0.359 1.178,0.719 1.814,1.024 -0.254,0.944 -0.814,1.807 -1.601,2.385 -0.972,0.714 -2.261,0.991 -3.436,0.747 -0.889,-0.185 -1.752,-0.661 -2.587,-1.122 l -7.433,-4.097 c -0.011,-0.026 -0.024,-0.053 -0.038,-0.079 -0.186,-0.34 -0.581,-0.515 -0.972,-0.46 -0.36,0.06 -0.695,0.388 -0.754,0.748 -0.026,0.161 -0.063,0.717 0.58,1.076 l 7.797,4.298 c 0.788,0.434 1.674,0.906 2.643,1.18 0.157,0.429 0.292,0.881 0.242,1.271 -0.038,0.291 -0.183,0.611 -0.445,0.978 -0.839,1.175 -2.562,2.024 -4.027,1.537 -0.146,-0.256 -0.411,-0.436 -0.727,-0.436 -0.002,0 -0.006,0 -0.008,0 -0.032,0 -0.059,0.015 -0.09,0.019 C 58.718,70.668 58.507,70.507 58.29,70.335 58.058,70.152 57.825,69.969 57.583,69.8 56.81,69.264 55.971,68.891 55.16,68.531 l -3,-1.332 c -0.065,-0.064 -0.139,-0.121 -0.22,-0.17 -0.297,-0.178 -0.652,-0.218 -0.969,-0.106 -0.328,0.116 -0.553,0.419 -0.566,0.766 -0.014,0.348 0.185,0.668 0.502,0.809 l 0.14,0.062 c 0.147,0.149 0.348,0.242 0.565,0.25 l 2.859,1.27 c 0.739,0.328 1.504,0.668 2.144,1.111 0.214,0.149 0.419,0.312 0.625,0.474 0.242,0.19 0.491,0.381 0.754,0.561 -0.305,0.486 -0.935,0.919 -1.509,1.266 -0.723,0.435 -1.541,0.928 -2.341,0.976 -0.534,0.04 -1.117,-0.126 -1.759,-0.322 -1.819,-0.553 -3.636,-1.188 -5.41,-1.893 -0.058,-0.061 -0.125,-0.116 -0.199,-0.164 -0.047,-0.03 -0.098,-0.044 -0.148,-0.066 0.682,-0.933 1.203,-1.955 1.125,-3.13 -0.076,-1.163 -0.798,-2.257 -1.837,-2.786 -0.702,-0.357 -1.45,-0.435 -2.184,-0.396 0.101,-0.168 0.2,-0.339 0.279,-0.528 0.704,-1.659 0.124,-3.694 -1.351,-4.733 -0.967,-0.682 -2.207,-0.848 -3.322,-0.542 0.387,-0.736 0.776,-1.691 0.551,-2.718 -0.138,-0.628 -0.502,-1.221 -1.053,-1.719 -1.326,-1.194 -3.423,-1.433 -4.982,-0.567 -0.937,0.52 -1.593,1.335 -2.171,2.065 -0.219,-0.794 -0.664,-1.526 -1.302,-2.052 -1.216,-0.997 -3.039,-1.184 -4.434,-0.448 -0.639,0.338 -1.138,0.821 -1.59,1.33 -2.045,-1.917 -3.941,-4.013 -5.652,-6.283 -0.3,-0.399 -0.641,-0.853 -1.136,-1.191 -0.483,-0.33 -1.026,-0.488 -1.462,-0.615 L 6.605,44.935 C 6.529,44.777 6.412,44.636 6.257,44.528 5.881,44.264 5.394,44.27 5.037,44.545 4.687,44.818 4.56,45.29 4.721,45.719 c 0.136,0.361 0.445,0.61 0.803,0.666 l 10.108,2.951 c 0.354,0.104 0.72,0.21 0.981,0.387 0.264,0.181 0.494,0.487 0.768,0.85 1.763,2.34 3.748,4.531 5.893,6.534 -0.391,0.477 -0.787,0.951 -1.161,1.443 -0.529,0.694 -1.113,1.518 -1.386,2.515 -0.415,1.515 0.018,3.228 1.102,4.364 0.148,0.154 0.34,0.242 0.536,0.259 0.544,0.273 1.141,0.541 1.787,0.683 0.268,0.059 0.529,0.079 0.788,0.089 -0.442,1.007 -0.52,2.173 -0.1,3.214 0.631,1.563 2.255,2.583 3.91,2.583 0.35,0 0.702,-0.045 1.045,-0.141 0.518,-0.144 0.973,-0.402 1.4,-0.696 0.425,1.352 1.267,2.562 2.427,3.405 0.588,0.428 1.14,0.639 1.678,0.639 0.095,0 0.19,-0.007 0.284,-0.02 0.732,-0.1 1.259,-0.575 1.637,-0.978 0.167,-0.177 0.317,-0.365 0.469,-0.552 0.008,0.297 0.046,0.601 0.13,0.907 0.313,1.144 1.364,2.205 2.654,2.205 0.127,0 0.256,-0.01 0.386,-0.032 0.517,-0.082 0.957,-0.331 1.319,-0.564 1.304,-0.843 2.367,-1.926 3.318,-3.026 0.072,0.066 0.14,0.139 0.233,0.177 0.022,0.009 0.044,0.018 0.066,0.026 0.106,0.116 0.246,0.204 0.409,0.246 0.089,0.023 0.178,0.032 0.268,0.026 1.776,0.702 3.594,1.336 5.413,1.889 0.693,0.211 1.377,0.399 2.106,0.399 0.083,0 0.166,-0.002 0.248,-0.007 1.216,-0.075 2.267,-0.708 3.114,-1.217 0.55,-0.332 1.628,-0.992 2.176,-2.007 0.36,0.09 0.724,0.146 1.087,0.146 1.8,0 3.563,-1.037 4.538,-2.404 0.428,-0.599 0.672,-1.171 0.747,-1.749 0.056,-0.444 0.007,-0.868 -0.085,-1.265 1.203,-0.045 2.396,-0.433 3.365,-1.144 1.059,-0.778 1.838,-1.924 2.209,-3.185 0.394,0.085 0.786,0.143 1.167,0.143 1.075,0 2.063,-0.333 2.777,-0.97 1.159,-1.033 1.571,-2.855 1.027,-4.535 -0.072,-0.223 -0.174,-0.44 -0.275,-0.657 0.014,-0.01 0.031,-0.013 0.044,-0.024 1.309,-1.032 2.302,-2.344 3.263,-3.612 0.767,-1.013 1.492,-1.968 2.358,-2.786 3.079,-2.905 7.486,-3.722 12.509,-4.422 0.416,-0.058 0.726,-0.412 0.73,-0.831 0.013,-0.422 -0.29,-0.781 -0.705,-0.847 z m -69.76,19.919 c -0.552,-0.121 -1.107,-0.394 -1.646,-0.672 -0.537,-0.701 -0.743,-1.684 -0.51,-2.532 0.192,-0.704 0.669,-1.368 1.099,-1.935 0.538,-0.708 1.108,-1.396 1.718,-2.133 0.473,-0.57 0.963,-1.161 1.56,-1.476 0.793,-0.419 1.872,-0.311 2.566,0.259 0.694,0.57 1.011,1.609 0.752,2.468 -0.157,0.524 -0.513,1.033 -0.856,1.524 l -2.341,3.349 c -0.268,0.383 -0.546,0.779 -0.878,0.989 -0.361,0.226 -0.893,0.286 -1.464,0.159 z m 4.824,5.766 c -1.127,0.311 -2.492,-0.362 -2.929,-1.443 -0.437,-1.081 0.081,-2.517 1.108,-3.071 0.356,-0.193 0.502,-0.601 0.396,-0.975 0.119,-0.157 0.232,-0.311 0.332,-0.455 l 2.341,-3.348 c 0.187,-0.268 0.385,-0.554 0.568,-0.86 0.027,-0.026 0.06,-0.041 0.083,-0.071 l 1.734,-2.193 c 0.512,-0.647 1.04,-1.314 1.7,-1.68 0.936,-0.517 2.234,-0.367 3.024,0.344 0.282,0.255 0.472,0.548 0.533,0.823 0.127,0.585 -0.227,1.281 -0.634,2.003 -1.758,3.117 -3.575,6.34 -5.907,9.094 -0.049,0.057 -0.101,0.111 -0.15,0.168 -0.126,0.03 -0.246,0.087 -0.349,0.173 -0.146,0.122 -0.225,0.293 -0.266,0.474 -0.478,0.464 -0.996,0.853 -1.584,1.017 z m 6.647,2.823 c -0.1,0.106 -0.403,0.428 -0.636,0.459 -0.125,0.019 -0.342,-0.025 -0.734,-0.31 -0.799,-0.58 -1.411,-1.422 -1.749,-2.357 0.306,-0.179 0.478,-0.537 0.403,-0.904 -0.04,-0.193 -0.12,-0.371 -0.22,-0.537 1.948,-2.317 3.524,-4.896 5,-7.473 0.284,0.096 0.606,0.05 0.84,-0.167 0.729,-0.671 1.979,-0.751 2.789,-0.181 0.809,0.569 1.152,1.775 0.766,2.687 -0.255,0.602 -0.779,1.11 -1.334,1.646 -0.221,0.213 -0.441,0.427 -0.648,0.648 -0.969,1.028 -1.673,2.232 -2.353,3.396 -0.662,1.133 -1.288,2.203 -2.124,3.093 z m 5.271,1.7 c -0.223,0.145 -0.459,0.282 -0.67,0.316 -0.467,0.087 -0.994,-0.436 -1.134,-0.948 -0.142,-0.517 -0.079,-1.133 0.2,-1.92 L 40.02,72.3 c 0.431,-0.182 0.633,-0.68 0.45,-1.11 -0.12,-0.284 -0.382,-0.455 -0.667,-0.496 0.584,-0.993 1.161,-1.93 1.906,-2.721 0.135,-0.144 0.279,-0.283 0.423,-0.422 0.129,0.039 0.264,0.058 0.404,0.031 0.929,-0.184 1.897,-0.337 2.617,0.032 0.509,0.258 0.877,0.815 0.915,1.386 0.054,0.836 -0.477,1.661 -1.29,2.643 -1.008,1.219 -2.131,2.47 -3.51,3.359 z"
       id="path2" /></g></svg>
