<?xml version="1.0" encoding="UTF-8"?>
<svg class="bi bi-image" width="16" height="16" version="1.1" viewBox="0 0 16 16" xmlns="http://www.w3.org/2000/svg">
 <path d="m6.002 5.5a1.5 1.5 0 1 1-3 0 1.5 1.5 0 0 1 3 0z" fill="#ffc737"/>
 <path d="m2.002 1c-1.1046 0-2 0.89543-2 2v10c0 1.1046 0.89543 2 2 2h12c1.1046 0 2-0.89543 2-2v-10c0-1.1046-0.89543-2-2-2zm12 1c0.55228 0 1 0.44772 1 1v6.5l-3.777-1.947c-0.19232-0.096337-0.42469-0.058883-0.577 0.093l-3.71 3.71-2.66-1.772c-0.19801-0.13183-0.46149-0.1059-0.63 0.062l-2.646 2.354v-9c0-0.55228 0.44772-1 1-1z"/>
 <path d="m1.6522 1.8409c-0.34579 0.13196-0.6457 0.38817-0.77838 0.73999-0.11694 0.2581-0.030444 0.55718-0.057748 0.83244-0.004506 2.8191-0.009012 5.6383-0.013517 8.4574 0.026647 0.25792 0.3673 0.24298 0.51275 0.09239 0.88673-0.71577 1.6943-1.5258 2.5887-2.2322 0.14526-0.092228 0.28733 0.085011 0.41548 0.1358 0.84874 0.53024 1.6573 1.1253 2.5218 1.6297 0.23271 0.07051 0.36818-0.19562 0.52913-0.31219 1.1242-1.0709 2.1951-2.2076 3.3204-3.2668 0.10841-0.073716 0.2094-0.22226 0.34925-0.22075 1.2657 0.6211 2.4993 1.3088 3.7791 1.9012 0.17993 0.083721 0.42536-0.046359 0.37362-0.26299-0.0092-2.2149-0.0012-4.4318-0.02113-6.6453-0.13066-0.41685-0.48798-0.77668-0.91803-0.86914h-12.513c-0.029445 0.00686-0.058889 0.013715-0.088334 0.020573zm2.8828 2.3708c0.75616 8.289e-4 1.3944 0.77546 1.2346 1.5184-0.11848 0.7146-0.91572 1.2409-1.616 1.0072-0.66359-0.1657-1.0935-0.92689-0.89528-1.5817 0.14865-0.55783 0.70267-0.95786 1.2767-0.94386z" fill="#2aa2ff" fill-opacity=".4809" style="paint-order:markers stroke fill"/>
</svg>
