<?xml version="1.0" encoding="UTF-8"?>
<svg width="37.87" height="20" version="1.1" viewBox="0 0 37.87 20" xmlns="http://www.w3.org/2000/svg">
 <g transform="matrix(-.70711 .70711 .70711 .70711 17.071 -23.941)" data-name="Security, Key">
  <path d="m16 39h-6c-0.55228 0-1-0.44772-1-1v-5c-0.00154-0.2658 0.10281-0.52128 0.29-0.71l10.21-10.2c-0.33355-0.99597-0.50243-2.0397-0.5-3.09 4.39e-4 -9.4835 11.966-13.638 17.845-6.1996 5.8789 7.4385-0.92786 18.12-10.155 15.93l-1 1c-0.18694 0.17503-0.43391 0.27167-0.69 0.27h-2v2c0 0.55228-0.44772 1-1 1h-2v2c0 0.55228-0.44772 1-1 1h-2v2c0 0.55228-0.44772 1-1 1zm-5-2h4v-2c0-0.55228 0.44772-1 1-1h2v-2c0-0.55228 0.44772-1 1-1h2v-2c0-0.55228 0.44772-1 1-1h2.59l1.09-1.1c0.2614-0.26194 0.64609-0.35812 1-0.25 7.3806 2.2365 13.339-6.2346 8.7424-12.425-4.5961-6.1901-14.428-2.9372-14.422 4.7748-0.0025 0.946 0.16695 1.8846 0.5 2.77 0 0 0 0.09 0.06 0.16 0.12943 0.3862 0.05412 0.81169-0.2 1.13l-10.36 10.35z"/>
  <circle transform="matrix(-.70711 .70711 .70711 .70711 0 0)" cx="-9.4554" cy="33.98" r="1.7308" fill="#fff" stroke="#000" stroke-width="1.2"/>
 </g>
</svg>
