<svg width="16mm" height="16mm" version="1.1" viewBox="0 0 16 16" xmlns="http://www.w3.org/2000/svg">
 <g transform="translate(-91.3 -155)">
  <g fill-rule="evenodd">
   <path d="m107 157-2.23-2.23h-1.49l-2.23 2.23v1.49l2.23 2.23h1.49l2.23-2.23z" fill="#575f64"/>
   <path d="m105 161 2.23-2.23v-1.49l-1.11-1.11-3.72 3.72 1.11 1.11z" fill="#474f54"/>
   <path d="m96.7 168-2.23-2.23h-1.48l-1.58 5.29 5.29-1.58z" fill="#fff7cc"/>
   <path d="m103 159-1.85-1.86-8.53 8.54 1.85 1.85 1.86 1.85 8.53-8.52z" fill="#ffda2d"/>
   <path d="m103 159 1.85 1.86-8.53 8.52-1.86-1.85z" fill="#fdbf00"/>
   <path d="m91.3 171 0.671-2 1.33 1.33z" fill="#666"/>
  </g>
  <path d="m91.3 171 0.671-2 1.33 1.33-2 0.671" fill="none" stroke="#000" stroke-linecap="round" stroke-linejoin="round" stroke-width=".00945px"/>
 </g>
</svg>
