<?xml version="1.0" encoding="UTF-8" standalone="no"?>
<svg
   width="50.798"
   height="50.931"
   version="1.1"
   viewBox="0 0 50.798 50.931"
   xml:space="preserve"
   id="svg6"
   sodipodi:docname="search.svg"
   inkscape:version="1.1.1 (3bf5ae0d25, 2021-09-20)"
   xmlns:inkscape="http://www.inkscape.org/namespaces/inkscape"
   xmlns:sodipodi="http://sodipodi.sourceforge.net/DTD/sodipodi-0.dtd"
   xmlns="http://www.w3.org/2000/svg"
   xmlns:svg="http://www.w3.org/2000/svg"><defs
     id="defs10" /><sodipodi:namedview
     id="namedview8"
     pagecolor="#ffffff"
     bordercolor="#666666"
     borderopacity="1.0"
     inkscape:pageshadow="2"
     inkscape:pageopacity="0.0"
     inkscape:pagecheckerboard="0"
     showgrid="false"
     inkscape:zoom="10.209892"
     inkscape:cx="25.416528"
     inkscape:cy="25.514472"
     inkscape:window-width="1366"
     inkscape:window-height="705"
     inkscape:window-x="-8"
     inkscape:window-y="-8"
     inkscape:window-maximized="1"
     inkscape:current-layer="svg6" /><g
     transform="translate(-23.902 -26.869)"
     id="g4"
     style="fill:#e6e6e6"><path
       d="m61 59.8-0.4 0.4-1.2-1.2c2.7-3.5 4.2-7.7 4.2-12.2 0-5.3-2.1-10.3-5.8-14.1-8-8-21.3-7.8-28.9 0.8-7 7.8-6.6 20.1 0.9 27.5 3.9 3.8 8.9 5.7 14 5.7 4.3 0 8.6-1.4 12.2-4.2l1.2 1.2-0.5 0.3 12.9 12.9c1.2 1.2 3.1 1.2 4.2 0 1.2-1.2 1.2-3.1 0-4.2zm-27.9-2.5c-5.8-5.8-5.8-15.3 0-21.1 2.9-2.9 6.7-4.4 10.6-4.4 3.8 0 7.6 1.5 10.6 4.4 2.8 2.8 4.4 6.6 4.4 10.6s-1.6 7.7-4.4 10.6c-5.9 5.7-15.3 5.7-21.2-0.1z"
       id="path2"
       style="fill:#e6e6e6" /></g></svg>
