<?xml version="1.0" encoding="UTF-8" standalone="no"?>
<svg
   width="35.740726mm"
   height="36.510799mm"
   version="1.1"
   viewBox="0 0 35.740726 36.510799"
   id="svg14"
   sodipodi:docname="share_light.svg"
   inkscape:version="1.1.1 (3bf5ae0d25, 2021-09-20)"
   xmlns:inkscape="http://www.inkscape.org/namespaces/inkscape"
   xmlns:sodipodi="http://sodipodi.sourceforge.net/DTD/sodipodi-0.dtd"
   xmlns="http://www.w3.org/2000/svg"
   xmlns:svg="http://www.w3.org/2000/svg">
  <defs
     id="defs18" />
  <sodipodi:namedview
     id="namedview16"
     pagecolor="#ffffff"
     bordercolor="#666666"
     borderopacity="1.0"
     inkscape:pageshadow="2"
     inkscape:pageopacity="0.0"
     inkscape:pagecheckerboard="0"
     inkscape:document-units="mm"
     showgrid="false"
     inkscape:zoom="4.2953508"
     inkscape:cx="84.509977"
     inkscape:cy="60.414157"
     inkscape:window-width="1920"
     inkscape:window-height="1001"
     inkscape:window-x="-9"
     inkscape:window-y="-9"
     inkscape:window-maximized="1"
     inkscape:current-layer="g12" />
  <g
     transform="translate(-31.029972,-149.90379)"
     id="g12">
    <path
       id="circle2"
       style="fill:#379823;fill-opacity:0.77951396;stroke-width:3.77953"
       d="M 109.41797,-0.36328125 A 23.699012,23.699012 0 0 0 86.681641,16.224609 23.699012,23.699012 0 0 0 85.914062,27.164062 L 42.294922,49.423828 A 23.697638,23.697638 0 0 0 23.810547,40.554688 23.697638,23.697638 0 0 0 0.11328125,64.251953 23.697638,23.697638 0 0 0 23.810547,87.949219 23.697638,23.697638 0 0 0 41.224609,80.322266 L 89.171875,106.03906 A 23.697638,23.697638 0 0 0 88.898438,121.05859 23.697638,23.697638 0 0 0 118.625,136.5332 23.697638,23.697638 0 0 0 134.09961,106.80664 23.697638,23.697638 0 0 0 104.37305,91.332031 23.697638,23.697638 0 0 0 95.839844,96.166016 L 46.820312,69.875 a 23.697638,23.697638 0 0 0 0.6875,-5.623047 23.697638,23.697638 0 0 0 -0.341796,-4.005859 L 90.697266,38.03125 a 23.699012,23.699012 0 0 0 11.482424,7.910156 23.699012,23.699012 0 0 0 29.71679,-15.498047 23.699012,23.699012 0 0 0 -15.49804,-29.7167965 23.699012,23.699012 0 0 0 -6.98047,-1.08984375 z"
       transform="matrix(0.26458333,0,0,0.26458333,31,150)" />
  </g>
</svg>
