<?xml version="1.0" encoding="UTF-8"?>
<svg width="92.127" height="95" version="1.1" viewBox="0 0 92.127 95" xml:space="preserve" xmlns="http://www.w3.org/2000/svg"><g transform="translate(-3.9365 -2.5)"><path d="m32.579 79.198c-1.3809 0-2.5-1.1191-2.5-2.5 0-15.543-10.606-28.188-23.643-28.188-1.3809 0-2.5-1.1191-2.5-2.5 0-1.3809 1.1191-2.5 2.5-2.5 13.036 0 23.643-12.646 23.643-28.188 0-1.3809 1.1191-2.5 2.5-2.5 1.3809 0 2.5 1.1191 2.5 2.5 0 15.543 10.605 28.188 23.642 28.188 1.3809 0 2.5 1.1191 2.5 2.5 0 1.3809-1.1191 2.5-2.5 2.5-13.036 0-23.642 12.646-23.642 28.188 0 1.3809-1.1191 2.5-2.5 2.5zm-15.235-33.188c6.7686 3.2422 12.24 9.4082 15.235 17.13 2.9951-7.7217 8.4668-13.888 15.235-17.13-6.7686-3.2422-12.24-9.4082-15.235-17.13-2.9951 7.7217-8.4668 13.888-15.235 17.13z"/><path d="m77.15 97.5c-1.3809 0-2.5-1.1191-2.5-2.5 0-9.2451-6.2412-16.767-13.912-16.767-1.3809 0-2.5-1.1191-2.5-2.5 0-1.3809 1.1191-2.5 2.5-2.5 7.6709 0 13.912-7.5215 13.912-16.767 0-1.3809 1.1191-2.5 2.5-2.5 1.3809 0 2.5 1.1191 2.5 2.5 0 9.2451 6.2412 16.767 13.913 16.767 1.3809 0 2.5 1.1191 2.5 2.5 0 1.3809-1.1191 2.5-2.5 2.5-7.6719 0-13.913 7.5215-13.913 16.767 0 1.3809-1.1191 2.5-2.5 2.5zm-7.6172-21.767c3.1816 1.9316 5.8291 4.877 7.6172 8.459 1.7881-3.582 4.4365-6.5273 7.6182-8.459-3.1816-1.9316-5.8301-4.877-7.6182-8.459-1.7881 3.582-4.4355 6.5273-7.6172 8.459z"/><path d="m65.171 32.021c-1.3809 0-2.5-1.1191-2.5-2.5 0-5.3818-3.5635-9.7607-7.9443-9.7607-1.3809 0-2.5-1.1191-2.5-2.5 0-1.3809 1.1191-2.5 2.5-2.5 4.3809 0 7.9443-4.3789 7.9443-9.7607 0-1.3809 1.1191-2.5 2.5-2.5 1.3809 0 2.5 1.1191 2.5 2.5 0 5.3818 3.5635 9.7607 7.9443 9.7607 1.3809 0 2.5 1.1191 2.5 2.5 0 1.3809-1.1191 2.5-2.5 2.5-4.3809 0-7.9443 4.3789-7.9443 9.7607 0 1.3809-1.1191 2.5-2.5 2.5zm-3.2441-14.761c1.2539 0.95996 2.3525 2.1631 3.2441 3.5498 0.89159-1.3867 1.9902-2.5898 3.2441-3.5498-1.2539-0.95996-2.3526-2.1631-3.2441-3.5498-0.8916 1.3867-1.9902 2.5898-3.2441 3.5498z"/></g></svg>
