<?xml version="1.0" encoding="UTF-8" standalone="no"?>
<svg
   version="1.1"
   viewBox="-5 -10 84.762199 84.762199"
   id="svg8"
   sodipodi:docname="noun-verify-7101248.svg"
   width="84.762199"
   height="84.762199"
   inkscape:version="1.1.1 (3bf5ae0d25, 2021-09-20)"
   xmlns:inkscape="http://www.inkscape.org/namespaces/inkscape"
   xmlns:sodipodi="http://sodipodi.sourceforge.net/DTD/sodipodi-0.dtd"
   xmlns="http://www.w3.org/2000/svg"
   xmlns:svg="http://www.w3.org/2000/svg">
  <defs
     id="defs12" />
  <sodipodi:namedview
     id="namedview10"
     pagecolor="#ffffff"
     bordercolor="#666666"
     borderopacity="1.0"
     inkscape:pageshadow="2"
     inkscape:pageopacity="0.0"
     inkscape:pagecheckerboard="0"
     showgrid="false"
     inkscape:zoom="6.0148148"
     inkscape:cx="42.39532"
     inkscape:cy="49.793719"
     inkscape:window-width="1920"
     inkscape:window-height="1001"
     inkscape:window-x="-9"
     inkscape:window-y="-9"
     inkscape:window-maximized="1"
     inkscape:current-layer="svg8" />
  <path
     d="m 34.4361,-0.4473 c 1.625,-1.6289 4.2656,-1.6289 5.8906,0 l 4.168,4.168 c 2.3438,2.3438 5.5234,3.6602 8.8398,3.6602 h 4.8789 c 2.3008,0 4.168,1.8672 4.168,4.168 v 4.8789 c 0,3.3164 1.3164,6.4961 3.6602,8.8398 l 4.168,4.168 c 1.625,1.625 1.625,4.2656 0,5.8906 l -4.168,4.168 c -2.3438,2.3438 -3.6602,5.5234 -3.6602,8.8398 v 4.8789 c 0,2.3008 -1.8672,4.168 -4.168,4.168 h -4.8789 c -3.3164,0 -6.4961,1.3164 -8.8398,3.6602 l -4.168,4.168 c -1.625,1.625 -4.2656,1.625 -5.8906,0 l -4.168,-4.168 c -2.3438,-2.3438 -5.5234,-3.6602 -8.8398,-3.6602 h -4.8789 c -2.3008,0 -4.168,-1.8672 -4.168,-4.168 V 48.334 c 0,-3.3164 -1.3164,-6.4961 -3.6602,-8.8398 l -4.168,-4.168 c -1.625,-1.625 -1.625,-4.2656 0,-5.8906 l 4.168,-4.168 c 2.3438,-2.3438 3.6602,-5.5234 3.6602,-8.8398 v -4.8789 c 0,-2.3008 1.8672,-4.168 4.168,-4.168 h 4.8789 c 3.3164,0 6.4961,-1.3164 8.8398,-3.6602 z m 11.785,-5.8906 c -4.8828,-4.8828 -12.797,-4.8828 -17.68,0 l -4.1641,4.1641 c -0.78125,0.78125 -1.8438,1.2227 -2.9492,1.2227 h -4.8789 c -6.9062,0 -12.5,5.5938 -12.5,12.5 v 4.8789 c 0,1.1055 -0.44141,2.168 -1.2227,2.9492 l -4.1641,4.1641 c -4.8828,4.8828 -4.8828,12.797 0,17.68 l 4.1641,4.1641 c 0.78125,0.78125 1.2227,1.8438 1.2227,2.9492 v 4.8789 c 0,6.9062 5.5938,12.5 12.5,12.5 h 4.8789 c 1.1055,0 2.168,0.44141 2.9492,1.2227 l 4.1641,4.1641 c 4.8828,4.8828 12.797,4.8828 17.68,0 l 4.1641,-4.1641 c 0.78125,-0.78125 1.8438,-1.2227 2.9492,-1.2227 h 4.8789 c 6.9062,0 12.5,-5.5938 12.5,-12.5 v -4.8789 c 0,-1.1055 0.44141,-2.168 1.2227,-2.9492 l 4.1641,-4.1641 c 4.8828,-4.8828 4.8828,-12.797 0,-17.68 L 71.936,19.377 c -0.78125,-0.78125 -1.2227,-1.8438 -1.2227,-2.9492 v -4.8789 c 0,-6.9062 -5.5938,-12.5 -12.5,-12.5 h -4.8789 c -1.1055,0 -2.168,-0.44141 -2.9492,-1.2227 z m 8.6914,35.414 c 1.625,-1.625 1.625,-4.2656 0,-5.8906 -1.6289,-1.6289 -4.2656,-1.6289 -5.8945,0 l -13.719,13.719 -7.4727,-7.4688 c -1.625,-1.6289 -4.2656,-1.6289 -5.8906,0 -1.6289,1.625 -1.6289,4.2656 0,5.8906 l 7.4688,7.4727 c 3.2539,3.2539 8.5312,3.2539 11.785,0 z"
     fill-rule="evenodd"
     id="path2"
     style="fill:#37a400;fill-opacity:1" />
</svg>
