<?xml version="1.0" encoding="UTF-8"?>
<svg width="120" height="120" version="1.1" viewBox="0 0 120 120" xml:space="preserve" xmlns="http://www.w3.org/2000/svg"><path d="m108.93 48.378c-2.499-3.8142-5.7871-6.7078-9.8644-8.5491l-12.495-5.6556c-1.1837-0.5261-1.8414-1.9729-1.3153-3.2881l3.6827-9.8644c0.13152-0.26305 0.13152-0.5261 0.13152-0.78915 3.1566-1.7098 5.1295-3.9458 5.1295-6.5763 0-8.1546-17.756-11.837-34.197-11.837s-34.197 3.6827-34.197 11.837c0 2.6305 1.9729 4.8664 5.1295 6.5763 0 0.26305 0 0.5261 0.13153 0.78915l3.6827 9.8644c0.5261 1.3153-0.13152 2.762-1.3153 3.2881l-12.495 5.6556c-4.0773 1.8414-7.3654 4.7349-9.8644 8.4176v0.13153c-2.3675 3.8142-3.6827 8.023-3.6827 12.495 0 2.3675 0.13152 4.7349 0.5261 7.2339 1.9729 14.205 9.7329 27.094 21.439 35.512 2.762 1.9729 4.3403 5.1295 4.3403 8.5491 0 4.3403 3.5512 7.8915 7.8915 7.8915h36.827c4.3403 0 7.8915-3.5512 7.8915-7.8915 0-3.4197 1.5783-6.5763 4.3403-8.5491 11.706-8.4176 19.466-21.307 21.439-35.512 0.39457-2.499 0.5261-4.8664 0.5261-7.2339 0-4.4719-1.3152-8.6807-3.6827-12.495zm-77.863-34.854c0-1.9729 10.127-6.5763 28.936-6.5763 18.808 0 28.936 4.6034 28.936 6.5763 0 1.9729-10.127 6.5763-28.936 6.5763-18.808 0-28.936-4.6034-28.936-6.5763zm-8.023 31.172 12.495-5.6556c3.8142-1.7098 5.5241-6.0502 4.0773-9.9959l-2.3675-6.4447c6.4447 1.8414 14.731 2.762 22.754 2.762 8.023 0 16.309-0.92068 22.754-2.762l-2.3675 6.4447c-1.4468 3.8142 0.39458 8.2861 4.0773 9.9959l12.495 5.6556c2.2359 1.0522 4.2088 2.499 5.7871 4.2088-10.127 4.998-25.647 8.023-42.746 8.023-17.098 0-32.618-3.0251-42.746-8.023 1.7098-1.8414 3.5512-3.1566 5.7871-4.2088zm64.579 54.583c-4.0773 2.8936-6.5763 7.76-6.5763 12.889 0 1.4468-1.1837 2.6305-2.6305 2.6305h-36.827c-1.4468 0-2.6305-1.1837-2.6305-2.6305 0-5.1295-2.499-9.8644-6.5763-12.889-9.2068-6.5763-15.652-16.309-18.414-27.226 13.153 5.3925 29.199 8.4176 46.034 8.4176 16.835 0 32.75-3.0251 46.034-8.4176-2.762 11.048-9.2068 20.649-18.414 27.226zm19.466-33.276c-13.153 6.0502-29.725 9.3383-47.086 9.3383s-33.934-3.2881-47.086-9.3383c-0.13153-1.7098-0.26305-3.4197-0.26305-5.1295 0-2.6305 0.5261-5.261 1.7098-7.4969 10.785 5.5241 27.62 8.8122 45.639 8.8122 18.019 0 34.854-3.2881 45.639-8.8122 1.1837 2.2359 1.7098 4.8664 1.7098 7.4969 0 1.7098-0.13152 3.4197-0.26305 5.1295z" stroke-width="1.3152"/></svg>
