<?xml version="1.0" encoding="UTF-8" standalone="no"?>
<svg
   width="120"
   height="120"
   version="1.1"
   viewBox="0 0 120 120"
   xml:space="preserve"
   id="svg4"
   sodipodi:docname="amphora.svg"
   inkscape:version="1.1.1 (3bf5ae0d25, 2021-09-20)"
   xmlns:inkscape="http://www.inkscape.org/namespaces/inkscape"
   xmlns:sodipodi="http://sodipodi.sourceforge.net/DTD/sodipodi-0.dtd"
   xmlns="http://www.w3.org/2000/svg"
   xmlns:svg="http://www.w3.org/2000/svg"><defs
     id="defs8" /><sodipodi:namedview
     id="namedview6"
     pagecolor="#ffffff"
     bordercolor="#666666"
     borderopacity="1.0"
     inkscape:pageshadow="2"
     inkscape:pageopacity="0.0"
     inkscape:pagecheckerboard="0"
     showgrid="false"
     inkscape:zoom="4.9379624"
     inkscape:cx="49.008069"
     inkscape:cy="59.437472"
     inkscape:window-width="1920"
     inkscape:window-height="1001"
     inkscape:window-x="-9"
     inkscape:window-y="-9"
     inkscape:window-maximized="1"
     inkscape:current-layer="svg4" /><path
     style="fill:#ffccaa;fill-opacity:0.60590279;stroke-width:0.0151786;stroke-opacity:0.274306;paint-order:markers stroke fill"
     d="m 96.417673,49.81525 c -1.526441,0.478943 -2.893769,1.378693 -4.405643,1.914754 -8.168582,3.242627 -16.970809,4.598448 -25.698234,5.10933 -10.451622,0.527956 -21.0177,-0.214832 -31.148657,-2.914398 -3.640488,-0.973037 -7.178122,-2.297728 -10.542976,-3.99786 -0.674954,-0.372264 -1.134845,0.386806 -1.327302,0.924686 -0.934829,1.885303 -1.625521,3.942635 -1.536567,6.073241 -0.0089,1.985541 -0.101881,4.026815 0.23545,5.97019 9.699276,4.580619 20.385626,6.875422 31.060453,7.602776 4.639188,0.365974 9.298204,0.232888 13.942196,0.04501 10.82451,-0.734362 21.660837,-2.970518 31.527434,-7.584627 0.404256,-1.387914 0.245517,-2.919407 0.301789,-4.369044 -0.01005,-1.953534 0.06617,-3.969875 -0.713776,-5.807519 -0.425907,-0.982725 -0.735116,-2.087934 -1.44501,-2.902669 -0.07397,-0.04614 -0.162285,-0.06752 -0.249157,-0.06387 z"
     id="path863" /><path
     style="fill:#ffcc00;fill-opacity:0.56597221;stroke-width:0.0151786;stroke-opacity:0.274306;paint-order:markers stroke fill"
     d="m 98.24634,63.882167 c -1.926247,0.494765 -3.711329,1.431011 -5.607117,2.033843 -12.347489,4.462082 -25.631563,5.835234 -38.69204,5.143228 -10.268251,-0.527422 -20.455024,-2.747834 -29.980279,-6.649333 -0.604016,-0.14204 -1.237829,-0.639334 -1.867465,-0.469755 -0.210111,0.487843 0.218722,1.069957 0.261961,1.582233 0.882561,3.510364 2.02302,6.973262 3.755632,10.163952 2.777201,5.310652 6.847458,9.895409 11.66807,13.439204 2.585783,1.946799 4.252272,5.0418 4.342451,8.290786 -2.29e-4,1.258393 0.490813,2.536511 1.538309,3.286535 0.709419,0.52575 1.546072,0.91459 2.4497,0.76084 9.806013,-0.009 19.616485,0.0214 29.419719,-0.0132 1.486575,-0.54511 2.854428,-1.842575 2.869529,-3.518847 0.08897,-2.482624 0.797292,-5.001505 2.421586,-6.927806 1.681539,-1.927167 3.968347,-3.218724 5.782154,-5.021979 5.315743,-4.892786 9.117833,-11.33898 11.025343,-18.295149 0.311414,-1.212997 0.723877,-2.430081 0.909778,-3.659864 -0.04435,-0.11982 -0.182339,-0.155648 -0.297331,-0.144742 z"
     id="path1124" /><path
     style="fill:#ffff00;fill-opacity:0.53125;stroke-width:0.0151786;stroke-opacity:0.274306;paint-order:markers stroke fill"
     d="m 80.396097,25.506811 c -3.14008,0.780073 -6.262268,1.674711 -9.477054,2.089373 -6.220414,0.859948 -12.548352,0.812007 -18.787238,0.289318 -3.813842,-0.328368 -7.542213,-1.202064 -11.226268,-2.212152 -0.323869,-0.13902 -0.927864,-0.07067 -0.791935,0.414387 0.826602,2.669318 1.953098,5.251675 2.821846,7.895582 -0.02566,1.172739 0.216965,2.476644 -0.551982,3.483597 -1.074639,1.720993 -3.191398,2.156259 -4.896357,3.044489 -2.767386,1.291583 -5.618322,2.423262 -8.30255,3.883029 -1.656636,1.115035 -3.292569,2.368751 -4.476511,3.993896 -0.377505,0.512174 0.151141,1.017114 0.634114,1.155749 9.153625,4.554156 19.441465,6.157679 29.554869,6.737001 4.441828,0.06471 8.891948,0.09178 13.328721,-0.147054 9.517955,-0.81264 19.194242,-2.468696 27.737426,-6.950709 0.364335,-0.08497 0.475259,-0.472645 0.144087,-0.687521 -1.765528,-1.841229 -3.611864,-3.71234 -5.988007,-4.750272 -3.571668,-1.782277 -7.306087,-3.23595 -10.836185,-5.095828 -1.555869,-1.237987 -2.133847,-3.528717 -1.350457,-5.350284 0.812749,-2.562849 1.954993,-5.042171 2.664026,-7.639795 0.0011,-0.103749 -0.112247,-0.158825 -0.200545,-0.152806 z"
     id="path1311" /><path
     style="fill:#e3e2db;fill-opacity:0.09895834;stroke-width:0.0151786;stroke-opacity:0.274306;paint-order:markers stroke fill"
     d="m 60.016861,14.868304 c -5.799131,0.0055 -11.655011,0.638986 -17.195199,2.411334 -1.950067,0.717187 -4.150619,1.452854 -5.358254,3.265612 -0.646642,1.163254 -0.05375,2.635562 1.000762,3.337548 2.812683,1.994662 6.268133,2.774177 9.5892,3.46496 4.731852,0.893713 9.558291,1.257561 14.370841,1.093296 3.53757,0.0051 7.07546,-0.204066 10.56897,-0.778188 3.64214,-0.620222 7.39906,-1.314189 10.61937,-3.220367 1.03578,-0.696055 2.33544,-1.724609 2.11286,-3.131036 -0.41061,-1.817015 -2.31862,-2.637919 -3.84501,-3.340998 -4.83941,-1.966039 -10.08757,-2.688724 -15.26872,-3.025826 -2.19666,-0.09407 -4.39667,-0.0771 -6.59482,-0.07634 z"
     id="path2166" /><path
     id="path2"
     d="m 59.665776,14.689972 c -3.436197,0.05076 -6.872293,0.301315 -10.270666,0.818896 -0.550708,0.09137 -1.333818,0.218479 -1.969986,0.342222 -3.213154,0.655024 -6.503434,1.468183 -9.257061,3.324911 -1.136125,0.785702 -2.270298,2.083134 -1.921963,3.568234 0.470201,1.724007 2.167667,2.655023 3.619252,3.468536 0.46179,0.175177 0.106451,0.795843 0.272118,1.167164 0.967457,2.644357 2.004492,5.266872 2.930089,7.924348 0.453515,1.714106 -0.626934,3.599842 -2.296697,4.153811 -3.350811,1.538759 -6.737573,3.002652 -10.065712,4.588646 -2.309592,1.198955 -4.289199,2.991999 -5.793459,5.108909 -1.023512,1.704946 -1.932182,3.531365 -2.377319,5.491543 -0.67723,2.798251 -0.469133,5.719593 -0.120726,8.549303 1.078226,8.512333 5.07365,16.615486 11.179435,22.644814 1.618045,1.640063 3.441134,3.053401 5.279539,4.432769 2.227095,1.844431 3.426507,4.748607 3.360501,7.618287 0.109666,2.330385 2.279301,4.301535 4.608447,4.194615 9.463559,-0.009 18.927875,0.0173 28.390946,-0.0129 2.326354,-0.11962 4.285837,-2.285859 4.181691,-4.612429 2.85e-4,-3.119905 1.643166,-6.160873 4.246185,-7.879622 8.253258,-6.005566 13.94423,-15.395986 15.425713,-25.49696 0.408423,-2.691014 0.639047,-5.449795 0.265841,-8.157838 -0.793409,-5.212872 -4.244384,-9.976719 -9.052181,-12.194045 -3.372615,-1.554841 -6.781755,-3.036336 -10.140488,-4.618144 -1.536625,-0.880917 -2.122819,-2.97069 -1.346983,-4.547113 0.896053,-2.449333 1.86023,-4.8867 2.714316,-7.343424 0.0034,-0.472261 -0.125556,-1.023311 0.47436,-1.145194 1.399719,-0.779258 3.00028,-1.740081 3.403472,-3.409574 0.30119,-1.559587 -0.948446,-2.846342 -2.142896,-3.63574 -2.98878,-1.906602 -6.513873,-2.708457 -9.956846,-3.348812 -0.948982,-0.15866 -1.779138,-0.291791 -2.760585,-0.411655 -3.605795,-0.454626 -7.24514,-0.629712 -10.878337,-0.583571 z m 1.15214,0.85476 c 5.976342,0.03342 12.022368,0.518208 17.76246,2.273745 1.840302,0.62921 3.793567,1.275074 5.204522,2.674187 0.795147,0.756695 0.952267,2.074295 0.240265,2.939252 -1.136308,1.397152 -2.910096,2.037084 -4.542836,2.660898 -5.216042,1.778374 -10.757264,2.35477 -16.238428,2.541753 -6.484831,0.144561 -13.053368,-0.24395 -19.33006,-1.979342 C 41.841521,26.013468 39.667557,25.346523 38.008168,23.887694 37.180522,23.17697 36.83803,21.882961 37.4971,20.9498 c 0.984255,-1.403129 2.675839,-2.043746 4.207124,-2.664149 4.757755,-1.725901 9.836022,-2.350264 14.864508,-2.63375 1.415082,-0.0738 2.832185,-0.103118 4.249184,-0.107226 z M 43.807738,27.574253 c 4.434087,1.239439 9.03467,1.77316 13.623978,1.987486 0.393644,0.01403 0.994439,0.03912 1.417775,0.04575 1.8098,0.04791 3.617603,0.02452 5.377029,-0.04575 0.760972,-0.0389 1.721271,-0.08738 2.560038,-0.156002 4.183333,-0.30443 8.342711,-0.995534 12.366073,-2.192562 0.510394,-0.138663 1.020778,-0.277326 1.531161,-0.41599 -0.985895,2.739025 -2.04564,5.454289 -2.985713,8.20812 -0.581448,2.215855 0.772391,4.697001 2.93324,5.442221 3.275645,1.505917 6.589091,2.933251 9.840473,4.489564 1.928694,0.991463 3.549434,2.460878 5.000473,4.05286 0.326867,0.342632 0.928187,0.73428 0.144344,0.878521 -3.30942,1.682486 -6.786364,3.028284 -10.374594,3.983107 -8.748914,2.360905 -17.864586,3.137357 -26.90472,2.967084 -8.547966,-0.222345 -17.148217,-1.28688 -25.290906,-3.983368 -2.596621,-0.841881 -5.072801,-1.997547 -7.519023,-3.198476 1.594414,-1.658463 3.177202,-3.39771 5.241157,-4.483804 2.072725,-1.10089 4.265628,-1.963543 6.390754,-2.966424 1.634404,-0.776154 3.330272,-1.432673 4.925474,-2.285459 1.820897,-1.137437 2.470324,-3.634246 1.632812,-5.574075 -0.922997,-2.509903 -1.846159,-5.019739 -2.768517,-7.529871 0.952899,0.259019 1.905792,0.518037 2.858692,0.777068 z M 26.57939,51.228311 c 5.834419,2.928712 12.259449,4.460146 18.678786,5.454152 8.899813,1.318854 18.116619,1.471331 27.123696,0.514228 5.960714,-0.653872 12.026771,-1.804644 17.740238,-3.8509 2.171698,-0.760208 4.251467,-1.748989 6.297186,-2.795923 0.883506,1.651939 1.69297,3.376677 1.953106,5.251142 0.401608,2.479595 0.09787,4.994746 -0.07323,7.480707 -10.469636,4.906457 -22.033443,7.126737 -33.537911,7.578534 -11.378706,0.397419 -22.891463,-0.898176 -33.721846,-4.496455 -2.626663,-0.873263 -5.193477,-1.918166 -7.704263,-3.082079 -0.247323,-3.253868 -0.635183,-6.642589 0.507719,-9.781942 0.348933,-1.03052 0.898375,-1.97478 1.372169,-2.949907 0.454779,0.226144 0.909558,0.452288 1.364332,0.678443 z m -0.412439,14.239636 c 2.854322,1.175081 5.897734,2.178349 8.803206,2.982724 1.754903,0.476026 3.342921,0.859985 5.11611,1.236303 5.636573,1.191369 11.46781,1.859054 17.16912,2.049779 3.001693,0.100721 6.009923,0.07392 8.966445,-0.07916 5.80907,-0.297198 11.596043,-1.085843 17.260883,-2.410504 0.482904,-0.12121 1.049249,-0.248353 1.55451,-0.382066 4.275125,-1.058853 8.431195,-2.538592 12.498143,-4.219459 0.512311,-0.257547 0.944385,-0.424328 0.592822,0.295293 -0.765455,3.08135 -1.602535,6.164124 -2.960845,9.045793 -2.742835,6.048308 -7.134129,11.322447 -12.557471,15.151535 -2.700366,2.009821 -4.231458,5.379596 -4.17358,8.724195 -0.105629,1.873371 -1.894736,3.4094 -3.76068,3.26067 -9.410018,-0.008 -18.820823,0.016 -28.230343,-0.012 -1.858792,-0.10608 -3.378672,-1.863994 -3.266115,-3.714209 C 43.153735,93.876078 41.192944,90.52112 38.281033,88.586837 31.179184,83.360505 26.124994,75.530093 24.038525,66.983151 23.805063,66.099497 23.5716,65.215843 23.338143,64.332177 c 0.942934,0.378575 1.885864,0.757151 2.828808,1.135715 z"
     style="stroke:#000000;stroke-width:1.43;stroke-miterlimit:4;stroke-dasharray:none;stroke-opacity:1" /></svg>
