<?xml version="1.0" encoding="UTF-8" standalone="no"?>
<svg
   version="1.1"
   x="0px"
   y="0px"
   viewBox="0 0 120 120"
   xml:space="preserve"
   id="svg14"
   sodipodi:docname="book.svg"
   width="120"
   height="120"
   inkscape:version="1.1.1 (3bf5ae0d25, 2021-09-20)"
   xmlns:inkscape="http://www.inkscape.org/namespaces/inkscape"
   xmlns:sodipodi="http://sodipodi.sourceforge.net/DTD/sodipodi-0.dtd"
   xmlns="http://www.w3.org/2000/svg"
   xmlns:svg="http://www.w3.org/2000/svg"><defs
     id="defs18" /><sodipodi:namedview
     id="namedview16"
     pagecolor="#ffffff"
     bordercolor="#666666"
     borderopacity="1.0"
     inkscape:pageshadow="2"
     inkscape:pageopacity="0.0"
     inkscape:pagecheckerboard="0"
     showgrid="false"
     inkscape:zoom="3.352"
     inkscape:cx="36.097852"
     inkscape:cy="89.647971"
     inkscape:window-width="1920"
     inkscape:window-height="1001"
     inkscape:window-x="-9"
     inkscape:window-y="-9"
     inkscape:window-maximized="1"
     inkscape:current-layer="svg14" /><g
     id="g8"
     transform="matrix(0.92210288,0,0,0.92210288,32.145784,8.532684)"
     style="fill:#000000;fill-opacity:1"><path
       d="M 79,5 H 23 c -4.4,0 -8,3.6 -8,8 v 73 c 0,5 4,9 9,9 h 55 c 3.3,0 6,-2.7 6,-6 V 11 C 85,7.7 82.3,5 79,5 Z m -60,8 c 0,-2.2 1.8,-4 4,-4 h 6 v 68 h -5 c -1.8,0 -3.6,0.6 -5,1.5 z m 62,76 c 0,1.1 -0.9,2 -2,2 H 24 c -2.8,0 -5,-2.2 -5,-5 0,-2.8 2.2,-5 5,-5 H 81 Z M 81,77 H 33 V 9 h 46 c 1.1,0 2,0.9 2,2 z"
       id="path2"
       style="fill:#000000;fill-opacity:1" /><path
       d="M 69,23 H 45 c -1.1,0 -2,0.9 -2,2 0,1.1 0.9,2 2,2 h 24 c 1.1,0 2,-0.9 2,-2 0,-1.1 -0.9,-2 -2,-2 z"
       id="path4"
       style="fill:#000000;fill-opacity:1" /><path
       d="M 69,33 H 45 c -1.1,0 -2,0.9 -2,2 0,1.1 0.9,2 2,2 h 24 c 1.1,0 2,-0.9 2,-2 0,-1.1 -0.9,-2 -2,-2 z"
       id="path6"
       style="fill:#000000;fill-opacity:1" /></g><path
     style="fill:#ffe6d5;fill-opacity:1;stroke:#000000;stroke-width:0.301833;paint-order:markers stroke fill"
     d="m 62.451507,16.739019 c 0,20.966477 0,41.932957 0,62.899434 2.252029,0.329346 4.75719,0.04758 7.106775,0.141402 12.453244,0 24.906488,0 37.359728,0 0.32935,-2.252029 0.0476,-4.75719 0.1414,-7.106775 -0.0569,-17.916193 0.13343,-35.835328 -0.15747,-53.749549 0.15091,-1.003671 -0.40601,-2.126468 -1.54594,-2.064547 -6.915587,-0.477845 -13.864225,-0.163822 -20.792648,-0.261332 -7.323481,-8.1e-5 -14.646962,-1.1e-5 -21.970443,-3.4e-5 z M 84.628489,29.96688 c 3.886554,0 7.773107,0 11.659661,0 1.17749,0.566731 1.515051,2.31211 0.344609,3.072118 -2.680523,0.308903 -5.590917,0.06612 -8.359909,0.162707 -5.034803,-0.081 -10.103441,0.260584 -15.1181,-0.171808 -1.938279,-0.242176 -1.111056,-3.547135 0.664547,-3.063017 3.603064,0 7.206128,0 10.809192,0 z m -0.05483,9.287164 c 4.056423,0.0567 8.141564,-0.0902 12.180334,0.214372 1.205582,0.747659 0.609984,3.195065 -0.984863,2.760424 -7.646499,0.202189 -15.297126,0.08848 -22.945416,0.119553 -0.895764,-0.756653 -1.094088,-2.123941 -0.13181,-2.926852 1.139306,-0.408131 2.653902,-0.04336 3.931105,-0.167497 2.650217,0 5.300434,0 7.95065,0 z"
     id="path988" /><path
     style="fill:#f4e3d7;fill-opacity:1;stroke:#000000;stroke-width:0.301833;paint-order:markers stroke fill"
     d="m 54.504567,16.6273 c -1.637189,-0.06992 -3.661404,0.37676 -4.460131,1.956125 -0.662973,3.754066 -0.330171,7.616082 -0.457562,11.413943 0.02737,16.35514 -0.120756,32.712876 0.105912,49.066408 0.06712,0.52162 -0.132901,1.908204 0.820378,1.493583 2.645464,-1.09345 5.590016,-0.632059 8.390933,-0.88304 0.317967,-2.469962 0.04581,-5.178232 0.136455,-7.739991 0,-18.363258 0,-36.726516 0,-55.089773 -1.373521,-0.334489 -3.057389,-0.151356 -4.535985,-0.217255 z"
     id="path1101" /><path
     style="fill:#e9c6af;fill-opacity:1;stroke:#000000;stroke-width:0.301833;paint-order:markers stroke fill"
     d="M 66.648211,83.086923 C 61.8956,83.201958 57.10007,82.87486 52.376533,83.483095 c -2.117913,0.714602 -3.173643,3.292094 -2.710955,5.396761 0.362896,2.467962 3.088197,4.088032 5.434686,3.770394 16.947601,-0.06099 33.917047,-0.01252 50.851026,-0.141771 1.53983,-1.054343 0.83877,-3.154179 1.05977,-4.699522 -0.0669,-1.556415 0.24508,-3.26554 -0.0679,-4.723682 -13.431649,0.0014 -26.863301,-0.0028 -40.294949,0.0014 z"
     id="path1140" /></svg>
