<?xml version="1.0" encoding="UTF-8" standalone="no"?>
<svg
   version="1.1"
   x="0px"
   y="0px"
   viewBox="0 0 120 120"
   enable-background="new 0 0 100 100"
   xml:space="preserve"
   id="svg12"
   sodipodi:docname="cool.svg"
   width="120"
   height="120"
   inkscape:version="1.1.1 (3bf5ae0d25, 2021-09-20)"
   xmlns:inkscape="http://www.inkscape.org/namespaces/inkscape"
   xmlns:sodipodi="http://sodipodi.sourceforge.net/DTD/sodipodi-0.dtd"
   xmlns="http://www.w3.org/2000/svg"
   xmlns:svg="http://www.w3.org/2000/svg"><defs
     id="defs16" /><sodipodi:namedview
     id="namedview14"
     pagecolor="#ffffff"
     bordercolor="#666666"
     borderopacity="1.0"
     inkscape:pageshadow="2"
     inkscape:pageopacity="0.0"
     inkscape:pagecheckerboard="0"
     showgrid="false"
     inkscape:zoom="3.352"
     inkscape:cx="13.424821"
     inkscape:cy="44.301909"
     inkscape:window-width="1920"
     inkscape:window-height="1001"
     inkscape:window-x="-9"
     inkscape:window-y="-9"
     inkscape:window-maximized="1"
     inkscape:current-layer="g2198" /><g
     id="g2198"
     transform="translate(7.4582339,8.353222)"><circle
       style="fill:#aaccff;fill-opacity:0.411458;stroke-width:0.124636;stroke-opacity:0.274306;paint-order:markers stroke fill"
       id="path845"
       cx="51.312656"
       cy="-51.909313"
       r="50.715992"
       transform="rotate(90)" /><g
       id="g6"
       transform="matrix(0.97101504,0,0,0.97101504,3.1819053,0.82627937)"><path
         d="m 75.27,61.623 c -1.433,-0.832 -3.269,-0.344 -4.101,1.088 -3.099,5.335 -10.508,11.565 -21.187,11.565 -10.679,0 -18.088,-6.23 -21.187,-11.565 -0.833,-1.434 -2.668,-1.921 -4.101,-1.088 -1.433,0.832 -1.919,2.668 -1.087,4.102 1.412,2.43 9.318,14.552 26.375,14.552 17.057,0 24.964,-12.122 26.375,-14.552 0.832,-1.434 0.345,-3.27 -1.087,-4.102 z"
         id="path2" /><path
         d="m 80.853,25.881 c -6.78,-1.329 -13.954,-2.106 -22.855,0.129 -2.544,0.64 -5.495,1.293 -8.12,1.213 -1.576,-0.048 -3.068,-0.416 -4.48,-0.744 -8.75,-2.039 -16.719,-2.913 -26.19,-1.152 -0.841,0.155 -0.115,5.254 -0.064,6.517 0.405,10.175 3.799,14.794 12.695,14.803 10.072,0.011 15.033,-9.859 15.686,-13.492 0.35,-1.95 1.354,-2.148 2.476,-2.179 1.987,-0.054 2.214,1.399 2.562,2.279 4.09,10.338 6.547,12.689 15.13,13.438 C 80.739,47.83 79.236,38.157 81,32.535 c 0.335,-1.076 0.722,-6.483 -0.147,-6.654 z"
         id="path4" /></g></g></svg>
