<?xml version="1.0" encoding="UTF-8"?>
<svg width="50" height="50" version="1.1" viewBox="0 0 50 50" xml:space="preserve" xmlns="http://www.w3.org/2000/svg"><g transform="matrix(.81077 0 0 .81077 4.7309 4.7309)"><path d="m35.121 4.2921c-2.8272-0.053982-5.5251 1.3193-7.5742 3.1911-0.8376 0.68831-1.3481 1.6732-2.1164 2.4168-0.51902 0.39571-1.1586-0.061597-1.4268-0.53802-1.8918-2.6881-4.904-4.6317-8.182-5.0416-1.8239-0.02796-3.7206-0.19892-5.4484 0.52169-3.9656 1.371-7.1079 4.9064-7.87 9.0504-0.47956 2.7511 0.021564 5.5949 1.1082 8.1453 2.392 5.6673 6.5365 10.372 10.86 14.656 3.1346 3.0324 6.4105 5.9428 9.9631 8.4787 0.34585 0.33692 0.82376 0.28136 1.1607-0.03387 3.1025-2.2018 5.9925-4.699 8.7548-7.312 4.5187-4.383 8.9251-9.1086 11.64-14.858 1.5348-3.2661 2.3162-7.1182 1.0857-10.613-1.3479-4.173-5.198-7.3824-9.5259-8.0173-0.80747-0.06181-1.6189-0.044752-2.428-0.04599z" fill="#f55" fill-opacity=".77951" stroke-width=".14778" style="paint-order:markers stroke fill"/></g></svg>
