<?xml version="1.0" encoding="UTF-8"?>
<svg width="120" height="120" version="1.1" viewBox="0 0 120 120" xmlns="http://www.w3.org/2000/svg">
 <g transform="translate(0 -952.36)">
  <path d="m108.31 972.26c-6.3122-2.0341-13.038 1.2174-14.98 7.2412-1.0329 3.2053-0.49533 6.5555 1.1734 9.3037l-20.814 14.035c-2.208-2.5074-5.1055-4.4947-8.5561-5.6066-5.4274-1.749-11.045-0.98286-15.498 1.6268l-12.521-19.33c3.1309-1.6326 5.6276-4.3824 6.767-7.9182 2.3735-7.3656-1.9781-15.388-9.6963-17.875-7.7182-2.4872-15.935 1.4848-18.308 8.8504-2.3735 7.3656 1.9781 15.388 9.6963 17.875 3.0749 0.99088 6.234 0.93774 9.0662 0.0721l12.836 19.85c-2.5658 2.0617-4.5769 4.8011-5.644 8.1125-2.7559 8.5521 1.614 17.776 9.856 21.74a1.3375 1.2764 17.861 0 0-0.01227 0.038l-9.2007 19.831a1.3454 1.2839 17.861 0 0-0.04892 0.1518c-4.2031-1.3544-8.6938 0.8164-9.9864 4.8274s1.0858 8.3955 5.2889 9.7499c4.2031 1.3544 8.6939-0.8165 9.9864-4.8275 1.0273-3.1879-0.27354-6.5866-2.9571-8.5375a1.3454 1.2839 17.861 0 0 0.17743-0.2781l9.2007-19.831a1.3375 1.2764 17.861 0 0 0.03671-0.1139c5.4475 1.7554 11.089 0.9811 15.55-1.6519l12.564 19.469c-1.3972 1.3612-2.5098 3.0193-3.1416 4.9799-2.1573 6.6946 1.7997 13.989 8.8148 16.25s14.487-1.3511 16.644-8.0457c2.1573-6.6947-1.7996-13.989-8.8148-16.25-4.0396-1.3017-8.2396-0.6447-11.477 1.4139l-12.469-19.355c2.553-2.0594 4.5683-4.7743 5.6318-8.0744 1.6752-5.1986 0.71656-10.653-2.1412-15.021l20.814-14.035c1.3676 1.4167 3.0928 2.5471 5.1165 3.1992 6.3122 2.0341 13.038-1.2175 14.98-7.2412 1.9411-6.0238-1.6212-12.591-7.9333-14.625zm-0.78292 2.4296c4.9363 1.5907 7.6884 6.6641 6.1704 11.375-1.518 4.7107-6.7145 7.2227-11.651 5.632-4.9363-1.5907-7.6884-6.6642-6.1704-11.375 1.518-4.7107 6.7145-7.2227 11.651-5.632zm-74.123-18.522c6.3423 2.0438 9.8837 8.5723 7.9333 14.625-1.9504 6.0525-8.6373 9.285-14.98 7.2412s-9.8837-8.5723-7.9333-14.625c1.9504-6.0525 8.6373-9.285 14.98-7.2412zm30.948 43.496c8.4514 2.7235 13.177 11.435 10.578 19.5-2.599 8.0653-11.521 12.378-19.973 9.6549-8.4514-2.7234-13.177-11.434-10.578-19.5 2.599-8.0652 11.521-12.378 19.973-9.655zm30.655 48.765c5.6393 1.8172 8.786 7.6183 7.0518 13-1.7342 5.3815-7.6759 8.2539-13.315 6.4366-5.6393-1.8172-8.786-7.6183-7.0518-13 1.7342-5.3815 7.6759-8.2539 13.315-6.4366zm-53.362 4.2591c2.8272 0.911 4.3954 3.8018 3.526 6.4998-0.86945 2.6981-3.8304 4.1294-6.6576 3.2184-2.8272-0.9111-4.3954-3.8019-3.5259-6.5 0.86942-2.698 3.8304-4.1293 6.6576-3.2182z" color="#000000" style="text-decoration-line:none;text-indent:0;text-transform:none"/>
 </g>
</svg>
