<?xml version="1.0" encoding="UTF-8"?>
<svg width="120" height="120" version="1.1" viewBox="0 0 120 120" xmlns="http://www.w3.org/2000/svg">
 <g transform="matrix(.1907 0 0 .1907 59.349 52.217)" fill="#729fcf" fill-rule="evenodd">
  <path d="m-140.43 257.96c0 11.917-3.1301 23.608-9.0886 33.941-5.9585 10.295-14.557 18.894-24.852 24.852-10.333 5.9585-22.024 9.0886-33.941 9.0886-11.955 0-23.646-3.1301-33.979-9.0886-10.295-5.9585-18.894-14.557-24.852-24.852-5.9585-10.333-9.0886-22.024-9.0886-33.941 0-11.955 3.1301-23.646 9.0886-33.979 5.9585-10.295 14.557-18.894 24.852-24.852 10.333-5.9585 22.024-9.0886 33.941-9.0886 11.955 0 23.646 3.1301 33.979 9.0886 10.295 5.9585 18.894 14.557 24.852 24.852 5.9585 10.333 9.0886 22.024 9.0886 33.941z"/>
  <path d="m63.591 75.623c0 13.652-3.5826 27.077-10.446 38.919-6.8259 11.842-16.669 21.684-28.51 28.51-11.842 6.8636-25.267 10.446-38.957 10.446-13.652 0-27.077-3.5827-38.919-10.446-11.842-6.8259-21.684-16.669-28.51-28.51-6.8636-11.842-10.446-25.267-10.446-38.919 0-13.69 3.5826-27.115 10.446-38.957 6.8259-11.842 16.669-21.684 28.51-28.51 11.842-6.8636 25.267-10.446 38.919-10.446 13.69 0 27.115 3.5826 38.957 10.446 11.842 6.8259 21.684 16.669 28.51 28.51 6.8636 11.842 10.446 25.267 10.446 38.919z"/>
  <path d="m302.69 239.48c0 15.462-4.0729 30.698-11.842 44.123-7.731 13.426-18.856 24.551-32.282 32.282-13.426 7.7687-28.661 11.842-44.123 11.842-15.5 0-30.735-4.0729-44.161-11.842-13.426-7.731-24.551-18.856-32.282-32.282-7.7687-13.426-11.842-28.661-11.842-44.123 0-15.5 4.0729-30.735 11.842-44.161 7.731-13.426 18.856-24.551 32.282-32.282 13.426-7.7687 28.661-11.842 44.123-11.842 15.5 0 30.735 4.0729 44.161 11.842 13.426 7.731 24.551 18.856 32.282 32.282 7.7687 13.426 11.842 28.661 11.842 44.123z"/>
  <path d="m243.48-111.62c0 11.917-3.1301 23.608-9.0886 33.941-5.9585 10.295-14.557 18.894-24.852 24.852-10.333 5.9585-22.024 9.0886-33.941 9.0886-11.955 0-23.646-3.1301-33.979-9.0886-10.295-5.9585-18.894-14.557-24.852-24.852-5.9585-10.333-9.0886-22.024-9.0886-33.941 0-11.955 3.1301-23.646 9.0886-33.979 5.9585-10.295 14.557-18.894 24.852-24.852 10.333-5.9585 22.024-9.0886 33.941-9.0886 11.955 0 23.646 3.1301 33.979 9.0886 10.295 5.9585 18.894 14.557 24.852 24.852 5.9585 10.333 9.0886 22.024 9.0886 33.941z"/>
  <path d="m-105.36-153.1c0 17.197-4.5255 34.092-13.124 49.026-8.6361 14.896-21.006 27.266-35.902 35.902-14.934 8.5984-31.829 13.124-49.026 13.124-17.234 0-34.129-4.5255-49.063-13.124-14.896-8.6361-27.266-21.006-35.902-35.902-8.5984-14.934-13.124-31.829-13.124-49.026 0-17.234 4.5254-34.129 13.124-49.064 8.6361-14.896 21.006-27.266 35.902-35.902 14.934-8.5984 31.829-13.124 49.026-13.124 17.234 0 34.129 4.5255 49.064 13.124 14.896 8.6361 27.266 21.006 35.902 35.902 8.5984 14.934 13.124 31.829 13.124 49.026z"/>
  <path d="m-104.15 173.83-89.943 84.098-11.992-12.822 179.89-168.2 11.992 12.822z"/>
  <path d="m90.518 136.87 96.656 76.292-10.899 13.803-193.27-152.58 10.861-13.803z"/>
  <path d="m107.04-28.311-89.943 84.098-11.992-12.822 179.89-168.2 11.992 12.822z"/>
  <path d="m-94.309-34.685 82.816 91.113-13.011 11.804-165.63-182.23 13.011-11.842z"/>
 </g>
</svg>
