<svg xmlns:dc="http://purl.org/dc/elements/1.1/" xmlns:cc="http://creativecommons.org/ns#" xmlns:rdf="http://www.w3.org/1999/02/22-rdf-syntax-ns#" xmlns:svg="http://www.w3.org/2000/svg" xmlns="http://www.w3.org/2000/svg" xmlns:sodipodi="http://sodipodi.sourceforge.net/DTD/sodipodi-0.dtd" xmlns:inkscape="http://www.inkscape.org/namespaces/inkscape" version="1.1" x="0px" y="0px" viewBox="0 0 100 125"><g transform="translate(0,-952.36218)"><path style="font-size:medium;font-style:normal;font-variant:normal;font-weight:normal;font-stretch:normal;text-indent:0;text-align:start;text-decoration:none;line-height:normal;letter-spacing:normal;word-spacing:normal;text-transform:none;direction:ltr;block-progression:tb;writing-mode:lr-tb;text-anchor:start;baseline-shift:baseline;opacity:1;color:#000000;fill:#000000;fill-opacity:1;stroke:none;stroke-width:2;marker:none;visibility:visible;display:inline;overflow:visible;enable-background:accumulate;font-family:Sans;-inkscape-font-specification:Sans" d="M 75 7 C 70.041283 7 66 11.04128 66 16 C 66 18.638568 67.150903 21.007839 68.96875 22.65625 L 57.375 38.125 C 55.228573 36.785692 52.710744 36 50 36 C 45.73633 36 41.914148 37.921308 39.34375 40.9375 L 26 29.53125 C 27.853806 27.561306 29 24.91068 29 22 C 29 15.93672 24.063288 11 18 11 C 11.936713 11 7 15.93672 7 22 C 7 28.06329 11.936713 33 18 33 C 20.415598 33 22.651702 32.201185 24.46875 30.875 L 38.15625 42.59375 C 36.803019 44.747864 36 47.274014 36 50 C 36 57.040064 41.225353 62.868694 48 63.84375 A 1.0001 1.0001 0 0 0 48 63.875 L 46 80.875 A 1.0059664 1.0059664 0 0 0 46 81 C 42.698136 81 40 83.6981 40 87 C 40 90.3018 42.698136 93 46 93 C 49.301863 93 52 90.3018 52 87 C 52 84.375677 50.294762 82.153765 47.9375 81.34375 A 1.0059664 1.0059664 0 0 0 48 81.09375 L 50 64.09375 A 1.0001 1.0001 0 0 0 50 64 C 54.279453 64 58.116921 62.066774 60.6875 59.03125 L 74.09375 70.53125 C 73.411588 71.882037 73 73.386064 73 75 C 73 80.511 77.488998 85 83 85 C 88.511003 85 93 80.511 93 75 C 93 69.489 88.511003 65 83 65 C 79.826581 65 76.988172 66.49929 75.15625 68.8125 L 61.84375 57.375 C 63.188389 55.225615 64 52.716611 64 50 C 64 45.720565 62.066775 41.883075 59.03125 39.3125 L 70.625 23.84375 C 71.923218 24.571555 73.410256 25 75 25 C 79.958718 25 84 20.95871 84 16 C 84 11.04128 79.958718 7 75 7 z M 75 9 C 78.877838 9 82 12.12216 82 16 C 82 19.87783 78.877838 23 75 23 C 71.122163 23 68 19.87783 68 16 C 68 12.12216 71.122163 9 75 9 z M 18 13 C 22.982408 13 27 17.0176 27 22 C 27 26.98241 22.982408 31 18 31 C 13.017593 31 9 26.98241 9 22 C 9 17.0176 13.017593 13 18 13 z M 50 38 C 56.639263 38 62 43.36077 62 50 C 62 56.6393 56.639263 62 50 62 C 43.360738 62 38 56.6393 38 50 C 38 43.36077 43.360738 38 50 38 z M 83 67 C 87.430123 67 91 70.5699 91 75 C 91 79.4301 87.430123 83 83 83 C 78.569878 83 75 79.4301 75 75 C 75 70.5699 78.569878 67 83 67 z M 46 83 C 48.220983 83 50 84.779 50 87 C 50 89.221 48.220983 91 46 91 C 43.779016 91 42 89.221 42 87 C 42 84.779 43.779016 83 46 83 z " transform="translate(0,952.36218)"/></g><text x="0" y="115" fill="#000000" font-size="5px" font-weight="bold" font-family="'Helvetica Neue', Helvetica, Arial-Unicode, Arial, Sans-serif">Created by sevgenjory</text><text x="0" y="120" fill="#000000" font-size="5px" font-weight="bold" font-family="'Helvetica Neue', Helvetica, Arial-Unicode, Arial, Sans-serif">from the Noun Project</text></svg>