<svg xmlns="http://www.w3.org/2000/svg" viewBox="0 0 512 640" x="0px" y="0px"><title>Cool-Emoji-Emotion-Face-Expression-Feeling</title><path d="M419.92,137.5a10,10,0,0,0-13.12-7.67,35.84,35.84,0,0,1-47.28-28.93,10,10,0,0,0-13.14-8.1,38.29,38.29,0,0,1-50.27-30.67,10,10,0,0,0-9.49-8.55,35.8,35.8,0,0,1-34-40.9A10,10,0,0,0,241.91,1.32a166.56,166.56,0,0,0-152.49,166V384a40,40,0,0,0,40,40h73.3v33.39a53.28,53.28,0,1,0,106.56,0V424h73.3a40,40,0,0,0,40-40V167.3A167.8,167.8,0,0,0,419.92,137.5ZM289.28,457.43a33.28,33.28,0,1,1-66.56,0V424h66.56ZM402.58,384a20,20,0,0,1-20,20H129.42a20,20,0,0,1-20-20V167.3A146.62,146.62,0,0,1,232.49,22.6,55.66,55.66,0,0,0,278,72.69a58.3,58.3,0,0,0,64.3,41.58A56.1,56.1,0,0,0,395,151.82a57.51,57.51,0,0,0,6.7-.4,147.66,147.66,0,0,1,.85,15.88Z"/><path d="M382.13,208.68a10,10,0,0,0-11.8-8.84l-106.62,20H248.29l-106.62-20a10,10,0,0,0-11.8,8.84A145.08,145.08,0,0,0,132.58,250c6.73,29.93,23.48,47.22,48.43,50a90.46,90.46,0,0,0,10,.57c16.25,0,30-4.8,41.11-14.32,8.8-7.56,14.53-17.08,18.27-26.11h11.24c3.74,9,9.47,18.55,18.27,26.11,11.07,9.52,24.86,14.32,41.11,14.32a90.78,90.78,0,0,0,10-.57c24.94-2.77,41.69-20.06,48.42-50A145.08,145.08,0,0,0,382.13,208.68Z"/><path d="M289.54,301.41a10,10,0,0,0-9.56,7c-.68,1.83-5.77,13.42-24,13.42s-23.3-11.59-24-13.42a10,10,0,0,0-19.56,3,9.87,9.87,0,0,0,.53,3.18h0c.35,1.11,9.13,27.28,43,27.28s42.67-26.17,43-27.28h0a9.87,9.87,0,0,0,.53-3.18A10,10,0,0,0,289.54,301.41Z"/><text x="0" y="527" fill="#000000" font-size="5px" font-weight="bold" font-family="'Helvetica Neue', Helvetica, Arial-Unicode, Arial, Sans-serif">Created by AomAm</text><text x="0" y="532" fill="#000000" font-size="5px" font-weight="bold" font-family="'Helvetica Neue', Helvetica, Arial-Unicode, Arial, Sans-serif">from the Noun Project</text></svg>