<?xml version="1.0" encoding="UTF-8" standalone="no"?>
<svg
   xml:space="preserve"
   version="1.1"
   style="shape-rendering:geometricPrecision;text-rendering:geometricPrecision;image-rendering:optimizeQuality;"
   viewBox="0 0 2804.54 1981.5125"
   x="0px"
   y="0px"
   fill-rule="evenodd"
   clip-rule="evenodd"
   id="svg14"
   sodipodi:docname="noun-book-3886903.svg"
   inkscape:version="1.1.1 (3bf5ae0d25, 2021-09-20)"
   xmlns:inkscape="http://www.inkscape.org/namespaces/inkscape"
   xmlns:sodipodi="http://sodipodi.sourceforge.net/DTD/sodipodi-0.dtd"
   xmlns="http://www.w3.org/2000/svg"
   xmlns:svg="http://www.w3.org/2000/svg"><sodipodi:namedview
     id="namedview16"
     pagecolor="#ffffff"
     bordercolor="#666666"
     borderopacity="1.0"
     inkscape:pageshadow="2"
     inkscape:pageopacity="0.0"
     inkscape:pagecheckerboard="0"
     showgrid="false"
     inkscape:zoom="0.21145464"
     inkscape:cx="1763.9717"
     inkscape:cy="423.25863"
     inkscape:window-width="1920"
     inkscape:window-height="1001"
     inkscape:window-x="-9"
     inkscape:window-y="-9"
     inkscape:window-maximized="1"
     inkscape:current-layer="svg14" /><defs
     id="defs4"><style
       type="text/css"
       id="style2">
   
    .fil0 {fill:black;fill-rule:nonzero}
   
  </style></defs><path
     class="fil0"
     d="m -21.248667,1651.8484 c -129.310003,0 -129.310003,-196.59 0,-196.59 H 1078.2414 c 40.11,0 74.66,24.05 89.94,58.55 39.09,63.01 217.48,71.09 251.01,-1.35 16.53,-35.84 52,-56.97 89.05,-56.97 l 1081.1,-0.23 c 129.31,0 129.31,196.59 0,196.59 h -1028.44 c -100.71,119.28 -297.76,134.97 -433.95,71.97 -38.16,-17.64 -72.29,-41.74 -99.31,-71.97 H -21.238667 Z M 2463.5014,902.49843 l -918.35,436.07997 1017.11,-56.88 z m -1923.81007,-445.92 625.75007,792.06997 -864.91007,-538.17997 239.17,-253.89 z m 631.46007,-281.56 101.96,1004.20997 -440.17007,-918.62997 338.20007,-85.57 z"
     id="path6"
     sodipodi:nodetypes="sssccccsccccscccccccccccccc" /><text
     x="0"
     y="1600.21"
     fill="#000000"
     font-size="5px"
     font-weight="bold"
     font-family="'Helvetica Neue', Helvetica, Arial-Unicode, Arial, Sans-serif"
     id="text10">Created by Book_Collection</text><text
     x="0"
     y="1605.21"
     fill="#000000"
     font-size="5px"
     font-weight="bold"
     font-family="'Helvetica Neue', Helvetica, Arial-Unicode, Arial, Sans-serif"
     id="text12">from the Noun Project</text><path
     d="M 370.76367,614.58337 1165.4414,1248.6484 188.11034,961.25889 Z"
     style="fill:#000000;fill-rule:nonzero"
     id="path1049" /><path
     d="m 1171.1514,175.01843 55.7385,1007.92237 291.6234,-976.07694 z"
     style="fill:#000000;fill-rule:nonzero"
     id="path1431" /><path
     d="M 2307.6155,677.07527 1545.1514,1338.5784 2495.2415,971.10612 2307.6057,677.07341 Z"
     style="fill:#000000;fill-rule:nonzero"
     id="path1701" /></svg>
