<svg xmlns="http://www.w3.org/2000/svg" xmlns:xlink="http://www.w3.org/1999/xlink" version="1.1" x="0px" y="0px" viewBox="0 0 100 125" enable-background="new 0 0 100 100" xml:space="preserve"><g><path d="M50,14.651c-19.491,0-35.349,15.857-35.349,35.349S30.509,85.349,50,85.349S85.349,69.491,85.349,50   S69.491,14.651,50,14.651z M50,83.349c-18.389,0-33.349-14.96-33.349-33.349S31.611,16.651,50,16.651S83.349,31.611,83.349,50   S68.389,83.349,50,83.349z"/><path d="M67.452,31.165L45.679,45.274c-0.082,0.053-0.138,0.132-0.201,0.206c-0.073,0.062-0.152,0.118-0.206,0.2L31.164,67.453   c-0.256,0.396-0.201,0.917,0.132,1.251c0.333,0.334,0.855,0.388,1.251,0.132L54.32,54.727c0.082-0.053,0.138-0.132,0.201-0.205   c0.073-0.062,0.152-0.118,0.205-0.201l14.108-21.773c0.257-0.396,0.202-0.917-0.132-1.251   C68.369,30.964,67.848,30.908,67.452,31.165z M35.389,64.611L46.28,47.805l5.916,5.916L35.389,64.611z"/></g><text x="0" y="115" fill="#000000" font-size="5px" font-weight="bold" font-family="'Helvetica Neue', Helvetica, Arial-Unicode, Arial, Sans-serif">Created by Perametade Games</text><text x="0" y="120" fill="#000000" font-size="5px" font-weight="bold" font-family="'Helvetica Neue', Helvetica, Arial-Unicode, Arial, Sans-serif">from the Noun Project</text></svg>