<svg xmlns="http://www.w3.org/2000/svg" xmlns:xlink="http://www.w3.org/1999/xlink" xmlns:xodm="http://www.corel.com/coreldraw/odm/2003" xml:space="preserve" version="1.1" style="shape-rendering:geometricPrecision;text-rendering:geometricPrecision;image-rendering:optimizeQuality;" viewBox="0 0 846.66 1058.325" x="0px" y="0px" fill-rule="evenodd" clip-rule="evenodd"><defs><style type="text/css">
   
    .fil0 {fill:black;fill-rule:nonzero}
   
  </style></defs><g><path class="fil0" d="M133.27 113.49l580.14 0c24.95,0 47.67,10.24 64.15,26.7l0.08 0.08c16.46,16.48 26.7,39.2 26.7,64.15l0 404.99c0,9.58 -3.94,18.36 -10.3,24.73l-0.08 0.08c-6.4,6.37 -15.16,10.3 -24.73,10.3l-324.73 0 0 46.3 118.34 0c11.69,0 21.17,9.48 21.17,21.17 0,11.69 -9.48,21.17 -21.17,21.17l-279.02 0c-11.69,0 -21.17,-9.48 -21.17,-21.17 0,-11.69 9.48,-21.17 21.17,-21.17l118.34 0 0 -46.3 -324.71 0c-9.61,0 -18.38,-3.96 -24.74,-10.3l-0.08 -0.08c-6.34,-6.36 -10.3,-15.11 -10.3,-24.73l0 -404.99c0,-25.01 10.24,-47.76 26.71,-64.23 16.46,-16.46 39.22,-26.7 64.23,-26.7zm355.53 324.82c-8.26,8.26 -21.66,8.26 -29.92,0 -8.26,-8.26 -8.26,-21.66 0,-29.92l74.04 -74.03 -74.04 -74.04c-8.26,-8.26 -8.26,-21.66 0,-29.92 8.26,-8.26 21.66,-8.26 29.92,0l89 89c8.26,8.26 8.26,21.66 0,29.92l-89 88.99zm-101.01 -29.92c8.26,8.26 8.26,21.66 0,29.92 -8.26,8.26 -21.66,8.26 -29.92,0l-89 -88.99c-8.26,-8.26 -8.26,-21.66 0,-29.92l89 -89c8.26,-8.26 21.66,-8.26 29.92,0 8.26,8.26 8.26,21.66 0,29.92l-74.04 74.04 74.04 74.03zm-303.12 92.13l677.33 0 0 -296.1c0,-13.37 -5.46,-25.54 -14.24,-34.35 -8.81,-8.78 -20.98,-14.24 -34.35,-14.24l-580.14 0c-13.34,0 -25.51,5.48 -34.31,14.28 -8.81,8.81 -14.29,20.97 -14.29,34.31l0 296.1zm677.33 42.34l-677.33 0 0 59.32 677.33 0 0 -59.32z"/></g><text x="0" y="861.66" fill="#000000" font-size="5px" font-weight="bold" font-family="'Helvetica Neue', Helvetica, Arial-Unicode, Arial, Sans-serif">Created by Wartini</text><text x="0" y="866.66" fill="#000000" font-size="5px" font-weight="bold" font-family="'Helvetica Neue', Helvetica, Arial-Unicode, Arial, Sans-serif">from the Noun Project</text></svg>