<svg xmlns="http://www.w3.org/2000/svg" data-name="Layer 1" viewBox="0 0 100 125" x="0px" y="0px"><path d="M35.52,30h29a.22.22,0,0,1,.22.22v1.36A13.37,13.37,0,0,1,51.33,45H48.67A13.37,13.37,0,0,1,35.29,31.61V30.26a.22.22,0,0,1,.22-.22Z"/><path d="M35.29,61.69H64.71a0,0,0,0,1,0,0V67A13.37,13.37,0,0,1,51.33,80.34H48.67A13.37,13.37,0,0,1,35.29,67V61.69A0,0,0,0,1,35.29,61.69Z" transform="translate(100 142.03) rotate(-180)"/><path d="M72,30.32V19.12h3.44a2,2,0,0,0,2-2V14.25a2,2,0,0,0-2-2h-51a2,2,0,0,0-2,2v2.83a2,2,0,0,0,2,2H28v11.2A22.05,22.05,0,0,0,40.09,50,22.05,22.05,0,0,0,28,69.68v11.2H24.52a2,2,0,0,0-2,2v2.83a2,2,0,0,0,2,2h51a2,2,0,0,0,2-2V82.92a2,2,0,0,0-2-2H72V69.68A22.05,22.05,0,0,0,59.91,50,22.05,22.05,0,0,0,72,30.32ZM52.77,50h0a3.27,3.27,0,0,0,2.29,3.14A17.33,17.33,0,0,1,67.32,69.68V80.34H32.68V69.68A17.33,17.33,0,0,1,44.94,53.14,3.27,3.27,0,0,0,47.23,50h0a3.27,3.27,0,0,0-2.29-3.14A17.33,17.33,0,0,1,32.68,30.32V19.66H67.32V30.32A17.33,17.33,0,0,1,55.06,46.86,3.27,3.27,0,0,0,52.77,50Z"/><circle cx="49" cy="47.47" r="1.47"/><circle cx="50.99" cy="51.42" r="1.47"/><circle cx="48.4" cy="55.59" r="1.47"/><circle cx="50.39" cy="59.54" r="1.47"/><text x="0" y="115" fill="#000000" font-size="5px" font-weight="bold" font-family="'Helvetica Neue', Helvetica, Arial-Unicode, Arial, Sans-serif">Created by Rizalmotret</text><text x="0" y="120" fill="#000000" font-size="5px" font-weight="bold" font-family="'Helvetica Neue', Helvetica, Arial-Unicode, Arial, Sans-serif">from the Noun Project</text></svg>