<svg xmlns="http://www.w3.org/2000/svg" xmlns:xlink="http://www.w3.org/1999/xlink" xml:space="preserve" version="1.1" style="shape-rendering:geometricPrecision;text-rendering:geometricPrecision;image-rendering:optimizeQuality;" viewBox="0 0 333 416.25" x="0px" y="0px" fill-rule="evenodd" clip-rule="evenodd"><defs><style type="text/css">
   
    .fil0 {fill:black}
   
  </style></defs><g><path class="fil0" d="M134 233l66 0 94 0c9,0 15,-7 15,-15l0 -121c0,-9 -6,-15 -15,-15l-255 0c-8,0 -15,6 -15,15l0 121c0,8 7,15 15,15l95 0zm72 11l0 19c0,1 0,2 -1,3l53 0c2,0 4,1 4,3l0 15c0,2 -2,4 -4,4l-182 0c-2,0 -4,-2 -4,-4l0 -15c0,-2 2,-3 4,-3l52 0c0,-1 -1,-2 -1,-3l0 -19 -100 0c-9,0 -17,-8 -17,-17l0 -139c0,-10 8,-18 17,-18l279 0c10,0 17,8 17,18l0 139c0,9 -7,17 -17,17l-100 0z"/></g><text x="0" y="348" fill="#000000" font-size="5px" font-weight="bold" font-family="'Helvetica Neue', Helvetica, Arial-Unicode, Arial, Sans-serif">Created by Fadlin Noer</text><text x="0" y="353" fill="#000000" font-size="5px" font-weight="bold" font-family="'Helvetica Neue', Helvetica, Arial-Unicode, Arial, Sans-serif">from the Noun Project</text></svg>