<svg xmlns="http://www.w3.org/2000/svg" xmlns:xlink="http://www.w3.org/1999/xlink" version="1.1" x="0px" y="0px" viewBox="0 0 100 125" style="enable-background:new 0 0 100 100;" xml:space="preserve"><path d="M87.2,40.5C87.2,40.5,87.2,40.5,87.2,40.5C87.2,40.5,87.2,40.5,87.2,40.5C87.2,40.5,87.2,40.5,87.2,40.5  c-1.9-2.9-4.4-5.1-7.5-6.5l-9.5-4.3c-0.9-0.4-1.4-1.5-1-2.5l2.8-7.5c0.1-0.2,0.1-0.4,0.1-0.6c2.4-1.3,3.9-3,3.9-5c0-6.2-13.5-9-26-9  s-26,2.8-26,9c0,2,1.5,3.7,3.9,5c0,0.2,0,0.4,0.1,0.6l2.8,7.5c0.4,1-0.1,2.1-1,2.5L20.3,34c-3.1,1.4-5.6,3.6-7.5,6.4c0,0,0,0,0,0.1  c0,0,0,0,0,0c0,0,0,0,0,0C11,43.4,10,46.6,10,50c0,1.8,0.1,3.6,0.4,5.5c0,0,0,0,0,0c1.5,10.8,7.4,20.6,16.3,27  C28.8,84,30,86.4,30,89c0,3.3,2.7,6,6,6h28c3.3,0,6-2.7,6-6c0-2.6,1.2-5,3.3-6.5c8.9-6.4,14.8-16.2,16.3-27c0,0,0,0,0,0  c0.3-1.9,0.4-3.7,0.4-5.5C90,46.6,89,43.4,87.2,40.5z M28,14c0-1.5,7.7-5,22-5s22,3.5,22,5s-7.7,5-22,5S28,15.5,28,14z M21.9,37.7  l9.5-4.3c2.9-1.3,4.2-4.6,3.1-7.6l-1.8-4.9C37.6,22.3,43.9,23,50,23s12.4-0.7,17.3-2.1l-1.8,4.9c-1.1,2.9,0.3,6.3,3.1,7.6l9.5,4.3  c1.7,0.8,3.2,1.9,4.4,3.2C74.8,44.7,63,47,50,47s-24.8-2.3-32.5-6.1C18.8,39.5,20.2,38.5,21.9,37.7z M71,79.2c-3.1,2.2-5,5.9-5,9.8  c0,1.1-0.9,2-2,2H36c-1.1,0-2-0.9-2-2c0-3.9-1.9-7.5-5-9.8c-7-5-11.9-12.4-14-20.7c10,4.1,22.2,6.4,35,6.4s24.9-2.3,35-6.4  C82.9,66.9,78,74.2,71,79.2z M85.8,53.9C75.8,58.5,63.2,61,50,61s-25.8-2.5-35.8-7.1C14.1,52.6,14,51.3,14,50c0-2,0.4-4,1.3-5.7  c8.2,4.2,21,6.7,34.7,6.7s26.5-2.5,34.7-6.7C85.6,46,86,48,86,50C86,51.3,85.9,52.6,85.8,53.9z"/><text x="0" y="115" fill="#000000" font-size="5px" font-weight="bold" font-family="'Helvetica Neue', Helvetica, Arial-Unicode, Arial, Sans-serif">Created by IconMark</text><text x="0" y="120" fill="#000000" font-size="5px" font-weight="bold" font-family="'Helvetica Neue', Helvetica, Arial-Unicode, Arial, Sans-serif">from the Noun Project</text></svg>