<svg xmlns="http://www.w3.org/2000/svg" xmlns:xlink="http://www.w3.org/1999/xlink" version="1.1" x="0px" y="0px" viewBox="0 0 96 120" style="enable-background:new 0 0 96 96;" xml:space="preserve"><path d="M82.8,28.2c0.5-1.3,0.9-2.3,1.2-2.8c-0.9,0.1-1.8,0.1-2.8,0.2c-1.4-2.1-3-4.1-4.9-5.9C68.7,12.2,58.7,8,48,8  s-20.7,4.2-28.3,11.7c-1.8,1.8-3.4,3.8-4.9,5.9c-0.9-0.1-1.9-0.2-2.8-0.2c0.3,1,0.7,2,1,3.1C9.8,34.4,8,41.1,8,48  c0,10.7,4.2,20.7,11.7,28.3C27.2,83.9,37.3,88,48,88s20.7-4.2,28.3-11.7C83.9,68.8,88,58.7,88,48C88,40.9,86.2,34.2,82.8,28.2z   M48,13c11.1,0,20.9,5.2,27.4,13.2C64,27.5,52,29.5,48,30.5c-4.2-1.1-16.2-3.1-27.4-4.3C27.1,18.2,36.9,13,48,13z M48,83  c-19.3,0-35-15.7-35-35c0-4.4,0.8-8.5,2.3-12.4c1.2,3.7,2.5,7.6,4.2,11.4c4.3,3,13.7,2.7,19.4,1.1c4.2-2.9,7.7-12.6,9.7-12.6  c1.6,0,4.2,10.3,8.6,12.6C63,49.9,72,49.8,76.5,47c1.1-3.7,2.6-8.2,3.9-12.2C82.1,38.9,83,43.3,83,48C83,67.3,67.3,83,48,83z"/><path d="M58.1,67.8c-1.4,0.3-3.4,0.3-5.9,0.1c-1.2-0.1-2.5-0.3-4.2-0.6c-5.7-1-8.2-2.3-9.2-2.8c-0.5-0.3-1.2-0.7-2-0.2  c-0.5,0.2-0.8,0.7-0.9,1.2c-0.1,0.5,0,0.9,0.3,1.3c1,1.4,5.2,2.8,11.2,3.8c1.6,0.3,3.1,0.5,4.3,0.6c1.6,0.2,3,0.3,4.2,0.3  c0.2,0,0.4,0,0.6,0c2.6-0.1,3.3-0.6,3.6-1.2c0.4-0.6,0.4-1.3,0-1.9C59.4,67.5,58.4,67.7,58.1,67.8z"/><text x="0" y="111" fill="#000000" font-size="5px" font-weight="bold" font-family="'Helvetica Neue', Helvetica, Arial-Unicode, Arial, Sans-serif">Created by Sewon Park</text><text x="0" y="116" fill="#000000" font-size="5px" font-weight="bold" font-family="'Helvetica Neue', Helvetica, Arial-Unicode, Arial, Sans-serif">from the Noun Project</text></svg>