<?xml version="1.0" encoding="UTF-8"?>
<svg width="120" height="120" enable-background="new 0 0 1000 1000" version="1.1" viewBox="0 0 120 120" xml:space="preserve" xmlns="http://www.w3.org/2000/svg"><path d="m118.94 47.591c-0.55511-2.0781-5.035-2.4485-7.3939-2.9849-2.3235-0.52658-2.9137-2.8801-10.955-0.79021l-22.26 5.9656-38.147-14.614-5.5425 1.9726 15.508 20.192-14.3 3.8303c-0.06774 0.01953-3.2806 0.87406-7.3792 1.9718l-21.177-11.131-5.8727 1.5515 10.016 14.16c-1.6189 0.54898-2.3251 1.6914-1.8871 3.3163 0.46303 1.7292 2.2868 2.5725 3.2317 2.608 6.3166 0.22248 25.217 1.2412 34.931-1.018l0.01332 0.0147 56.527-15.146 0.7762-0.21952c7.9338-2.35 14.45-7.6661 13.909-9.6798z" stroke-width=".17506"/></svg>
