<?xml version="1.0" encoding="UTF-8" standalone="no"?>
<svg
   width="120"
   height="120"
   enable-background="new 0 0 1000 1000"
   version="1.1"
   viewBox="0 0 120 120"
   xml:space="preserve"
   id="svg4"
   sodipodi:docname="plane.svg"
   inkscape:version="1.1.1 (3bf5ae0d25, 2021-09-20)"
   xmlns:inkscape="http://www.inkscape.org/namespaces/inkscape"
   xmlns:sodipodi="http://sodipodi.sourceforge.net/DTD/sodipodi-0.dtd"
   xmlns="http://www.w3.org/2000/svg"
   xmlns:svg="http://www.w3.org/2000/svg"><defs
     id="defs8" /><sodipodi:namedview
     id="namedview6"
     pagecolor="#ffffff"
     bordercolor="#666666"
     borderopacity="1.0"
     inkscape:pageshadow="2"
     inkscape:pageopacity="0.0"
     inkscape:pagecheckerboard="0"
     showgrid="false"
     inkscape:zoom="6.9833333"
     inkscape:cx="60"
     inkscape:cy="59.928401"
     inkscape:window-width="1920"
     inkscape:window-height="1001"
     inkscape:window-x="-9"
     inkscape:window-y="-9"
     inkscape:window-maximized="1"
     inkscape:current-layer="svg4" /><path
     d="m118.94 47.591c-0.55511-2.0781-5.035-2.4485-7.3939-2.9849-2.3235-0.52658-2.9137-2.8801-10.955-0.79021l-22.26 5.9656-38.147-14.614-5.5425 1.9726 15.508 20.192-14.3 3.8303c-0.06774 0.01953-3.2806 0.87406-7.3792 1.9718l-21.177-11.131-5.8727 1.5515 10.016 14.16c-1.6189 0.54898-2.3251 1.6914-1.8871 3.3163 0.46303 1.7292 2.2868 2.5725 3.2317 2.608 6.3166 0.22248 25.217 1.2412 34.931-1.018l0.01332 0.0147 56.527-15.146 0.7762-0.21952c7.9338-2.35 14.45-7.6661 13.909-9.6798z"
     stroke-width=".17506"
     id="path2"
     style="fill:#056400;fill-opacity:0.70138896" /></svg>
