<svg xmlns="http://www.w3.org/2000/svg" xmlns:xlink="http://www.w3.org/1999/xlink" version="1.1" x="0px" y="0px" viewBox="0 0 1000 1250" enable-background="new 0 0 1000 1000" xml:space="preserve"><path d="M835.564,459.881c-3.171-11.871-28.762-13.987-42.237-17.051c-13.273-3.008-16.644-16.452-62.581-4.514l-127.157,34.078  l-217.908-83.481l-31.661,11.268l88.59,115.347l-81.685,21.88c-0.387,0.112-18.74,4.993-42.153,11.264l-120.969-63.587  l-33.547,8.863l57.216,80.889c-9.248,3.136-13.282,9.662-10.78,18.944c2.645,9.878,13.063,14.695,18.461,14.898  c36.083,1.271,144.051,7.09,199.541-5.815l0.076,0.084l322.906-86.518l4.434-1.254C801.431,501.752,838.656,471.384,835.564,459.881  z"/><text x="0" y="1015" fill="#000000" font-size="5px" font-weight="bold" font-family="'Helvetica Neue', Helvetica, Arial-Unicode, Arial, Sans-serif">Created by regara</text><text x="0" y="1020" fill="#000000" font-size="5px" font-weight="bold" font-family="'Helvetica Neue', Helvetica, Arial-Unicode, Arial, Sans-serif">from the Noun Project</text></svg>