<?xml version="1.0" encoding="UTF-8"?>
<svg width="50" height="50" version="1.1" viewBox="0 0 50 50" xml:space="preserve" xmlns="http://www.w3.org/2000/svg"><g transform="matrix(.81077 0 0 .81077 4.7309 4.7309)"><path d="m35.354 2.0979c-1.1933 0.03364-2.3823 0.21674-3.5299 0.54507-0.1275 0.03644-0.36669 0.10844-0.5345 0.16525-2.0714 0.67103-3.953 1.8698-5.4924 3.4038-0.27924 0.27144-0.55283 0.54866-0.82981 0.82242-1.1425-1.1749-2.362-2.3037-3.8035-3.1039-0.48034-0.27807-1-0.53115-1.4823-0.73461-2.7782-1.1717-5.9376-1.4218-8.863-0.68694-3.4822 0.84956-6.6199 3.1577-8.5077 6.2237-1.3556 2.1885-2.0945 4.7545-2.0796 7.3306-0.00761 2.4489 0.65148 4.8545 1.6019 7.0958 0.17984 0.43077 0.40702 0.91671 0.62455 1.3596 1.5209 3.0777 3.5336 5.8854 5.7326 8.5116 0.30059 0.35117 0.64389 0.75977 0.97022 1.1249 1.7919 2.0344 3.7084 3.9564 5.6943 5.8009 1.8572 1.7166 3.8269 3.3986 5.8282 4.982 1.2201 0.96065 2.4815 1.9388 3.7715 2.8332 0.43506 0.23516 1.0059 0.16206 1.3604-0.18566 2.2421-1.6105 4.4061-3.3281 6.5045-5.1213 0.95978-0.82049 1.9431-1.6925 2.8831-2.5651 3.6526-3.3941 7.1192-7.1024 9.9313-11.258 1.7756-2.6675 3.3211-5.5428 4.119-8.6641 0.58845-2.2831 0.71167-4.7079 0.1698-7.013-0.80047-3.5638-3.0765-6.7607-6.1717-8.6975-2.3414-1.4923-5.1226-2.2496-7.8969-2.1691zm0.2783 2.3228c2.954-0.03216 5.906 1.0898 8.072 3.1029 2.3065 2.1106 3.7165 5.1769 3.7666 8.3079 0.05232 2.78-0.86372 5.4831-2.1071 7.9369-1.7284 3.3996-4.0882 6.4333-6.6181 9.2699-3.4852 3.8713-7.3648 7.3748-11.457 10.592-0.75542 0.58844-1.5217 1.1626-2.2875 1.7374-4.6065-3.39-8.9424-7.1594-12.852-11.337-2.7742-2.9841-5.354-6.1948-7.2796-9.7999-1.2993-2.4496-2.2801-5.1444-2.3449-7.9425-0.057319-2.9806 1.0886-5.9606 3.1284-8.1349 2.1491-2.3211 5.2681-3.7239 8.4372-3.7297 3.4275-0.05413 6.837 1.5105 9.031 4.1443 0.38279 0.4443 0.70192 0.93884 1.0529 1.4062 0.47361 0.47305 1.3524 0.39066 1.7205-0.17338 0.34246-0.48701 0.67331-0.9837 1.0757-1.4253 2.052-2.3603 5.0953-3.8157 8.2195-3.9415 0.14747-0.0091 0.29518-0.01008 0.44286-0.01296z" fill="#ff2a2a" stroke-width=".31043"/><path d="m35.121 4.2921c-2.8272-0.053982-5.5251 1.3193-7.5742 3.1911-0.8376 0.68831-1.3481 1.6732-2.1164 2.4168-0.51902 0.39571-1.1586-0.061597-1.4268-0.53802-1.8918-2.6881-4.904-4.6317-8.182-5.0416-1.8239-0.02796-3.7206-0.19892-5.4484 0.52169-3.9656 1.371-7.1079 4.9064-7.87 9.0504-0.47956 2.7511 0.021564 5.5949 1.1082 8.1453 2.392 5.6673 6.5365 10.372 10.86 14.656 3.1346 3.0324 6.4105 5.9428 9.9631 8.4787 0.34585 0.33692 0.82376 0.28136 1.1607-0.03387 3.1025-2.2018 5.9925-4.699 8.7548-7.312 4.5187-4.383 8.9251-9.1086 11.64-14.858 1.5348-3.2661 2.3162-7.1182 1.0857-10.613-1.3479-4.173-5.198-7.3824-9.5259-8.0173-0.80747-0.06181-1.6189-0.044752-2.428-0.04599z" fill="#f55" fill-opacity=".77951" stroke-width=".14778" style="paint-order:markers stroke fill"/></g></svg>
