<svg id="Flat-Expanded" enable-background="new 0 0 64 64" height="512" viewBox="0 0 64 64" width="512" xmlns="http://www.w3.org/2000/svg"><path d="m25 55v3c0 2.209 1.791 4 4 4h6c2.209 0 4-1.791 4-4v-3z" fill="#dbd8d5"/><path d="m16 9v34c0 4-2 6-2 10s4 6 8 6c6 0 10-4 10-4s4 4 10 4c4 0 8-2 8-6s-2-6-2-10c0-2 0-34 0-34s-6-6-16-6-16 6-16 6z" fill="#f4b34a"/><path d="m48.329 44.819c-.518-1.387-1.117-2.741-1.741-4.051-.706-1.484-1.666-2.845-2.828-4.008l-4.05-4.05c-2.4-2.4-3.88-5.56-4.18-8.93l-.26-2.79c-.15-1.69-1.57-2.99-3.27-2.99s-3.12 1.3-3.27 2.99l-.26 2.79c-.3 3.37-1.78 6.53-4.18 8.93l-4.05 4.05c-1.162 1.162-2.121 2.524-2.828 4.008-.624 1.31-1.223 2.665-1.741 4.051-.983 2.634-1.671 5.387-1.671 8.181 0 4 4 6 8 6 6 0 10-4 10-4s4 4 10 4c4 0 8-2 8-6 0-2.794-.688-5.547-1.671-8.181z" fill="#eae8e5"/><path d="m32 55c-2 0-7-3-7-5 0-3 1-4 7-4s7 1 7 4c0 2-5 5-7 5z" fill="#304b68"/><path d="m16 9s3 27 3 38c0 6-3 8-7 8-5 0-9-6-9-14 0-10 9-32 13-32z" fill="#d6713a"/><path d="m48 9s-3 27-3 38c0 6 3 8 7 8 5 0 9-6 9-14 0-10-9-32-13-32z" fill="#d6713a"/><g fill="#304b68"><path d="m26 24c0 1.657-1.343 4-3 4s-3-2.343-3-4 1.343-2 3-2 3 .343 3 2z"/><path d="m44 24c0 1.657-1.343 4-3 4s-3-2.343-3-4 1.343-2 3-2 3 .343 3 2z"/><path d="m24.414 19.207c-.756-.756-2.072-.756-2.828 0l-1.414-1.414c.756-.756 1.76-1.172 2.828-1.172s2.072.417 2.828 1.172z"/><path d="m42.414 19.207c-.756-.756-2.072-.756-2.828 0l-1.414-1.414c.756-.756 1.76-1.172 2.828-1.172s2.072.417 2.828 1.172z"/></g></svg>