<?xml version="1.0" encoding="UTF-8"?>
<!DOCTYPE svg PUBLIC "-//W3C//DTD SVG 1.1//EN" "http://www.w3.org/Graphics/SVG/1.1/DTD/svg11.dtd">
<svg version="1.2" width="180.63mm" height="180.63mm" viewBox="0 0 18063 18063" preserveAspectRatio="xMidYMid" fill-rule="evenodd" stroke-width="28.222" stroke-linejoin="round" xmlns="http://www.w3.org/2000/svg" xmlns:ooo="http://xml.openoffice.org/svg/export" xmlns:xlink="http://www.w3.org/1999/xlink" xmlns:presentation="http://sun.com/xmlns/staroffice/presentation" xmlns:smil="http://www.w3.org/2001/SMIL20/" xmlns:anim="urn:oasis:names:tc:opendocument:xmlns:animation:1.0" xml:space="preserve">
 <defs class="ClipPathGroup">
  <clipPath id="presentation_clip_path" clipPathUnits="userSpaceOnUse">
   <rect x="0" y="0" width="18063" height="18063"/>
  </clipPath>
 </defs>
 <defs class="TextShapeIndex">
  <g ooo:slide="id1" ooo:id-list="id3 id4 id5 id6 id7"/>
 </defs>
 <defs class="EmbeddedBulletChars">
  <g id="bullet-char-template(57356)" transform="scale(0.00048828125,-0.00048828125)">
   <path d="M 580,1141 L 1163,571 580,0 -4,571 580,1141 Z"/>
  </g>
  <g id="bullet-char-template(57354)" transform="scale(0.00048828125,-0.00048828125)">
   <path d="M 8,1128 L 1137,1128 1137,0 8,0 8,1128 Z"/>
  </g>
  <g id="bullet-char-template(10146)" transform="scale(0.00048828125,-0.00048828125)">
   <path d="M 174,0 L 602,739 174,1481 1456,739 174,0 Z M 1358,739 L 309,1346 659,739 1358,739 Z"/>
  </g>
  <g id="bullet-char-template(10132)" transform="scale(0.00048828125,-0.00048828125)">
   <path d="M 2015,739 L 1276,0 717,0 1260,543 174,543 174,936 1260,936 717,1481 1274,1481 2015,739 Z"/>
  </g>
  <g id="bullet-char-template(10007)" transform="scale(0.00048828125,-0.00048828125)">
   <path d="M 0,-2 C -7,14 -16,27 -25,37 L 356,567 C 262,823 215,952 215,954 215,979 228,992 255,992 264,992 276,990 289,987 310,991 331,999 354,1012 L 381,999 492,748 772,1049 836,1024 860,1049 C 881,1039 901,1025 922,1006 886,937 835,863 770,784 769,783 710,716 594,584 L 774,223 C 774,196 753,168 711,139 L 727,119 C 717,90 699,76 672,76 641,76 570,178 457,381 L 164,-76 C 142,-110 111,-127 72,-127 30,-127 9,-110 8,-76 1,-67 -2,-52 -2,-32 -2,-23 -1,-13 0,-2 Z"/>
  </g>
  <g id="bullet-char-template(10004)" transform="scale(0.00048828125,-0.00048828125)">
   <path d="M 285,-33 C 182,-33 111,30 74,156 52,228 41,333 41,471 41,549 55,616 82,672 116,743 169,778 240,778 293,778 328,747 346,684 L 369,508 C 377,444 397,411 428,410 L 1163,1116 C 1174,1127 1196,1133 1229,1133 1271,1133 1292,1118 1292,1087 L 1292,965 C 1292,929 1282,901 1262,881 L 442,47 C 390,-6 338,-33 285,-33 Z"/>
  </g>
  <g id="bullet-char-template(9679)" transform="scale(0.00048828125,-0.00048828125)">
   <path d="M 813,0 C 632,0 489,54 383,161 276,268 223,411 223,592 223,773 276,916 383,1023 489,1130 632,1184 813,1184 992,1184 1136,1130 1245,1023 1353,916 1407,772 1407,592 1407,412 1353,268 1245,161 1136,54 992,0 813,0 Z"/>
  </g>
  <g id="bullet-char-template(8226)" transform="scale(0.00048828125,-0.00048828125)">
   <path d="M 346,457 C 273,457 209,483 155,535 101,586 74,649 74,723 74,796 101,859 155,911 209,963 273,989 346,989 419,989 480,963 531,910 582,859 608,796 608,723 608,648 583,586 532,535 482,483 420,457 346,457 Z"/>
  </g>
  <g id="bullet-char-template(8211)" transform="scale(0.00048828125,-0.00048828125)">
   <path d="M -4,459 L 1135,459 1135,606 -4,606 -4,459 Z"/>
  </g>
 </defs>
 <defs class="TextEmbeddedBitmaps"/>
 <g class="SlideGroup">
  <g>
   <g id="id1" class="Slide" clip-path="url(#presentation_clip_path)">
    <g class="Page">
     <g class="Group">
      <g class="com.sun.star.drawing.ClosedBezierShape">
       <g id="id3">
        <rect class="BoundingBox" stroke="none" fill="none" x="5327" y="0" width="7411" height="4941"/>
        <path fill="rgb(0,0,153)" stroke="none" d="M 12207,0 L 5856,0 C 5564,0 5327,237 5327,529 L 5327,4411 C 5327,4703 5564,4940 5856,4940 L 12207,4940 C 12499,4940 12736,4703 12736,4411 L 12736,529 C 12736,237 12499,0 12207,0 Z M 12207,0 L 12207,0 Z"/>
       </g>
      </g>
      <g class="com.sun.star.drawing.ClosedBezierShape">
       <g id="id4">
        <rect class="BoundingBox" stroke="none" fill="none" x="5327" y="6562" width="7411" height="4941"/>
        <path fill="rgb(0,0,153)" stroke="none" d="M 12207,6562 L 5856,6562 C 5564,6562 5327,6799 5327,7091 L 5327,10973 C 5327,11265 5564,11502 5856,11502 L 12207,11502 C 12499,11502 12736,11265 12736,10973 L 12736,7091 C 12736,6799 12499,6562 12207,6562 Z M 12207,6562 L 12207,6562 Z"/>
       </g>
      </g>
      <g class="com.sun.star.drawing.ClosedBezierShape">
       <g id="id5">
        <rect class="BoundingBox" stroke="none" fill="none" x="5327" y="13123" width="7411" height="4941"/>
        <path fill="rgb(0,0,153)" stroke="none" d="M 12207,13123 L 5856,13123 C 5564,13123 5327,13360 5327,13652 L 5327,17534 C 5327,17826 5564,18063 5856,18063 L 12207,18063 C 12499,18063 12736,17826 12736,17534 L 12736,13652 C 12736,13360 12499,13123 12207,13123 Z M 12207,13123 L 12207,13123 Z"/>
       </g>
      </g>
      <g class="com.sun.star.drawing.ClosedBezierShape">
       <g id="id6">
        <rect class="BoundingBox" stroke="none" fill="none" x="13476" y="2752" width="4589" height="7411"/>
        <path fill="rgb(204,0,204)" stroke="none" d="M 16122,2752 L 14005,2752 C 13713,2752 13476,2989 13476,3281 13476,3574 13713,3810 14005,3810 L 16122,3810 C 16609,3810 17005,4206 17005,4693 L 17005,6809 C 17005,7296 16609,7692 16122,7692 L 15283,7692 15791,7184 C 15998,6977 15998,6642 15791,6435 15584,6229 15249,6229 15042,6435 L 13631,7847 C 13424,8053 13424,8388 13631,8595 L 15042,10006 C 15146,10110 15281,10161 15417,10161 15552,10161 15688,10110 15791,10006 15998,9800 15998,9465 15791,9258 L 15283,8750 16122,8750 C 17193,8750 18063,7880 18063,6809 L 18063,4693 C 18063,3622 17193,2752 16122,2752 Z M 16122,2752 L 16122,2752 Z"/>
       </g>
      </g>
      <g class="com.sun.star.drawing.ClosedBezierShape">
       <g id="id7">
        <rect class="BoundingBox" stroke="none" fill="none" x="0" y="9313" width="4589" height="7410"/>
        <path fill="rgb(204,0,204)" stroke="none" d="M 3021,12996 C 2814,12790 2479,12790 2272,12996 2065,13203 2065,13538 2272,13745 L 2780,14253 1941,14253 C 1454,14253 1059,13857 1059,13370 L 1059,11254 C 1059,10767 1454,10371 1941,10371 L 4058,10371 C 4350,10371 4587,10135 4587,9842 4587,9550 4350,9313 4058,9313 L 1941,9313 C 871,9313 0,10183 0,11254 L 0,13370 C 0,14441 871,15311 1941,15311 L 2780,15311 2272,15819 C 2065,16026 2065,16361 2272,16567 2375,16671 2511,16722 2646,16722 2782,16722 2917,16671 3021,16567 L 4432,15156 C 4639,14949 4639,14614 4432,14408 L 3021,12996 Z M 3021,12996 L 3021,12996 Z"/>
       </g>
      </g>
     </g>
    </g>
   </g>
  </g>
 </g>
</svg>