<?xml version="1.0" encoding="UTF-8"?>
<!DOCTYPE svg PUBLIC "-//W3C//DTD SVG 1.1//EN" "http://www.w3.org/Graphics/SVG/1.1/DTD/svg11.dtd">
<svg version="1.2" width="115.82mm" height="98.67mm" viewBox="681 2396 11582 9867" preserveAspectRatio="xMidYMid" fill-rule="evenodd" stroke-width="28.222" stroke-linejoin="round" xmlns="http://www.w3.org/2000/svg" xmlns:ooo="http://xml.openoffice.org/svg/export" xmlns:xlink="http://www.w3.org/1999/xlink" xmlns:presentation="http://sun.com/xmlns/staroffice/presentation" xmlns:smil="http://www.w3.org/2001/SMIL20/" xmlns:anim="urn:oasis:names:tc:opendocument:xmlns:animation:1.0" xml:space="preserve">
 <defs class="EmbeddedBulletChars">
  <g id="bullet-char-template-57356" transform="scale(0.00048828125,-0.00048828125)">
   <path d="M 580,1141 L 1163,571 580,0 -4,571 580,1141 Z"/>
  </g>
  <g id="bullet-char-template-57354" transform="scale(0.00048828125,-0.00048828125)">
   <path d="M 8,1128 L 1137,1128 1137,0 8,0 8,1128 Z"/>
  </g>
  <g id="bullet-char-template-10146" transform="scale(0.00048828125,-0.00048828125)">
   <path d="M 174,0 L 602,739 174,1481 1456,739 174,0 Z M 1358,739 L 309,1346 659,739 1358,739 Z"/>
  </g>
  <g id="bullet-char-template-10132" transform="scale(0.00048828125,-0.00048828125)">
   <path d="M 2015,739 L 1276,0 717,0 1260,543 174,543 174,936 1260,936 717,1481 1274,1481 2015,739 Z"/>
  </g>
  <g id="bullet-char-template-10007" transform="scale(0.00048828125,-0.00048828125)">
   <path d="M 0,-2 C -7,14 -16,27 -25,37 L 356,567 C 262,823 215,952 215,954 215,979 228,992 255,992 264,992 276,990 289,987 310,991 331,999 354,1012 L 381,999 492,748 772,1049 836,1024 860,1049 C 881,1039 901,1025 922,1006 886,937 835,863 770,784 769,783 710,716 594,584 L 774,223 C 774,196 753,168 711,139 L 727,119 C 717,90 699,76 672,76 641,76 570,178 457,381 L 164,-76 C 142,-110 111,-127 72,-127 30,-127 9,-110 8,-76 1,-67 -2,-52 -2,-32 -2,-23 -1,-13 0,-2 Z"/>
  </g>
  <g id="bullet-char-template-10004" transform="scale(0.00048828125,-0.00048828125)">
   <path d="M 285,-33 C 182,-33 111,30 74,156 52,228 41,333 41,471 41,549 55,616 82,672 116,743 169,778 240,778 293,778 328,747 346,684 L 369,508 C 377,444 397,411 428,410 L 1163,1116 C 1174,1127 1196,1133 1229,1133 1271,1133 1292,1118 1292,1087 L 1292,965 C 1292,929 1282,901 1262,881 L 442,47 C 390,-6 338,-33 285,-33 Z"/>
  </g>
  <g id="bullet-char-template-9679" transform="scale(0.00048828125,-0.00048828125)">
   <path d="M 813,0 C 632,0 489,54 383,161 276,268 223,411 223,592 223,773 276,916 383,1023 489,1130 632,1184 813,1184 992,1184 1136,1130 1245,1023 1353,916 1407,772 1407,592 1407,412 1353,268 1245,161 1136,54 992,0 813,0 Z"/>
  </g>
  <g id="bullet-char-template-8226" transform="scale(0.00048828125,-0.00048828125)">
   <path d="M 346,457 C 273,457 209,483 155,535 101,586 74,649 74,723 74,796 101,859 155,911 209,963 273,989 346,989 419,989 480,963 531,910 582,859 608,796 608,723 608,648 583,586 532,535 482,483 420,457 346,457 Z"/>
  </g>
  <g id="bullet-char-template-8211" transform="scale(0.00048828125,-0.00048828125)">
   <path d="M -4,459 L 1135,459 1135,606 -4,606 -4,459 Z"/>
  </g>
  <g id="bullet-char-template-61548" transform="scale(0.00048828125,-0.00048828125)">
   <path d="M 173,740 C 173,903 231,1043 346,1159 462,1274 601,1332 765,1332 928,1332 1067,1274 1183,1159 1299,1043 1357,903 1357,740 1357,577 1299,437 1183,322 1067,206 928,148 765,148 601,148 462,206 346,322 231,437 173,577 173,740 Z"/>
  </g>
 </defs>
 <g class="Page">
  <g class="Group">
   <g class="com.sun.star.drawing.ClosedBezierShape">
    <g id="id3">
     <rect class="BoundingBox" stroke="none" fill="none" x="681" y="3351" width="2673" height="7962"/>
     <path fill="rgb(52,101,164)" stroke="none" d="M 2007,4772 C 1831,4772 1678,4703 1547,4565 1415,4427 1350,4264 1350,4075 1350,3883 1414,3714 1544,3569 1674,3424 1828,3352 2007,3352 2203,3352 2367,3420 2498,3556 2630,3692 2695,3851 2695,4033 2695,4232 2629,4405 2496,4552 2362,4699 2199,4772 2007,4772 Z M 845,11311 L 845,10965 1097,10938 C 1437,10914 1607,10744 1607,10429 L 1607,7236 C 1607,6809 1299,6572 682,6527 L 682,6180 2511,6075 2590,6149 2590,10366 C 2590,10566 2652,10707 2777,10791 2901,10875 3093,10933 3352,10965 L 3352,11311 845,11311 Z"/>
    </g>
   </g>
   <g class="com.sun.star.drawing.CustomShape">
    <g id="id4">
     <rect class="BoundingBox" stroke="none" fill="none" x="4358" y="6957" width="1595" height="1596"/>
     <path fill="rgb(52,101,164)" stroke="none" d="M 5952,7755 C 5952,7895 5915,8032 5845,8153 5775,8275 5675,8375 5554,8445 5432,8515 5295,8552 5155,8552 5015,8552 4878,8515 4757,8445 4635,8375 4535,8275 4465,8153 4395,8032 4358,7895 4358,7755 4358,7615 4395,7478 4465,7356 4535,7235 4635,7135 4756,7065 4878,6995 5015,6958 5155,6958 5295,6958 5432,6995 5553,7065 5675,7135 5775,7235 5845,7356 5915,7478 5952,7615 5952,7755 L 5952,7755 Z"/>
    </g>
   </g>
   <g class="com.sun.star.drawing.ClosedBezierShape">
    <g id="id5">
     <rect class="BoundingBox" stroke="none" fill="none" x="6356" y="5851" width="1098" height="3620"/>
     <path fill="rgb(52,101,164)" stroke="none" d="M 6357,9469 C 6559,9174 6705,8885 6794,8602 6883,8320 6927,8006 6927,7660 6927,7312 6882,6995 6791,6709 6700,6423 6555,6137 6357,5852 L 6889,5852 C 7089,6139 7233,6424 7320,6708 7408,6993 7452,7309 7452,7658 7452,8009 7408,8327 7320,8611 7233,8895 7089,9181 6889,9469 L 6357,9469 Z"/>
    </g>
   </g>
   <g class="com.sun.star.drawing.ClosedBezierShape">
    <g id="id6">
     <rect class="BoundingBox" stroke="none" fill="none" x="7651" y="4152" width="1994" height="6579"/>
     <path fill="rgb(52,101,164)" stroke="none" d="M 7652,10729 C 8019,10192 8284,9666 8446,9153 8608,8640 8689,8068 8689,7439 8689,6807 8606,6231 8441,5711 8275,5191 8013,4671 7652,4152 L 8620,4152 C 8983,4674 9244,5193 9404,5709 9563,6226 9643,6802 9643,7436 9643,8074 9563,8652 9404,9169 9244,9685 8983,10206 8620,10729 L 7652,10729 Z"/>
    </g>
   </g>
   <g class="com.sun.star.drawing.ClosedBezierShape">
    <g id="id7">
     <rect class="BoundingBox" stroke="none" fill="none" x="9274" y="2396" width="2989" height="9867"/>
     <path fill="rgb(52,101,164)" stroke="none" d="M 9274,12261 C 9826,11455 10223,10667 10465,9897 10708,9127 10830,8270 10830,7326 10830,6379 10706,5515 10458,4735 10210,3954 9815,3175 9274,2396 L 10726,2396 C 11271,3178 11663,3957 11902,4732 12141,5507 12261,6370 12261,7321 12261,8279 12141,9145 11902,9920 11663,10695 11271,11476 10726,12261 L 9274,12261 Z"/>
    </g>
   </g>
  </g>
 </g>
</svg>