<svg height="512" viewBox="0 0 64 64" width="512" xmlns="http://www.w3.org/2000/svg"><g id="Tools"><path d="m53.02 13.84 3.52-.69 4.26-7.09-2.83-2.83-7.01 4.18-.77 3.6-28.05 28.05 2.83 2.83z" fill="#ff5023"/><path d="m59.8 5.06-4.26 7.09-3.52.69-28.05 28.05 1 1 28.05-28.05 3.52-.69 4.26-7.09z" fill="#ed1c24"/><path d="m58.16 45.44a8.976 8.976 0 0 0 -8.11-2.47l-13.08-13.08-2.83-2.83-13.11-13.11a9 9 0 0 0 -12.7-9.87l5.99 6-.7 3.54-3.54.7-6-5.99a9 9 0 0 0 9.87 12.7l13.11 13.11 2.83 2.83 13.08 13.08a9 9 0 1 0 15.19-4.61zm-3.095 9.625-4.465 1.195-3.266-3.266 1.2-4.461 4.461-1.2 3.265 3.267z" fill="#f7941d"/><path d="m59.16 56.16a9 9 0 0 1 -15.19-8.11l-13.08-13.08-2.83-2.83-13.11-13.11a8.983 8.983 0 0 1 -10.586-10.417l-.284-.283a9 9 0 0 0 9.87 12.7l13.11 13.11 2.83 2.83 13.08 13.08a9 9 0 0 0 17.3 4.757 8.961 8.961 0 0 1 -1.11 1.353z" fill="#ee8700"/><path d="m26.273 40.587-2.83-2.83-4.243-4.242-2.828 2.828 1.414 1.414a2 2 0 0 1 -2.829 2.829l-.707-.707-9.9 9.9a6 6 0 0 0 0 8.485l1.414 1.415a6 6 0 0 0 8.485 0l9.9-9.9-.707-.707a2 2 0 1 1 2.828-2.828l1.414 1.414 2.829-2.829z" fill="#006df0"/><path d="m16.787 36.758v-.001l-.414-.414z" fill="#006df0"/><path d="m26.6 45.036h4v1.414h-4z" fill="#005ece" transform="matrix(.707 -.707 .707 .707 -23.968 33.621)"/><path d="m26.272 46.242-1-1a2 2 0 1 0 -2.828 2.828l.707.707-9.9 9.9a6 6 0 0 1 -8.485 0l1 1a6 6 0 0 0 8.485 0l9.9-9.9-.707-.707a2 2 0 0 1 2.828-2.829z" fill="#005ece"/><path d="m24.854 37.172h.004v4.002h-.004z" fill="#9bc9ff" transform="matrix(.707 -.707 .707 .707 -20.419 29.05)"/><g fill="#ffc477"><path d="m18.101 18.101h2v2h-2z" transform="matrix(.707 -.707 .707 .707 -7.912 19.101)"/><path d="m31 16.444h2v31.113h-2z" transform="matrix(.707 -.707 .707 .707 -13.255 32)"/><path d="m44.101 44.101h2v2h-2z" transform="matrix(.707 -.707 .707 .707 -18.681 45.101)"/></g><path d="m3.929 48h14.142v2h-14.142z" fill="#bddbff" transform="matrix(.707 -.707 .707 .707 -31.426 22.13)"/><path d="m7.929 52h14.142v2h-14.142z" fill="#bddbff" transform="matrix(.707 -.707 .707 .707 -33.083 26.13)"/></g></svg>