<?xml version="1.0" encoding="iso-8859-1"?>
<!-- Generator: Adobe Illustrator 19.0.0, SVG Export Plug-In . SVG Version: 6.00 Build 0)  -->
<svg version="1.1" id="Capa_1" xmlns="http://www.w3.org/2000/svg" xmlns:xlink="http://www.w3.org/1999/xlink" x="0px" y="0px"
	 viewBox="0 0 512 512" style="enable-background:new 0 0 512 512;" xml:space="preserve">
<circle style="fill:#FFE17D;" cx="256" cy="256" r="256"/>
<path style="fill:#FFD164;" d="M423.675,361.62c22.702-35.934,34.197-79.646,29.469-126.272
	c-9.378-92.487-84.014-167.12-176.501-176.493c-46.623-4.725-90.331,6.77-126.264,29.47c-6.194,3.913-14.179-1.326-12.639-8.489
	c4.623-21.494,12.021-41.956,21.825-60.985C65.994,56.941,0.002,148.737,0,255.994C-0.003,398.062,113.94,512.004,256.008,512
	c107.257-0.003,199.051-65.994,237.142-159.567c-19.029,9.805-39.491,17.202-60.986,21.825
	C425.001,375.8,419.762,367.814,423.675,361.62z"/>
<circle style="fill:#EDEBED;" cx="256" cy="256" r="181.68"/>
<path style="fill:#DBD9DC;" d="M124.896,169.933c-19.309,29.307-29.107,65.422-24.794,104.035
	c8.025,71.837,66.08,129.897,137.916,137.928c38.617,4.317,74.738-5.48,104.048-24.793c4.351-2.867,2.84-9.641-2.303-10.479
	c-104.693-17.042-187.346-99.696-204.389-204.389C134.538,167.093,127.763,165.581,124.896,169.933z"/>
<path style="fill:#FFD164;" d="M256,487.226C128.5,487.226,24.774,383.5,24.774,256S128.5,24.774,256,24.774
	S487.226,128.5,487.226,256S383.5,487.226,256,487.226z M256,41.29C137.605,41.29,41.29,137.605,41.29,256
	S137.605,470.71,256,470.71S470.71,374.395,470.71,256S374.395,41.29,256,41.29z"/>
<path style="fill:#FFC350;" d="M435.596,373.464C397.201,431.97,331.059,470.71,256,470.71c-118.395,0-214.71-96.315-214.71-214.71
	c0-75.058,38.74-141.202,97.246-179.597c1.828-7.911,4.052-15.663,6.617-23.266C73.48,92.457,24.774,168.64,24.774,256
	C24.774,383.5,128.5,487.226,256,487.226c87.36,0,163.543-48.706,202.863-120.38C451.261,369.411,443.509,371.636,435.596,373.464z"
	/>
<path style="fill:#9C969E;" d="M317.048,322.879c-14.694,14.121-33.444,21.895-52.79,21.895c-35.052,0-64.865-24.868-75.895-59.411
	h84.153c5.702,0,10.323-4.621,10.323-10.323s-4.621-10.323-10.323-10.323h-88.374c-0.255-2.87-0.4-5.775-0.4-8.718
	s0.145-5.848,0.4-8.718h88.374c5.702,0,10.323-4.621,10.323-10.323s-4.621-10.323-10.323-10.323h-84.153
	c11.03-34.543,40.842-59.411,75.895-59.411c19.347,0,38.097,7.774,52.79,21.895c4.105,3.952,10.653,3.806,14.597-0.29
	c3.952-4.113,3.823-10.645-0.29-14.597c-18.565-17.831-42.395-27.653-67.097-27.653c-46.367,0-85.449,33.959-97.353,80.056h-18.26
	c-5.702,0-10.323,4.621-10.323,10.323s4.621,10.323,10.323,10.323h14.86c-0.212,2.885-0.408,5.775-0.408,8.718
	c0,2.943,0.197,5.833,0.408,8.718h-14.86c-5.702,0-10.323,4.621-10.323,10.323s4.621,10.323,10.323,10.323h18.26
	c11.905,46.098,50.986,80.056,97.353,80.056c24.702,0,48.532-9.823,67.097-27.653c4.113-3.952,4.242-10.484,0.29-14.597
	C327.702,319.056,321.153,318.935,317.048,322.879z"/>
<g>
</g>
<g>
</g>
<g>
</g>
<g>
</g>
<g>
</g>
<g>
</g>
<g>
</g>
<g>
</g>
<g>
</g>
<g>
</g>
<g>
</g>
<g>
</g>
<g>
</g>
<g>
</g>
<g>
</g>
</svg>
