<svg width="88.9" height="77.9" version="1.1" viewBox="0 0 88.9 77.9" xmlns="http://www.w3.org/2000/svg">
 <path d="m83.3 19c-5.3-8.9-13.8-15.3-23.9-17.8s-20.6-1-29.6 4.3c-7.8 4.7-13.6 11.7-16.7 20.2l-3.7-6.9c-1.3-2.4-4.4-3.3-6.8-2s-3.3 4.4-2 6.8l9.4 17.3c0.1 0.2 0.2 0.4 0.4 0.6 1 1.3 2.5 2 4 2 0.8 0 1.6-0.2 2.4-0.6l17.3-9.4c2.4-1.3 3.3-4.4 2-6.8s-4.4-3.3-6.8-2l-6.5 3.5c2.3-5.9 6.5-10.9 12.1-14.2 6.7-4 14.5-5.1 22-3.2s13.8 6.6 17.8 13.3 5.1 14.5 3.2 22c-2.1 8.1-7.5 15-15 18.8-2.2 1.1-4.5 1.9-6.9 2.5-2.4 0.5-4.8 0.7-7.2 0.6-2-0.1-4.1-0.4-6.1-0.9-2.6-0.7-5.2-1.7-7.5-3.1-2.4-1.4-5.4-0.6-6.8 1.8s-0.6 5.4 1.8 6.8c3.1 1.8 6.5 3.2 10.1 4.1 2.7 0.7 5.4 1.1 8.2 1.2h1.4c2.8 0 5.6-0.3 8.3-0.9 3.2-0.7 6.3-1.8 9.3-3.3 10.1-5.1 17.4-14.3 20.2-25.2 2.5-10 0.9-20.5-4.4-29.5z" fill="#ff9940"/>
</svg>
