<svg id="Layer_1" enable-background="new 0 0 256 256" height="512" viewBox="0 0 256 256" width="512" xmlns="http://www.w3.org/2000/svg"><g><path d="m96.265 135.603-6.314-3.645c-.795-.459-1.067-1.475-.608-2.269l7.994-13.847c.459-.795 1.475-1.067 2.269-.608l6.314 3.645c.795.459 1.067 1.475.608 2.269l-7.994 13.847c-.459.794-1.475 1.066-2.269.608z" fill="#a4c9ff"/><path d="m117.557 147.896-6.314-3.645c-.795-.459-1.067-1.475-.608-2.269l7.994-13.847c.459-.795 1.475-1.067 2.269-.608l6.314 3.645c.795.459 1.067 1.475.608 2.269l-7.994 13.847c-.459.794-1.475 1.066-2.269.608z" fill="#a4c9ff"/><path d="m137.223 140.908 3.115-5.395c.688-1.192.28-2.716-.912-3.404l-44.597-25.748c-1.192-.688-2.716-.28-3.404.912l-3.115 5.395c-.688 1.192-.28 2.716.912 3.404l44.597 25.748c1.192.688 2.716.279 3.404-.912z" fill="#e0ebfc"/><path d="m188.001 39.912-52.066 90.181-37.615-21.716 52.066-90.181c1.147-1.986 3.687-2.667 5.673-1.52l30.421 17.564c1.987 1.146 2.668 3.685 1.521 5.672z" fill="#4671c6"/><path d="m183.858 32.725 5.379-9.317c1.147-1.986.466-4.526-1.52-5.673l-17.983-10.383c-1.986-1.147-4.526-.466-5.673 1.52l-5.379 9.317z" fill="#a4c9ff"/><circle cx="157.092" cy="92.645" fill="#a4c9ff" r="19.548"/><circle cx="157.091" cy="92.645" fill="#e0ebfc" r="8.743"/><path d="m176.545 90.763c.059.62.095 1.247.095 1.882 0 7.059-3.755 13.226-9.363 16.662 11.807 8.141 19.562 21.752 19.562 37.148 0 24.875-20.237 45.113-45.112 45.113-10.472 0-20.114-3.596-27.778-9.606h-27.483c11.69 18.155 32.064 30.189 55.262 30.189 36.283 0 65.696-29.413 65.696-65.696-.001-23.49-12.338-44.082-30.879-55.692z" fill="#4671c6"/><path d="m127.099 184.004h-75.911c-1.442 0-2.611-1.169-2.611-2.611v-5.739c0-1.442 1.169-2.611 2.611-2.611h75.911c1.442 0 2.611 1.169 2.611 2.611v5.739c0 1.442-1.169 2.611-2.611 2.611z" fill="#a4c9ff"/><path d="m116.728 184.004v59.435h51.972l-17.874-56.239c-.605-1.903-2.372-3.196-4.37-3.196z" fill="#e0ebfc"/><circle cx="137.357" cy="208.894" fill="#4671c6" r="8.425"/><path d="m176.007 249.205h-66.585c-1.442 0-2.611-1.169-2.611-2.611v-6.31c0-1.442 1.169-2.611 2.611-2.611h66.585c1.442 0 2.611 1.169 2.611 2.611v6.31c0 1.442-1.169 2.611-2.611 2.611z" fill="#a4c9ff"/><g fill="#3762cc"><path d="m167.834 92.646c0-5.924-4.819-10.743-10.743-10.743-5.923 0-10.743 4.819-10.743 10.743 0 5.923 4.819 10.742 10.743 10.742s10.743-4.82 10.743-10.742zm-10.743 6.742c-3.718 0-6.743-3.024-6.743-6.742s3.025-6.743 6.743-6.743 6.743 3.025 6.743 6.743-3.024 6.742-6.743 6.742z"/><path d="m137.357 198.47c-5.748 0-10.425 4.677-10.425 10.425s4.677 10.425 10.425 10.425c5.749 0 10.425-4.677 10.425-10.425s-4.677-10.425-10.425-10.425zm0 16.849c-3.542 0-6.425-2.882-6.425-6.425s2.882-6.425 6.425-6.425 6.425 2.882 6.425 6.425-2.882 6.425-6.425 6.425z"/><path d="m209.423 146.455c0-23.145-11.584-44.331-31.027-56.875-.836-5.829-4.002-10.9-8.534-14.252l19.871-34.417c1.696-2.938.686-6.709-2.252-8.405v-.001l-.89-.514 4.379-7.585c1.696-2.938.686-6.708-2.252-8.405l-17.983-10.38c-2.937-1.698-6.702-.701-8.406 2.251l-4.379 7.585-.891-.514c-2.938-1.695-6.709-.685-8.405 2.253l-51.066 88.449-1.761-1.017c-2.145-1.238-4.897-.5-6.135 1.645l-3.115 5.395c-1.237 2.146-.5 4.897 1.645 6.137l4.255 2.456-4.866 8.428c-1.008 1.748-.407 3.991 1.341 5.001 6.89 3.977 6.878 4.138 8.138 4.138 1.274 0 2.5-.661 3.176-1.833l4.866-8.428 8.638 4.987-4.866 8.429c-.489.847-.619 1.833-.366 2.777.253.945.859 1.735 1.706 2.224l6.313 3.646c.564.325 1.19.492 1.825.492 1.253 0 2.49-.644 3.177-1.833l4.866-8.428 6.395 3.692c2.149 1.243 4.895.507 6.136-1.644l3.114-5.394c1.242-2.149.507-4.895-1.644-6.137l-1.759-1.016 9.803-16.981c2.643 1.159 5.556 1.813 8.622 1.813 3.63 0 7.048-.911 10.052-2.503 11.095 8.128 17.696 21.021 17.696 34.764 0 19.263-13.207 36.448-31.658 41.552l-.449-1.413c-.873-2.746-3.395-4.591-6.276-4.591h-14.808c.027-.202.062-.402.062-.611v-5.739c0-2.543-2.069-4.611-4.611-4.611h-75.912c-2.542 0-4.611 2.068-4.611 4.611v5.739c0 2.543 2.068 4.611 4.611 4.611h35.634c7.145 9.907 16.752 17.659 27.907 22.522v27.146h-5.307c-2.542 0-4.611 2.068-4.611 4.611v6.311c0 2.543 2.069 4.611 4.611 4.611h66.584c2.542 0 4.611-2.068 4.611-4.611v-6.311c0-2.543-2.069-4.611-4.611-4.611h-7.676l-7.695-24.21c28.83-8.357 48.788-34.783 48.788-65.006zm-43.63-136.583c.601-1.04 1.924-1.378 2.941-.787l17.982 10.381c1.028.594 1.382 1.914.789 2.941l-4.379 7.585-21.712-12.535zm-64.125 115.694-4.697 8.135-5.727-3.307 4.697-8.135 5.475 3.161zm21.292 12.293-4.697 8.135-5.726-3.307 4.696-8.135 1.846 1.066zm15.646-3.346-3.115 5.395c-.084.146-.208.205-.298.229-.09.023-.228.035-.373-.05-9.185-5.303-35.469-20.477-44.597-25.747-.235-.136-.316-.438-.181-.673l3.115-5.395c.091-.157.257-.246.427-.246.083 0 .167.021.245.066 25.822 14.908 11.951 6.901 44.598 25.749.146.084.205.208.229.298s.034.228-.05.374zm6.358-24.06-9.762 16.908-34.15-19.717 51.066-88.449c.596-1.032 1.912-1.382 2.941-.788 1.824 1.053 25.628 14.796 30.42 17.563 1.028.595 1.382 1.914.789 2.942l-19.826 34.339c-2.771-1.347-6.088-2.154-9.352-2.154-11.882 0-21.548 9.667-21.548 21.549.001 7.091 3.558 13.809 9.422 17.807zm-5.421-17.807c0-9.677 7.872-17.549 17.548-17.549 2.935 0 6.138.803 8.963 2.489 5.315 3.176 8.586 8.879 8.586 15.06 0 9.836-8.085 17.548-17.548 17.548-9.743-.001-17.549-7.974-17.549-17.548zm49.296 53.809c0-14.529-6.732-28.202-18.144-37.117 4.495-3.67 7.296-8.891 7.841-14.65.006-.06.019-.118.024-.179 16.889 11.955 26.862 31.109 26.862 51.946 0 28.472-18.819 53.373-45.996 61.204l-1.168-3.675-3.864-12.159c20.39-5.663 34.445-24.02 34.445-45.37zm-138.262 34.938v-5.739c0-.337.274-.611.611-.611h75.911c.337 0 .611.274.611.611v5.739c0 .337-.274.611-.611.611-11.012 0-66.103 0-75.911 0-.337 0-.611-.275-.611-.611zm41.244 4.611h22.907v18.145c-8.94-4.193-16.761-10.39-22.907-18.145zm84.797 54.279v6.311c0 .337-.274.611-.611.611h-66.584c-.337 0-.611-.274-.611-.611v-6.311c0-.337.274-.611.611-.611h7.307 50.139 9.139c.335 0 .61.274.61.611zm-57.889-4.611v-28.458-21.21h8.37 19.358c1.131 0 2.121.725 2.463 1.802l1.019 3.206c0 .001 0 .002.001.003l4.52 14.219 9.674 30.438z"/></g></g></svg>