<?xml version="1.0" encoding="UTF-8"?>
<!DOCTYPE svg PUBLIC "-//W3C//DTD SVG 1.1//EN" "http://www.w3.org/Graphics/SVG/1.1/DTD/svg11.dtd">
<svg version="1.2" width="157.34mm" height="156.83mm" viewBox="-1 61 15734 15683" preserveAspectRatio="xMidYMid" fill-rule="evenodd" stroke-width="28.222" stroke-linejoin="round" xmlns="http://www.w3.org/2000/svg" xmlns:ooo="http://xml.openoffice.org/svg/export" xmlns:xlink="http://www.w3.org/1999/xlink" xmlns:presentation="http://sun.com/xmlns/staroffice/presentation" xmlns:smil="http://www.w3.org/2001/SMIL20/" xmlns:anim="urn:oasis:names:tc:opendocument:xmlns:animation:1.0" xml:space="preserve">
 <defs class="EmbeddedBulletChars">
  <g id="bullet-char-template-57356" transform="scale(0.00048828125,-0.00048828125)">
   <path d="M 580,1141 L 1163,571 580,0 -4,571 580,1141 Z"/>
  </g>
  <g id="bullet-char-template-57354" transform="scale(0.00048828125,-0.00048828125)">
   <path d="M 8,1128 L 1137,1128 1137,0 8,0 8,1128 Z"/>
  </g>
  <g id="bullet-char-template-10146" transform="scale(0.00048828125,-0.00048828125)">
   <path d="M 174,0 L 602,739 174,1481 1456,739 174,0 Z M 1358,739 L 309,1346 659,739 1358,739 Z"/>
  </g>
  <g id="bullet-char-template-10132" transform="scale(0.00048828125,-0.00048828125)">
   <path d="M 2015,739 L 1276,0 717,0 1260,543 174,543 174,936 1260,936 717,1481 1274,1481 2015,739 Z"/>
  </g>
  <g id="bullet-char-template-10007" transform="scale(0.00048828125,-0.00048828125)">
   <path d="M 0,-2 C -7,14 -16,27 -25,37 L 356,567 C 262,823 215,952 215,954 215,979 228,992 255,992 264,992 276,990 289,987 310,991 331,999 354,1012 L 381,999 492,748 772,1049 836,1024 860,1049 C 881,1039 901,1025 922,1006 886,937 835,863 770,784 769,783 710,716 594,584 L 774,223 C 774,196 753,168 711,139 L 727,119 C 717,90 699,76 672,76 641,76 570,178 457,381 L 164,-76 C 142,-110 111,-127 72,-127 30,-127 9,-110 8,-76 1,-67 -2,-52 -2,-32 -2,-23 -1,-13 0,-2 Z"/>
  </g>
  <g id="bullet-char-template-10004" transform="scale(0.00048828125,-0.00048828125)">
   <path d="M 285,-33 C 182,-33 111,30 74,156 52,228 41,333 41,471 41,549 55,616 82,672 116,743 169,778 240,778 293,778 328,747 346,684 L 369,508 C 377,444 397,411 428,410 L 1163,1116 C 1174,1127 1196,1133 1229,1133 1271,1133 1292,1118 1292,1087 L 1292,965 C 1292,929 1282,901 1262,881 L 442,47 C 390,-6 338,-33 285,-33 Z"/>
  </g>
  <g id="bullet-char-template-9679" transform="scale(0.00048828125,-0.00048828125)">
   <path d="M 813,0 C 632,0 489,54 383,161 276,268 223,411 223,592 223,773 276,916 383,1023 489,1130 632,1184 813,1184 992,1184 1136,1130 1245,1023 1353,916 1407,772 1407,592 1407,412 1353,268 1245,161 1136,54 992,0 813,0 Z"/>
  </g>
  <g id="bullet-char-template-8226" transform="scale(0.00048828125,-0.00048828125)">
   <path d="M 346,457 C 273,457 209,483 155,535 101,586 74,649 74,723 74,796 101,859 155,911 209,963 273,989 346,989 419,989 480,963 531,910 582,859 608,796 608,723 608,648 583,586 532,535 482,483 420,457 346,457 Z"/>
  </g>
  <g id="bullet-char-template-8211" transform="scale(0.00048828125,-0.00048828125)">
   <path d="M -4,459 L 1135,459 1135,606 -4,606 -4,459 Z"/>
  </g>
  <g id="bullet-char-template-61548" transform="scale(0.00048828125,-0.00048828125)">
   <path d="M 173,740 C 173,903 231,1043 346,1159 462,1274 601,1332 765,1332 928,1332 1067,1274 1183,1159 1299,1043 1357,903 1357,740 1357,577 1299,437 1183,322 1067,206 928,148 765,148 601,148 462,206 346,322 231,437 173,577 173,740 Z"/>
  </g>
 </defs>
 <g class="Page">
  <g class="Group">
   <g class="com.sun.star.drawing.ClosedBezierShape">
    <g id="id3">
     <rect class="BoundingBox" stroke="none" fill="none" x="3493" y="9511" width="11998" height="4235"/>
     <path fill="rgb(212,225,244)" stroke="none" d="M 14379,9623 L 14342,9643 10428,12331 C 9811,12631 9114,12728 8438,12608 L 5609,12087 C 5298,12010 4969,12054 4690,12211 4686,12213 4683,12215 4680,12217 L 3494,12967 3731,13744 5032,12922 C 5035,12920 5039,12918 5042,12916 5322,12759 5650,12715 5961,12791 L 8790,13312 C 9466,13433 10163,13336 10781,13036 L 15490,9802 C 15203,9497 14747,9424 14379,9623 Z"/>
    </g>
   </g>
   <g class="com.sun.star.drawing.ClosedBezierShape">
    <g id="id4">
     <rect class="BoundingBox" stroke="none" fill="none" x="-1" y="8777" width="15734" height="6967"/>
     <path fill="rgb(6,53,201)" stroke="none" d="M 13883,9344 C 13554,8949 12987,8797 12556,9015 12554,9016 12553,9017 12551,9018 L 12365,9118 C 11897,8725 11233,8666 10703,8971 L 9678,9528 8314,9528 C 8020,9528 7729,9461 7463,9333 L 7276,9242 C 6182,8710 4883,8837 3914,9571 3910,9574 3905,9578 3901,9582 L 3447,9985 C 3278,10135 3079,10247 2863,10313 L 2607,9474 C 2580,9385 2498,9325 2405,9325 L 211,9325 C 151,9325 93,9350 53,9396 13,9441 -6,9501 2,9562 L 733,15558 C 746,15663 836,15743 943,15743 L 4233,15743 C 4300,15743 4363,15711 4403,15658 4443,15604 4455,15534 4436,15470 L 4005,14057 5345,13209 C 5524,13110 5733,13083 5931,13133 5935,13135 5940,13136 5944,13136 L 8683,13641 C 9429,13774 10198,13665 10877,13331 10887,13326 10895,13321 10903,13316 L 15640,10063 C 15732,10000 15759,9876 15702,9780 15342,9180 14573,8970 13958,9303 L 13883,9344 Z M 12749,9392 C 12993,9270 13298,9367 13497,9552 L 11709,10516 11611,10568 C 11555,10411 11474,10265 11372,10134 L 12749,9392 Z M 10908,9341 L 10913,9338 C 11234,9152 11631,9154 11951,9341 L 11053,9825 C 10884,9703 10692,9616 10489,9569 L 10908,9341 Z M 1130,15321 L 450,9747 2249,9747 3948,15321 1130,15321 Z M 10676,12958 C 10082,13248 9410,13341 8759,13224 L 6027,12722 C 5725,12647 5406,12690 5134,12843 5131,12844 5128,12846 5124,12848 L 3877,13638 2986,10718 C 3261,10634 3514,10492 3728,10301 L 4175,9903 C 5017,9270 6143,9162 7091,9623 L 7279,9714 C 7602,9869 7956,9950 8314,9951 L 10136,9951 C 10681,9952 11151,10337 11257,10872 L 9946,10812 C 9466,10791 8984,10813 8508,10879 8393,10896 8313,11002 8329,11117 8345,11232 8451,11313 8566,11298 9016,11235 9472,11214 9927,11235 L 11481,11305 C 11484,11305 11487,11306 11490,11306 11607,11306 11702,11211 11702,11094 11702,11062 11701,11031 11699,11000 L 11908,10890 14159,9675 C 14509,9486 14942,9553 15218,9840 L 10676,12958 Z"/>
    </g>
   </g>
   <g class="com.sun.star.drawing.ClosedBezierShape">
    <g id="id5">
     <rect class="BoundingBox" stroke="none" fill="none" x="1766" y="13832" width="1301" height="1301"/>
     <path fill="rgb(6,53,201)" stroke="none" d="M 1766,14482 C 1766,14841 2057,15132 2416,15132 2775,15132 3066,14841 3066,14482 3066,14123 2775,13832 2416,13832 2057,13832 1766,14123 1766,14482 Z M 2416,14255 C 2541,14255 2643,14356 2643,14482 2643,14608 2541,14709 2416,14709 2290,14709 2188,14608 2188,14482 2189,14357 2290,14255 2416,14255 Z"/>
    </g>
   </g>
   <g class="com.sun.star.drawing.PolyPolygonShape">
    <g id="id6">
     <rect class="BoundingBox" stroke="none" fill="none" x="5260" y="61" width="7586" height="7670"/>
     <path fill="rgb(0,143,71)" stroke="none" d="M 9876,4717 L 9876,7730 8206,7730 8206,4717 5260,4717 5260,3074 8206,3074 8206,61 9876,61 9876,3074 12844,3074 12844,4717 9876,4717 Z"/>
    </g>
   </g>
  </g>
 </g>
</svg>