<?xml version="1.0" encoding="iso-8859-1"?>
<!-- Generator: Adobe Illustrator 19.0.0, SVG Export Plug-In . SVG Version: 6.00 Build 0)  -->
<svg version="1.1" id="Capa_1" xmlns="http://www.w3.org/2000/svg" xmlns:xlink="http://www.w3.org/1999/xlink" x="0px" y="0px"
	 viewBox="0 0 368 368" style="enable-background:new 0 0 368 368;" xml:space="preserve">
<path style="fill:#CCE4FF;" d="M360,24v48H136V8h208C352.8,8,360,15.2,360,24z"/>
<g>
	<path style="fill:#007AFF;" d="M344,0H24C10.768,0,0,10.768,0,24v320c0,13.232,10.768,24,24,24h320c13.232,0,24-10.768,24-24V24
		C368,10.768,357.232,0,344,0z M80,16h48v48H80V16z M16,24c0-4.408,3.584-8,8-8h40v48H16V24z M352,344c0,4.408-3.584,8-8,8H24
		c-4.416,0-8-3.592-8-8V80h336V344z M352,64H144V16h200c4.416,0,8,3.592,8,8V64z"/>
	<path style="fill:#007AFF;" d="M249.928,269.208c1.576,1.84,3.824,2.792,6.072,2.792c1.84,0,3.696-0.632,5.2-1.928l56-48
		c1.776-1.52,2.8-3.736,2.8-6.072s-1.024-4.552-2.8-6.072l-56-48c-3.344-2.864-8.408-2.488-11.272,0.864
		c-2.88,3.352-2.496,8.408,0.864,11.28L299.712,216L250.8,257.928C247.44,260.8,247.048,265.848,249.928,269.208z"/>
	<path style="fill:#007AFF;" d="M106.8,270.072c1.504,1.296,3.36,1.928,5.2,1.928c2.248,0,4.496-0.952,6.072-2.792
		c2.88-3.352,2.496-8.408-0.864-11.28L68.288,216l48.912-41.928c3.36-2.872,3.752-7.928,0.864-11.28
		c-2.864-3.352-7.92-3.736-11.272-0.864l-56,48C49.024,211.448,48,213.664,48,216s1.024,4.552,2.8,6.072L106.8,270.072z"/>
	<path style="fill:#007AFF;" d="M157.184,287.496c0.936,0.336,1.88,0.504,2.816,0.504c3.232,0,6.288-1.984,7.496-5.192l48-128
		c1.544-4.136-0.544-8.744-4.68-10.304c-4.144-1.536-8.752,0.536-10.304,4.68l-48,128
		C150.96,281.328,153.056,285.936,157.184,287.496z"/>
</g>
<g>
</g>
<g>
</g>
<g>
</g>
<g>
</g>
<g>
</g>
<g>
</g>
<g>
</g>
<g>
</g>
<g>
</g>
<g>
</g>
<g>
</g>
<g>
</g>
<g>
</g>
<g>
</g>
<g>
</g>
</svg>
