<?xml version="1.0" encoding="UTF-8"?>
<!DOCTYPE svg PUBLIC "-//W3C//DTD SVG 1.1//EN" "http://www.w3.org/Graphics/SVG/1.1/DTD/svg11.dtd">
<svg version="1.2" width="162.54mm" height="162.54mm" viewBox="0 0 16254 16254" preserveAspectRatio="xMidYMid" fill-rule="evenodd" stroke-width="28.222" stroke-linejoin="round" xmlns="http://www.w3.org/2000/svg" xmlns:ooo="http://xml.openoffice.org/svg/export" xmlns:xlink="http://www.w3.org/1999/xlink" xmlns:presentation="http://sun.com/xmlns/staroffice/presentation" xmlns:smil="http://www.w3.org/2001/SMIL20/" xmlns:anim="urn:oasis:names:tc:opendocument:xmlns:animation:1.0" xml:space="preserve">
 <defs class="ClipPathGroup">
  <clipPath id="presentation_clip_path" clipPathUnits="userSpaceOnUse">
   <rect x="0" y="0" width="16254" height="16254"/>
  </clipPath>
  <clipPath id="presentation_clip_path_shrink" clipPathUnits="userSpaceOnUse">
   <rect x="16" y="16" width="16222" height="16222"/>
  </clipPath>
 </defs>
 <defs class="TextShapeIndex">
  <g ooo:slide="id1" ooo:id-list="id3 id4 id5"/>
 </defs>
 <defs class="EmbeddedBulletChars">
  <g id="bullet-char-template-57356" transform="scale(0.00048828125,-0.00048828125)">
   <path d="M 580,1141 L 1163,571 580,0 -4,571 580,1141 Z"/>
  </g>
  <g id="bullet-char-template-57354" transform="scale(0.00048828125,-0.00048828125)">
   <path d="M 8,1128 L 1137,1128 1137,0 8,0 8,1128 Z"/>
  </g>
  <g id="bullet-char-template-10146" transform="scale(0.00048828125,-0.00048828125)">
   <path d="M 174,0 L 602,739 174,1481 1456,739 174,0 Z M 1358,739 L 309,1346 659,739 1358,739 Z"/>
  </g>
  <g id="bullet-char-template-10132" transform="scale(0.00048828125,-0.00048828125)">
   <path d="M 2015,739 L 1276,0 717,0 1260,543 174,543 174,936 1260,936 717,1481 1274,1481 2015,739 Z"/>
  </g>
  <g id="bullet-char-template-10007" transform="scale(0.00048828125,-0.00048828125)">
   <path d="M 0,-2 C -7,14 -16,27 -25,37 L 356,567 C 262,823 215,952 215,954 215,979 228,992 255,992 264,992 276,990 289,987 310,991 331,999 354,1012 L 381,999 492,748 772,1049 836,1024 860,1049 C 881,1039 901,1025 922,1006 886,937 835,863 770,784 769,783 710,716 594,584 L 774,223 C 774,196 753,168 711,139 L 727,119 C 717,90 699,76 672,76 641,76 570,178 457,381 L 164,-76 C 142,-110 111,-127 72,-127 30,-127 9,-110 8,-76 1,-67 -2,-52 -2,-32 -2,-23 -1,-13 0,-2 Z"/>
  </g>
  <g id="bullet-char-template-10004" transform="scale(0.00048828125,-0.00048828125)">
   <path d="M 285,-33 C 182,-33 111,30 74,156 52,228 41,333 41,471 41,549 55,616 82,672 116,743 169,778 240,778 293,778 328,747 346,684 L 369,508 C 377,444 397,411 428,410 L 1163,1116 C 1174,1127 1196,1133 1229,1133 1271,1133 1292,1118 1292,1087 L 1292,965 C 1292,929 1282,901 1262,881 L 442,47 C 390,-6 338,-33 285,-33 Z"/>
  </g>
  <g id="bullet-char-template-9679" transform="scale(0.00048828125,-0.00048828125)">
   <path d="M 813,0 C 632,0 489,54 383,161 276,268 223,411 223,592 223,773 276,916 383,1023 489,1130 632,1184 813,1184 992,1184 1136,1130 1245,1023 1353,916 1407,772 1407,592 1407,412 1353,268 1245,161 1136,54 992,0 813,0 Z"/>
  </g>
  <g id="bullet-char-template-8226" transform="scale(0.00048828125,-0.00048828125)">
   <path d="M 346,457 C 273,457 209,483 155,535 101,586 74,649 74,723 74,796 101,859 155,911 209,963 273,989 346,989 419,989 480,963 531,910 582,859 608,796 608,723 608,648 583,586 532,535 482,483 420,457 346,457 Z"/>
  </g>
  <g id="bullet-char-template-8211" transform="scale(0.00048828125,-0.00048828125)">
   <path d="M -4,459 L 1135,459 1135,606 -4,606 -4,459 Z"/>
  </g>
  <g id="bullet-char-template-61548" transform="scale(0.00048828125,-0.00048828125)">
   <path d="M 173,740 C 173,903 231,1043 346,1159 462,1274 601,1332 765,1332 928,1332 1067,1274 1183,1159 1299,1043 1357,903 1357,740 1357,577 1299,437 1183,322 1067,206 928,148 765,148 601,148 462,206 346,322 231,437 173,577 173,740 Z"/>
  </g>
 </defs>
 <g>
  <g id="id2" class="Master_Slide">
   <g id="bg-id2" class="Background"/>
   <g id="bo-id2" class="BackgroundObjects"/>
  </g>
 </g>
 <g class="SlideGroup">
  <g>
   <g id="container-id1">
    <g id="id1" class="Slide" clip-path="url(#presentation_clip_path)">
     <g class="Page">
      <g class="com.sun.star.drawing.ClosedBezierShape">
       <g id="id3">
        <rect class="BoundingBox" stroke="none" fill="none" x="-28" y="4145" width="16309" height="7815"/>
        <path fill="rgb(255,215,0)" stroke="none" d="M 13119,7423 C 11918,8139 10438,8898 8805,9613 7166,10331 5598,10905 4253,11300 1937,11980 280,12133 42,11586 -197,11036 1061,9909 3158,8659 3165,8720 3172,8781 3181,8841 L 3151,8845 C 2419,9409 2082,9879 2207,10165 2321,10429 2849,10488 3646,10374 4819,10205 6578,9659 8466,8832 10352,8007 11944,7088 12866,6341 13496,5830 13814,5400 13699,5135 13577,4854 12979,4786 12093,4932 L 12070,4951 C 12030,4901 11989,4853 11948,4805 14245,4134 15973,3967 16210,4511 16448,5059 15202,6178 13119,7423 Z"/>
        <path fill="none" stroke="rgb(52,101,164)" stroke-width="81" stroke-linejoin="miter" d="M 13119,7423 C 11918,8139 10438,8898 8805,9613 7166,10331 5598,10905 4253,11300 1937,11980 280,12133 42,11586 -197,11036 1061,9909 3158,8659 3165,8720 3172,8781 3181,8841 L 3151,8845 C 2419,9409 2082,9879 2207,10165 2321,10429 2849,10488 3646,10374 4819,10205 6578,9659 8466,8832 10352,8007 11944,7088 12866,6341 13496,5830 13814,5400 13699,5135 13577,4854 12979,4786 12093,4932 L 12070,4951 C 12030,4901 11989,4853 11948,4805 14245,4134 15973,3967 16210,4511 16448,5059 15202,6178 13119,7423 Z"/>
       </g>
      </g>
      <g class="com.sun.star.drawing.ClosedBezierShape">
       <g id="id4">
        <rect class="BoundingBox" stroke="none" fill="none" x="4212" y="7382" width="9023" height="5840"/>
        <path fill="rgb(28,153,224)" stroke="none" d="M 13150,7474 C 13448,9741 12173,12001 9950,12850 7922,13624 5625,13005 4259,11317 L 4253,11300 C 5598,10905 7166,10331 8805,9613 10438,8898 11918,8139 13119,7423 L 13150,7474 Z"/>
        <path fill="none" stroke="rgb(52,101,164)" stroke-width="81" stroke-linejoin="miter" d="M 13150,7474 C 13448,9741 12173,12001 9950,12850 7922,13624 5625,13005 4259,11317 L 4253,11300 C 5598,10905 7166,10331 8805,9613 10438,8898 11918,8139 13119,7423 L 13150,7474 Z"/>
       </g>
      </g>
      <g class="com.sun.star.drawing.ClosedBezierShape">
       <g id="id5">
        <rect class="BoundingBox" stroke="none" fill="none" x="3089" y="3041" width="9819" height="7375"/>
        <path fill="rgb(28,153,224)" stroke="none" d="M 6374,3412 C 8339,2662 10565,3218 11948,4805 11989,4853 12030,4901 12070,4951 12406,5367 12674,5835 12863,6336 L 12866,6341 C 11944,7088 10352,8007 8466,8832 6578,9659 4819,10205 3646,10374 L 3642,10347 C 3576,10211 3516,10070 3461,9926 3328,9575 3234,9212 3181,8841 3172,8781 3165,8720 3158,8659 2923,6436 4193,4245 6374,3412 Z"/>
        <path fill="none" stroke="rgb(52,101,164)" stroke-width="81" stroke-linejoin="miter" d="M 6374,3412 C 8339,2662 10565,3218 11948,4805 11989,4853 12030,4901 12070,4951 12406,5367 12674,5835 12863,6336 L 12866,6341 C 11944,7088 10352,8007 8466,8832 6578,9659 4819,10205 3646,10374 L 3642,10347 C 3576,10211 3516,10070 3461,9926 3328,9575 3234,9212 3181,8841 3172,8781 3165,8720 3158,8659 2923,6436 4193,4245 6374,3412 Z"/>
       </g>
      </g>
     </g>
    </g>
   </g>
  </g>
 </g>
</svg>