<?xml version="1.0" encoding="UTF-8" standalone="no"?>
<svg
   sodipodi:docname="Transport.svg"
   inkscape:version="1.1.1 (3bf5ae0d25, 2021-09-20)"
   id="svg219"
   version="1.1"
   viewBox="0 0 1280 1280"
   height="338.66666mm"
   width="338.66666mm"
   xmlns:inkscape="http://www.inkscape.org/namespaces/inkscape"
   xmlns:sodipodi="http://sodipodi.sourceforge.net/DTD/sodipodi-0.dtd"
   xmlns="http://www.w3.org/2000/svg"
   xmlns:svg="http://www.w3.org/2000/svg"
   xmlns:rdf="http://www.w3.org/1999/02/22-rdf-syntax-ns#"
   xmlns:cc="http://creativecommons.org/ns#"
   xmlns:dc="http://purl.org/dc/elements/1.1/">
  <defs
     id="defs213">
    <pattern
       id="EMFhbasepattern"
       patternUnits="userSpaceOnUse"
       width="6"
       height="6"
       x="0"
       y="0" />
    <pattern
       id="EMFhbasepattern-6"
       patternUnits="userSpaceOnUse"
       width="6"
       height="6"
       x="0"
       y="0" />
  </defs>
  <sodipodi:namedview
     inkscape:window-maximized="1"
     inkscape:window-y="-8"
     inkscape:window-x="-8"
     inkscape:window-height="705"
     inkscape:window-width="1366"
     inkscape:showpageshadow="false"
     fit-margin-bottom="0"
     fit-margin-right="0"
     fit-margin-left="0"
     fit-margin-top="0"
     showgrid="false"
     inkscape:document-rotation="0"
     inkscape:current-layer="layer2"
     inkscape:document-units="px"
     inkscape:cy="381.83766"
     inkscape:cx="1383.909"
     inkscape:zoom="0.24748738"
     inkscape:pageshadow="2"
     inkscape:pageopacity="0"
     borderopacity="1.0"
     bordercolor="#666666"
     pagecolor="#262626"
     id="base"
     inkscape:pagecheckerboard="0" />
  <metadata
     id="metadata216">
    <rdf:RDF>
      <cc:Work
         rdf:about="">
        <dc:format>image/svg+xml</dc:format>
        <dc:type
           rdf:resource="http://purl.org/dc/dcmitype/StillImage" />
      </cc:Work>
    </rdf:RDF>
  </metadata>
  <g
     sodipodi:insensitive="true"
     transform="translate(260,77.14286)"
     id="layer1"
     inkscape:groupmode="layer"
     inkscape:label="Canvas">
    <rect
       y="-77.14286"
       x="-260"
       height="1280"
       width="1280"
       id="rect2128"
       style="fill:#ffffff;stroke-width:1.5;stroke-linecap:round" />
  </g>
  <g
     inkscape:label="Contents"
     id="layer2"
     inkscape:groupmode="layer">
    <circle
       style="fill:#000000;stroke:none;stroke-width:23"
       id="path1326"
       cx="179.80716"
       cy="1064.7007"
       r="103.03556" />
    <circle
       style="fill:#000000;stroke:none;stroke-width:23"
       id="path1326-8"
       cx="1103.1678"
       cy="546.91388"
       r="103.03556" />
    <text
       xml:space="preserve"
       style="font-style:normal;font-variant:normal;font-weight:bold;font-stretch:normal;font-size:414.152px;line-height:1.25;font-family:Calibri;-inkscape-font-specification:'Calibri Bold';stroke-width:1.79753"
       x="69.028854"
       y="823.74609"
       id="text2158"><tspan
         sodipodi:role="line"
         id="tspan2156"
         x="69.028854"
         y="823.74609"
         style="stroke-width:1.79753">A</tspan></text>
    <text
       xml:space="preserve"
       style="font-style:normal;font-variant:normal;font-weight:bold;font-stretch:normal;font-size:414.152px;line-height:1.25;font-family:Calibri;-inkscape-font-specification:'Calibri Bold';stroke-width:1.79753"
       x="1003.8768"
       y="338.82794"
       id="text2158-7"><tspan
         sodipodi:role="line"
         id="tspan2156-5"
         x="1003.8768"
         y="338.82794"
         style="stroke-width:1.79753">B</tspan></text>
    <g
       id="g15409"
       transform="matrix(0.83997986,0,0,0.83997986,171.90559,101.60835)">
      <path
         style="fill:#000000;stroke:#000000;stroke-width:0.0487788px;stroke-linecap:round;stroke-linejoin:round;stroke-miterlimit:4;stroke-dasharray:none;stroke-opacity:1"
         d="m 860.2498,806.83296 c -2.48595,4.68643 -5.65126,8.1881 -10.20908,11.02619 -4.49124,2.85607 -8.93001,4.33276 -14.27212,4.52803 -5.34209,0.19527 -9.89936,-0.79045 -14.62817,-3.25221 -4.72881,-2.46162 -8.1881,-5.65117 -11.04424,-10.14247 v 0 L 729.38444,682.14388 c -2.78957,-4.47319 -4.22386,-8.93622 -4.44337,-14.32064 -0.23757,-5.31786 0.76615,-9.94169 3.25211,-14.62819 2.46172,-4.7288 5.60895,-8.16384 10.14251,-11.04426 4.53355,-2.88039 8.99658,-4.31467 14.29638,-4.48567 v 0 l 150.17643,-6.48433 c 5.34218,-0.19531 9.96593,0.80849 14.62822,3.2521 4.72881,2.46171 8.18809,5.65128 11.06846,10.18486 2.89849,4.46694 4.29053,8.95421 4.46144,14.25404 0.19528,5.34208 -0.7661,9.94166 -3.22781,14.67045 v 0 L 860.2498,806.83296"
         id="path14924" />
      <path
         style="fill:none;stroke:#000000;stroke-width:60;stroke-linecap:round;stroke-linejoin:round;stroke-miterlimit:4;stroke-dasharray:none;stroke-opacity:1"
         d="m 259.77422,1020.9732 c 0,0 67.93384,-101.73016 153.14189,-127.51816 85.20804,-25.78808 169.83093,-4.47427 258.75449,-62.53475 65.06193,-42.48317 113.22303,-90.18753 113.22303,-90.18753"
         id="path14953"
         sodipodi:nodetypes="cscc" />
    </g>
  </g>
  <inkscape:templateinfo>
    <inkscape:name>Dark Canvas</inkscape:name>
    <inkscape:date>2020-07-13</inkscape:date>
  </inkscape:templateinfo>
  <inkscape:templateinfo>
    <inkscape:name>Dark Theme</inkscape:name>
    <inkscape:date>2021-11-06</inkscape:date>
  </inkscape:templateinfo>
</svg>
