<svg width="345" height="345" clip-rule="evenodd" fill-rule="evenodd" image-rendering="optimizeQuality" shape-rendering="geometricPrecision" text-rendering="geometricPrecision" version="1.1" viewBox="0 0 345 345" xmlns="http://www.w3.org/2000/svg">
 <defs>
  <style type="text/css">.fil0 {fill:black}</style>
 </defs>
 <path class="fil0" d="m172 0c96 0 173 77 173 173 0 95-77 172-173 172-95 0-172-77-172-172 0-96 77-173 172-173zm0 318c80 0 146-65 146-145 0-81-65-146-146-146-80 0-145 66-145 146s65 145 145 145z"/>
 <g transform="translate(0 -.914)" stroke-width="1.28">
  <path class="fil0" d="m206 243h-8.97v-97.4c0-5.13-3.85-10.3-10.3-10.3h-41c-6.41 0-10.3 3.85-10.3 10.3v21.8c0 5.13 3.85 10.3 10.3 10.3h7.69v65.4h-7.69c-6.41 0-10.3 5.13-10.3 11.5v20.5c0 6.41 3.85 10.3 10.3 10.3h60.3c6.41 0 11.5-3.85 11.5-10.3v-20.5c0-6.41-5.13-11.5-11.5-11.5z"/>
  <path class="fil0" d="m174 61.2c14.1 0 25.6 11.5 25.6 26.9 0 14.1-11.5 25.6-25.6 25.6s-25.6-11.5-25.6-25.6c0-15.4 11.5-26.9 25.6-26.9z"/>
 </g>
</svg>
