<svg width="52" height="52" clip-rule="evenodd" fill-rule="evenodd" stroke-linejoin="round" stroke-miterlimit="2" version="1.1" viewBox="0 0 52 52" xmlns="http://www.w3.org/2000/svg">
 <path d="m52 26c0 14.4-11.6 26-26 26s-26-11.6-26-26 11.6-26 26-26 26 11.6 26 26zm-18.9 10h-14.1c0.667 3.33 1.66 6.21 2.9 8.38 1.22 2.14 2.54 3.62 4.16 3.62s2.95-1.48 4.16-3.62c1.24-2.17 2.23-5.05 2.9-8.38zm-18.2 0h-8.48c2.53 4.95 6.88 8.81 12.2 10.7-0.07-0.116-0.139-0.234-0.207-0.354-1.5-2.64-2.72-6.21-3.48-10.4zm30.7 0h-8.48c-0.762 4.14-1.98 7.71-3.48 10.4-0.068 0.12-0.137 0.238-0.206 0.354 5.28-1.9 9.63-5.76 12.2-10.7zm-31.3-16h-9.48c-0.541 1.91-0.83 3.92-0.83 6s0.289 4.09 0.83 6h9.48c-0.2-1.92-0.307-3.93-0.307-6s0.107-4.08 0.307-6zm19.4 0h-15.4c-0.212 1.91-0.324 3.92-0.324 6s0.112 4.09 0.324 6h15.4c0.212-1.91 0.324-3.92 0.324-6s-0.112-4.09-0.324-6zm13.5 0h-9.48c0.2 1.92 0.307 3.93 0.307 6s-0.107 4.08-0.307 6h9.48c0.541-1.91 0.83-3.92 0.83-6s-0.289-4.09-0.83-6zm-28.6-14.7c-5.28 1.9-9.63 5.76-12.2 10.7h8.48c0.762-4.14 1.98-7.71 3.48-10.4 0.068-0.12 0.137-0.238 0.207-0.354zm14.5 10.7c-0.667-3.33-1.66-6.21-2.9-8.38-1.22-2.14-2.54-3.62-4.16-3.62s-2.95 1.48-4.16 3.62c-1.24 2.17-2.23 5.05-2.9 8.38zm0.376-10.7c0.069 0.116 0.138 0.234 0.206 0.354 1.5 2.64 2.72 6.21 3.48 10.4h8.48c-2.53-4.95-6.88-8.81-12.2-10.7z"/>
</svg>
