<?xml version="1.0" encoding="UTF-8" standalone="no"?>
<svg
   width="90.7"
   height="90.7"
   data-name="Layer 1"
   version="1.1"
   viewBox="0 0 90.7 90.7"
   id="svg10"
   sodipodi:docname="money.svg"
   inkscape:version="1.1.1 (3bf5ae0d25, 2021-09-20)"
   xmlns:inkscape="http://www.inkscape.org/namespaces/inkscape"
   xmlns:sodipodi="http://sodipodi.sourceforge.net/DTD/sodipodi-0.dtd"
   xmlns="http://www.w3.org/2000/svg"
   xmlns:svg="http://www.w3.org/2000/svg"
   xmlns:rdf="http://www.w3.org/1999/02/22-rdf-syntax-ns#"
   xmlns:cc="http://creativecommons.org/ns#"
   xmlns:dc="http://purl.org/dc/elements/1.1/">
  <defs
     id="defs14" />
  <sodipodi:namedview
     id="namedview12"
     pagecolor="#ffffff"
     bordercolor="#666666"
     borderopacity="1.0"
     inkscape:pageshadow="2"
     inkscape:pageopacity="0.0"
     inkscape:pagecheckerboard="0"
     showgrid="false"
     inkscape:zoom="9.2392506"
     inkscape:cx="45.349998"
     inkscape:cy="45.187648"
     inkscape:window-width="1920"
     inkscape:window-height="1001"
     inkscape:window-x="-9"
     inkscape:window-y="-9"
     inkscape:window-maximized="1"
     inkscape:current-layer="svg10" />
  <title
     id="title2">Noun_Project_10Icon_10px_grid</title>
  <path
     d="m45.3 0.9a44.4 44.4 0 1 0 44.4 44.4 44.5 44.5 0 0 0-44.4-44.4zm0 84.3a39.8 39.8 0 1 1 39.8-39.8 39.9 39.9 0 0 1-39.8 39.8z"
     stroke="#000"
     stroke-width="1.8"
     id="path4"
     style="stroke-width:1.8;stroke-miterlimit:4;stroke-dasharray:none;stroke:none" />
  <text
     x="24.768747"
     y="67.061607"
     fill="#000000"
     font-family="sans-serif"
     font-size="39.5224px"
     letter-spacing="0px"
     word-spacing="0px"
     style="line-height:1.25;stroke-width:0.98806"
     xml:space="preserve"
     id="text8"><tspan
       x="24.768747"
       y="67.061607"
       font-family="Tahoma"
       font-size="59.2836px"
       font-weight="bold"
       id="tspan6"
       style="stroke-width:0.976262">€</tspan></text>
  <metadata
     id="metadata831">
    <rdf:RDF>
      <cc:Work
         rdf:about="">
        <dc:title>Noun_Project_10Icon_10px_grid</dc:title>
      </cc:Work>
    </rdf:RDF>
  </metadata>
  <path
     style="fill:#ffe680;stroke:none;stroke-width:0.194821;stroke-miterlimit:4;stroke-dasharray:none"
     d="M 44.856816,5.4279717 C 33.846536,5.5256639 22.947552,10.387563 15.629243,18.63513 8.4544236,26.491131 4.6732625,37.318022 5.4158503,47.933651 c 0.588788,9.888738 5.0131067,19.519233 12.2547707,26.299402 5.29868,5.213626 12.179899,8.742997 19.430771,10.296133 7.348217,1.535439 15.144571,0.975997 22.161825,-1.714734 C 66.027474,80.307041 72.047595,75.904166 76.542151,70.266819 83.432542,61.70188 86.52308,50.208798 84.812879,39.345549 83.419587,30.012398 78.554827,21.272198 71.396913,15.128911 64.122073,8.7858271 54.506103,5.2790904 44.856816,5.4279717 Z M 47.765812,23.32546 c 4.360043,-0.03504 8.674611,0.970004 12.699302,2.642005 0,3.093052 0,6.186103 0,9.279153 -1.088242,0.210151 -1.78883,-0.773904 -2.631109,-1.258498 -2.799617,-1.907648 -6.15707,-3.295449 -9.605662,-2.899627 -3.091913,0.262391 -6.187091,1.793272 -7.815641,4.513222 -0.508909,0.897265 -1.272687,1.793513 -1.269664,2.875432 0.39668,0.450506 1.250111,0.07895 1.823488,0.199979 4.28126,0.0014 8.570111,-0.0028 12.846644,0.0021 -0.343292,1.658942 -0.673994,3.320504 -1.000741,4.982775 -4.958652,0.04468 -9.917651,0.02008 -14.876452,0.02685 -0.450464,0.396792 -0.07802,1.250236 -0.198613,1.823698 0.08118,0.842054 -0.163388,1.800624 0.245755,2.561466 4.628632,0.08028 9.270469,-0.07072 13.900232,0.09809 -0.305912,1.630604 -0.64451,3.251659 -0.970723,4.879826 -3.748654,0.01848 -7.49731,0.03687 -11.245966,0.05517 -0.47632,0.377958 -0.02185,1.094241 0.217096,1.532487 1.155565,1.981743 2.855205,3.699519 5.029982,4.524146 3.208122,1.275605 6.949434,1.089945 10.0319,-0.460447 1.650942,-0.734954 3.094615,-1.833549 4.579192,-2.839815 0.369505,-0.09692 1.157546,-0.290124 0.940282,0.347533 0,2.948739 0,5.897478 0,8.846217 -4.990532,2.137208 -10.564649,3.084615 -15.952871,2.454499 -5.070986,-0.518481 -10.058135,-2.894386 -13.181704,-7.005818 -1.679835,-2.137882 -2.752137,-4.675597 -3.52648,-7.263509 -0.531089,-0.315932 -1.299255,-0.04899 -1.921573,-0.137195 -0.661438,-7.94e-4 -1.326695,0.0016 -1.985628,-0.0013 0.368141,-1.64684 0.656052,-3.364645 1.037524,-4.975798 0.673906,-0.09846 1.38695,0.06182 2.036361,-0.104852 -0.04046,-1.361011 -0.131318,-2.753293 -0.09111,-4.13445 -0.36273,-0.446469 -1.178321,-0.08183 -1.717367,-0.199979 -0.480801,-0.09472 -1.590452,0.324588 -1.156974,-0.513748 0.302696,-1.492382 0.603859,-2.985094 0.895902,-4.479597 0.925088,-0.07205 1.888295,0.07397 2.788079,-0.08857 0.997677,-3.737306 2.738986,-7.385871 5.635139,-10.035945 3.833205,-3.68701 9.201472,-5.284434 14.441401,-5.245538 z"
     id="path1355" />
</svg>
