<svg width="90.7" height="90.7" data-name="Layer 1" version="1.1" viewBox="0 0 90.7 90.7" xmlns="http://www.w3.org/2000/svg">
 <title>Noun_Project_10Icon_10px_grid</title>
 <path d="m45.3 0.9a44.4 44.4 0 1 0 44.4 44.4 44.5 44.5 0 0 0-44.4-44.4zm0 84.3a39.8 39.8 0 1 1 39.8-39.8 39.9 39.9 0 0 1-39.8 39.8z" stroke="#000" stroke-width="1.8"/>
 <path d="m47.6 43.5v-12.7a13.7 13.7 0 0 1 6.57 3 1.84 1.84 0 1 0 2.5-2.69 16.7 16.7 0 0 0-9.08-4.07v-3.36a1.85 1.85 0 0 0-3.7 0v3.33c-6.3 0.65-10.7 4.82-10.7 10.3 0 6.11 7 8.06 10.7 9v14.1c-2.87-0.65-6.85-2.32-8.43-3.8a1.83 1.83 0 0 0-2.59 2.59c2.22 2.22 7.41 4.35 11 4.91v3.06a1.85 1.85 0 0 0 3.7 0v-3c4.72-0.56 10.7-3.33 10.7-9.63 0.16-4.87-3.76-8.85-10.7-11zm-3.7-1c-3-0.83-7-2.22-7-5.19 0-3.89 3.43-6 7-6.57v11.7zm3.7 18v-13.1c3.33 1.2 7 3.43 7 7.22 0.13 4.08-4.4 5.37-7 5.83z" stroke="#000" stroke-width="1.9"/>
</svg>
