<svg width="15" height="18" viewBox="0 0 15 18" fill="none" xmlns="http://www.w3.org/2000/svg">
<path d="M7.25698 4.15385C8.03354 4.15385 9.00698 3.60458 9.58666 2.87222C10.1117 2.20852 10.4945 1.28163 10.4945 0.354736C10.4945 0.228861 10.4835 0.102988 10.4617 0C9.5976 0.0343293 8.55854 0.606484 7.9351 1.37317C7.44291 1.95677 6.99448 2.87222 6.99448 3.81055C6.99448 3.94787 7.01635 4.08519 7.02729 4.13096C7.08198 4.1424 7.16948 4.15385 7.25698 4.15385ZM4.5226 18C5.58354 18 6.05385 17.2562 7.37729 17.2562C8.7226 17.2562 9.01791 17.9771 10.1992 17.9771C11.3585 17.9771 12.1351 16.8557 12.8679 15.7572C13.6882 14.4984 14.0273 13.2626 14.0492 13.2053C13.9726 13.1825 11.7523 12.2327 11.7523 9.56643C11.7523 7.25493 13.5023 6.2136 13.6007 6.1335C12.4414 4.39415 10.6804 4.34838 10.1992 4.34838C8.8976 4.34838 7.83666 5.17228 7.16948 5.17228C6.4476 5.17228 5.49604 4.39415 4.36948 4.39415C2.22573 4.39415 0.0491638 6.24793 0.0491638 9.74952C0.0491638 11.9237 0.858539 14.2238 1.85385 15.7114C2.70698 16.9701 3.45073 18 4.5226 18Z" fill="black" fill-opacity="0.92"/>
</svg>
