<?xml version="1.0" encoding="UTF-8" standalone="no"?>
<!-- Generator: Adobe Illustrator 19.0.0, SVG Export Plug-In . SVG Version: 6.00 Build 0)  -->

<svg
   enable-background="new 0 0 75.294 75.294"
   version="1.1"
   viewBox="0 0 75.294 75.294"
   xml:space="preserve"
   id="svg12"
   sodipodi:docname="email.svg"
   inkscape:version="1.1.1 (3bf5ae0d25, 2021-09-20)"
   xmlns:inkscape="http://www.inkscape.org/namespaces/inkscape"
   xmlns:sodipodi="http://sodipodi.sourceforge.net/DTD/sodipodi-0.dtd"
   xmlns="http://www.w3.org/2000/svg"
   xmlns:svg="http://www.w3.org/2000/svg"><defs
   id="defs16" /><sodipodi:namedview
   id="namedview14"
   pagecolor="#ffffff"
   bordercolor="#666666"
   borderopacity="1.0"
   inkscape:pageshadow="2"
   inkscape:pageopacity="0.0"
   inkscape:pagecheckerboard="0"
   showgrid="false"
   inkscape:zoom="10.784392"
   inkscape:cx="37.554273"
   inkscape:cy="37.693363"
   inkscape:window-width="1920"
   inkscape:window-height="1001"
   inkscape:window-x="-9"
   inkscape:window-y="-9"
   inkscape:window-maximized="1"
   inkscape:current-layer="svg12" />

	<path
   id="path2"
   style="stroke:none;stroke-opacity:1"
   d="m 8.8085938,14.101562 c -3.5912333,0.115484 -6.7395222,3.29831 -6.7995527,6.894887 -0.013283,11.13305 -0.018639,22.267044 0.00268,33.400035 0.116742,3.559335 3.2375531,6.680562 6.796875,6.796875 19.1796919,0.02199 38.3603519,0.01462 57.5401269,0.0037 3.609641,-0.03997 6.816474,-3.193763 6.932529,-6.798607 0.02277,-11.166833 0.0228,-22.335121 0,-33.501954 -0.112682,-3.593057 -3.299817,-6.738298 -6.894886,-6.797599 -19.179752,-0.01395 -38.360412,-0.0173 -57.5401265,0.0017 z m 4.8828122,1.988282 H 68.400391 C 58.149897,22.695265 47.898692,29.299583 37.646484,35.902344 27.394865,29.299682 17.144607,22.694903 6.8945312,16.089844 Z m -6.6093748,3.685547 c 9.9541128,6.389888 19.8899368,12.811658 29.8554688,19.18164 1.112428,0.607754 2.086708,-0.495845 2.986531,-0.989776 10.457547,-6.724867 29.157444,-21.47739 30.074671,-19.154294 0.963991,2.441535 0.767883,23.598772 0.722283,35.813898 -0.163992,2.689097 -2.135849,4.73553 -4.823328,4.578219 -18.998531,-0.0077 -37.997783,0.01538 -56.9958644,-0.01152 C 6.1581769,59.113095 4.7930605,56.307028 4.463633,53.902493 4.0587334,50.947077 4.065242,42.025471 4.2624479,33.778241 4.4596537,25.531011 4.3839237,17.86543 5.4836256,18.349329 Z"
   sodipodi:nodetypes="ccccccccccccccccccscccsscc" />















</svg>
