<?xml version="1.0" encoding="UTF-8" standalone="no"?>
<!-- Generator: Adobe Illustrator 19.0.0, SVG Export Plug-In . SVG Version: 6.00 Build 0)  -->

<svg
   enable-background="new 0 0 75.294 75.294"
   version="1.1"
   viewBox="0 0 75.294 75.294"
   xml:space="preserve"
   id="svg12"
   sodipodi:docname="email.svg"
   inkscape:version="1.1.1 (3bf5ae0d25, 2021-09-20)"
   xmlns:inkscape="http://www.inkscape.org/namespaces/inkscape"
   xmlns:sodipodi="http://sodipodi.sourceforge.net/DTD/sodipodi-0.dtd"
   xmlns="http://www.w3.org/2000/svg"
   xmlns:svg="http://www.w3.org/2000/svg"><defs
   id="defs16" /><sodipodi:namedview
   id="namedview14"
   pagecolor="#ffffff"
   bordercolor="#666666"
   borderopacity="1.0"
   inkscape:pageshadow="2"
   inkscape:pageopacity="0.0"
   inkscape:pagecheckerboard="0"
   showgrid="false"
   inkscape:zoom="10.784392"
   inkscape:cx="37.646999"
   inkscape:cy="37.693363"
   inkscape:window-width="1920"
   inkscape:window-height="1001"
   inkscape:window-x="-9"
   inkscape:window-y="-9"
   inkscape:window-maximized="1"
   inkscape:current-layer="svg12" />

	<path
   id="path2"
   style="stroke:none;stroke-width:0.911446;stroke-opacity:1"
   d="m 11.361574,16.186157 c -3.2732145,0.105257 -6.1427089,3.00623 -6.1974234,6.284315 -0.012107,10.14717 -0.016988,20.295201 0.00244,30.442318 0.106404,3.24414 2.9508538,6.088969 6.1949824,6.194982 17.481248,0.02004 34.963378,0.01332 52.444701,0.0034 3.289992,-0.03643 6.212846,-2.910941 6.318624,-6.196561 0.02075,-10.177961 0.02078,-20.357249 0,-30.535211 -0.102704,-3.274877 -3.007604,-6.141593 -6.284315,-6.195643 -17.481302,-0.01271 -34.963432,-0.01577 -52.4447,0.0015 z m 4.450418,1.812211 H 65.676261 C 56.333492,24.01885 46.990076,30.038327 37.645745,36.056385 28.301951,30.038418 18.959397,24.01852 9.6170095,17.998368 Z m -6.0240864,3.359176 c 9.0726334,5.824035 18.1285974,11.67713 27.2116384,17.483023 1.013918,0.553934 1.901921,-0.451936 2.722061,-0.902127 9.531486,-6.129351 26.575427,-19.575475 27.41143,-17.458099 0.878625,2.225326 0.699883,21.508999 0.658321,32.642423 -0.14947,2.450966 -1.94671,4.316178 -4.396201,4.172798 -17.31613,-0.007 -34.632916,0.01402 -51.948636,-0.0105 C 8.9458625,57.211724 7.7016331,54.654147 7.4013778,52.462544 7.0323338,49.768842 7.038266,41.637283 7.2180085,34.120381 7.3977509,26.603479 7.3287271,19.616718 8.3310457,20.057765 Z"
   sodipodi:nodetypes="ccccccccccccccccccscccsscc" />















</svg>
