<?xml version="1.0" encoding="UTF-8"?>
<!-- Generator: Adobe Illustrator 19.0.0, SVG Export Plug-In . SVG Version: 6.00 Build 0)  -->
<svg enable-background="new 0 0 75.294 75.294" version="1.1" viewBox="0 0 75.294 75.294" xml:space="preserve" xmlns="http://www.w3.org/2000/svg">

	<path d="m66.097 12.089h-56.9c-5.071 0-9.197 4.126-9.197 9.197v32.722c0 5.071 4.126 9.197 9.197 9.197h56.9c5.071 0 9.197-4.126 9.197-9.197v-32.721c1e-3 -5.072-4.125-9.198-9.197-9.198zm-4.494 6-23.956 15.434-23.956-15.434h47.912zm4.494 39.117h-56.9c-1.763 0-3.197-1.435-3.197-3.197v-32.552l29.796 19.16c0.04 0.025 0.083 0.042 0.124 0.065 0.043 0.024 0.087 0.047 0.131 0.069 0.231 0.119 0.469 0.215 0.712 0.278 0.025 7e-3 0.05 0.01 0.075 0.016 0.267 0.063 0.537 0.102 0.807 0.102h6e-3c0.27 0 0.54-0.038 0.807-0.102 0.025-6e-3 0.05-9e-3 0.075-0.016 0.243-0.063 0.48-0.159 0.712-0.278 0.044-0.022 0.088-0.045 0.131-0.069 0.041-0.023 0.084-0.04 0.124-0.065l29.796-19.16v32.551c-1e-3 1.763-1.436 3.198-3.199 3.198z" fill="#280b0b"/><g fill-opacity=".36278" stroke-width=".48869">
<path d="m7.8914 56.882c-0.63467-0.334-1.219-0.91608-1.5336-1.5278-0.26718-0.51942-0.27633-1.0867-0.27633-17.122 0-9.1217 0.040151-16.585 0.089225-16.585s6.7138 4.2589 14.81 9.4643c8.0967 5.2054 14.947 9.5851 15.223 9.7327 0.68386 0.36574 2.201 0.36547 2.8909-5.79e-4 0.27873-0.14787 7.133-4.5276 15.232-9.7327 8.0986-5.205 14.761-9.4637 14.805-9.4637 0.04433 0 0.0806 7.4639 0.0806 16.586 0 14.977-0.02268 16.631-0.23372 17.05-0.3286 0.65151-0.90577 1.2393-1.5343 1.5626-0.52352 0.26929-1.2839 0.27618-29.828 0.27053-26.399-0.0052-29.334-0.02837-29.725-0.2344z" fill="#f0f"/><path d="m25.893 25.94c-6.4249-4.153-11.73-7.5997-11.789-7.6594-0.05894-0.05973 10.566-0.1086 23.612-0.1086h23.719l-11.907 7.6742c-6.5487 4.2208-11.917 7.6675-11.93 7.6594-0.01294-0.0081-5.2803-3.4126-11.705-7.5656z" fill="#ffcd00" fill-opacity="1"/><path d="m8.5576 57.111c-0.80651-0.15969-1.5023-0.62825-2.0079-1.3522l-0.39584-0.56677-0.075956-33.684 1.9927 1.2826c31.561 20.314 28.888 18.725 30.549 18.166 0.5761-0.19406 5.4876-3.2753 15.73-9.868 8.1906-5.2722 14.92-9.5859 14.954-9.5859 0.03391 0 0.04378 7.4769 0.02192 16.615-0.04402 18.407 0.02724 17.105-0.99205 18.125-1.036 1.036 1.6424 0.94997-30.324 0.97371-15.883 0.01179-29.1-0.03521-29.451-0.10474z" fill="#3a76f4" fill-opacity="1"/></g>















</svg>
