<?xml version="1.0" encoding="UTF-8" standalone="no"?>
<!-- Uploaded to: SVG Repo, www.svgrepo.com, Generator: SVG Repo Mixer Tools -->

<svg
   fill="#000000"
   height="816.01196"
   width="815.91473"
   version="1.1"
   id="Capa_1"
   viewBox="0 0 61.193605 61.200897"
   xml:space="preserve"
   sodipodi:docname="play-button.svg"
   inkscape:version="1.1.1 (3bf5ae0d25, 2021-09-20)"
   xmlns:inkscape="http://www.inkscape.org/namespaces/inkscape"
   xmlns:sodipodi="http://sodipodi.sourceforge.net/DTD/sodipodi-0.dtd"
   xmlns="http://www.w3.org/2000/svg"
   xmlns:svg="http://www.w3.org/2000/svg"><defs
   id="defs11" /><sodipodi:namedview
   id="namedview9"
   pagecolor="#ffffff"
   bordercolor="#666666"
   borderopacity="1.0"
   inkscape:pageshadow="2"
   inkscape:pageopacity="0.0"
   inkscape:pagecheckerboard="0"
   showgrid="false"
   inkscape:zoom="1.015"
   inkscape:cx="407.88177"
   inkscape:cy="408.37438"
   inkscape:window-width="1920"
   inkscape:window-height="1001"
   inkscape:window-x="-9"
   inkscape:window-y="-9"
   inkscape:window-maximized="1"
   inkscape:current-layer="g6" />
<g
   id="g6"
   transform="translate(0.59426667,0.60804033)">
	<path
   id="path2"
   d="m 22.886719,13.40625 c -1.210503,0.04799 -1.720362,1.478498 -1.488321,2.508203 0.0019,9.817953 -0.03066,19.638293 0.04496,29.454688 0.238379,1.297788 2.142004,1.612988 2.923829,0.628906 7.270861,-4.961479 14.555847,-9.903995 21.800781,-14.902344 0.906085,-0.90632 0.211224,-2.47951 -0.897066,-2.843458 -7.233442,-4.922152 -14.43986,-9.885281 -21.712309,-14.746386 -0.21455,-0.07733 -0.444432,-0.113714 -0.671875,-0.09961 z M 42.169922,30 c -5.85612,3.991536 -11.71224,7.983073 -17.56836,11.974609 10e-7,-7.983073 0,-15.966145 0,-23.949218 5.85612,3.991536 11.71224,7.983073 17.56836,11.974609 z"
   style="fill:#ffffff" />
	<path
   id="path4"
   d="M 29.220703,-0.59179688 C 18.429235,-0.41055735 8.0244654,6.0276343 3.010118,15.579421 -1.4779936,23.92594 -1.8391316,34.412242 2.2889904,42.970351 6.1035539,51.112021 13.619587,57.45748 22.369908,59.636606 30.749815,61.801095 40.046231,60.262202 47.171842,55.31343 54.570736,50.299842 59.659762,41.94576 60.451019,33.008717 61.317284,24.386006 58.358467,15.433085 52.374381,9.144904 46.484318,2.8247183 37.886603,-0.88565396 29.220703,-0.59179688 Z M 30,2.6015625 c 9.731439,-0.095294 19.281693,5.5326984 23.942326,14.0768345 4.2246,7.547995 4.635572,17.094869 0.884648,24.900901 C 51.325263,49.08418 44.350864,54.852136 36.241975,56.67578 28.99708,58.383779 21.100228,57.017859 14.895871,52.871375 6.5734348,47.395057 1.5706705,37.11407 2.7447145,27.19934 3.5502771,18.50227 8.9347034,10.389906 16.535156,6.1464844 20.633029,3.8299319 25.314276,2.596593 30,2.6015625 Z"
   style="fill:#ffffff" />
</g>
</svg>
