<svg width="132mm" height="135mm" fill-rule="evenodd" stroke-linejoin="round" stroke-width="28.2" preserveAspectRatio="xMidYMid" version="1.2" viewBox="4400 7540 13202 13548" xmlns="http://www.w3.org/2000/svg">
 <defs class="EmbeddedBulletChars"></defs>
 <g class="Page">
  <g class="Group">
   <g class="com.sun.star.drawing.ClosedBezierShape">
    <rect class="BoundingBox" x="4450" y="7540" width="13072" height="13548" fill="none"/>
    <path d="m16329 11377h-291v-113c0-510-193-995-544-1365l-1648-1739c-373-393-898-619-1440-619h-5283c-656 0-1190 534-1190 1191v2645h-291c-657 0-1191 534-1191 1191v4761c0 656 534 1191 1191 1191h291v1375c0 657 534 1191 1190 1191h7725c656 0 1190-534 1190-1191v-1375h291c657 0 1191-535 1191-1191v-4761c0-657-534-1191-1191-1191zm-9602-2645c0-219 178-397 396-397h5283c325 0 640 135 864 371l1648 1739c210 222 326 513 326 819v113h-8517v-2645zm8517 11163c0 219-178 397-396 397h-7725c-218 0-396-178-396-397v-1375h8517v1375zm1482-2566c0 219-178 397-397 397h-10687c-219 0-397-178-397-397v-4761c0-219 178-397 397-397h10687c219 0 397 178 397 397v4761z" fill="#ffa500" stroke="#ffa500" stroke-width="512"/>
   </g>
   <g class="com.sun.star.drawing.CustomShape">
    <g>
     <rect class="BoundingBox" x="4400" y="11300" width="13202" height="7302" fill="none"/>
     <path d="m5616 11300h1c-214 0-424 56-609 163s-338 260-445 445-163 395-163 609v4867c0 214 56 424 163 609s260 338 445 445 395 163 609 163l10767-1v1c214 0 424-56 609-163s338-260 445-445 163-395 163-609v-4868 1c0-214-56-424-163-609s-260-338-445-445-395-163-609-163h-10768z" fill="#05852d"/>
    </g>
   </g>
   <g class="com.sun.star.drawing.ClosedBezierShape">
    <g>
     <rect class="BoundingBox" x="6355" y="13070" width="2503" height="3811" fill="none"/>
     <path d="m6753 13071c-105 0-207 41-281 116-75 74-116 176-116 282l6 3013c0 219 178 397 397 397s397-178 397-397v-915c162-1 335-2 437-2 697 0 1264-559 1264-1248 0-688-567-1246-1264-1246h-840zm401 1702c-1-169-2-351-2-456 0-88-1-276-1-453h442c255 0 471 207 471 453 0 247-216 455-471 455-103 0-277 0-439 1z" fill="#fff"/>
    </g>
   </g>
   <g class="com.sun.star.drawing.ClosedBezierShape">
    <g>
     <rect class="BoundingBox" x="9742" y="13070" width="2806" height="3722" fill="none"/>
     <path d="m10139 13071c-105 0-206 41-280 116-75 75-117 176-116 281 0 0 5 2916 5 2926 1 106 43 206 118 281 74 73 175 115 279 115h2c25 0 616-3 851-7 897-15 1548-795 1548-1853 0-1112-634-1859-1578-1859h-829zm847 2919c-103 2-280 3-445 4-1-345-3-1772-4-2130h431c728 0 784 816 784 1066 0 521-237 1051-766 1060z" fill="#fff"/>
    </g>
   </g>
   <g class="com.sun.star.drawing.ClosedBezierShape">
    <g>
     <rect class="BoundingBox" x="13551" y="13039" width="2009" height="3789" fill="none"/>
     <path d="m15161 13834c220 0 397-178 397-397s-177-397-397-397h-1213c-219 0-397 178-397 397v2992c0 220 178 397 397 397s397-177 397-397v-1128h720c219 0 397-178 397-397s-178-397-397-397h-720v-673h816z" fill="#fff"/>
    </g>
   </g>
  </g>
 </g>
</svg>
