<?xml version="1.0" encoding="UTF-8" standalone="no"?>
<svg
   xmlns:dc="http://purl.org/dc/elements/1.1/"
   xmlns:cc="http://creativecommons.org/ns#"
   xmlns:rdf="http://www.w3.org/1999/02/22-rdf-syntax-ns#"
   xmlns:svg="http://www.w3.org/2000/svg"
   xmlns="http://www.w3.org/2000/svg"
   xmlns:sodipodi="http://sodipodi.sourceforge.net/DTD/sodipodi-0.dtd"
   xmlns:inkscape="http://www.inkscape.org/namespaces/inkscape"
   version="1.2"
   width="118.95mm"
   height="108.51mm"
   viewBox="4757 16081 11895 10851"
   preserveAspectRatio="xMidYMid"
   fill-rule="evenodd"
   stroke-width="28.222"
   stroke-linejoin="round"
   xml:space="preserve"
   id="svg73"
   sodipodi:docname="geodomains.svg"
   inkscape:version="0.92.4 (5da689c313, 2019-01-14)"><metadata
   id="metadata77"><rdf:RDF><cc:Work
       rdf:about=""><dc:format>image/svg+xml</dc:format><dc:type
         rdf:resource="http://purl.org/dc/dcmitype/StillImage" /></cc:Work></rdf:RDF></metadata><sodipodi:namedview
   pagecolor="#ffffff"
   bordercolor="#666666"
   borderopacity="1"
   objecttolerance="10"
   gridtolerance="10"
   guidetolerance="10"
   inkscape:pageopacity="0"
   inkscape:pageshadow="2"
   inkscape:window-width="1366"
   inkscape:window-height="705"
   id="namedview75"
   showgrid="false"
   inkscape:zoom="0.8138038"
   inkscape:cx="341.65083"
   inkscape:cy="292.10265"
   inkscape:window-x="-8"
   inkscape:window-y="-8"
   inkscape:window-maximized="1"
   inkscape:current-layer="g69" />
 <defs
   class="EmbeddedBulletChars"
   id="defs32">
  <g
   id="bullet-char-template-57356"
   transform="scale(0.00048828125,-0.00048828125)">
   <path
   d="M 580,1141 L 1163,571 580,0 -4,571 580,1141 Z"
   id="path2" />
  </g>
  <g
   id="bullet-char-template-57354"
   transform="scale(0.00048828125,-0.00048828125)">
   <path
   d="M 8,1128 L 1137,1128 1137,0 8,0 8,1128 Z"
   id="path5" />
  </g>
  <g
   id="bullet-char-template-10146"
   transform="scale(0.00048828125,-0.00048828125)">
   <path
   d="M 174,0 L 602,739 174,1481 1456,739 174,0 Z M 1358,739 L 309,1346 659,739 1358,739 Z"
   id="path8" />
  </g>
  <g
   id="bullet-char-template-10132"
   transform="scale(0.00048828125,-0.00048828125)">
   <path
   d="M 2015,739 L 1276,0 717,0 1260,543 174,543 174,936 1260,936 717,1481 1274,1481 2015,739 Z"
   id="path11" />
  </g>
  <g
   id="bullet-char-template-10007"
   transform="scale(0.00048828125,-0.00048828125)">
   <path
   d="M 0,-2 C -7,14 -16,27 -25,37 L 356,567 C 262,823 215,952 215,954 215,979 228,992 255,992 264,992 276,990 289,987 310,991 331,999 354,1012 L 381,999 492,748 772,1049 836,1024 860,1049 C 881,1039 901,1025 922,1006 886,937 835,863 770,784 769,783 710,716 594,584 L 774,223 C 774,196 753,168 711,139 L 727,119 C 717,90 699,76 672,76 641,76 570,178 457,381 L 164,-76 C 142,-110 111,-127 72,-127 30,-127 9,-110 8,-76 1,-67 -2,-52 -2,-32 -2,-23 -1,-13 0,-2 Z"
   id="path14" />
  </g>
  <g
   id="bullet-char-template-10004"
   transform="scale(0.00048828125,-0.00048828125)">
   <path
   d="M 285,-33 C 182,-33 111,30 74,156 52,228 41,333 41,471 41,549 55,616 82,672 116,743 169,778 240,778 293,778 328,747 346,684 L 369,508 C 377,444 397,411 428,410 L 1163,1116 C 1174,1127 1196,1133 1229,1133 1271,1133 1292,1118 1292,1087 L 1292,965 C 1292,929 1282,901 1262,881 L 442,47 C 390,-6 338,-33 285,-33 Z"
   id="path17" />
  </g>
  <g
   id="bullet-char-template-9679"
   transform="scale(0.00048828125,-0.00048828125)">
   <path
   d="M 813,0 C 632,0 489,54 383,161 276,268 223,411 223,592 223,773 276,916 383,1023 489,1130 632,1184 813,1184 992,1184 1136,1130 1245,1023 1353,916 1407,772 1407,592 1407,412 1353,268 1245,161 1136,54 992,0 813,0 Z"
   id="path20" />
  </g>
  <g
   id="bullet-char-template-8226"
   transform="scale(0.00048828125,-0.00048828125)">
   <path
   d="M 346,457 C 273,457 209,483 155,535 101,586 74,649 74,723 74,796 101,859 155,911 209,963 273,989 346,989 419,989 480,963 531,910 582,859 608,796 608,723 608,648 583,586 532,535 482,483 420,457 346,457 Z"
   id="path23" />
  </g>
  <g
   id="bullet-char-template-8211"
   transform="scale(0.00048828125,-0.00048828125)">
   <path
   d="M -4,459 L 1135,459 1135,606 -4,606 -4,459 Z"
   id="path26" />
  </g>
  <g
   id="bullet-char-template-61548"
   transform="scale(0.00048828125,-0.00048828125)">
   <path
   d="M 173,740 C 173,903 231,1043 346,1159 462,1274 601,1332 765,1332 928,1332 1067,1274 1183,1159 1299,1043 1357,903 1357,740 1357,577 1299,437 1183,322 1067,206 928,148 765,148 601,148 462,206 346,322 231,437 173,577 173,740 Z"
   id="path29" />
  </g>
 </defs>
 <g
   class="Page"
   id="g71">
  <g
   class="Group"
   id="g69">
   <g
   class="com.sun.star.drawing.ClosedBezierShape"
   id="g39">
    <g
   id="id3">
     <rect
   class="BoundingBox"
   stroke="none"
   fill="none"
   x="4757"
   y="22687"
   width="11895"
   height="4245"
   id="rect34" />
     <path
   fill="rgb(255,165,0)"
   stroke="none"
   d="M 12257,22687 C 11784,23413 11266,24109 10704,24771 10143,24109 9625,23413 9152,22687 6621,22935 4757,23774 4757,24771 4757,25965 7420,26931 10704,26931 13988,26931 16651,25965 16651,24771 16651,23774 14788,22935 12257,22687 Z"
   id="path36"
   style="fill:#008000" />
    </g>
   </g>
   <g
   class="com.sun.star.drawing.ClosedBezierShape"
   id="g46">
    <g
   id="id4">
     <path
   style="fill:none;stroke:none"
   d="m 7113,16081 c 2395.3333,0 4790.667,0 7186,0 0,3004 0,6008 0,9012 -2395.333,0 -4790.6667,0 -7186,0 0,-3004 0,-6008 0,-9012 z"
   id="rect41"
   inkscape:connector-curvature="0" />
     <path
   style="fill:#ffa500;fill-opacity:1;stroke:none;stroke-width:1.06665826"
   d="M 226.71289 0.01171875 C 202.76758 -0.25314775 178.70133 4.5174111 156.92578 14.550781 C 120.02252 30.782529 88.780276 66.668374 89.044922 108.54883 C 89.769057 159.26521 116.16202 205.13663 143.93555 245.94336 C 167.83529 279.93103 195.05396 311.58163 224.80664 340.57227 C 271.88984 293.83633 315.20205 241.62197 343.14062 181.00391 C 358.09845 146.9035 368.90512 105.7404 351.9082 70.335938 C 330.37956 25.447471 279.48942 1.8228661 231.5 0.1328125 C 229.90544 0.070462106 228.30924 0.029376517 226.71289 0.01171875 z M 221.60352 52.724609 C 222.65595 52.695228 223.70995 52.695413 224.76758 52.724609 C 258.93402 52.076874 290.05483 80.82957 289.54883 115.54102 C 290.32953 149.8634 258.63963 179.34864 224.76758 178.39453 C 190.90896 179.33015 159.24551 149.84854 160.02539 115.54102 C 159.28962 82.319511 188.97799 53.635422 221.60352 52.724609 z "
   transform="matrix(26.458333,0,0,26.458333,4757,16081)"
   id="path43" />
    </g>
   </g>
   
   
   <g
   class="com.sun.star.drawing.CustomShape"
   id="g67">
    <g
   id="id7">
     <path
   style="fill:none;stroke:none"
   d="m 8991,17475 c 1142.667,0 2285.333,0 3428,0 0,1109 0,2218 0,3327 -1142.667,0 -2285.333,0 -3428,0 0,-1109 0,-2218 0,-3327 z"
   id="rect62"
   inkscape:connector-curvature="0" />
     
    </g>
   </g>
  </g>
 </g>
</svg>