<svg width="512pt" height="512pt" version="1.1" viewBox="-106 0 512 512" xmlns="http://www.w3.org/2000/svg">
 <path d="m170 280c-18.6 0-33.8-15.1-33.8-33.8s15.1-33.8 33.8-33.8l45.2-10 37.2 10c18.6 0 33.8 15.1 33.8 33.8s-15.1 33.8-33.8 33.8z" fill="#0051fc"/>
 <path d="m200 213c-18.6 0-33.8-15.6-33.8-34.2s15.1-33.8 33.8-33.8h172c18.6 0 33.8 15.1 33.8 33.8 0 18.6-15.1 34.2-33.8 34.2z" fill="#0051fc"/>
 <path d="m183 276c0-8.4 6.76-10.8-1.64-10.8-16.5 0-30-13.5-30-30v-45h-60v15c0 33-27 60-60 60h-122c-8.29 0-15 6.71-15 15v75h70.7l65.1 43.7 139 16.3s-10.1-20.4 14.2-139z" fill="#05852d"/>
 <path d="m168 415s-111 0.284-146-14.3-58-45.7-58-45.7h-70.7v-75h302c-24.3 119-27.6 135-27.6 135z" fill="#05852d"/>
 <path d="m136 381c0-18.6 15.1-33.2 33.8-33.2h22.5c18.6 0 33.8 14.6 33.8 33.2s-15.1 33.8-33.8 33.8h-22.5c-18.6 0-33.8-15.1-33.8-33.8z" fill="#0051fc"/>
 <path d="m140 348c-18.6 0-33.8-15.6-33.8-34.2s15.1-33.8 33.8-33.8h82.5c18.6 0 33.8 15.1 33.8 33.8 0 18.6-15.1 34.2-33.8 34.2z" fill="#0051fc"/>
 <path d="m136 235c0 24.9 25.6 45.1 45 45 47 1.16 47.3-129 15-165-40.4-40.4-116-19.7-168 1.02-26.7 10.6-63.1 59-63.1 59h-70.7v105h137c41.4 0 75-33.6 75-75h30z" fill="#ffa500"/>
</svg>
