<?xml version="1.0" encoding="UTF-8"?>
<!DOCTYPE svg PUBLIC "-//W3C//DTD SVG 1.1//EN" "http://www.w3.org/Graphics/SVG/1.1/DTD/svg11.dtd">
<svg version="1.2" width="153.51mm" height="89.38mm" viewBox="0 0 15351 8938" preserveAspectRatio="xMidYMid" fill-rule="evenodd" stroke-width="28.222" stroke-linejoin="round" xmlns="http://www.w3.org/2000/svg" xmlns:ooo="http://xml.openoffice.org/svg/export" xmlns:xlink="http://www.w3.org/1999/xlink" xmlns:presentation="http://sun.com/xmlns/staroffice/presentation" xmlns:smil="http://www.w3.org/2001/SMIL20/" xmlns:anim="urn:oasis:names:tc:opendocument:xmlns:animation:1.0" xml:space="preserve">
 <defs class="ClipPathGroup">
  <clipPath id="presentation_clip_path" clipPathUnits="userSpaceOnUse">
   <rect x="0" y="0" width="15351" height="8938"/>
  </clipPath>
  <clipPath id="presentation_clip_path_shrink" clipPathUnits="userSpaceOnUse">
   <rect x="15" y="8" width="15321" height="8921"/>
  </clipPath>
 </defs>
 <defs class="TextShapeIndex">
  <g ooo:slide="id1" ooo:id-list="id3"/>
 </defs>
 <defs class="EmbeddedBulletChars">
  <g id="bullet-char-template-57356" transform="scale(0.00048828125,-0.00048828125)">
   <path d="M 580,1141 L 1163,571 580,0 -4,571 580,1141 Z"/>
  </g>
  <g id="bullet-char-template-57354" transform="scale(0.00048828125,-0.00048828125)">
   <path d="M 8,1128 L 1137,1128 1137,0 8,0 8,1128 Z"/>
  </g>
  <g id="bullet-char-template-10146" transform="scale(0.00048828125,-0.00048828125)">
   <path d="M 174,0 L 602,739 174,1481 1456,739 174,0 Z M 1358,739 L 309,1346 659,739 1358,739 Z"/>
  </g>
  <g id="bullet-char-template-10132" transform="scale(0.00048828125,-0.00048828125)">
   <path d="M 2015,739 L 1276,0 717,0 1260,543 174,543 174,936 1260,936 717,1481 1274,1481 2015,739 Z"/>
  </g>
  <g id="bullet-char-template-10007" transform="scale(0.00048828125,-0.00048828125)">
   <path d="M 0,-2 C -7,14 -16,27 -25,37 L 356,567 C 262,823 215,952 215,954 215,979 228,992 255,992 264,992 276,990 289,987 310,991 331,999 354,1012 L 381,999 492,748 772,1049 836,1024 860,1049 C 881,1039 901,1025 922,1006 886,937 835,863 770,784 769,783 710,716 594,584 L 774,223 C 774,196 753,168 711,139 L 727,119 C 717,90 699,76 672,76 641,76 570,178 457,381 L 164,-76 C 142,-110 111,-127 72,-127 30,-127 9,-110 8,-76 1,-67 -2,-52 -2,-32 -2,-23 -1,-13 0,-2 Z"/>
  </g>
  <g id="bullet-char-template-10004" transform="scale(0.00048828125,-0.00048828125)">
   <path d="M 285,-33 C 182,-33 111,30 74,156 52,228 41,333 41,471 41,549 55,616 82,672 116,743 169,778 240,778 293,778 328,747 346,684 L 369,508 C 377,444 397,411 428,410 L 1163,1116 C 1174,1127 1196,1133 1229,1133 1271,1133 1292,1118 1292,1087 L 1292,965 C 1292,929 1282,901 1262,881 L 442,47 C 390,-6 338,-33 285,-33 Z"/>
  </g>
  <g id="bullet-char-template-9679" transform="scale(0.00048828125,-0.00048828125)">
   <path d="M 813,0 C 632,0 489,54 383,161 276,268 223,411 223,592 223,773 276,916 383,1023 489,1130 632,1184 813,1184 992,1184 1136,1130 1245,1023 1353,916 1407,772 1407,592 1407,412 1353,268 1245,161 1136,54 992,0 813,0 Z"/>
  </g>
  <g id="bullet-char-template-8226" transform="scale(0.00048828125,-0.00048828125)">
   <path d="M 346,457 C 273,457 209,483 155,535 101,586 74,649 74,723 74,796 101,859 155,911 209,963 273,989 346,989 419,989 480,963 531,910 582,859 608,796 608,723 608,648 583,586 532,535 482,483 420,457 346,457 Z"/>
  </g>
  <g id="bullet-char-template-8211" transform="scale(0.00048828125,-0.00048828125)">
   <path d="M -4,459 L 1135,459 1135,606 -4,606 -4,459 Z"/>
  </g>
  <g id="bullet-char-template-61548" transform="scale(0.00048828125,-0.00048828125)">
   <path d="M 173,740 C 173,903 231,1043 346,1159 462,1274 601,1332 765,1332 928,1332 1067,1274 1183,1159 1299,1043 1357,903 1357,740 1357,577 1299,437 1183,322 1067,206 928,148 765,148 601,148 462,206 346,322 231,437 173,577 173,740 Z"/>
  </g>
 </defs>
 <g>
  <g id="id2" class="Master_Slide">
   <g id="bg-id2" class="Background"/>
   <g id="bo-id2" class="BackgroundObjects"/>
  </g>
 </g>
 <g class="SlideGroup">
  <g>
   <g id="container-id1">
    <g id="id1" class="Slide" clip-path="url(#presentation_clip_path)">
     <g class="Page">
      <g class="com.sun.star.drawing.ClosedBezierShape">
       <g id="id3">
        <rect class="BoundingBox" stroke="none" fill="none" x="12" y="12" width="15214" height="8558"/>
        <path fill="rgb(5,133,45)" stroke="none" d="M 14001,791 L 6397,791 C 5827,90 5229,13 4387,13 L 4359,13 C 3218,13 2349,765 2079,1050 L 1100,1050 C 503,1050 13,1517 13,2088 L 13,6780 C 13,7349 503,7790 1100,7790 L 2105,7790 C 3164,8543 3545,8568 5446,8568 6451,8568 7592,8309 7916,8257 8540,8413 9193,8102 9410,7505 9492,7273 9492,6988 9410,6754 9900,6754 10361,6443 10524,5976 L 10551,5950 C 10660,5665 10632,5328 10497,5069 10474,5024 10446,4980 10416,4939 10987,4834 11420,4344 11420,3773 11420,3541 11339,3307 11203,3126 L 14001,3126 C 14680,3126 15224,2607 15224,1958 15224,1309 14680,791 14001,791 Z M 2349,7323 C 2295,7298 2241,7273 2186,7273 L 1100,7273 C 801,7273 557,7039 557,6780 L 557,2088 C 557,1803 801,1569 1100,1569 L 2186,1569 C 2268,1569 2349,1543 2404,1465 2404,1465 3218,558 4332,532 L 4359,532 C 5201,532 5582,583 6017,1206 L 6044,1232 6256,1472 C 6911,2291 7622,3192 7889,3566 8161,3981 8241,4318 8079,4524 7964,4655 7736,4712 7522,4680 7490,4674 7459,4665 7430,4654 7103,4524 6532,4162 5908,3669 5880,3649 5848,3634 5817,3624 5077,3031 4388,2357 4251,2036 4196,1907 4034,1854 3898,1907 3761,1958 3708,2113 3761,2243 3932,2623 4593,3293 5323,3898 5262,3981 5215,4072 5175,4162 L 5147,4214 C 5043,4499 5064,4798 5185,5055 4767,5133 4397,5418 4251,5820 4034,6416 4387,7091 5012,7298 L 6872,7912 C 6440,7985 5923,8049 5446,8049 3545,8049 3328,8024 2349,7323 Z M 5636,5586 L 7755,6287 8477,6528 C 8605,6575 8709,6649 8783,6740 8804,6769 8824,6800 8839,6831 8921,6988 8921,7169 8867,7323 8759,7660 8378,7842 7999,7713 7971,7713 7944,7706 7917,7703 L 5201,6806 C 4822,6676 4658,6313 4767,5976 4822,5820 4957,5690 5121,5613 5201,5561 5311,5535 5420,5535 5500,5535 5582,5561 5636,5586 Z M 9601,4990 C 9764,5042 9900,5146 9980,5301 10062,5431 10062,5613 10008,5769 L 9980,5820 C 9940,5937 9869,6038 9768,6115 9605,6216 9400,6244 9193,6184 L 8650,6001 C 8598,5985 8549,5982 8506,5990 L 7916,5794 6044,5172 C 5691,5042 5528,4705 5636,4370 L 5664,4318 C 5664,4292 5691,4241 5718,4214 5741,4231 5762,4247 5784,4263 6271,4630 6750,4939 7105,5088 7112,5091 7120,5094 7128,5098 7147,5105 7165,5114 7185,5120 7317,5173 7458,5197 7601,5197 7616,5197 7632,5198 7645,5198 7833,5198 8021,5154 8183,5073 8397,4982 8590,4844 8731,4679 L 9601,4990 Z M 10198,4396 L 10090,4396 9465,4318 C 9422,4318 9379,4325 9340,4340 L 8731,4137 C 8715,4130 8699,4126 8683,4123 8656,3892 8555,3612 8324,3281 8293,3233 8257,3178 8214,3118 L 10252,3073 C 10415,3073 10578,3151 10687,3254 10796,3384 10877,3541 10877,3722 10877,4084 10578,4396 10198,4396 Z M 14001,2607 L 10252,2607 C 10225,2607 10225,2607 10198,2607 L 7889,2607 C 7872,2607 7855,2608 7839,2610 7541,2216 7164,1744 6814,1309 L 14001,1309 C 14382,1309 14680,1594 14680,1958 14680,2321 14382,2607 14001,2607 Z"/>
       </g>
      </g>
     </g>
    </g>
   </g>
  </g>
 </g>
</svg>