<svg width="167" height="123" version="1.1" viewBox="0 0 167 123" xmlns="http://www.w3.org/2000/svg">
 <path d="m35.1 12.8c2.93-2.93 2.93-7.68-1e-3 -10.6-2.93-2.93-7.68-2.93-10.6 1e-3 -32.6 32.6-32.6 85.7-2e-3 118 1.46 1.46 3.38 2.2 5.3 2.2 1.92 0 3.84-0.732 5.3-2.2 2.93-2.93 2.93-7.68 1e-3 -10.6-26.8-26.8-26.8-70.4 1e-3 -97.1z"/>
 <path d="m143 2.2c-2.93-2.93-7.68-2.93-10.6 0-2.93 2.93-2.93 7.68 0 10.6 13 13 20.1 30.2 20.1 48.6 0 18.3-7.15 35.6-20.1 48.6-2.93 2.93-2.93 7.68-1e-3 10.6 1.46 1.46 3.38 2.2 5.3 2.2 1.92 0 3.84-0.732 5.3-2.2 15.8-15.8 24.5-36.8 24.5-59.2 0-22.4-8.7-43.4-24.5-59.2z"/>
 <path d="m44.7 100c1.46 1.46 3.38 2.2 5.3 2.2 1.92 0 3.84-0.732 5.3-2.2 2.93-2.93 2.93-7.68 1e-3 -10.6-15.6-15.6-15.6-41.1 0-56.7 2.93-2.93 2.93-7.68-1e-3 -10.6-2.93-2.93-7.68-2.93-10.6 1e-3 -21.5 21.5-21.5 56.5-1e-3 77.9z"/>
 <path d="m112 100c1.46 1.46 3.38 2.2 5.3 2.2s3.84-0.732 5.3-2.2c10.4-10.4 16.1-24.3 16.1-39 0-14.7-5.73-28.6-16.1-39-2.93-2.93-7.68-2.93-10.6 1e-3 -2.93 2.93-2.93 7.68 1e-3 10.6 7.58 7.58 11.8 17.7 11.8 28.4s-4.17 20.8-11.8 28.4c-2.93 2.93-2.93 7.68 1e-3 10.6z"/>
 <path d="m83.6 80.4c10.5 0 19-8.53 19-19s-8.52-19-19-19c-10.5 0-19 8.53-19 19 1e-3 10.5 8.53 19 19 19z"/>
</svg>
