<svg width="103" height="123" version="1.1" viewBox="0 0 103 123" xmlns="http://www.w3.org/2000/svg">
 <g>
  <path d="m75 2.2c-3.33-2.93-8.74-2.93-12.1 0-3.33 2.93-3.33 7.68 0 10.6 14.8 13 22.9 30.2 22.9 48.6 0 18.3-8.14 35.6-22.9 48.6-3.33 2.93-3.33 7.68-1e-3 10.6 1.66 1.46 3.85 2.2 6.03 2.2 2.19 0 4.37-0.732 6.03-2.2 18-15.8 27.9-36.8 27.9-59.2s-9.9-43.4-27.9-59.2z" fill="#05852d" stroke-width="1.07"/>
  <path d="m39.1 100c1.7 1.46 3.93 2.2 6.15 2.2 2.23 0 4.46-0.732 6.15-2.2 12.1-10.4 18.7-24.3 18.7-39s-6.65-28.6-18.7-39c-3.4-2.93-8.92-2.93-12.3 1e-3 -3.4 2.93-3.4 7.68 0.0012 10.6 8.8 7.58 13.7 17.7 13.7 28.4s-4.84 20.8-13.7 28.4c-3.4 2.93-3.4 7.68 0.0012 10.6z" fill="#ffa500" stroke-width="1.08"/>
  <path d="m19 80.4c10.5 0 19-8.53 19-19s-8.52-19-19-19c-10.5 0-19 8.53-19 19 1e-3 10.5 8.53 19 19 19z" fill="#0051fc"/>
 </g>
</svg>
