<svg width="171mm" height="173mm" fill-rule="evenodd" stroke-linejoin="round" stroke-width="28.2" preserveAspectRatio="xMidYMid" version="1.2" viewBox="2100 5598 17058 17285" xmlns="http://www.w3.org/2000/svg">
 <g class="Page" transform="translate(0 232)">
  <g class="Group">
   <g class="com.sun.star.drawing.ClosedBezierShape">
    <rect class="BoundingBox" x="2100" y="5598" width="17058" height="17055" fill="none" stroke-width="52.8"/>
    <path d="m10552 5420c-4611 0-8350 3739-8350 8351 0 4610 3739 8349 8350 8349h3c4611 0 8350-3739 8350-8349 0-4612-3739-8351-8350-8351zm7169 5289h-3694c-215-773-515-1520-895-2227h3141c606 654 1096 1407 1448 2227zm-5573-2783h-3189c451-685 986-1310 1594-1858 608 548 1144 1173 1595 1858zm-3856 0h-2883c1226-1085 2763-1753 4391-1911-576 575-1082 1216-1508 1911zm7410 0h-2886c-427-695-933-1336-1510-1912 1631 158 3169 826 4396 1912zm-3208 556c406 701 729 1449 961 2227h-5799c230-778 552-1526 958-2227zm-7656 0h3138c-379 707-679 1454-893 2227h-3693c352-820 841-1573 1448-2227zm13095 2783c554 1625 554 3386 0 5010h-14755c-555-1624-555-3385 0-5010zm-8974 8350h3189c-451 684-987 1308-1595 1858-608-550-1143-1174-1594-1858zm3857 0h2886c-1227 1085-2767 1754-4398 1911 577-575 1085-1216 1512-1911zm-3016 1911c-1628-158-3165-827-4391-1911h2883c426 694 932 1335 1508 1911zm-1186-2468c-406-702-728-1449-958-2227h5799c-232 778-555 1525-961 2227zm-5224-2227h3693c214 774 514 1520 893 2227h-3138c-607-654-1096-1407-1448-2227zm9742 2227c380-707 680-1453 895-2227h3694c-352 820-842 1573-1448 2227z" fill="#ffa500" stroke="#ffa500" stroke-width="111"/>
   </g>
   <g class="com.sun.star.drawing.ClosedBezierShape" transform="matrix(1.19,0,0,1.19,-619,-2790)">
    <rect class="BoundingBox" x="3485" y="12189" width="3916" height="3450" fill="none"/>
    <path d="m4339 15415c34 119 142 203 266 205h4c122 0 231-81 266-199l568-1894 569 1894c35 118 144 199 267 199h3c124-2 233-86 265-205l835-3062-537-146-579 2123-557-1852c-35-117-143-198-267-198-123 0-231 81-266 198l-557 1852-579-2123-537 146z" fill="#05852d"/>
    <path d="m4339 15415c34 119 142 203 266 205h4c122 0 231-81 266-199l568-1894 569 1894c35 118 144 199 267 199h3c124-2 233-86 265-205l835-3062-537-146-579 2123-557-1852c-35-117-143-198-267-198-123 0-231 81-266 198l-557 1852-579-2123-537 146z" fill="none"/>
   </g>
   <g class="com.sun.star.drawing.ClosedBezierShape" transform="matrix(1.19,0,0,1.19,4303,-2706)">
    <rect class="BoundingBox" x="3485" y="12189" width="3916" height="3450" fill="none"/>
    <path d="m4339 15415c34 119 142 203 266 205h4c122 0 231-81 266-199l568-1894 569 1894c35 118 144 199 267 199h3c124-2 233-86 265-205l835-3062-537-146-579 2123-557-1852c-35-117-143-198-267-198-123 0-231 81-266 198l-557 1852-579-2123-537 146z" fill="#05852d"/>
    <path d="m4339 15415c34 119 142 203 266 205h4c122 0 231-81 266-199l568-1894 569 1894c35 118 144 199 267 199h3c124-2 233-86 265-205l835-3062-537-146-579 2123-557-1852c-35-117-143-198-267-198-123 0-231 81-266 198l-557 1852-579-2123-537 146z" fill="none"/>
   </g>
   <g class="com.sun.star.drawing.ClosedBezierShape" transform="matrix(1.19,0,0,1.19,9172,-2653)">
    <rect class="BoundingBox" x="3485" y="12189" width="3916" height="3450" fill="none"/>
    <path d="m4339 15415c34 119 142 203 266 205h4c122 0 231-81 266-199l568-1894 569 1894c35 118 144 199 267 199h3c124-2 233-86 265-205l835-3062-537-146-579 2123-557-1852c-35-117-143-198-267-198-123 0-231 81-266 198l-557 1852-579-2123-537 146z" fill="#05852d"/>
    <path d="m4339 15415c34 119 142 203 266 205h4c122 0 231-81 266-199l568-1894 569 1894c35 118 144 199 267 199h3c124-2 233-86 265-205l835-3062-537-146-579 2123-557-1852c-35-117-143-198-267-198-123 0-231 81-266 198l-557 1852-579-2123-537 146z" fill="none"/>
   </g>
  </g>
 </g>
</svg>
